M48
; DRILL file {KiCad 7.0.7} date Thu Feb  8 13:13:33 2024
; FORMAT={-:-/ absolute / metric / decimal}
; #@! TF.CreationDate,2024-02-08T13:13:33-05:00
; #@! TF.GenerationSoftware,Kicad,Pcbnew,7.0.7
; #@! TF.FileFunction,Plated,1,4,PTH
FMAT,2
METRIC
; #@! TA.AperFunction,Plated,PTH,ViaDrill
T1C0.200
; #@! TA.AperFunction,Plated,PTH,ViaDrill
T2C0.400
; #@! TA.AperFunction,Plated,PTH,ComponentDrill
T3C0.500
; #@! TA.AperFunction,Plated,PTH,ComponentDrill
T4C0.650
; #@! TA.AperFunction,Plated,PTH,ComponentDrill
T5C1.000
; #@! TA.AperFunction,Plated,PTH,ComponentDrill
T6C1.300
; #@! TA.AperFunction,Plated,PTH,ComponentDrill
T7C2.400
; #@! TA.AperFunction,Plated,PTH,ComponentDrill
T8C2.700
; #@! TA.AperFunction,Plated,PTH,ComponentDrill
T9C3.200
%
G90
G05
T1
X99.568Y-118.618
X100.076Y-108.966
X100.33Y-119.761
X101.854Y-105.41
X103.429Y-112.573
X105.283Y-112.903
X105.918Y-113.284
X107.188Y-118.618
X107.442Y-107.315
X107.442Y-110.363
X108.331Y-116.459
X112.014Y-122.301
X114.554Y-100.203
X114.808Y-113.665
X115.443Y-116.078
X116.078Y-113.538
X117.094Y-114.681
X117.348Y-115.57
X117.602Y-104.013
X117.729Y-112.395
X117.983Y-130.81
X118.618Y-105.791
X118.618Y-115.824
X118.745Y-112.268
X118.745Y-128.905
X119.38Y-116.586
X119.507Y-105.664
X120.015Y-122.809
X120.269Y-106.172
X121.031Y-122.809
X121.539Y-109.601
X121.793Y-107.823
X122.047Y-109.093
X122.047Y-122.809
X122.174Y-117.983
X122.555Y-108.585
X122.809Y-122.809
X123.571Y-108.712
X124.333Y-108.712
X124.333Y-114.046
X124.714Y-108.077
X125.476Y-116.078
X126.238Y-116.078
X126.365Y-127.635
X128.016Y-114.681
X128.524Y-122.936
X129.54Y-122.936
X130.556Y-122.936
X130.937Y-117.602
X131.318Y-110.236
X131.445Y-110.998
X131.699Y-117.602
X132.207Y-123.063
X132.842Y-114.681
X132.969Y-112.268
X132.969Y-123.063
X134.493Y-114.808
X134.493Y-116.078
X136.017Y-92.456
X136.144Y-102.489
X136.144Y-103.505
X136.652Y-102.997
X136.906Y-100.203
X137.16Y-102.489
X137.16Y-103.505
X137.414Y-100.711
X137.668Y-102.997
X137.922Y-101.219
X138.176Y-102.489
X138.176Y-103.505
X139.065Y-97.917
X139.573Y-97.409
X140.081Y-97.917
X140.335Y-126.238
X140.335Y-127.254
X140.843Y-126.746
X141.351Y-126.238
X141.351Y-127.254
X141.605Y-94.107
X142.24Y-93.726
X142.875Y-94.107
X149.86Y-133.604
T2
X147.193Y-94.996
X147.32Y-104.267
X147.32Y-105.41
X147.701Y-95.885
X148.209Y-94.996
X148.209Y-128.651
X148.336Y-133.35
X148.336Y-134.366
X149.098Y-128.27
X149.987Y-128.651
T3
X104.28Y-88.9
X104.28Y-139.7
X104.983Y-87.203
X104.983Y-90.597
X104.983Y-138.003
X104.983Y-141.397
X106.68Y-86.5
X106.68Y-91.3
X106.68Y-137.3
X106.68Y-142.1
X108.377Y-87.203
X108.377Y-90.597
X108.377Y-138.003
X108.377Y-141.397
X109.08Y-88.9
X109.08Y-139.7
X144.92Y-88.9
X144.92Y-139.7
X145.623Y-87.203
X145.623Y-90.597
X145.623Y-138.003
X145.623Y-141.397
X147.32Y-86.5
X147.32Y-91.3
X147.32Y-137.3
X147.32Y-142.1
X149.017Y-87.203
X149.017Y-90.597
X149.017Y-138.003
X149.017Y-141.397
X149.72Y-88.9
X149.72Y-139.7
T4
X137.668Y-89.154
X138.938Y-89.154
X140.208Y-89.154
X141.478Y-89.154
T5
X115.316Y-128.265
X115.316Y-130.805
X119.38Y-90.17
X119.38Y-138.43
X121.92Y-90.17
X121.92Y-138.43
X124.46Y-90.17
X124.46Y-138.43
X129.54Y-90.17
X129.54Y-138.43
X132.08Y-90.17
X132.08Y-138.43
X134.62Y-90.17
X134.62Y-138.43
T6
X107.315Y-95.25
X107.315Y-97.79
X107.315Y-100.33
X107.315Y-102.87
X107.315Y-125.73
X107.315Y-128.27
X107.315Y-130.81
X107.315Y-133.35
X143.764Y-110.49
X143.764Y-113.03
X143.764Y-115.57
X143.764Y-118.11
T7
X116.205Y-106.68
X116.205Y-121.92
X137.795Y-106.68
X137.795Y-121.92
T8
X114.554Y-87.035
X114.554Y-92.035
T9
X106.68Y-88.9
X106.68Y-139.7
X147.32Y-88.9
X147.32Y-139.7
T0
M30
