G04 #@! TF.GenerationSoftware,KiCad,Pcbnew,7.0.7*
G04 #@! TF.CreationDate,2024-02-08T13:12:57-05:00*
G04 #@! TF.ProjectId,UMRT_FC_R2,554d5254-5f46-4435-9f52-322e6b696361,rev?*
G04 #@! TF.SameCoordinates,Original*
G04 #@! TF.FileFunction,Paste,Bot*
G04 #@! TF.FilePolarity,Positive*
%FSLAX46Y46*%
G04 Gerber Fmt 4.6, Leading zero omitted, Abs format (unit mm)*
G04 Created by KiCad (PCBNEW 7.0.7) date 2024-02-08 13:12:57*
%MOMM*%
%LPD*%
G01*
G04 APERTURE LIST*
G04 Aperture macros list*
%AMRoundRect*
0 Rectangle with rounded corners*
0 $1 Rounding radius*
0 $2 $3 $4 $5 $6 $7 $8 $9 X,Y pos of 4 corners*
0 Add a 4 corners polygon primitive as box body*
4,1,4,$2,$3,$4,$5,$6,$7,$8,$9,$2,$3,0*
0 Add four circle primitives for the rounded corners*
1,1,$1+$1,$2,$3*
1,1,$1+$1,$4,$5*
1,1,$1+$1,$6,$7*
1,1,$1+$1,$8,$9*
0 Add four rect primitives between the rounded corners*
20,1,$1+$1,$2,$3,$4,$5,0*
20,1,$1+$1,$4,$5,$6,$7,0*
20,1,$1+$1,$6,$7,$8,$9,0*
20,1,$1+$1,$8,$9,$2,$3,0*%
G04 Aperture macros list end*
%ADD10RoundRect,0.200000X-0.275000X0.200000X-0.275000X-0.200000X0.275000X-0.200000X0.275000X0.200000X0*%
%ADD11R,4.200000X2.000000*%
%ADD12RoundRect,0.150000X-0.650000X-0.150000X0.650000X-0.150000X0.650000X0.150000X-0.650000X0.150000X0*%
%ADD13RoundRect,0.070000X0.630000X0.630000X-0.630000X0.630000X-0.630000X-0.630000X0.630000X-0.630000X0*%
%ADD14RoundRect,0.168000X2.262000X1.512000X-2.262000X1.512000X-2.262000X-1.512000X2.262000X-1.512000X0*%
%ADD15RoundRect,0.250000X0.250000X0.475000X-0.250000X0.475000X-0.250000X-0.475000X0.250000X-0.475000X0*%
%ADD16RoundRect,0.200000X-0.200000X-0.275000X0.200000X-0.275000X0.200000X0.275000X-0.200000X0.275000X0*%
%ADD17RoundRect,0.225000X0.225000X0.250000X-0.225000X0.250000X-0.225000X-0.250000X0.225000X-0.250000X0*%
%ADD18RoundRect,0.225000X-0.225000X-0.250000X0.225000X-0.250000X0.225000X0.250000X-0.225000X0.250000X0*%
%ADD19RoundRect,0.250000X-0.475000X0.250000X-0.475000X-0.250000X0.475000X-0.250000X0.475000X0.250000X0*%
%ADD20RoundRect,0.200000X0.200000X0.275000X-0.200000X0.275000X-0.200000X-0.275000X0.200000X-0.275000X0*%
%ADD21RoundRect,0.200000X0.275000X-0.200000X0.275000X0.200000X-0.275000X0.200000X-0.275000X-0.200000X0*%
%ADD22RoundRect,0.235000X-0.940000X-1.465000X0.940000X-1.465000X0.940000X1.465000X-0.940000X1.465000X0*%
%ADD23RoundRect,0.225000X0.250000X-0.225000X0.250000X0.225000X-0.250000X0.225000X-0.250000X-0.225000X0*%
%ADD24RoundRect,0.150000X-0.512500X-0.150000X0.512500X-0.150000X0.512500X0.150000X-0.512500X0.150000X0*%
%ADD25RoundRect,0.150000X0.150000X-0.650000X0.150000X0.650000X-0.150000X0.650000X-0.150000X-0.650000X0*%
%ADD26RoundRect,0.250000X-0.250000X-0.475000X0.250000X-0.475000X0.250000X0.475000X-0.250000X0.475000X0*%
%ADD27R,1.498600X0.812800*%
%ADD28R,1.905000X1.397000*%
%ADD29R,1.397000X1.803400*%
G04 APERTURE END LIST*
D10*
X149860000Y-114364000D03*
X149860000Y-116014000D03*
D11*
X134239000Y-110300000D03*
X134239000Y-118300000D03*
D12*
X120543000Y-128905000D03*
X120543000Y-127635000D03*
X120543000Y-126365000D03*
X120543000Y-125095000D03*
X127743000Y-125095000D03*
X127743000Y-126365000D03*
X127743000Y-127635000D03*
X127743000Y-128905000D03*
D10*
X151384000Y-114364000D03*
X151384000Y-116014000D03*
D13*
X121793000Y-102551000D03*
X121793000Y-100711000D03*
D14*
X117813000Y-101631000D03*
D15*
X127569000Y-91506000D03*
X125669000Y-91506000D03*
D13*
X121793000Y-97852000D03*
X121793000Y-96012000D03*
D14*
X117813000Y-96932000D03*
D16*
X101791000Y-106680000D03*
X103441000Y-106680000D03*
D17*
X128093000Y-130810000D03*
X126543000Y-130810000D03*
D18*
X126987000Y-117221000D03*
X128537000Y-117221000D03*
D10*
X102997000Y-127382000D03*
X102997000Y-129032000D03*
D19*
X126873000Y-98872000D03*
X126873000Y-100772000D03*
D16*
X120143000Y-130810000D03*
X121793000Y-130810000D03*
D15*
X125435000Y-102682000D03*
X123535000Y-102682000D03*
D20*
X134175000Y-108204000D03*
X132525000Y-108204000D03*
D17*
X125349000Y-117221000D03*
X123799000Y-117221000D03*
D21*
X120396000Y-114934000D03*
X120396000Y-113284000D03*
D10*
X104902000Y-96965000D03*
X104902000Y-98615000D03*
X104648000Y-127382000D03*
X104648000Y-129032000D03*
D20*
X125095750Y-100523000D03*
X123445750Y-100523000D03*
D22*
X129334000Y-97028000D03*
X135384000Y-97028000D03*
D23*
X120396000Y-117996000D03*
X120396000Y-116446000D03*
D24*
X124338500Y-97282000D03*
X124338500Y-96332000D03*
X124338500Y-95382000D03*
X126613500Y-95382000D03*
X126613500Y-96332000D03*
X126613500Y-97282000D03*
D25*
X118618000Y-117646000D03*
X117348000Y-117646000D03*
X116078000Y-117646000D03*
X114808000Y-117646000D03*
X114808000Y-110446000D03*
X116078000Y-110446000D03*
X117348000Y-110446000D03*
X118618000Y-110446000D03*
D17*
X102311000Y-124714000D03*
X100761000Y-124714000D03*
D16*
X123318000Y-130810000D03*
X124968000Y-130810000D03*
D26*
X122113000Y-93538000D03*
X124013000Y-93538000D03*
D15*
X127569000Y-93538000D03*
X125669000Y-93538000D03*
D16*
X123445750Y-98872000D03*
X125095750Y-98872000D03*
D10*
X103251000Y-96965000D03*
X103251000Y-98615000D03*
D27*
X101834127Y-113924972D03*
X102240527Y-115017172D03*
X101834127Y-116109372D03*
X101630927Y-117201572D03*
X101834127Y-118293772D03*
X101630927Y-119385972D03*
X101834127Y-120478172D03*
X101834127Y-121570372D03*
D28*
X98285300Y-109004100D03*
X99006617Y-122247742D03*
D29*
X112471200Y-114922300D03*
X112471200Y-120637300D03*
M02*
