G04 #@! TF.GenerationSoftware,KiCad,Pcbnew,7.0.7*
G04 #@! TF.CreationDate,2024-02-08T13:12:57-05:00*
G04 #@! TF.ProjectId,UMRT_FC_R2,554d5254-5f46-4435-9f52-322e6b696361,rev?*
G04 #@! TF.SameCoordinates,Original*
G04 #@! TF.FileFunction,Legend,Bot*
G04 #@! TF.FilePolarity,Positive*
%FSLAX46Y46*%
G04 Gerber Fmt 4.6, Leading zero omitted, Abs format (unit mm)*
G04 Created by KiCad (PCBNEW 7.0.7) date 2024-02-08 13:12:57*
%MOMM*%
%LPD*%
G01*
G04 APERTURE LIST*
G04 Aperture macros list*
%AMRoundRect*
0 Rectangle with rounded corners*
0 $1 Rounding radius*
0 $2 $3 $4 $5 $6 $7 $8 $9 X,Y pos of 4 corners*
0 Add a 4 corners polygon primitive as box body*
4,1,4,$2,$3,$4,$5,$6,$7,$8,$9,$2,$3,0*
0 Add four circle primitives for the rounded corners*
1,1,$1+$1,$2,$3*
1,1,$1+$1,$4,$5*
1,1,$1+$1,$6,$7*
1,1,$1+$1,$8,$9*
0 Add four rect primitives between the rounded corners*
20,1,$1+$1,$2,$3,$4,$5,0*
20,1,$1+$1,$4,$5,$6,$7,0*
20,1,$1+$1,$6,$7,$8,$9,0*
20,1,$1+$1,$8,$9,$2,$3,0*%
G04 Aperture macros list end*
%ADD10C,0.120000*%
%ADD11C,0.152400*%
%ADD12R,1.700000X1.700000*%
%ADD13O,1.700000X1.700000*%
%ADD14C,4.000000*%
%ADD15R,3.800000X3.800000*%
%ADD16C,3.800000*%
%ADD17C,0.800000*%
%ADD18C,6.400000*%
%ADD19R,1.000000X1.000000*%
%ADD20O,1.000000X1.000000*%
%ADD21C,2.000000*%
%ADD22RoundRect,0.200000X-0.275000X0.200000X-0.275000X-0.200000X0.275000X-0.200000X0.275000X0.200000X0*%
%ADD23R,4.200000X2.000000*%
%ADD24RoundRect,0.150000X-0.650000X-0.150000X0.650000X-0.150000X0.650000X0.150000X-0.650000X0.150000X0*%
%ADD25RoundRect,0.070000X0.630000X0.630000X-0.630000X0.630000X-0.630000X-0.630000X0.630000X-0.630000X0*%
%ADD26RoundRect,0.168000X2.262000X1.512000X-2.262000X1.512000X-2.262000X-1.512000X2.262000X-1.512000X0*%
%ADD27RoundRect,0.250000X0.250000X0.475000X-0.250000X0.475000X-0.250000X-0.475000X0.250000X-0.475000X0*%
%ADD28RoundRect,0.200000X-0.200000X-0.275000X0.200000X-0.275000X0.200000X0.275000X-0.200000X0.275000X0*%
%ADD29RoundRect,0.225000X0.225000X0.250000X-0.225000X0.250000X-0.225000X-0.250000X0.225000X-0.250000X0*%
%ADD30RoundRect,0.225000X-0.225000X-0.250000X0.225000X-0.250000X0.225000X0.250000X-0.225000X0.250000X0*%
%ADD31RoundRect,0.250000X-0.475000X0.250000X-0.475000X-0.250000X0.475000X-0.250000X0.475000X0.250000X0*%
%ADD32RoundRect,0.200000X0.200000X0.275000X-0.200000X0.275000X-0.200000X-0.275000X0.200000X-0.275000X0*%
%ADD33RoundRect,0.200000X0.275000X-0.200000X0.275000X0.200000X-0.275000X0.200000X-0.275000X-0.200000X0*%
%ADD34RoundRect,0.235000X-0.940000X-1.465000X0.940000X-1.465000X0.940000X1.465000X-0.940000X1.465000X0*%
%ADD35RoundRect,0.225000X0.250000X-0.225000X0.250000X0.225000X-0.250000X0.225000X-0.250000X-0.225000X0*%
%ADD36RoundRect,0.150000X-0.512500X-0.150000X0.512500X-0.150000X0.512500X0.150000X-0.512500X0.150000X0*%
%ADD37RoundRect,0.150000X0.150000X-0.650000X0.150000X0.650000X-0.150000X0.650000X-0.150000X-0.650000X0*%
%ADD38RoundRect,0.250000X-0.250000X-0.475000X0.250000X-0.475000X0.250000X0.475000X-0.250000X0.475000X0*%
%ADD39R,1.498600X0.812800*%
%ADD40R,1.905000X1.397000*%
%ADD41R,1.397000X1.803400*%
G04 APERTURE END LIST*
G36*
X109646955Y-133771370D02*
G01*
X109586472Y-133826814D01*
X109451391Y-133841935D01*
X109318327Y-133826814D01*
X109259859Y-133779435D01*
X109227601Y-133670564D01*
X109206432Y-133525403D01*
X109199376Y-133343952D01*
X109203408Y-133210887D01*
X109646955Y-133771370D01*
G37*
G36*
X109580423Y-132871170D02*
G01*
X109638891Y-132917541D01*
X109673165Y-133025404D01*
X109693326Y-133163508D01*
X109699375Y-133245918D01*
X109701391Y-133350000D01*
X109699375Y-133437701D01*
X109693326Y-133531451D01*
X109241714Y-132960888D01*
X109305222Y-132879235D01*
X109453407Y-132858065D01*
X109580423Y-132871170D01*
G37*
G36*
X112784718Y-134139649D02*
G01*
X112364692Y-134139649D01*
X111739693Y-134139649D01*
X110108648Y-134139649D01*
X109453407Y-134139649D01*
X108947360Y-134139649D01*
X107687282Y-134139649D01*
X107687282Y-133362097D01*
X108947360Y-133362097D01*
X108949628Y-133469959D01*
X108956433Y-133563709D01*
X108968781Y-133650907D01*
X108987683Y-133739112D01*
X109025989Y-133858568D01*
X109072360Y-133942741D01*
X109131332Y-133998436D01*
X109207440Y-134032458D01*
X109311271Y-134049847D01*
X109453407Y-134055644D01*
X109594032Y-134049847D01*
X109667405Y-134037499D01*
X110108648Y-134037499D01*
X110394938Y-134037499D01*
X110657034Y-133553629D01*
X110663082Y-133553629D01*
X110925179Y-134037499D01*
X111211468Y-134037499D01*
X110800179Y-133321774D01*
X111188914Y-132666534D01*
X111372758Y-132666534D01*
X111372758Y-132896372D01*
X111739693Y-132896372D01*
X111739693Y-134037499D01*
X111997757Y-134037499D01*
X111997757Y-132896372D01*
X112364692Y-132896372D01*
X112364692Y-132666534D01*
X111372758Y-132666534D01*
X111188914Y-132666534D01*
X111191307Y-132662501D01*
X110909050Y-132662501D01*
X110663082Y-133114113D01*
X110657034Y-133114113D01*
X110415099Y-132662501D01*
X110128809Y-132662501D01*
X110519938Y-133321774D01*
X110108648Y-134037499D01*
X109667405Y-134037499D01*
X109697359Y-134032458D01*
X109773215Y-133998184D01*
X109831431Y-133941733D01*
X109877046Y-133856299D01*
X109915100Y-133735080D01*
X109936381Y-133619489D01*
X109949150Y-133490457D01*
X109953406Y-133347984D01*
X109948702Y-133201703D01*
X109934589Y-133071999D01*
X109911068Y-132958872D01*
X109873518Y-132842693D01*
X109829415Y-132760283D01*
X109772459Y-132704840D01*
X109696351Y-132669558D01*
X109591764Y-132650657D01*
X109449375Y-132644356D01*
X109307238Y-132650657D01*
X109203408Y-132669558D01*
X109128055Y-132704588D01*
X109071352Y-132759275D01*
X109027249Y-132840928D01*
X108989699Y-132956856D01*
X108966177Y-133073567D01*
X108952064Y-133208647D01*
X108947360Y-133362097D01*
X107687282Y-133362097D01*
X107687282Y-132560351D01*
X108947360Y-132560351D01*
X112364692Y-132560351D01*
X112784718Y-132560351D01*
X112784718Y-134139649D01*
G37*
D10*
X150382500Y-114951742D02*
X150382500Y-115426258D01*
X149337500Y-114951742D02*
X149337500Y-115426258D01*
X136639000Y-109700000D02*
X138839000Y-109700000D01*
X131839000Y-109700000D02*
X131839000Y-109300000D01*
X129639000Y-109700000D02*
X131839000Y-109700000D01*
X129639000Y-109700000D02*
X129639000Y-118900000D01*
X138839000Y-118900000D02*
X138839000Y-109700000D01*
X136639000Y-118900000D02*
X138839000Y-118900000D01*
X129639000Y-118900000D02*
X131839000Y-118900000D01*
G36*
X145999594Y-115712137D02*
G01*
X145685079Y-115712137D01*
X145840320Y-115135525D01*
X145844353Y-115135525D01*
X145999594Y-115712137D01*
G37*
G36*
X147289914Y-116044797D02*
G01*
X147130640Y-116050846D01*
X147009169Y-116033709D01*
X146918947Y-115998427D01*
X146855187Y-115940211D01*
X146813101Y-115854274D01*
X146789663Y-115734566D01*
X146781851Y-115575040D01*
X146789411Y-115424083D01*
X146812093Y-115309920D01*
X146852667Y-115226755D01*
X146913907Y-115168791D01*
X147000348Y-115131241D01*
X147116527Y-115109315D01*
X147211285Y-115101755D01*
X147289914Y-115099235D01*
X147289914Y-116044797D01*
G37*
G36*
X149207921Y-116358641D02*
G01*
X148787895Y-116358641D01*
X148257654Y-116358641D01*
X147191124Y-116358641D01*
X145269757Y-116358641D01*
X144009679Y-116358641D01*
X144009679Y-116256491D01*
X145269757Y-116256491D01*
X145525805Y-116256491D01*
X145624595Y-115927862D01*
X146060078Y-115927862D01*
X146158868Y-116256491D01*
X146414916Y-116256491D01*
X146215696Y-115589153D01*
X146521771Y-115589153D01*
X146528491Y-115753243D01*
X146548652Y-115890676D01*
X146582254Y-116001451D01*
X146663403Y-116126703D01*
X146785883Y-116210120D01*
X146894530Y-116244842D01*
X147029610Y-116265675D01*
X147191124Y-116272620D01*
X147297083Y-116270827D01*
X147416034Y-116265451D01*
X147547978Y-116256491D01*
X147547978Y-115889556D01*
X147741526Y-115889556D01*
X147753119Y-116023628D01*
X147787897Y-116123426D01*
X147850145Y-116193991D01*
X147944147Y-116240362D01*
X148077463Y-116266067D01*
X148257654Y-116274636D01*
X148443390Y-116265059D01*
X148581242Y-116236329D01*
X148678268Y-116184414D01*
X148741524Y-116105281D01*
X148774790Y-115993386D01*
X148781847Y-115843185D01*
X148529831Y-115843185D01*
X148497573Y-115973225D01*
X148411888Y-116036733D01*
X148339559Y-116050342D01*
X148241525Y-116054878D01*
X148091324Y-116040765D01*
X148015719Y-115991370D01*
X147993542Y-115891572D01*
X148025800Y-115788750D01*
X148131646Y-115711129D01*
X148220608Y-115674586D01*
X148340315Y-115635524D01*
X148490265Y-115584869D01*
X148601404Y-115533710D01*
X148679780Y-115477510D01*
X148731444Y-115411734D01*
X148760173Y-115331593D01*
X148769750Y-115232299D01*
X148758409Y-115105283D01*
X148724387Y-115010525D01*
X148663399Y-114943237D01*
X148571162Y-114898630D01*
X148440870Y-114873681D01*
X148265719Y-114865364D01*
X148094096Y-114873933D01*
X147966324Y-114899638D01*
X147875347Y-114946009D01*
X147814107Y-115016574D01*
X147779833Y-115116876D01*
X147769752Y-115252460D01*
X148025800Y-115252460D01*
X148055034Y-115150646D01*
X148129630Y-115100243D01*
X148273783Y-115085122D01*
X148421968Y-115099235D01*
X148495557Y-115145606D01*
X148517734Y-115240364D01*
X148440114Y-115344194D01*
X148331999Y-115393841D01*
X148162896Y-115452057D01*
X148016475Y-115504980D01*
X147907857Y-115558911D01*
X147830992Y-115619143D01*
X147779833Y-115690967D01*
X147751103Y-115779425D01*
X147741526Y-115889556D01*
X147547978Y-115889556D01*
X147547978Y-114885526D01*
X147424995Y-114879477D01*
X147314108Y-114877461D01*
X147205237Y-114879981D01*
X147108463Y-114887542D01*
X146966774Y-114907703D01*
X146848159Y-114938617D01*
X146752617Y-114980283D01*
X146645006Y-115068741D01*
X146574190Y-115192985D01*
X146545068Y-115300175D01*
X146527595Y-115432231D01*
X146521771Y-115589153D01*
X146215696Y-115589153D01*
X146005643Y-114885526D01*
X145679030Y-114885526D01*
X145269757Y-116256491D01*
X144009679Y-116256491D01*
X144009679Y-114781359D01*
X145269757Y-114781359D01*
X148787895Y-114781359D01*
X149207921Y-114781359D01*
X149207921Y-116358641D01*
G37*
X121418000Y-124275000D02*
X121418000Y-124535000D01*
X121418000Y-129465000D02*
X119743000Y-129465000D01*
X121418000Y-129725000D02*
X121418000Y-129465000D01*
X124143000Y-124275000D02*
X121418000Y-124275000D01*
X124143000Y-124275000D02*
X126868000Y-124275000D01*
X124143000Y-129725000D02*
X121418000Y-129725000D01*
X124143000Y-129725000D02*
X126868000Y-129725000D01*
X126868000Y-124275000D02*
X126868000Y-124535000D01*
X126868000Y-129725000D02*
X126868000Y-129465000D01*
G36*
X145930557Y-94839779D02*
G01*
X146376073Y-94997953D01*
X146805378Y-95189671D01*
X147216767Y-95413467D01*
X147608535Y-95667873D01*
X147978975Y-95951421D01*
X148326383Y-96262644D01*
X148649053Y-96600074D01*
X148945279Y-96962244D01*
X149213356Y-97347686D01*
X149451578Y-97754933D01*
X149658239Y-98182516D01*
X149831635Y-98628970D01*
X149970059Y-99092825D01*
X149984268Y-99149031D01*
X150028314Y-99332367D01*
X150063454Y-99498132D01*
X150090624Y-99654546D01*
X150110758Y-99809826D01*
X150124791Y-99972193D01*
X150133657Y-100149865D01*
X150138291Y-100351061D01*
X150139629Y-100584000D01*
X150139627Y-100594008D01*
X150139624Y-100610543D01*
X150139241Y-100786726D01*
X150137996Y-100930449D01*
X150135543Y-101048383D01*
X150131540Y-101147199D01*
X150125640Y-101233568D01*
X150117500Y-101314162D01*
X150106775Y-101395652D01*
X150093121Y-101484709D01*
X150007573Y-101924743D01*
X149885449Y-102375137D01*
X149729857Y-102810284D01*
X149538930Y-103236088D01*
X149519418Y-103275262D01*
X149315512Y-103652186D01*
X149095722Y-103999702D01*
X148854181Y-104326454D01*
X148585022Y-104641084D01*
X148319070Y-104914845D01*
X147975486Y-105222187D01*
X147610117Y-105499705D01*
X147218729Y-105750564D01*
X147009368Y-105863460D01*
X146797089Y-105977929D01*
X146681205Y-106033791D01*
X146239450Y-106220530D01*
X145788929Y-106369481D01*
X145325632Y-106481837D01*
X144845552Y-106558791D01*
X144790294Y-106564628D01*
X144650704Y-106574506D01*
X144485007Y-106581387D01*
X144302520Y-106585266D01*
X144112561Y-106586139D01*
X143924446Y-106584001D01*
X143747494Y-106578847D01*
X143591020Y-106570673D01*
X143464342Y-106559474D01*
X143385712Y-106549764D01*
X142902395Y-106467178D01*
X142431379Y-106347322D01*
X141974504Y-106191351D01*
X141533607Y-106000423D01*
X141110527Y-105775694D01*
X140707103Y-105518320D01*
X140325174Y-105229458D01*
X139966579Y-104910265D01*
X139633156Y-104561898D01*
X139326743Y-104185512D01*
X139049181Y-103782265D01*
X139003018Y-103706572D01*
X138910851Y-103543670D01*
X138814286Y-103360103D01*
X138718604Y-103166693D01*
X138629084Y-102974261D01*
X138551008Y-102793628D01*
X138489655Y-102635615D01*
X138476237Y-102597590D01*
X138392190Y-102334436D01*
X138314828Y-102050284D01*
X138248331Y-101761564D01*
X138196879Y-101484709D01*
X138194859Y-101472045D01*
X138181620Y-101384395D01*
X138171263Y-101303414D01*
X138163444Y-101222431D01*
X138157820Y-101134776D01*
X138154045Y-101033776D01*
X138151775Y-100912760D01*
X138150665Y-100765059D01*
X138150515Y-100672211D01*
X138744617Y-100672211D01*
X138769841Y-101127852D01*
X138832641Y-101579617D01*
X138933015Y-102024194D01*
X139070964Y-102458274D01*
X139085446Y-102496778D01*
X139153101Y-102660153D01*
X139236559Y-102842309D01*
X139330199Y-103032125D01*
X139428398Y-103218480D01*
X139525534Y-103390253D01*
X139615985Y-103536324D01*
X139715327Y-103682175D01*
X139998284Y-104049976D01*
X140308954Y-104390479D01*
X140645357Y-104702219D01*
X141005513Y-104983729D01*
X141387444Y-105233544D01*
X141789169Y-105450199D01*
X142208709Y-105632228D01*
X142644083Y-105778166D01*
X142653824Y-105780965D01*
X142746410Y-105807158D01*
X142824420Y-105828507D01*
X142879906Y-105842880D01*
X142904920Y-105848145D01*
X142912196Y-105845725D01*
X143002768Y-105845725D01*
X143006070Y-105869377D01*
X143006938Y-105869877D01*
X143041003Y-105880403D01*
X143106587Y-105894137D01*
X143195899Y-105909856D01*
X143301148Y-105926335D01*
X143414542Y-105942350D01*
X143528290Y-105956679D01*
X143634598Y-105968097D01*
X143672899Y-105971539D01*
X143783593Y-105979656D01*
X143892199Y-105985413D01*
X143979870Y-105987739D01*
X144124985Y-105988255D01*
X144164857Y-105988255D01*
X144320059Y-105985534D01*
X144393670Y-105982879D01*
X144503568Y-105975738D01*
X144626546Y-105965135D01*
X144755981Y-105951897D01*
X144885249Y-105936851D01*
X145007727Y-105920825D01*
X145116791Y-105904645D01*
X145205819Y-105889139D01*
X145268187Y-105875135D01*
X145297271Y-105863460D01*
X145295200Y-105847717D01*
X145282458Y-105799396D01*
X145260369Y-105724779D01*
X145230798Y-105630125D01*
X145195607Y-105521695D01*
X145191541Y-105509338D01*
X145121496Y-105284578D01*
X145049203Y-105032282D01*
X144977615Y-104763898D01*
X144909690Y-104490870D01*
X144848383Y-104224646D01*
X144796649Y-103976671D01*
X144781803Y-103899046D01*
X144738860Y-103657187D01*
X144694729Y-103385329D01*
X144650387Y-103090808D01*
X144606812Y-102780962D01*
X144564980Y-102463127D01*
X144525870Y-102144639D01*
X144490457Y-101832834D01*
X144459719Y-101535050D01*
X144434633Y-101258623D01*
X144421635Y-101102592D01*
X144383745Y-101104409D01*
X144298330Y-101108505D01*
X144175024Y-101114417D01*
X144169940Y-103551336D01*
X144164857Y-105988255D01*
X144124985Y-105988255D01*
X144124985Y-103546332D01*
X144124985Y-101104409D01*
X143996914Y-101104409D01*
X143868843Y-101104409D01*
X143855751Y-101249524D01*
X143845701Y-101358567D01*
X143810831Y-101708212D01*
X143771514Y-102064900D01*
X143728645Y-102421912D01*
X143683120Y-102772530D01*
X143635835Y-103110034D01*
X143587683Y-103427704D01*
X143539562Y-103718823D01*
X143492365Y-103976671D01*
X143483172Y-104023284D01*
X143431075Y-104268536D01*
X143369866Y-104531104D01*
X143302482Y-104799597D01*
X143231863Y-105062625D01*
X143160944Y-105308794D01*
X143092664Y-105526714D01*
X143080708Y-105563203D01*
X143039909Y-105693343D01*
X143013988Y-105787282D01*
X143002768Y-105845725D01*
X142912196Y-105845725D01*
X142917262Y-105844040D01*
X142931804Y-105826984D01*
X142949478Y-105791892D01*
X142972461Y-105733713D01*
X143002933Y-105647397D01*
X143043073Y-105527892D01*
X143052134Y-105500303D01*
X143109264Y-105315822D01*
X143170167Y-105103387D01*
X143232319Y-104872847D01*
X143293198Y-104634054D01*
X143350280Y-104396858D01*
X143401042Y-104171111D01*
X143442961Y-103966663D01*
X143447991Y-103940331D01*
X143485794Y-103731327D01*
X143525008Y-103496811D01*
X143564765Y-103243272D01*
X143604200Y-102977198D01*
X143642443Y-102705077D01*
X143678628Y-102433395D01*
X143711887Y-102168642D01*
X143741353Y-101917305D01*
X143766158Y-101685872D01*
X143785436Y-101480830D01*
X143798318Y-101308668D01*
X143810943Y-101102338D01*
X143684012Y-101108378D01*
X143557082Y-101114417D01*
X143503651Y-101434669D01*
X143459014Y-101684877D01*
X143443203Y-101773506D01*
X143374748Y-102104013D01*
X143300416Y-102408897D01*
X143218236Y-102695576D01*
X143126234Y-102971469D01*
X143022438Y-103243993D01*
X142967571Y-103379329D01*
X142920620Y-103492645D01*
X142880680Y-103584308D01*
X142843780Y-103662286D01*
X142805944Y-103734545D01*
X142763202Y-103809054D01*
X142711579Y-103893778D01*
X142647103Y-103996687D01*
X142641180Y-104006042D01*
X142526616Y-104171119D01*
X142402482Y-104323384D01*
X142274669Y-104456662D01*
X142149071Y-104564782D01*
X142031578Y-104641571D01*
X141852831Y-104717068D01*
X141657624Y-104759411D01*
X141460233Y-104762920D01*
X141264435Y-104727549D01*
X141074010Y-104653253D01*
X140863600Y-104529548D01*
X140647056Y-104366351D01*
X140433487Y-104170702D01*
X140225553Y-103946416D01*
X140025914Y-103697309D01*
X139837229Y-103427194D01*
X139662157Y-103139887D01*
X139517135Y-102865291D01*
X139589837Y-102865291D01*
X139597431Y-102894626D01*
X139620419Y-102942890D01*
X139660849Y-103018100D01*
X139745075Y-103166015D01*
X139977367Y-103521789D01*
X140241473Y-103861170D01*
X140531884Y-104176829D01*
X140678386Y-104314296D01*
X140846530Y-104447347D01*
X141016213Y-104553119D01*
X141195584Y-104637267D01*
X141245772Y-104655052D01*
X141345099Y-104681887D01*
X141437673Y-104698397D01*
X141562575Y-104712373D01*
X141520586Y-104594719D01*
X141509712Y-104560770D01*
X141483130Y-104432167D01*
X141468183Y-104273342D01*
X141467032Y-104250480D01*
X141463728Y-104163063D01*
X141465292Y-104100811D01*
X141473541Y-104051529D01*
X141490289Y-104003018D01*
X141517353Y-103943082D01*
X141537530Y-103903885D01*
X141578277Y-103839953D01*
X141634225Y-103768178D01*
X141710336Y-103682375D01*
X141811575Y-103576356D01*
X141863093Y-103522755D01*
X141941541Y-103437765D01*
X142009191Y-103360448D01*
X142060146Y-103297621D01*
X142088511Y-103256104D01*
X142107912Y-103212648D01*
X142130230Y-103096033D01*
X142115837Y-102969988D01*
X142065562Y-102837044D01*
X141980233Y-102699730D01*
X141860678Y-102560576D01*
X141805681Y-102507555D01*
X141693771Y-102419854D01*
X141572503Y-102353519D01*
X141434515Y-102305663D01*
X141272442Y-102273395D01*
X141078922Y-102253827D01*
X140892439Y-102241334D01*
X140632234Y-102345210D01*
X140629311Y-102346379D01*
X140538682Y-102384169D01*
X140429174Y-102432166D01*
X140306950Y-102487429D01*
X140178175Y-102547023D01*
X140049011Y-102608009D01*
X139925621Y-102667449D01*
X139814170Y-102722405D01*
X139720820Y-102769940D01*
X139651735Y-102807116D01*
X139613079Y-102830995D01*
X139612644Y-102831325D01*
X139595591Y-102846864D01*
X139589837Y-102865291D01*
X139517135Y-102865291D01*
X139503357Y-102839202D01*
X139363490Y-102528955D01*
X139245214Y-102212960D01*
X139230218Y-102162254D01*
X141126291Y-102162254D01*
X141128705Y-102172851D01*
X141167938Y-102183230D01*
X141241389Y-102192411D01*
X141346863Y-102206726D01*
X141549081Y-102262402D01*
X141731625Y-102352410D01*
X141892518Y-102475383D01*
X142029781Y-102629953D01*
X142141437Y-102814753D01*
X142146712Y-102825569D01*
X142181638Y-102908433D01*
X142198707Y-102982359D01*
X142203032Y-103068410D01*
X142202047Y-103096033D01*
X142200909Y-103127956D01*
X142190447Y-103198062D01*
X142167988Y-103264210D01*
X142129966Y-103332532D01*
X142072813Y-103409157D01*
X141992963Y-103500216D01*
X141886849Y-103611839D01*
X141777433Y-103727043D01*
X141689978Y-103826855D01*
X141626130Y-103912071D01*
X141582525Y-103988642D01*
X141555794Y-104062520D01*
X141542574Y-104139658D01*
X141539497Y-104226006D01*
X141540126Y-104254032D01*
X141564459Y-104455815D01*
X141621034Y-104652203D01*
X141623678Y-104659020D01*
X141639313Y-104688918D01*
X141662158Y-104701671D01*
X141702703Y-104699554D01*
X141771438Y-104684845D01*
X141810991Y-104674267D01*
X141962890Y-104611337D01*
X142116305Y-104514427D01*
X142264849Y-104387387D01*
X142286906Y-104365195D01*
X142386526Y-104252573D01*
X142492418Y-104115885D01*
X142597238Y-103965538D01*
X142693641Y-103811941D01*
X142774279Y-103665502D01*
X142787104Y-103639594D01*
X142841976Y-103520791D01*
X142903616Y-103377285D01*
X142967772Y-103219708D01*
X143030191Y-103058696D01*
X143086621Y-102904881D01*
X143132810Y-102768898D01*
X143134275Y-102764322D01*
X143169158Y-102649735D01*
X143206806Y-102516912D01*
X143245197Y-102373943D01*
X143282310Y-102228915D01*
X143316122Y-102089914D01*
X143344612Y-101965029D01*
X143365758Y-101862347D01*
X143377539Y-101789954D01*
X143389912Y-101684877D01*
X143302090Y-101694830D01*
X143294137Y-101695732D01*
X143234606Y-101702475D01*
X143147825Y-101712302D01*
X143044178Y-101724037D01*
X142934047Y-101736505D01*
X142800080Y-101752636D01*
X142514281Y-101794559D01*
X142231167Y-101847430D01*
X141931467Y-101914674D01*
X141919861Y-101917483D01*
X141809254Y-101945757D01*
X141687730Y-101979054D01*
X141562379Y-102015194D01*
X141440288Y-102051997D01*
X141328545Y-102087284D01*
X141234239Y-102118876D01*
X141164458Y-102144592D01*
X141126291Y-102162254D01*
X139230218Y-102162254D01*
X139151189Y-101895032D01*
X139060033Y-101474363D01*
X139000762Y-101033884D01*
X138992795Y-100864220D01*
X143962322Y-100864220D01*
X144145000Y-100864220D01*
X144327679Y-100864220D01*
X144321406Y-100799169D01*
X144315134Y-100734118D01*
X144145000Y-100734118D01*
X143974866Y-100734118D01*
X143968594Y-100799169D01*
X143962322Y-100864220D01*
X138992795Y-100864220D01*
X138980242Y-100596886D01*
X138981615Y-100563984D01*
X143284323Y-100563984D01*
X143524512Y-100563984D01*
X143764701Y-100563984D01*
X143824748Y-100563984D01*
X143824748Y-100664063D01*
X144145000Y-100664063D01*
X144465253Y-100664063D01*
X144465253Y-100563984D01*
X144525300Y-100563984D01*
X144765489Y-100563984D01*
X145005678Y-100563984D01*
X145005678Y-100295134D01*
X145005678Y-100026284D01*
X144950635Y-99987235D01*
X144935201Y-99978109D01*
X144884921Y-99955052D01*
X145711218Y-99955052D01*
X145717987Y-99982251D01*
X145760039Y-100010854D01*
X145839579Y-100042772D01*
X145859720Y-100049957D01*
X145911166Y-100074611D01*
X145941739Y-100108257D01*
X145965663Y-100164647D01*
X145975178Y-100190961D01*
X145996881Y-100245574D01*
X146012857Y-100278759D01*
X146021115Y-100289165D01*
X146046498Y-100303779D01*
X146052866Y-100302937D01*
X146074293Y-100285700D01*
X146097943Y-100241621D01*
X146127333Y-100164647D01*
X146134201Y-100145724D01*
X146158555Y-100097108D01*
X146193552Y-100067374D01*
X146253416Y-100042772D01*
X146301167Y-100025005D01*
X146360185Y-99995115D01*
X146382906Y-99967507D01*
X146371532Y-99940271D01*
X146358927Y-99931006D01*
X146313497Y-99907918D01*
X146253416Y-99884250D01*
X146228153Y-99875166D01*
X146179340Y-99850737D01*
X146149981Y-99815986D01*
X146125759Y-99756592D01*
X146115427Y-99728823D01*
X148027099Y-99728823D01*
X148039633Y-99751210D01*
X148092073Y-99774697D01*
X148139579Y-99800616D01*
X148176840Y-99858328D01*
X148188840Y-99891299D01*
X148208525Y-99928918D01*
X148226551Y-99931195D01*
X148246407Y-99896894D01*
X148271585Y-99824780D01*
X148272156Y-99823232D01*
X148297956Y-99797387D01*
X148344215Y-99774740D01*
X148372950Y-99763460D01*
X148403439Y-99739594D01*
X148393904Y-99715643D01*
X148344342Y-99691962D01*
X148290836Y-99660493D01*
X148257789Y-99601891D01*
X148245035Y-99569527D01*
X148222714Y-99542222D01*
X148200328Y-99554755D01*
X148176840Y-99607195D01*
X148145371Y-99660702D01*
X148086769Y-99693748D01*
X148054405Y-99706502D01*
X148027099Y-99728823D01*
X146115427Y-99728823D01*
X146107992Y-99708842D01*
X146078101Y-99649824D01*
X146050494Y-99627103D01*
X146023258Y-99638477D01*
X146013992Y-99651082D01*
X145990905Y-99696511D01*
X145967236Y-99756592D01*
X145958153Y-99781855D01*
X145933724Y-99830669D01*
X145898973Y-99860027D01*
X145839579Y-99884250D01*
X145807701Y-99896083D01*
X145753238Y-99920373D01*
X145721463Y-99940271D01*
X145711218Y-99955052D01*
X144884921Y-99955052D01*
X144882010Y-99953717D01*
X144808878Y-99924738D01*
X144727171Y-99895195D01*
X144648258Y-99869111D01*
X144583506Y-99850511D01*
X144544282Y-99843416D01*
X144539572Y-99852605D01*
X144533693Y-99896655D01*
X144529192Y-99972933D01*
X144526314Y-100076821D01*
X144525300Y-100203700D01*
X144525300Y-100563984D01*
X144465253Y-100563984D01*
X144465253Y-99972891D01*
X144465238Y-99898605D01*
X144464997Y-99727430D01*
X144464305Y-99590804D01*
X144462964Y-99484745D01*
X144460776Y-99405272D01*
X144457545Y-99348403D01*
X144453072Y-99310156D01*
X144447159Y-99286551D01*
X144439609Y-99273604D01*
X144430225Y-99267335D01*
X144429017Y-99266878D01*
X144391422Y-99260894D01*
X144324405Y-99256635D01*
X144237883Y-99254102D01*
X144141773Y-99253296D01*
X144045990Y-99254217D01*
X143960452Y-99256863D01*
X143895075Y-99261236D01*
X143859776Y-99267335D01*
X143856011Y-99269166D01*
X143847342Y-99277484D01*
X143840432Y-99293980D01*
X143835085Y-99322635D01*
X143831103Y-99367432D01*
X143828288Y-99432351D01*
X143826443Y-99521375D01*
X143825370Y-99638485D01*
X143824871Y-99787663D01*
X143824748Y-99972891D01*
X143824748Y-100563984D01*
X143764701Y-100563984D01*
X143764701Y-100203700D01*
X143764217Y-100114306D01*
X143761896Y-100002720D01*
X143757877Y-99917298D01*
X143752403Y-99862657D01*
X143745718Y-99843416D01*
X143730239Y-99845232D01*
X143676979Y-99858515D01*
X143603807Y-99881317D01*
X143522093Y-99909613D01*
X143443203Y-99939380D01*
X143378505Y-99966595D01*
X143339366Y-99987235D01*
X143284323Y-100026284D01*
X143284323Y-100295134D01*
X143284323Y-100563984D01*
X138981615Y-100563984D01*
X138998473Y-100159988D01*
X139055455Y-99719809D01*
X139151189Y-99272967D01*
X139168941Y-99206431D01*
X143824748Y-99206431D01*
X143909815Y-99189660D01*
X143971970Y-99181335D01*
X144056996Y-99175223D01*
X144145000Y-99172889D01*
X144230808Y-99175115D01*
X144316130Y-99181151D01*
X144380186Y-99189660D01*
X144465253Y-99206431D01*
X144465253Y-98383397D01*
X144465246Y-98321069D01*
X144465129Y-98182108D01*
X144525300Y-98182108D01*
X144525391Y-98219469D01*
X144527338Y-98277507D01*
X144534234Y-98308162D01*
X144549196Y-98320158D01*
X144575339Y-98322219D01*
X144577886Y-98322209D01*
X144609094Y-98317058D01*
X144622513Y-98294694D01*
X144625379Y-98243778D01*
X144624215Y-98223165D01*
X144611816Y-98163128D01*
X144590131Y-98104484D01*
X144564512Y-98059920D01*
X144540312Y-98042125D01*
X144539712Y-98042231D01*
X144532428Y-98063076D01*
X144527263Y-98113072D01*
X144525300Y-98182108D01*
X144465129Y-98182108D01*
X144465083Y-98128173D01*
X144464583Y-97970624D01*
X144463595Y-97844784D01*
X144462971Y-97807310D01*
X147146406Y-97807310D01*
X147158939Y-97829697D01*
X147211380Y-97853184D01*
X147258885Y-97879103D01*
X147296147Y-97936815D01*
X147308147Y-97969786D01*
X147327832Y-98007405D01*
X147345857Y-98009682D01*
X147365714Y-97975381D01*
X147390892Y-97903267D01*
X147391462Y-97901719D01*
X147417263Y-97875874D01*
X147463521Y-97853227D01*
X147492256Y-97841947D01*
X147522746Y-97818081D01*
X147513210Y-97794130D01*
X147463649Y-97770449D01*
X147410142Y-97738980D01*
X147377096Y-97680378D01*
X147364342Y-97648014D01*
X147342021Y-97620709D01*
X147319634Y-97633242D01*
X147296147Y-97685682D01*
X147264677Y-97739189D01*
X147206076Y-97772235D01*
X147173712Y-97784989D01*
X147146406Y-97807310D01*
X144462971Y-97807310D01*
X144461967Y-97747013D01*
X144459547Y-97673669D01*
X144456181Y-97621114D01*
X144451718Y-97585707D01*
X144446006Y-97563809D01*
X144438893Y-97551780D01*
X144430225Y-97545980D01*
X144429017Y-97545523D01*
X144391422Y-97539538D01*
X144324405Y-97535279D01*
X144237883Y-97532747D01*
X144141773Y-97531941D01*
X144045990Y-97532861D01*
X143960452Y-97535508D01*
X143895075Y-97539881D01*
X143859776Y-97545980D01*
X143857123Y-97547218D01*
X143848917Y-97554432D01*
X143842220Y-97568918D01*
X143836882Y-97594316D01*
X143832749Y-97634267D01*
X143829670Y-97692409D01*
X143827492Y-97772384D01*
X143826063Y-97877830D01*
X143825231Y-98012387D01*
X143824844Y-98179697D01*
X143824843Y-98182108D01*
X143824748Y-98383397D01*
X143824748Y-98718791D01*
X143824748Y-99206431D01*
X139168941Y-99206431D01*
X139184470Y-99148224D01*
X139247088Y-98942920D01*
X139319268Y-98743628D01*
X139340735Y-98692510D01*
X140238836Y-98692510D01*
X140238851Y-98693757D01*
X140243060Y-98707625D01*
X140260272Y-98721850D01*
X140298491Y-98741395D01*
X140365719Y-98771227D01*
X140385417Y-98781410D01*
X140442954Y-98829873D01*
X140485511Y-98892059D01*
X140502132Y-98953340D01*
X140502135Y-98953865D01*
X140516246Y-98990011D01*
X140547092Y-99007946D01*
X140578668Y-98998275D01*
X140589331Y-98985108D01*
X140602211Y-98951787D01*
X140604350Y-98932064D01*
X140630996Y-98870056D01*
X140679427Y-98811582D01*
X140738624Y-98771227D01*
X140775355Y-98755185D01*
X140841512Y-98723469D01*
X140860191Y-98708019D01*
X142082419Y-98708019D01*
X142094952Y-98730406D01*
X142147392Y-98753894D01*
X142194898Y-98779812D01*
X142232159Y-98837524D01*
X142244160Y-98870495D01*
X142263844Y-98908114D01*
X142281870Y-98910391D01*
X142301726Y-98876090D01*
X142326905Y-98803976D01*
X142327475Y-98802428D01*
X142353275Y-98776583D01*
X142399534Y-98753937D01*
X142428269Y-98742656D01*
X142458759Y-98718791D01*
X142449223Y-98694839D01*
X142399661Y-98671159D01*
X142346155Y-98639689D01*
X142313108Y-98581088D01*
X142300354Y-98548723D01*
X142278034Y-98521418D01*
X142255647Y-98533951D01*
X142232159Y-98586391D01*
X142200690Y-98639898D01*
X142142088Y-98672944D01*
X142109724Y-98685698D01*
X142093229Y-98699182D01*
X142082419Y-98708019D01*
X140860191Y-98708019D01*
X140870875Y-98699182D01*
X140863419Y-98676583D01*
X140819120Y-98649929D01*
X140737954Y-98613476D01*
X140678805Y-98576191D01*
X140631206Y-98506728D01*
X140630745Y-98505666D01*
X140600428Y-98437578D01*
X140580402Y-98398633D01*
X140565905Y-98381006D01*
X140552171Y-98376870D01*
X140551986Y-98376871D01*
X140538273Y-98381126D01*
X140523736Y-98398970D01*
X140503612Y-98438228D01*
X140473137Y-98506728D01*
X140435852Y-98565876D01*
X140366389Y-98613476D01*
X140358177Y-98617047D01*
X140293989Y-98645729D01*
X140258026Y-98664569D01*
X140242303Y-98678514D01*
X140238836Y-98692510D01*
X139340735Y-98692510D01*
X139405778Y-98537631D01*
X139511384Y-98312211D01*
X139547931Y-98243778D01*
X143664622Y-98243778D01*
X143664628Y-98247769D01*
X143667914Y-98296691D01*
X143682181Y-98317727D01*
X143714662Y-98322219D01*
X143728005Y-98321964D01*
X143748732Y-98316513D01*
X143759681Y-98297202D01*
X143763965Y-98255308D01*
X143764701Y-98182108D01*
X143764689Y-98176508D01*
X143762449Y-98108547D01*
X143757088Y-98060381D01*
X143749689Y-98042125D01*
X143740967Y-98044947D01*
X143715594Y-98074449D01*
X143690844Y-98125879D01*
X143672070Y-98186551D01*
X143664622Y-98243778D01*
X139547931Y-98243778D01*
X139679831Y-97996798D01*
X139896861Y-97653063D01*
X140031766Y-97471549D01*
X143824748Y-97471549D01*
X144145000Y-97471549D01*
X144465253Y-97471549D01*
X144465253Y-97240114D01*
X144465250Y-97236347D01*
X144458944Y-97016210D01*
X144441271Y-96767126D01*
X144413401Y-96497995D01*
X144405327Y-96436662D01*
X144909481Y-96436662D01*
X144920833Y-96463977D01*
X144933120Y-96473056D01*
X144978324Y-96496119D01*
X145038199Y-96519739D01*
X145041742Y-96520966D01*
X145096404Y-96542380D01*
X145131143Y-96566836D01*
X145157201Y-96605845D01*
X145185820Y-96670918D01*
X145207107Y-96721168D01*
X145224597Y-96759798D01*
X145232786Y-96773133D01*
X145258056Y-96795076D01*
X145283742Y-96790407D01*
X145312789Y-96762950D01*
X145325930Y-96726691D01*
X145331009Y-96700468D01*
X145349057Y-96655635D01*
X145365916Y-96622398D01*
X145385812Y-96581567D01*
X145395526Y-96570137D01*
X145436002Y-96544293D01*
X145493567Y-96519739D01*
X145540093Y-96502448D01*
X145599392Y-96472502D01*
X145622285Y-96444812D01*
X145610933Y-96417497D01*
X145598646Y-96408418D01*
X145553442Y-96385356D01*
X145493567Y-96361735D01*
X145490024Y-96360508D01*
X145435362Y-96339094D01*
X145400623Y-96314639D01*
X145374565Y-96275630D01*
X145345946Y-96210556D01*
X145324778Y-96160452D01*
X145302683Y-96116124D01*
X145284866Y-96095516D01*
X145265883Y-96090461D01*
X145252097Y-96092789D01*
X145234502Y-96107995D01*
X145214225Y-96144528D01*
X145185820Y-96210556D01*
X145184114Y-96214705D01*
X145155900Y-96278164D01*
X145129670Y-96316147D01*
X145094183Y-96340167D01*
X145038199Y-96361735D01*
X144991673Y-96379026D01*
X144932374Y-96408972D01*
X144909481Y-96436662D01*
X144405327Y-96436662D01*
X144376504Y-96217715D01*
X144331748Y-95935186D01*
X144280303Y-95659307D01*
X144223338Y-95398975D01*
X144217734Y-95375688D01*
X144194050Y-95283217D01*
X144179467Y-95232301D01*
X144451105Y-95232301D01*
X144455036Y-95269418D01*
X144469692Y-95323608D01*
X144479607Y-95353165D01*
X144491525Y-95379133D01*
X144509465Y-95398756D01*
X144539029Y-95414028D01*
X144585821Y-95426938D01*
X144655442Y-95439477D01*
X144753495Y-95453638D01*
X144885584Y-95471410D01*
X145109573Y-95506908D01*
X145534171Y-95604505D01*
X145949934Y-95739732D01*
X146354053Y-95911181D01*
X146743720Y-96117446D01*
X147116129Y-96357118D01*
X147229862Y-96444812D01*
X147468471Y-96628792D01*
X147797940Y-96931060D01*
X147842791Y-96976428D01*
X148147530Y-97315750D01*
X148264739Y-97471549D01*
X148417549Y-97674669D01*
X148506685Y-97818081D01*
X148653026Y-98053529D01*
X148748882Y-98243778D01*
X148854136Y-98452678D01*
X149021056Y-98872460D01*
X149121763Y-99206431D01*
X149153964Y-99313220D01*
X149245379Y-99739594D01*
X149253036Y-99775306D01*
X149260675Y-99820351D01*
X149272909Y-99900998D01*
X149280783Y-99967507D01*
X149282188Y-99979379D01*
X149288902Y-100062542D01*
X149293442Y-100157537D01*
X149296201Y-100271412D01*
X149297569Y-100411217D01*
X149297895Y-100563984D01*
X149297938Y-100584000D01*
X149297861Y-100664063D01*
X149297847Y-100678156D01*
X149297009Y-100832956D01*
X149296501Y-100864220D01*
X149294969Y-100958434D01*
X149291335Y-101061638D01*
X149285716Y-101149617D01*
X149277721Y-101229420D01*
X149266958Y-101308096D01*
X149253036Y-101392694D01*
X149165760Y-101810171D01*
X149040838Y-102241554D01*
X148883385Y-102651701D01*
X148776516Y-102870456D01*
X148692040Y-103043372D01*
X148465443Y-103419326D01*
X148202233Y-103782325D01*
X147901048Y-104135128D01*
X147854812Y-104184685D01*
X147830363Y-104209088D01*
X147736415Y-104302860D01*
X147621200Y-104402119D01*
X147495767Y-104493398D01*
X147346718Y-104587635D01*
X147194378Y-104670342D01*
X147047460Y-104728345D01*
X146902090Y-104760636D01*
X146747049Y-104770639D01*
X146656903Y-104767513D01*
X146475913Y-104738533D01*
X146309012Y-104677120D01*
X146150413Y-104580785D01*
X145994328Y-104447041D01*
X145967580Y-104420566D01*
X145866751Y-104313280D01*
X145774317Y-104200467D01*
X145682193Y-104071718D01*
X145582292Y-103916624D01*
X145546027Y-103857979D01*
X145504116Y-103788821D01*
X145469739Y-103728756D01*
X145439145Y-103670080D01*
X145408580Y-103605093D01*
X145374291Y-103526091D01*
X145332525Y-103425372D01*
X145279531Y-103295233D01*
X145255406Y-103235165D01*
X145129207Y-102894808D01*
X145020656Y-102551703D01*
X144927312Y-102196726D01*
X144846734Y-101820751D01*
X144826689Y-101704882D01*
X144900158Y-101704882D01*
X144912827Y-101797312D01*
X144913523Y-101802231D01*
X144927342Y-101879044D01*
X144950106Y-101985148D01*
X144979700Y-102112130D01*
X145014012Y-102251575D01*
X145050927Y-102395070D01*
X145088330Y-102534201D01*
X145124108Y-102660555D01*
X145156147Y-102765718D01*
X145166517Y-102797508D01*
X145216112Y-102940332D01*
X145274801Y-103098036D01*
X145338346Y-103260013D01*
X145402507Y-103415655D01*
X145463045Y-103554354D01*
X145515721Y-103665502D01*
X145533159Y-103699276D01*
X145618231Y-103848370D01*
X145717311Y-104002137D01*
X145823055Y-104150168D01*
X145928117Y-104282054D01*
X146025151Y-104387387D01*
X146036173Y-104398064D01*
X146196591Y-104531284D01*
X146361038Y-104627626D01*
X146526876Y-104685523D01*
X146646144Y-104704101D01*
X146832943Y-104700953D01*
X147023285Y-104660979D01*
X147211925Y-104584948D01*
X147243137Y-104568697D01*
X147333670Y-104516908D01*
X147427677Y-104457556D01*
X147518815Y-104395262D01*
X147600741Y-104334647D01*
X147667113Y-104280333D01*
X147711587Y-104236939D01*
X147727821Y-104209088D01*
X147727810Y-104208911D01*
X147708925Y-104198800D01*
X147660962Y-104185053D01*
X147594073Y-104170594D01*
X147559627Y-104163638D01*
X147351055Y-104103349D01*
X147154074Y-104016092D01*
X146974224Y-103905719D01*
X146817042Y-103776079D01*
X146688065Y-103631024D01*
X146592832Y-103474403D01*
X146566846Y-103418496D01*
X146540352Y-103352491D01*
X146525891Y-103294065D01*
X146520007Y-103227359D01*
X146519249Y-103136515D01*
X146519379Y-103122215D01*
X146522395Y-103013412D01*
X146528328Y-102899836D01*
X146536046Y-102803888D01*
X146540507Y-102691707D01*
X146524343Y-102595357D01*
X146483982Y-102522070D01*
X146417300Y-102465797D01*
X146415448Y-102464659D01*
X146355290Y-102436378D01*
X146292570Y-102427219D01*
X146219834Y-102438287D01*
X146129628Y-102470689D01*
X146014500Y-102525528D01*
X145904434Y-102577737D01*
X145804119Y-102613254D01*
X145719881Y-102625803D01*
X145643722Y-102616473D01*
X145567644Y-102586353D01*
X145516951Y-102554453D01*
X145428333Y-102471051D01*
X145345775Y-102360916D01*
X145273761Y-102232559D01*
X145216773Y-102094491D01*
X145179294Y-101955226D01*
X145165804Y-101823273D01*
X145165406Y-101788664D01*
X145159678Y-101747654D01*
X145151234Y-101738576D01*
X145239530Y-101738576D01*
X145251699Y-101883735D01*
X145255516Y-101918601D01*
X145294278Y-102080209D01*
X145364241Y-102238856D01*
X145459943Y-102381489D01*
X145507899Y-102436047D01*
X145586125Y-102503188D01*
X145665163Y-102537823D01*
X145751830Y-102540946D01*
X145852943Y-102513551D01*
X145975321Y-102456631D01*
X146027483Y-102430011D01*
X146153170Y-102376165D01*
X146258111Y-102350112D01*
X146348006Y-102351638D01*
X146428551Y-102380526D01*
X146505445Y-102436560D01*
X146539179Y-102471044D01*
X146594836Y-102562266D01*
X146620841Y-102673730D01*
X146618636Y-102810198D01*
X146606450Y-102929374D01*
X146596727Y-103038874D01*
X146592078Y-103122364D01*
X146592611Y-103187258D01*
X146598434Y-103240971D01*
X146609653Y-103290918D01*
X146626376Y-103344515D01*
X146627966Y-103349200D01*
X146687623Y-103488079D01*
X146768592Y-103609503D01*
X146879699Y-103726790D01*
X147010446Y-103832206D01*
X147198180Y-103945458D01*
X147406084Y-104035584D01*
X147624710Y-104097876D01*
X147693915Y-104111714D01*
X147754732Y-104122273D01*
X147789989Y-104126442D01*
X147790999Y-104126375D01*
X147817686Y-104109554D01*
X147864074Y-104066563D01*
X147925596Y-104002468D01*
X147997684Y-103922338D01*
X148075771Y-103831239D01*
X148155290Y-103734238D01*
X148231674Y-103636403D01*
X148252704Y-103608298D01*
X148346439Y-103475448D01*
X148445979Y-103324167D01*
X148542173Y-103168689D01*
X148625871Y-103023248D01*
X148709655Y-102870456D01*
X148303805Y-102668410D01*
X147980489Y-102514651D01*
X147592150Y-102347602D01*
X147200111Y-102196993D01*
X146809930Y-102064566D01*
X146427166Y-101952065D01*
X146057378Y-101861231D01*
X145706124Y-101793807D01*
X145378962Y-101751535D01*
X145239530Y-101738576D01*
X145151234Y-101738576D01*
X145141364Y-101727965D01*
X145103255Y-101717392D01*
X145040245Y-101708729D01*
X144970432Y-101704882D01*
X144900158Y-101704882D01*
X144826689Y-101704882D01*
X144776480Y-101414654D01*
X144732944Y-101134433D01*
X144609106Y-101128474D01*
X144555731Y-101126597D01*
X144510689Y-101128908D01*
X144490180Y-101138826D01*
X144485350Y-101158498D01*
X144488202Y-101234698D01*
X144496442Y-101347590D01*
X144509558Y-101491292D01*
X144527039Y-101661357D01*
X144548376Y-101853337D01*
X144573057Y-102062785D01*
X144600574Y-102285253D01*
X144630415Y-102516293D01*
X144662071Y-102751459D01*
X144695031Y-102986303D01*
X144739794Y-103286558D01*
X144809427Y-103708069D01*
X144883177Y-104099889D01*
X144962401Y-104468200D01*
X145048461Y-104819183D01*
X145142715Y-105159020D01*
X145246522Y-105493892D01*
X145267693Y-105558307D01*
X145300681Y-105656534D01*
X145328842Y-105737788D01*
X145349714Y-105795018D01*
X145360836Y-105821175D01*
X145380398Y-105828156D01*
X145425699Y-105823656D01*
X145500668Y-105806895D01*
X145609283Y-105777168D01*
X145910698Y-105680939D01*
X146336280Y-105510783D01*
X146743033Y-105306958D01*
X147129200Y-105071164D01*
X147493024Y-104805102D01*
X147832749Y-104510471D01*
X148146618Y-104188971D01*
X148432874Y-103842302D01*
X148689761Y-103472164D01*
X148915522Y-103080256D01*
X149108400Y-102668279D01*
X149266640Y-102237932D01*
X149318692Y-102066190D01*
X149407115Y-101710516D01*
X149468275Y-101353714D01*
X149503787Y-100985104D01*
X149515265Y-100594008D01*
X149512704Y-100404643D01*
X149490004Y-100025566D01*
X149442504Y-99663900D01*
X149368587Y-99308965D01*
X149266640Y-98950083D01*
X149161998Y-98653378D01*
X148980806Y-98237886D01*
X148766562Y-97841714D01*
X148521175Y-97466575D01*
X148246550Y-97114183D01*
X147944595Y-96786252D01*
X147617217Y-96484494D01*
X147266323Y-96210623D01*
X146893820Y-95966353D01*
X146501614Y-95753396D01*
X146091612Y-95573466D01*
X145665723Y-95428277D01*
X145225851Y-95319541D01*
X145219388Y-95318244D01*
X145100300Y-95295960D01*
X144974789Y-95275104D01*
X144849403Y-95256478D01*
X144730687Y-95240884D01*
X144625190Y-95229124D01*
X144539458Y-95222001D01*
X144480039Y-95220318D01*
X144453479Y-95224877D01*
X144451105Y-95232301D01*
X144179467Y-95232301D01*
X144172587Y-95208278D01*
X144155514Y-95158051D01*
X144145000Y-95139713D01*
X144143252Y-95140757D01*
X144131017Y-95167164D01*
X144115373Y-95215595D01*
X144112727Y-95223788D01*
X144090553Y-95303451D01*
X144066663Y-95398975D01*
X144065559Y-95403626D01*
X144008686Y-95664329D01*
X143957355Y-95940413D01*
X143912734Y-96222982D01*
X143875994Y-96503135D01*
X143848304Y-96771974D01*
X143830832Y-97020600D01*
X143824817Y-97237624D01*
X143824748Y-97240114D01*
X143824748Y-97471549D01*
X140031766Y-97471549D01*
X140135898Y-97331439D01*
X140167073Y-97293615D01*
X140225826Y-97226853D01*
X141562009Y-97226853D01*
X141574542Y-97249240D01*
X141626982Y-97272727D01*
X141674488Y-97298646D01*
X141711749Y-97356358D01*
X141723750Y-97389329D01*
X141743435Y-97426948D01*
X141761460Y-97429224D01*
X141781316Y-97394924D01*
X141806495Y-97322810D01*
X141807065Y-97321262D01*
X141832865Y-97295417D01*
X141879124Y-97272770D01*
X141907859Y-97261490D01*
X141938349Y-97237624D01*
X141928813Y-97213673D01*
X141879252Y-97189992D01*
X141825745Y-97158523D01*
X141792699Y-97099921D01*
X141779945Y-97067557D01*
X141757624Y-97040252D01*
X141735237Y-97052785D01*
X141711749Y-97105225D01*
X141680280Y-97158732D01*
X141621679Y-97191778D01*
X141589314Y-97204532D01*
X141562009Y-97226853D01*
X140225826Y-97226853D01*
X140281083Y-97164064D01*
X140414156Y-97023119D01*
X140557563Y-96879377D01*
X140702575Y-96741435D01*
X140840462Y-96617891D01*
X140962494Y-96517342D01*
X141071954Y-96434683D01*
X141451508Y-96179629D01*
X141847582Y-95960305D01*
X142258462Y-95777413D01*
X142682434Y-95631652D01*
X143117785Y-95523725D01*
X143562800Y-95454331D01*
X143791237Y-95428962D01*
X143826253Y-95325949D01*
X143839646Y-95284114D01*
X143852109Y-95236941D01*
X143853927Y-95215595D01*
X143845031Y-95213246D01*
X143802072Y-95212963D01*
X143730845Y-95217245D01*
X143638688Y-95225347D01*
X143532945Y-95236527D01*
X143420955Y-95250040D01*
X143310059Y-95265143D01*
X143207600Y-95281090D01*
X143145455Y-95291912D01*
X142792430Y-95368291D01*
X142449349Y-95469513D01*
X142106236Y-95598860D01*
X141753117Y-95759613D01*
X141655614Y-95808727D01*
X141253800Y-96038499D01*
X140875188Y-96300596D01*
X140520939Y-96593992D01*
X140192215Y-96917659D01*
X139890177Y-97270567D01*
X139615985Y-97651691D01*
X139593130Y-97687040D01*
X139500373Y-97840959D01*
X139402411Y-98017651D01*
X139304867Y-98205996D01*
X139213363Y-98394873D01*
X139133522Y-98573161D01*
X139070964Y-98729741D01*
X139019470Y-98877074D01*
X138894394Y-99315124D01*
X138806893Y-99762536D01*
X138756968Y-100216002D01*
X138744617Y-100672211D01*
X138150515Y-100672211D01*
X138150372Y-100584000D01*
X138150470Y-100514384D01*
X138152646Y-100291262D01*
X138158383Y-100097557D01*
X138168616Y-99925050D01*
X138184281Y-99765522D01*
X138206311Y-99610755D01*
X138235642Y-99452529D01*
X138273207Y-99282625D01*
X138319942Y-99092825D01*
X138387166Y-98850495D01*
X138543916Y-98395470D01*
X138734754Y-97958606D01*
X138957975Y-97541372D01*
X139211873Y-97145236D01*
X139494742Y-96771664D01*
X139804877Y-96422125D01*
X140140573Y-96098086D01*
X140500123Y-95801013D01*
X140881822Y-95532376D01*
X141283966Y-95293641D01*
X141704847Y-95086276D01*
X142142761Y-94911748D01*
X142538106Y-94789437D01*
X143904811Y-94789437D01*
X143914819Y-94799445D01*
X143924827Y-94789437D01*
X143914819Y-94779429D01*
X143904811Y-94789437D01*
X142538106Y-94789437D01*
X142596003Y-94771525D01*
X143062866Y-94667075D01*
X143541644Y-94599865D01*
X143637193Y-94592453D01*
X143782834Y-94585696D01*
X143949884Y-94581545D01*
X144128117Y-94579999D01*
X144307306Y-94581057D01*
X144477226Y-94584721D01*
X144627652Y-94590990D01*
X144748356Y-94599865D01*
X144997716Y-94629936D01*
X145470536Y-94716617D01*
X145742525Y-94789437D01*
X145930557Y-94839779D01*
G37*
G36*
X141587151Y-85925477D02*
G01*
X141672548Y-85942443D01*
X141734758Y-85972794D01*
X141778117Y-86018604D01*
X141806206Y-86083265D01*
X141822607Y-86170170D01*
X141828262Y-86241052D01*
X141830147Y-86299869D01*
X141122837Y-86299869D01*
X141118312Y-86180727D01*
X141131131Y-86089863D01*
X141157523Y-86022374D01*
X141201071Y-85974680D01*
X141265354Y-85943197D01*
X141354899Y-85925666D01*
X141474230Y-85919822D01*
X141587151Y-85925477D01*
G37*
G36*
X142067928Y-85725273D02*
G01*
X142067928Y-88319248D01*
X142067928Y-88947634D01*
X141478000Y-89340919D01*
X140888072Y-88947634D01*
X140888072Y-88319248D01*
X140888072Y-87893957D01*
X140950910Y-87893957D01*
X140956189Y-87997012D01*
X140972024Y-88082975D01*
X140998416Y-88151847D01*
X141062135Y-88229326D01*
X141158278Y-88280791D01*
X141243654Y-88302156D01*
X141349977Y-88314975D01*
X141477246Y-88319248D01*
X141605353Y-88315227D01*
X141712178Y-88303162D01*
X141797723Y-88283053D01*
X141893865Y-88234605D01*
X141957584Y-88161649D01*
X141983976Y-88096884D01*
X141999811Y-88016199D01*
X142005090Y-87919595D01*
X141998303Y-87794798D01*
X141977943Y-87700917D01*
X141941748Y-87633240D01*
X141887456Y-87587054D01*
X141810542Y-87558965D01*
X141706481Y-87545580D01*
X141706481Y-87732588D01*
X141787166Y-87755210D01*
X141827131Y-87811764D01*
X141839196Y-87918087D01*
X141830901Y-87991608D01*
X141806017Y-88046278D01*
X141761528Y-88084923D01*
X141694416Y-88110373D01*
X141599781Y-88124512D01*
X141472722Y-88129225D01*
X141348490Y-88123946D01*
X141256306Y-88108111D01*
X141191268Y-88080022D01*
X141148475Y-88037983D01*
X141124722Y-87978601D01*
X141116804Y-87898482D01*
X141123591Y-87805732D01*
X141146967Y-87731080D01*
X141377710Y-87731080D01*
X141377710Y-87943725D01*
X141542095Y-87943725D01*
X141542095Y-87548597D01*
X141030841Y-87548597D01*
X140991630Y-87642477D01*
X140967500Y-87722031D01*
X140955058Y-87801207D01*
X140950910Y-87893957D01*
X140888072Y-87893957D01*
X140888072Y-86640705D01*
X140964483Y-86640705D01*
X140964483Y-86875973D01*
X141768314Y-87243955D01*
X141768314Y-87248480D01*
X141554160Y-87227366D01*
X140964483Y-87227366D01*
X140964483Y-87412865D01*
X141990008Y-87412865D01*
X141990008Y-87177598D01*
X141186178Y-86809615D01*
X141186178Y-86805091D01*
X141400332Y-86826205D01*
X141990008Y-86826205D01*
X141990008Y-86640705D01*
X140964483Y-86640705D01*
X140888072Y-86640705D01*
X140888072Y-86225971D01*
X140952418Y-86225971D01*
X140953759Y-86305231D01*
X140957781Y-86394211D01*
X140964483Y-86492909D01*
X141990008Y-86492909D01*
X141994533Y-86400913D01*
X141996041Y-86317967D01*
X141994156Y-86236528D01*
X141988500Y-86164138D01*
X141973419Y-86058150D01*
X141950294Y-85969422D01*
X141919127Y-85897954D01*
X141852958Y-85817458D01*
X141760019Y-85764485D01*
X141679837Y-85742701D01*
X141581055Y-85729630D01*
X141463673Y-85725273D01*
X141340928Y-85730300D01*
X141238124Y-85745382D01*
X141155261Y-85770517D01*
X141061569Y-85831219D01*
X140999170Y-85922838D01*
X140973197Y-86004109D01*
X140957613Y-86105153D01*
X140952418Y-86225971D01*
X140888072Y-86225971D01*
X140888072Y-85725273D01*
X140888072Y-85411081D01*
X142067928Y-85411081D01*
X142067928Y-85725273D01*
G37*
G36*
X126180850Y-123203494D02*
G01*
X126180850Y-123494006D01*
X125976063Y-123494006D01*
X125878431Y-123459875D01*
X125852238Y-123336844D01*
X125879225Y-123239212D01*
X125979238Y-123206669D01*
X126056231Y-123203097D01*
X126112588Y-123201906D01*
X126180850Y-123203494D01*
G37*
G36*
X127122238Y-123541631D02*
G01*
X127022225Y-123541631D01*
X126934913Y-123537662D01*
X126869825Y-123525756D01*
X126793625Y-123473369D01*
X126771400Y-123368594D01*
X126796800Y-123268581D01*
X126881731Y-123218575D01*
X126953764Y-123207264D01*
X127050800Y-123203494D01*
X127122238Y-123203494D01*
X127122238Y-123541631D01*
G37*
G36*
X125140839Y-123199327D02*
G01*
X125197394Y-123224925D01*
X125237478Y-123271161D01*
X125264069Y-123341606D01*
X125278952Y-123441222D01*
X125283913Y-123574969D01*
X125278952Y-123705739D01*
X125264069Y-123802775D01*
X125237478Y-123871434D01*
X125197394Y-123917075D01*
X125140839Y-123942673D01*
X125064838Y-123951206D01*
X124989034Y-123942673D01*
X124933075Y-123917075D01*
X124893586Y-123871434D01*
X124867194Y-123802775D01*
X124852311Y-123705739D01*
X124847350Y-123574969D01*
X124852311Y-123440230D01*
X124867194Y-123340812D01*
X124893586Y-123270962D01*
X124933075Y-123224925D01*
X124989034Y-123199327D01*
X125064838Y-123190794D01*
X125140839Y-123199327D01*
G37*
G36*
X127893763Y-123571000D02*
G01*
X127391583Y-124324269D01*
X127325438Y-124324269D01*
X127122238Y-124324269D01*
X125590300Y-124324269D01*
X125064838Y-124324269D01*
X124072650Y-124324269D01*
X122737563Y-124324269D01*
X121829512Y-124324269D01*
X120832562Y-124324269D01*
X120766417Y-124324269D01*
X120264237Y-123571000D01*
X120623541Y-123032044D01*
X120832562Y-123032044D01*
X120832562Y-124111544D01*
X121019887Y-124111544D01*
X121019887Y-123565444D01*
X121000837Y-123284456D01*
X121007187Y-123284456D01*
X121173875Y-123751181D01*
X121334212Y-123751181D01*
X121500900Y-123284456D01*
X121507250Y-123284456D01*
X121488200Y-123565444D01*
X121488200Y-124111544D01*
X121675525Y-124111544D01*
X121829512Y-124111544D01*
X122531187Y-124111544D01*
X122531187Y-123032044D01*
X122737563Y-123032044D01*
X122737563Y-124111544D01*
X122924887Y-124111544D01*
X122924887Y-123565444D01*
X122905837Y-123284456D01*
X122912188Y-123284456D01*
X123078875Y-123751181D01*
X123239213Y-123751181D01*
X123405900Y-123284456D01*
X123412250Y-123284456D01*
X123393200Y-123565444D01*
X123393200Y-124111544D01*
X123580525Y-124111544D01*
X123580525Y-123330494D01*
X123705937Y-123330494D01*
X123902787Y-123330494D01*
X123926600Y-123245562D01*
X123986131Y-123203494D01*
X124098050Y-123190794D01*
X124175441Y-123199525D01*
X124232988Y-123225719D01*
X124273667Y-123272550D01*
X124300456Y-123343194D01*
X124315339Y-123442809D01*
X124320300Y-123576556D01*
X124314744Y-123707327D01*
X124298075Y-123804363D01*
X124268508Y-123872823D01*
X124224256Y-123917869D01*
X124161748Y-123942872D01*
X124077412Y-123951206D01*
X123979781Y-123944062D01*
X123901200Y-123919456D01*
X123901200Y-123676569D01*
X124125037Y-123676569D01*
X124125037Y-123503531D01*
X123709113Y-123503531D01*
X123709113Y-124041694D01*
X123807934Y-124082969D01*
X123891675Y-124108369D01*
X123975019Y-124121466D01*
X124072650Y-124125831D01*
X124181129Y-124120275D01*
X124271617Y-124103606D01*
X124344113Y-124075825D01*
X124425670Y-124008753D01*
X124479844Y-123907550D01*
X124502333Y-123817680D01*
X124515827Y-123705761D01*
X124520218Y-123574969D01*
X124645738Y-123574969D01*
X124649883Y-123708848D01*
X124662318Y-123820502D01*
X124683044Y-123909931D01*
X124733447Y-124010341D01*
X124810044Y-124076619D01*
X124878218Y-124103959D01*
X124963149Y-124120363D01*
X125064838Y-124125831D01*
X125166526Y-124120363D01*
X125212186Y-124111544D01*
X125590300Y-124111544D01*
X125807788Y-124111544D01*
X125882400Y-123789281D01*
X125939550Y-123694825D01*
X125995113Y-123676370D01*
X126079250Y-123670219D01*
X126180850Y-123670219D01*
X126180850Y-124111544D01*
X126382462Y-124111544D01*
X126382462Y-123374944D01*
X126569788Y-123374944D01*
X126579511Y-123494403D01*
X126608681Y-123582906D01*
X126661267Y-123645414D01*
X126741238Y-123686887D01*
X126812322Y-123704085D01*
X126900693Y-123714404D01*
X127006350Y-123717844D01*
X127122238Y-123717844D01*
X127122238Y-124111544D01*
X127325438Y-124111544D01*
X127325438Y-123032044D01*
X127077788Y-123027281D01*
X126954580Y-123030721D01*
X126851657Y-123041040D01*
X126769019Y-123058237D01*
X126676150Y-123100108D01*
X126615031Y-123163806D01*
X126581098Y-123253897D01*
X126569788Y-123374944D01*
X126382462Y-123374944D01*
X126382462Y-123033631D01*
X126193550Y-123027281D01*
X126099888Y-123025694D01*
X125992202Y-123029045D01*
X125901979Y-123039099D01*
X125829219Y-123055856D01*
X125747066Y-123095544D01*
X125692694Y-123154281D01*
X125662333Y-123236037D01*
X125652213Y-123344781D01*
X125668881Y-123472575D01*
X125725238Y-123544012D01*
X125837950Y-123579731D01*
X125837950Y-123594019D01*
X125738731Y-123643231D01*
X125707973Y-123695222D01*
X125680788Y-123774994D01*
X125590300Y-124111544D01*
X125212186Y-124111544D01*
X125251457Y-124103959D01*
X125319631Y-124076619D01*
X125396228Y-124010341D01*
X125446631Y-123909931D01*
X125467357Y-123820502D01*
X125479792Y-123708848D01*
X125483938Y-123574969D01*
X125479792Y-123439149D01*
X125467357Y-123325908D01*
X125446631Y-123235244D01*
X125396228Y-123133445D01*
X125319631Y-123066175D01*
X125251457Y-123038394D01*
X125166526Y-123021725D01*
X125064838Y-123016169D01*
X124963149Y-123021725D01*
X124878218Y-123038394D01*
X124810044Y-123066175D01*
X124733447Y-123133445D01*
X124683044Y-123235244D01*
X124662318Y-123325908D01*
X124649883Y-123439149D01*
X124645738Y-123574969D01*
X124520218Y-123574969D01*
X124520325Y-123571794D01*
X124516092Y-123436944D01*
X124503392Y-123324497D01*
X124482225Y-123234450D01*
X124431227Y-123133247D01*
X124354431Y-123066175D01*
X124286257Y-123038394D01*
X124201326Y-123021725D01*
X124099637Y-123016169D01*
X123968272Y-123023312D01*
X123869450Y-123044744D01*
X123798211Y-123082844D01*
X123749594Y-123139994D01*
X123720027Y-123220956D01*
X123705937Y-123330494D01*
X123580525Y-123330494D01*
X123580525Y-123032044D01*
X123340813Y-123032044D01*
X123167775Y-123549569D01*
X123150312Y-123549569D01*
X122974100Y-123032044D01*
X122737563Y-123032044D01*
X122531187Y-123032044D01*
X121861262Y-123032044D01*
X121861262Y-123206669D01*
X122327987Y-123206669D01*
X122327987Y-123463844D01*
X121924763Y-123463844D01*
X121924763Y-123638469D01*
X122327987Y-123638469D01*
X122327987Y-123936919D01*
X121829512Y-123936919D01*
X121829512Y-124111544D01*
X121675525Y-124111544D01*
X121675525Y-123032044D01*
X121435812Y-123032044D01*
X121262775Y-123549569D01*
X121245312Y-123549569D01*
X121069100Y-123032044D01*
X120832562Y-123032044D01*
X120623541Y-123032044D01*
X120766417Y-122817731D01*
X120832562Y-122817731D01*
X127325438Y-122817731D01*
X127391583Y-122817731D01*
X127893763Y-123571000D01*
G37*
G36*
X111713515Y-99866291D02*
G01*
X111713515Y-100235242D01*
X111453435Y-100235242D01*
X111329444Y-100191895D01*
X111296177Y-100035646D01*
X111330452Y-99911654D01*
X111457467Y-99870324D01*
X111555250Y-99865787D01*
X111626822Y-99864275D01*
X111713515Y-99866291D01*
G37*
G36*
X112389589Y-101103520D02*
G01*
X111969563Y-101103520D01*
X110963517Y-101103520D01*
X109745777Y-101103520D01*
X108834489Y-101103520D01*
X107574411Y-101103520D01*
X107574411Y-99648550D01*
X108834489Y-99648550D01*
X108834489Y-101019515D01*
X109084488Y-101019515D01*
X109745777Y-101019515D01*
X110032067Y-101019515D01*
X110294163Y-100535645D01*
X110300212Y-100535645D01*
X110562308Y-101019515D01*
X110848598Y-101019515D01*
X110963517Y-101019515D01*
X111239726Y-101019515D01*
X111334484Y-100610241D01*
X111407064Y-100490282D01*
X111477629Y-100466844D01*
X111584483Y-100459032D01*
X111713515Y-100459032D01*
X111713515Y-101019515D01*
X111969563Y-101019515D01*
X111969563Y-99650566D01*
X111729644Y-99642501D01*
X111610693Y-99640485D01*
X111473933Y-99644742D01*
X111359349Y-99657510D01*
X111266944Y-99678792D01*
X111162609Y-99729195D01*
X111093557Y-99803791D01*
X111054999Y-99907622D01*
X111042146Y-100045726D01*
X111063315Y-100208024D01*
X111134887Y-100298750D01*
X111278032Y-100344113D01*
X111278032Y-100362258D01*
X111152025Y-100424758D01*
X111112962Y-100490786D01*
X111078436Y-100592096D01*
X110963517Y-101019515D01*
X110848598Y-101019515D01*
X110437308Y-100303790D01*
X110828436Y-99644517D01*
X110546179Y-99644517D01*
X110300212Y-100096129D01*
X110294163Y-100096129D01*
X110052228Y-99644517D01*
X109765939Y-99644517D01*
X110157067Y-100303790D01*
X109745777Y-101019515D01*
X109084488Y-101019515D01*
X109084488Y-100055807D01*
X109076424Y-99930807D01*
X109155053Y-99995323D01*
X109517955Y-100219113D01*
X109517955Y-99952985D01*
X109084488Y-99648550D01*
X108834489Y-99648550D01*
X107574411Y-99648550D01*
X107574411Y-99556480D01*
X108834489Y-99556480D01*
X111969563Y-99556480D01*
X112389589Y-99556480D01*
X112389589Y-101103520D01*
G37*
X151906500Y-114951742D02*
X151906500Y-115426258D01*
X150861500Y-114951742D02*
X150861500Y-115426258D01*
G36*
X103198742Y-133492137D02*
G01*
X102884227Y-133492137D01*
X103039468Y-132915525D01*
X103043501Y-132915525D01*
X103198742Y-133492137D01*
G37*
G36*
X104489062Y-133824797D02*
G01*
X104329788Y-133830846D01*
X104208317Y-133813709D01*
X104118095Y-133778427D01*
X104054335Y-133720211D01*
X104012249Y-133634274D01*
X103988811Y-133514566D01*
X103980999Y-133355040D01*
X103988559Y-133204083D01*
X104011241Y-133089920D01*
X104051815Y-133006755D01*
X104113055Y-132948791D01*
X104199496Y-132911241D01*
X104315675Y-132889315D01*
X104410433Y-132881755D01*
X104489062Y-132879235D01*
X104489062Y-133824797D01*
G37*
G36*
X107247121Y-134138641D02*
G01*
X105987043Y-134138641D01*
X105456802Y-134138641D01*
X104390272Y-134138641D01*
X102468905Y-134138641D01*
X102048879Y-134138641D01*
X102048879Y-134036491D01*
X102468905Y-134036491D01*
X102724953Y-134036491D01*
X102823743Y-133707862D01*
X103259226Y-133707862D01*
X103358016Y-134036491D01*
X103614064Y-134036491D01*
X103414844Y-133369153D01*
X103720919Y-133369153D01*
X103727639Y-133533243D01*
X103747800Y-133670676D01*
X103781402Y-133781451D01*
X103862551Y-133906703D01*
X103985031Y-133990120D01*
X104093678Y-134024842D01*
X104228758Y-134045675D01*
X104390272Y-134052620D01*
X104496231Y-134050827D01*
X104615182Y-134045451D01*
X104747126Y-134036491D01*
X104747126Y-133669556D01*
X104940674Y-133669556D01*
X104952267Y-133803628D01*
X104987045Y-133903426D01*
X105049293Y-133973991D01*
X105143295Y-134020362D01*
X105276611Y-134046067D01*
X105456802Y-134054636D01*
X105642538Y-134045059D01*
X105780390Y-134016329D01*
X105877416Y-133964414D01*
X105940672Y-133885281D01*
X105973938Y-133773386D01*
X105980995Y-133623185D01*
X105728979Y-133623185D01*
X105696721Y-133753225D01*
X105611036Y-133816733D01*
X105538707Y-133830342D01*
X105440673Y-133834878D01*
X105290472Y-133820765D01*
X105214867Y-133771370D01*
X105192690Y-133671572D01*
X105224948Y-133568750D01*
X105330794Y-133491129D01*
X105419756Y-133454586D01*
X105539463Y-133415524D01*
X105689413Y-133364869D01*
X105800551Y-133313710D01*
X105878928Y-133257510D01*
X105930592Y-133191734D01*
X105959321Y-133111593D01*
X105968898Y-133012299D01*
X105957557Y-132885283D01*
X105923535Y-132790525D01*
X105862547Y-132723237D01*
X105770310Y-132678630D01*
X105640018Y-132653681D01*
X105464867Y-132645364D01*
X105293244Y-132653933D01*
X105165472Y-132679638D01*
X105074494Y-132726009D01*
X105013255Y-132796574D01*
X104978981Y-132896876D01*
X104968900Y-133032460D01*
X105224948Y-133032460D01*
X105254182Y-132930646D01*
X105328778Y-132880243D01*
X105472931Y-132865122D01*
X105621116Y-132879235D01*
X105694705Y-132925606D01*
X105716882Y-133020364D01*
X105639261Y-133124194D01*
X105531147Y-133173841D01*
X105362044Y-133232057D01*
X105215623Y-133284980D01*
X105107004Y-133338911D01*
X105030140Y-133399143D01*
X104978981Y-133470967D01*
X104950251Y-133559425D01*
X104940674Y-133669556D01*
X104747126Y-133669556D01*
X104747126Y-132665526D01*
X104624143Y-132659477D01*
X104513256Y-132657461D01*
X104404385Y-132659981D01*
X104307611Y-132667542D01*
X104165922Y-132687703D01*
X104047307Y-132718617D01*
X103951765Y-132760283D01*
X103844154Y-132848741D01*
X103773338Y-132972985D01*
X103744216Y-133080175D01*
X103726743Y-133212231D01*
X103720919Y-133369153D01*
X103414844Y-133369153D01*
X103204791Y-132665526D01*
X102878178Y-132665526D01*
X102468905Y-134036491D01*
X102048879Y-134036491D01*
X102048879Y-132561359D01*
X102468905Y-132561359D01*
X105987043Y-132561359D01*
X107247121Y-132561359D01*
X107247121Y-134138641D01*
G37*
G36*
X117575806Y-87622856D02*
G01*
X117450394Y-87627619D01*
X117354747Y-87614125D01*
X117283706Y-87586344D01*
X117233502Y-87540505D01*
X117200362Y-87472837D01*
X117181908Y-87378580D01*
X117175756Y-87252969D01*
X117181709Y-87134105D01*
X117199569Y-87044212D01*
X117231517Y-86978728D01*
X117279738Y-86933087D01*
X117347802Y-86903520D01*
X117439281Y-86886256D01*
X117513894Y-86880303D01*
X117575806Y-86878319D01*
X117575806Y-87622856D01*
G37*
G36*
X120032198Y-88002269D02*
G01*
X119701469Y-88002269D01*
X119253794Y-88002269D01*
X117934581Y-88002269D01*
X117498019Y-88002269D01*
X116970969Y-88002269D01*
X116441802Y-88002269D01*
X116441802Y-87264081D01*
X116970969Y-87264081D01*
X116976260Y-87393286D01*
X116992135Y-87501501D01*
X117018594Y-87588725D01*
X117082491Y-87687348D01*
X117178931Y-87753031D01*
X117264480Y-87780372D01*
X117370842Y-87796776D01*
X117498019Y-87802244D01*
X117581451Y-87800833D01*
X117675113Y-87796599D01*
X117779006Y-87789544D01*
X117779006Y-86710044D01*
X117934581Y-86710044D01*
X117934581Y-87789544D01*
X118182231Y-87789544D01*
X118569581Y-86943406D01*
X118574344Y-86943406D01*
X118552119Y-87168831D01*
X118552119Y-87789544D01*
X118747381Y-87789544D01*
X118747381Y-87008494D01*
X118887081Y-87008494D01*
X119083931Y-87008494D01*
X119107744Y-86923562D01*
X119167275Y-86881494D01*
X119279194Y-86868794D01*
X119356584Y-86877525D01*
X119414131Y-86903719D01*
X119454811Y-86950550D01*
X119481600Y-87021194D01*
X119496483Y-87120809D01*
X119501444Y-87254556D01*
X119495888Y-87385327D01*
X119479219Y-87482363D01*
X119449652Y-87550823D01*
X119405400Y-87595869D01*
X119342892Y-87620872D01*
X119258556Y-87629206D01*
X119160925Y-87622062D01*
X119082344Y-87597456D01*
X119082344Y-87354569D01*
X119306181Y-87354569D01*
X119306181Y-87181531D01*
X118890256Y-87181531D01*
X118890256Y-87719694D01*
X118989078Y-87760969D01*
X119072819Y-87786369D01*
X119156163Y-87799466D01*
X119253794Y-87803831D01*
X119362273Y-87798275D01*
X119452760Y-87781606D01*
X119525256Y-87753825D01*
X119606814Y-87686753D01*
X119660988Y-87585550D01*
X119683477Y-87495680D01*
X119696971Y-87383761D01*
X119701469Y-87249794D01*
X119697235Y-87114944D01*
X119684535Y-87002497D01*
X119663369Y-86912450D01*
X119612370Y-86811247D01*
X119535575Y-86744175D01*
X119467401Y-86716394D01*
X119382469Y-86699725D01*
X119280781Y-86694169D01*
X119149416Y-86701312D01*
X119050594Y-86722744D01*
X118979355Y-86760844D01*
X118930738Y-86817994D01*
X118901170Y-86898956D01*
X118887081Y-87008494D01*
X118747381Y-87008494D01*
X118747381Y-86710044D01*
X118499731Y-86710044D01*
X118112381Y-87556181D01*
X118107619Y-87556181D01*
X118129844Y-87330756D01*
X118129844Y-86710044D01*
X117934581Y-86710044D01*
X117779006Y-86710044D01*
X117682169Y-86705281D01*
X117594856Y-86703694D01*
X117509131Y-86705678D01*
X117432931Y-86711631D01*
X117321365Y-86727506D01*
X117227967Y-86751848D01*
X117152737Y-86784656D01*
X117068005Y-86854308D01*
X117012244Y-86952137D01*
X116989313Y-87036540D01*
X116975555Y-87140521D01*
X116970969Y-87264081D01*
X116441802Y-87264081D01*
X116441802Y-86495731D01*
X116970969Y-86495731D01*
X119701469Y-86495731D01*
X120032198Y-86495731D01*
X120032198Y-88002269D01*
G37*
X126880252Y-92241000D02*
X126357748Y-92241000D01*
X126880252Y-90771000D02*
X126357748Y-90771000D01*
X102378742Y-106157500D02*
X102853258Y-106157500D01*
X102378742Y-107202500D02*
X102853258Y-107202500D01*
X127458580Y-131320000D02*
X127177420Y-131320000D01*
X127458580Y-130300000D02*
X127177420Y-130300000D01*
X127621420Y-116711000D02*
X127902580Y-116711000D01*
X127621420Y-117731000D02*
X127902580Y-117731000D01*
G36*
X140790388Y-85723578D02*
G01*
X140790388Y-88224049D01*
X140790388Y-89166627D01*
X140779197Y-89280245D01*
X140746056Y-89389497D01*
X140692238Y-89490184D01*
X140619810Y-89578437D01*
X140531557Y-89650865D01*
X140430870Y-89704683D01*
X140321618Y-89737824D01*
X140208000Y-89749015D01*
X140094382Y-89737824D01*
X139985130Y-89704683D01*
X139884443Y-89650865D01*
X139796190Y-89578437D01*
X139723762Y-89490184D01*
X139669944Y-89389497D01*
X139636803Y-89280245D01*
X139625612Y-89166627D01*
X139625612Y-88224049D01*
X139625612Y-87932981D01*
X139688451Y-87932981D01*
X139691844Y-88016870D01*
X139702024Y-88087564D01*
X139720876Y-88153733D01*
X139750284Y-88224049D01*
X139938800Y-88224049D01*
X139897703Y-88139029D01*
X139870934Y-88067958D01*
X139856230Y-88002543D01*
X139851328Y-87934489D01*
X139861320Y-87833256D01*
X139891294Y-87767841D01*
X139946529Y-87732212D01*
X140032303Y-87720335D01*
X140100169Y-87730138D01*
X140146921Y-87759547D01*
X140174067Y-87811577D01*
X140183116Y-87889245D01*
X140178592Y-87963898D01*
X140165018Y-88055139D01*
X140342977Y-88055139D01*
X140567688Y-87801774D01*
X140567688Y-88202935D01*
X140727549Y-88202935D01*
X140727549Y-87572539D01*
X140552607Y-87572539D01*
X140338453Y-87825904D01*
X140330912Y-87825904D01*
X140333928Y-87765579D01*
X140326388Y-87688476D01*
X140303766Y-87629094D01*
X140264743Y-87585547D01*
X140208000Y-87555950D01*
X140131274Y-87538983D01*
X140032303Y-87533328D01*
X139916555Y-87542942D01*
X139828707Y-87571785D01*
X139764988Y-87622119D01*
X139721630Y-87696205D01*
X139696746Y-87798381D01*
X139688451Y-87932981D01*
X139625612Y-87932981D01*
X139625612Y-86832050D01*
X139702024Y-86832050D01*
X139702024Y-87068825D01*
X140727549Y-87373467D01*
X140727549Y-87177410D01*
X139928243Y-86954208D01*
X139928243Y-86946667D01*
X140727549Y-86723465D01*
X140727549Y-86527408D01*
X139702024Y-86832050D01*
X139625612Y-86832050D01*
X139625612Y-86123231D01*
X139688451Y-86123231D01*
X139691844Y-86207120D01*
X139702024Y-86277814D01*
X139720876Y-86343983D01*
X139750284Y-86414299D01*
X139938800Y-86414299D01*
X139897703Y-86329279D01*
X139870934Y-86258208D01*
X139856230Y-86192793D01*
X139851328Y-86124739D01*
X139861320Y-86023506D01*
X139891294Y-85958091D01*
X139946529Y-85922462D01*
X140032303Y-85910585D01*
X140100169Y-85920388D01*
X140146921Y-85949797D01*
X140174067Y-86001827D01*
X140183116Y-86079495D01*
X140178592Y-86154148D01*
X140165018Y-86245389D01*
X140342977Y-86245389D01*
X140567688Y-85992024D01*
X140567688Y-86393185D01*
X140727549Y-86393185D01*
X140727549Y-85762789D01*
X140552607Y-85762789D01*
X140338453Y-86016154D01*
X140330912Y-86016154D01*
X140333928Y-85955829D01*
X140326388Y-85878726D01*
X140303766Y-85819344D01*
X140264743Y-85775797D01*
X140208000Y-85746200D01*
X140131274Y-85729233D01*
X140032303Y-85723578D01*
X139916555Y-85733192D01*
X139828707Y-85762035D01*
X139764988Y-85812369D01*
X139721630Y-85886455D01*
X139696746Y-85988631D01*
X139688451Y-86123231D01*
X139625612Y-86123231D01*
X139625612Y-85723578D01*
X139625612Y-85409385D01*
X140790388Y-85409385D01*
X140790388Y-85723578D01*
G37*
X103519500Y-127969742D02*
X103519500Y-128444258D01*
X102474500Y-127969742D02*
X102474500Y-128444258D01*
G36*
X148020881Y-92845731D02*
G01*
X148020881Y-93136244D01*
X147816094Y-93136244D01*
X147718463Y-93102112D01*
X147692269Y-92979081D01*
X147719256Y-92881450D01*
X147819269Y-92848906D01*
X147896263Y-92845334D01*
X147952619Y-92844144D01*
X148020881Y-92845731D01*
G37*
G36*
X139448381Y-92845731D02*
G01*
X139448381Y-93136244D01*
X139243594Y-93136244D01*
X139145962Y-93102112D01*
X139119769Y-92979081D01*
X139146756Y-92881450D01*
X139246769Y-92848906D01*
X139323762Y-92845334D01*
X139380119Y-92844144D01*
X139448381Y-92845731D01*
G37*
G36*
X150486798Y-93966506D02*
G01*
X150156069Y-93966506D01*
X149754431Y-93966506D01*
X148387594Y-93966506D01*
X147430331Y-93966506D01*
X146803269Y-93966506D01*
X144577594Y-93966506D01*
X144039431Y-93966506D01*
X143232981Y-93966506D01*
X142280481Y-93966506D01*
X141088269Y-93966506D01*
X138857831Y-93966506D01*
X138133931Y-93966506D01*
X137803202Y-93966506D01*
X137803202Y-92674281D01*
X138133931Y-92674281D01*
X138133931Y-93753781D01*
X138330781Y-93753781D01*
X138857831Y-93753781D01*
X139075319Y-93753781D01*
X139149931Y-93431519D01*
X139207081Y-93337062D01*
X139262644Y-93318608D01*
X139346781Y-93312456D01*
X139448381Y-93312456D01*
X139448381Y-93753781D01*
X139649994Y-93753781D01*
X139649994Y-92675869D01*
X139508294Y-92671106D01*
X140764419Y-92671106D01*
X141088269Y-93314044D01*
X141088269Y-93753781D01*
X141291469Y-93753781D01*
X141291469Y-93314044D01*
X141612140Y-92674281D01*
X141750256Y-92674281D01*
X141750256Y-92853669D01*
X142280481Y-92853669D01*
X142280481Y-93125131D01*
X141813756Y-93125131D01*
X141813756Y-93302931D01*
X142280481Y-93302931D01*
X142280481Y-93753781D01*
X142483681Y-93753781D01*
X142483681Y-92674281D01*
X142702756Y-92674281D01*
X142702756Y-92853669D01*
X143232981Y-92853669D01*
X143232981Y-93125131D01*
X142766256Y-93125131D01*
X142766256Y-93302931D01*
X143232981Y-93302931D01*
X143232981Y-93753781D01*
X143436181Y-93753781D01*
X143436181Y-92674281D01*
X143653669Y-92674281D01*
X143653669Y-93401356D01*
X143662400Y-93529150D01*
X143688594Y-93623606D01*
X143735425Y-93690281D01*
X143806069Y-93734731D01*
X143905684Y-93759734D01*
X144039431Y-93768069D01*
X144178734Y-93759734D01*
X144282319Y-93734731D01*
X144355741Y-93690281D01*
X144404556Y-93623606D01*
X144431941Y-93529547D01*
X144441069Y-93402944D01*
X144441069Y-92674281D01*
X144577594Y-92674281D01*
X144577594Y-93753781D01*
X144764919Y-93753781D01*
X144764919Y-93207681D01*
X144745869Y-92926694D01*
X144752219Y-92926694D01*
X144918906Y-93393419D01*
X145079244Y-93393419D01*
X145245931Y-92926694D01*
X145252281Y-92926694D01*
X145233231Y-93207681D01*
X145233231Y-93753781D01*
X145420556Y-93753781D01*
X145420556Y-92674281D01*
X146514344Y-92674281D01*
X146514344Y-92855256D01*
X146803269Y-92855256D01*
X146803269Y-93753781D01*
X147006469Y-93753781D01*
X147430331Y-93753781D01*
X147647819Y-93753781D01*
X147722431Y-93431519D01*
X147779581Y-93337062D01*
X147835144Y-93318608D01*
X147919281Y-93312456D01*
X148020881Y-93312456D01*
X148020881Y-93753781D01*
X148222494Y-93753781D01*
X148222494Y-92675869D01*
X148175251Y-92674281D01*
X148387594Y-92674281D01*
X148387594Y-93753781D01*
X148574919Y-93753781D01*
X148574919Y-93207681D01*
X148555869Y-92926694D01*
X148562219Y-92926694D01*
X148728906Y-93393419D01*
X148889244Y-93393419D01*
X149055931Y-92926694D01*
X149062281Y-92926694D01*
X149043231Y-93207681D01*
X149043231Y-93753781D01*
X149230556Y-93753781D01*
X149230556Y-92674281D01*
X149368669Y-92674281D01*
X149368669Y-93401356D01*
X149377400Y-93529150D01*
X149403594Y-93623606D01*
X149450425Y-93690281D01*
X149521069Y-93734731D01*
X149620684Y-93759734D01*
X149754431Y-93768069D01*
X149893734Y-93759734D01*
X149997319Y-93734731D01*
X150070741Y-93690281D01*
X150119556Y-93623606D01*
X150146941Y-93529547D01*
X150156069Y-93402944D01*
X150156069Y-92674281D01*
X149952869Y-92674281D01*
X149952869Y-93395006D01*
X149934613Y-93513275D01*
X149874288Y-93572806D01*
X149754431Y-93590269D01*
X149644100Y-93572806D01*
X149588538Y-93514069D01*
X149571869Y-93396594D01*
X149571869Y-92674281D01*
X149368669Y-92674281D01*
X149230556Y-92674281D01*
X148990844Y-92674281D01*
X148817806Y-93191806D01*
X148800344Y-93191806D01*
X148624131Y-92674281D01*
X148387594Y-92674281D01*
X148175251Y-92674281D01*
X148033581Y-92669519D01*
X147939919Y-92667931D01*
X147832233Y-92671283D01*
X147742010Y-92681337D01*
X147669250Y-92698094D01*
X147587097Y-92737781D01*
X147532725Y-92796519D01*
X147502364Y-92878275D01*
X147492244Y-92987019D01*
X147508913Y-93114812D01*
X147565269Y-93186250D01*
X147677981Y-93221969D01*
X147677981Y-93236256D01*
X147578763Y-93285469D01*
X147548005Y-93337459D01*
X147520819Y-93417231D01*
X147430331Y-93753781D01*
X147006469Y-93753781D01*
X147006469Y-92855256D01*
X147295394Y-92855256D01*
X147295394Y-92674281D01*
X146514344Y-92674281D01*
X145420556Y-92674281D01*
X145180844Y-92674281D01*
X145007806Y-93191806D01*
X144990344Y-93191806D01*
X144814131Y-92674281D01*
X144577594Y-92674281D01*
X144441069Y-92674281D01*
X144237869Y-92674281D01*
X144237869Y-93395006D01*
X144219613Y-93513275D01*
X144159288Y-93572806D01*
X144039431Y-93590269D01*
X143929100Y-93572806D01*
X143873538Y-93514069D01*
X143856869Y-93396594D01*
X143856869Y-92674281D01*
X143653669Y-92674281D01*
X143436181Y-92674281D01*
X142702756Y-92674281D01*
X142483681Y-92674281D01*
X141750256Y-92674281D01*
X141612140Y-92674281D01*
X141613731Y-92671106D01*
X141394656Y-92671106D01*
X141193044Y-93114019D01*
X141185106Y-93114019D01*
X140981906Y-92671106D01*
X140764419Y-92671106D01*
X139508294Y-92671106D01*
X139461081Y-92669519D01*
X139367419Y-92667931D01*
X139259733Y-92671283D01*
X139169510Y-92681337D01*
X139096750Y-92698094D01*
X139014597Y-92737781D01*
X138960225Y-92796519D01*
X138929864Y-92878275D01*
X138919744Y-92987019D01*
X138936412Y-93114812D01*
X138992769Y-93186250D01*
X139105481Y-93221969D01*
X139105481Y-93236256D01*
X139006262Y-93285469D01*
X138975505Y-93337459D01*
X138948319Y-93417231D01*
X138857831Y-93753781D01*
X138330781Y-93753781D01*
X138330781Y-92994956D01*
X138324431Y-92896531D01*
X138386344Y-92947331D01*
X138672094Y-93123544D01*
X138672094Y-92913994D01*
X138330781Y-92674281D01*
X138133931Y-92674281D01*
X137803202Y-92674281D01*
X137803202Y-92469494D01*
X138133931Y-92469494D01*
X150156069Y-92469494D01*
X150486798Y-92469494D01*
X150486798Y-93966506D01*
G37*
G36*
X149018620Y-113808560D02*
G01*
X148598594Y-113808560D01*
X148209482Y-113808560D01*
X146737710Y-113808560D01*
X145790132Y-113808560D01*
X145255858Y-113808560D01*
X143995780Y-113808560D01*
X143995780Y-113264879D01*
X145255858Y-113264879D01*
X145268711Y-113419616D01*
X145307270Y-113537055D01*
X145374558Y-113622237D01*
X145473600Y-113680200D01*
X145610192Y-113713466D01*
X145790132Y-113724555D01*
X145902278Y-113720019D01*
X145996784Y-113706410D01*
X146085242Y-113681208D01*
X146179244Y-113641894D01*
X146179244Y-113389878D01*
X146065585Y-113444818D01*
X145970575Y-113480604D01*
X145883125Y-113500261D01*
X145792148Y-113506814D01*
X145656815Y-113493457D01*
X145569366Y-113453386D01*
X145521735Y-113379546D01*
X145505858Y-113264879D01*
X145518963Y-113174153D01*
X145558277Y-113111653D01*
X145627833Y-113075363D01*
X145731664Y-113063266D01*
X145831462Y-113069314D01*
X145953438Y-113087460D01*
X145953438Y-112849557D01*
X145614729Y-112549154D01*
X146151018Y-112549154D01*
X146151018Y-112335445D01*
X146330453Y-112335445D01*
X146737710Y-113706410D01*
X147054242Y-113706410D01*
X147185403Y-113264879D01*
X147675208Y-113264879D01*
X147688061Y-113419616D01*
X147726620Y-113537055D01*
X147793908Y-113622237D01*
X147892950Y-113680200D01*
X148029542Y-113713466D01*
X148209482Y-113724555D01*
X148321628Y-113720019D01*
X148416134Y-113706410D01*
X148504592Y-113681208D01*
X148598594Y-113641894D01*
X148598594Y-113389878D01*
X148484935Y-113444818D01*
X148389925Y-113480604D01*
X148302475Y-113500261D01*
X148211498Y-113506814D01*
X148076165Y-113493457D01*
X147988716Y-113453386D01*
X147941085Y-113379546D01*
X147925208Y-113264879D01*
X147938313Y-113174153D01*
X147977627Y-113111653D01*
X148047183Y-113075363D01*
X148151014Y-113063266D01*
X148250812Y-113069314D01*
X148372788Y-113087460D01*
X148372788Y-112849557D01*
X148034079Y-112549154D01*
X148570368Y-112549154D01*
X148570368Y-112335445D01*
X147727628Y-112335445D01*
X147727628Y-112569315D01*
X148066337Y-112855605D01*
X148066337Y-112865686D01*
X147985692Y-112861654D01*
X147882617Y-112871734D01*
X147803232Y-112901976D01*
X147745017Y-112954143D01*
X147705450Y-113030000D01*
X147682769Y-113132570D01*
X147675208Y-113264879D01*
X147185403Y-113264879D01*
X147461499Y-112335445D01*
X147199403Y-112335445D01*
X146901016Y-113403991D01*
X146890936Y-113403991D01*
X146592549Y-112335445D01*
X146330453Y-112335445D01*
X146151018Y-112335445D01*
X145308278Y-112335445D01*
X145308278Y-112569315D01*
X145646987Y-112855605D01*
X145646987Y-112865686D01*
X145566342Y-112861654D01*
X145463267Y-112871734D01*
X145383882Y-112901976D01*
X145325667Y-112954143D01*
X145286100Y-113030000D01*
X145263419Y-113132570D01*
X145255858Y-113264879D01*
X143995780Y-113264879D01*
X143995780Y-112251440D01*
X145255858Y-112251440D01*
X148598594Y-112251440D01*
X149018620Y-112251440D01*
X149018620Y-113808560D01*
G37*
X127608000Y-99560748D02*
X127608000Y-100083252D01*
X126138000Y-99560748D02*
X126138000Y-100083252D01*
G36*
X112405718Y-103641504D02*
G01*
X111985692Y-103641504D01*
X111360693Y-103641504D01*
X109729648Y-103641504D01*
X108818360Y-103641504D01*
X107558282Y-103641504D01*
X107558282Y-102186534D01*
X108818360Y-102186534D01*
X108818360Y-103557499D01*
X109068359Y-103557499D01*
X109729648Y-103557499D01*
X110015938Y-103557499D01*
X110278034Y-103073629D01*
X110284083Y-103073629D01*
X110546179Y-103557499D01*
X110832469Y-103557499D01*
X110421179Y-102841774D01*
X110809914Y-102186534D01*
X110993759Y-102186534D01*
X110993759Y-102416372D01*
X111360693Y-102416372D01*
X111360693Y-103557499D01*
X111618757Y-103557499D01*
X111618757Y-102416372D01*
X111985692Y-102416372D01*
X111985692Y-102186534D01*
X110993759Y-102186534D01*
X110809914Y-102186534D01*
X110812307Y-102182501D01*
X110530050Y-102182501D01*
X110284083Y-102634113D01*
X110278034Y-102634113D01*
X110036099Y-102182501D01*
X109749810Y-102182501D01*
X110140938Y-102841774D01*
X109729648Y-103557499D01*
X109068359Y-103557499D01*
X109068359Y-102593791D01*
X109060295Y-102468791D01*
X109138924Y-102533307D01*
X109501826Y-102757097D01*
X109501826Y-102490969D01*
X109068359Y-102186534D01*
X108818360Y-102186534D01*
X107558282Y-102186534D01*
X107558282Y-102098496D01*
X108818360Y-102098496D01*
X111985692Y-102098496D01*
X112405718Y-102098496D01*
X112405718Y-103641504D01*
G37*
G36*
X124515086Y-112063927D02*
G01*
X124292201Y-112063927D01*
X124402215Y-111655304D01*
X124405072Y-111655304D01*
X124515086Y-112063927D01*
G37*
G36*
X122800586Y-112063927D02*
G01*
X122577701Y-112063927D01*
X122687715Y-111655304D01*
X122690572Y-111655304D01*
X122800586Y-112063927D01*
G37*
G36*
X125429486Y-112299671D02*
G01*
X125316615Y-112303957D01*
X125230533Y-112291812D01*
X125166596Y-112266809D01*
X125121412Y-112225554D01*
X125091587Y-112164654D01*
X125074978Y-112079822D01*
X125069441Y-111966772D01*
X125074799Y-111859794D01*
X125090872Y-111778891D01*
X125119626Y-111719955D01*
X125163024Y-111678879D01*
X125224282Y-111652268D01*
X125306614Y-111636731D01*
X125373765Y-111631373D01*
X125429486Y-111629587D01*
X125429486Y-112299671D01*
G37*
G36*
X121043045Y-111628694D02*
G01*
X121093944Y-111651732D01*
X121130020Y-111693345D01*
X121153952Y-111756746D01*
X121167346Y-111846400D01*
X121171811Y-111966772D01*
X121167346Y-112084465D01*
X121153952Y-112171797D01*
X121130020Y-112233591D01*
X121093944Y-112274667D01*
X121043045Y-112297706D01*
X120974644Y-112305386D01*
X120906421Y-112297706D01*
X120856057Y-112274667D01*
X120820517Y-112233591D01*
X120796764Y-112171797D01*
X120783370Y-112084465D01*
X120778905Y-111966772D01*
X120783370Y-111845507D01*
X120796764Y-111756031D01*
X120820517Y-111693166D01*
X120856057Y-111651732D01*
X120906421Y-111628694D01*
X120974644Y-111621014D01*
X121043045Y-111628694D01*
G37*
G36*
X125910023Y-112641142D02*
G01*
X125612366Y-112641142D01*
X125359478Y-112641142D01*
X123997879Y-112641142D01*
X123454954Y-112641142D01*
X122283379Y-112641142D01*
X121468991Y-112641142D01*
X120974644Y-112641142D01*
X120081675Y-112641142D01*
X119751634Y-112641142D01*
X119453977Y-112641142D01*
X119453977Y-111746744D01*
X119751634Y-111746744D01*
X119928799Y-111746744D01*
X119950230Y-111670306D01*
X120003808Y-111632444D01*
X120104535Y-111621014D01*
X120174187Y-111628872D01*
X120225979Y-111652447D01*
X120262590Y-111694595D01*
X120286701Y-111758174D01*
X120300095Y-111847828D01*
X120304560Y-111968201D01*
X120299559Y-112085894D01*
X120284557Y-112173226D01*
X120257947Y-112234841D01*
X120218121Y-112275382D01*
X120161864Y-112297885D01*
X120085961Y-112305386D01*
X119998093Y-112298956D01*
X119927370Y-112276811D01*
X119927370Y-112058212D01*
X120128824Y-112058212D01*
X120128824Y-111902478D01*
X119754491Y-111902478D01*
X119754491Y-112386824D01*
X119843431Y-112423972D01*
X119918797Y-112446832D01*
X119993807Y-112458619D01*
X120081675Y-112462548D01*
X120179306Y-112457548D01*
X120260745Y-112442546D01*
X120325991Y-112417543D01*
X120399393Y-112357178D01*
X120448149Y-112266095D01*
X120468390Y-112185212D01*
X120480534Y-112084485D01*
X120484486Y-111966772D01*
X120597454Y-111966772D01*
X120601184Y-112087263D01*
X120612376Y-112187752D01*
X120631029Y-112268238D01*
X120676392Y-112358607D01*
X120745329Y-112418257D01*
X120806686Y-112442863D01*
X120883124Y-112457627D01*
X120974644Y-112462548D01*
X121066163Y-112457627D01*
X121107261Y-112449689D01*
X122283379Y-112449689D01*
X122464830Y-112449689D01*
X122534839Y-112216803D01*
X122843449Y-112216803D01*
X122913457Y-112449689D01*
X123094909Y-112449689D01*
X122804872Y-111478139D01*
X123194921Y-111478139D01*
X123194921Y-111641017D01*
X123454954Y-111641017D01*
X123454954Y-112449689D01*
X123637834Y-112449689D01*
X123997879Y-112449689D01*
X124179330Y-112449689D01*
X124249339Y-112216803D01*
X124557949Y-112216803D01*
X124627957Y-112449689D01*
X124809409Y-112449689D01*
X124668229Y-111976773D01*
X124885132Y-111976773D01*
X124889895Y-112093057D01*
X124904182Y-112190451D01*
X124927995Y-112268952D01*
X124985502Y-112357714D01*
X125072299Y-112416828D01*
X125149292Y-112441434D01*
X125245019Y-112456198D01*
X125359478Y-112461119D01*
X125434566Y-112459849D01*
X125518862Y-112456039D01*
X125612366Y-112449689D01*
X125612366Y-111478139D01*
X125525213Y-111473853D01*
X125446631Y-111472424D01*
X125369479Y-111474210D01*
X125300899Y-111479568D01*
X125200489Y-111493856D01*
X125116431Y-111515763D01*
X125048724Y-111545291D01*
X124972465Y-111607977D01*
X124922280Y-111696024D01*
X124901642Y-111771986D01*
X124889260Y-111865569D01*
X124885132Y-111976773D01*
X124668229Y-111976773D01*
X124519372Y-111478139D01*
X124287915Y-111478139D01*
X123997879Y-112449689D01*
X123637834Y-112449689D01*
X123637834Y-111641017D01*
X123897866Y-111641017D01*
X123897866Y-111478139D01*
X123194921Y-111478139D01*
X122804872Y-111478139D01*
X122573415Y-111478139D01*
X122283379Y-112449689D01*
X121107261Y-112449689D01*
X121114654Y-112448261D01*
X121468991Y-112448261D01*
X122143361Y-112448261D01*
X122143361Y-111478139D01*
X121960481Y-111478139D01*
X121960481Y-112288241D01*
X121468991Y-112288241D01*
X121468991Y-112448261D01*
X121114654Y-112448261D01*
X121142601Y-112442863D01*
X121203958Y-112418257D01*
X121272895Y-112358607D01*
X121318258Y-112268238D01*
X121336911Y-112187752D01*
X121348103Y-112087263D01*
X121351834Y-111966772D01*
X121348103Y-111844534D01*
X121336911Y-111742617D01*
X121318258Y-111661019D01*
X121272895Y-111569401D01*
X121203958Y-111508857D01*
X121142601Y-111483854D01*
X121066163Y-111468852D01*
X120974644Y-111463852D01*
X120883124Y-111468852D01*
X120806686Y-111483854D01*
X120745329Y-111508857D01*
X120676392Y-111569401D01*
X120631029Y-111661019D01*
X120612376Y-111742617D01*
X120601184Y-111844534D01*
X120597454Y-111966772D01*
X120484486Y-111966772D01*
X120484582Y-111963914D01*
X120480772Y-111842550D01*
X120469342Y-111741347D01*
X120450292Y-111660305D01*
X120404394Y-111569222D01*
X120335278Y-111508857D01*
X120273921Y-111483854D01*
X120197483Y-111468852D01*
X120105964Y-111463852D01*
X119987735Y-111470281D01*
X119898795Y-111489569D01*
X119834680Y-111523859D01*
X119790924Y-111575294D01*
X119764314Y-111648161D01*
X119751634Y-111746744D01*
X119453977Y-111746744D01*
X119453977Y-111285258D01*
X119751634Y-111285258D01*
X125612366Y-111285258D01*
X125910023Y-111285258D01*
X125910023Y-112641142D01*
G37*
X120730742Y-130287500D02*
X121205258Y-130287500D01*
X120730742Y-131332500D02*
X121205258Y-131332500D01*
X124746252Y-103417000D02*
X124223748Y-103417000D01*
X124746252Y-101947000D02*
X124223748Y-101947000D01*
G36*
X107166079Y-131598641D02*
G01*
X105906001Y-131598641D01*
X105375760Y-131598641D01*
X104119714Y-131598641D01*
X102448347Y-131598641D01*
X102028321Y-131598641D01*
X102028321Y-131494474D01*
X102448347Y-131494474D01*
X103399958Y-131494474D01*
X103399958Y-131115443D01*
X103635844Y-131115443D01*
X103654998Y-131254808D01*
X103692296Y-131358386D01*
X103752024Y-131431471D01*
X103838465Y-131479353D01*
X103958676Y-131505815D01*
X104119714Y-131514636D01*
X104251211Y-131507579D01*
X104360753Y-131486410D01*
X104448343Y-131451128D01*
X104546629Y-131366198D01*
X104611649Y-131238427D01*
X104637418Y-131129556D01*
X104859632Y-131129556D01*
X104871225Y-131263628D01*
X104906003Y-131363426D01*
X104968251Y-131433991D01*
X105062253Y-131480362D01*
X105195569Y-131506067D01*
X105375760Y-131514636D01*
X105561496Y-131505059D01*
X105699348Y-131476329D01*
X105796374Y-131424414D01*
X105859630Y-131345281D01*
X105892896Y-131233386D01*
X105899953Y-131083185D01*
X105647937Y-131083185D01*
X105615679Y-131213225D01*
X105529994Y-131276733D01*
X105457665Y-131290342D01*
X105359631Y-131294878D01*
X105209430Y-131280765D01*
X105133825Y-131231370D01*
X105111648Y-131131572D01*
X105143906Y-131028750D01*
X105249752Y-130951129D01*
X105338714Y-130914586D01*
X105458421Y-130875524D01*
X105608371Y-130824869D01*
X105719510Y-130773710D01*
X105797886Y-130717510D01*
X105849550Y-130651734D01*
X105878279Y-130571593D01*
X105887856Y-130472299D01*
X105876515Y-130345283D01*
X105842493Y-130250525D01*
X105781505Y-130183237D01*
X105689268Y-130138630D01*
X105558976Y-130113681D01*
X105383825Y-130105364D01*
X105212202Y-130113933D01*
X105084430Y-130139638D01*
X104993453Y-130186009D01*
X104932213Y-130256574D01*
X104897939Y-130356876D01*
X104887858Y-130492460D01*
X105143906Y-130492460D01*
X105173140Y-130390646D01*
X105247736Y-130340243D01*
X105391889Y-130325122D01*
X105540074Y-130339235D01*
X105613663Y-130385606D01*
X105635840Y-130480364D01*
X105558220Y-130584194D01*
X105450105Y-130633841D01*
X105281002Y-130692057D01*
X105134581Y-130744980D01*
X105025963Y-130798911D01*
X104949098Y-130859143D01*
X104897939Y-130930967D01*
X104869209Y-131019425D01*
X104859632Y-131129556D01*
X104637418Y-131129556D01*
X104638531Y-131124852D01*
X104654660Y-130983051D01*
X104660036Y-130813024D01*
X104654660Y-130641654D01*
X104638531Y-130498509D01*
X104611649Y-130383590D01*
X104546629Y-130254306D01*
X104448343Y-130168872D01*
X104360753Y-130133590D01*
X104251211Y-130112421D01*
X104119714Y-130105364D01*
X103960441Y-130114689D01*
X103841489Y-130142663D01*
X103756308Y-130192562D01*
X103698344Y-130267662D01*
X103663566Y-130373761D01*
X103647941Y-130516654D01*
X103899957Y-130516654D01*
X103926670Y-130423408D01*
X103966489Y-130365444D01*
X104027981Y-130335203D01*
X104119714Y-130325122D01*
X104218000Y-130335959D01*
X104291085Y-130368469D01*
X104342748Y-130427188D01*
X104376770Y-130516654D01*
X104395672Y-130643166D01*
X104401972Y-130813024D01*
X104395672Y-130980867D01*
X104376770Y-131105362D01*
X104342748Y-131193316D01*
X104291085Y-131251531D01*
X104218000Y-131284041D01*
X104119714Y-131294878D01*
X104018404Y-131285553D01*
X103952376Y-131257580D01*
X103887860Y-131115443D01*
X103635844Y-131115443D01*
X103399958Y-131115443D01*
X103399958Y-130125526D01*
X103141894Y-130125526D01*
X103141894Y-131268668D01*
X102448347Y-131268668D01*
X102448347Y-131494474D01*
X102028321Y-131494474D01*
X102028321Y-130021359D01*
X102448347Y-130021359D01*
X105906001Y-130021359D01*
X107166079Y-130021359D01*
X107166079Y-131598641D01*
G37*
G36*
X149126879Y-118898641D02*
G01*
X148706853Y-118898641D01*
X148176612Y-118898641D01*
X146920566Y-118898641D01*
X145249199Y-118898641D01*
X143989121Y-118898641D01*
X143989121Y-118794474D01*
X145249199Y-118794474D01*
X146200810Y-118794474D01*
X146200810Y-118415443D01*
X146436696Y-118415443D01*
X146455850Y-118554808D01*
X146493148Y-118658386D01*
X146552876Y-118731471D01*
X146639317Y-118779353D01*
X146759528Y-118805815D01*
X146920566Y-118814636D01*
X147052063Y-118807579D01*
X147161605Y-118786410D01*
X147249195Y-118751128D01*
X147347481Y-118666198D01*
X147412501Y-118538427D01*
X147438270Y-118429556D01*
X147660484Y-118429556D01*
X147672077Y-118563628D01*
X147706855Y-118663426D01*
X147769103Y-118733991D01*
X147863105Y-118780362D01*
X147996421Y-118806067D01*
X148176612Y-118814636D01*
X148362348Y-118805059D01*
X148500200Y-118776329D01*
X148597226Y-118724414D01*
X148660482Y-118645281D01*
X148693748Y-118533386D01*
X148700805Y-118383185D01*
X148448789Y-118383185D01*
X148416531Y-118513225D01*
X148330846Y-118576733D01*
X148258517Y-118590342D01*
X148160483Y-118594878D01*
X148010282Y-118580765D01*
X147934677Y-118531370D01*
X147912500Y-118431572D01*
X147944758Y-118328750D01*
X148050605Y-118251129D01*
X148139566Y-118214586D01*
X148259273Y-118175524D01*
X148409223Y-118124869D01*
X148520362Y-118073710D01*
X148598739Y-118017510D01*
X148650402Y-117951734D01*
X148679132Y-117871593D01*
X148688708Y-117772299D01*
X148677367Y-117645283D01*
X148643345Y-117550525D01*
X148582358Y-117483237D01*
X148490120Y-117438630D01*
X148359828Y-117413681D01*
X148184677Y-117405364D01*
X148013054Y-117413933D01*
X147885282Y-117439638D01*
X147794305Y-117486009D01*
X147733065Y-117556574D01*
X147698791Y-117656876D01*
X147688710Y-117792460D01*
X147944758Y-117792460D01*
X147973992Y-117690646D01*
X148048588Y-117640243D01*
X148192741Y-117625122D01*
X148340927Y-117639235D01*
X148414515Y-117685606D01*
X148436692Y-117780364D01*
X148359072Y-117884194D01*
X148250957Y-117933841D01*
X148081854Y-117992057D01*
X147935433Y-118044980D01*
X147826815Y-118098911D01*
X147749950Y-118159143D01*
X147698791Y-118230967D01*
X147670061Y-118319425D01*
X147660484Y-118429556D01*
X147438270Y-118429556D01*
X147439383Y-118424852D01*
X147455512Y-118283051D01*
X147460888Y-118113024D01*
X147455512Y-117941654D01*
X147439383Y-117798509D01*
X147412501Y-117683590D01*
X147347481Y-117554306D01*
X147249195Y-117468872D01*
X147161605Y-117433590D01*
X147052063Y-117412421D01*
X146920566Y-117405364D01*
X146761293Y-117414689D01*
X146642341Y-117442663D01*
X146557160Y-117492562D01*
X146499196Y-117567662D01*
X146464418Y-117673761D01*
X146448793Y-117816654D01*
X146700809Y-117816654D01*
X146727523Y-117723408D01*
X146767341Y-117665444D01*
X146828833Y-117635203D01*
X146920566Y-117625122D01*
X147018853Y-117635959D01*
X147091937Y-117668469D01*
X147143600Y-117727188D01*
X147177622Y-117816654D01*
X147196524Y-117943166D01*
X147202824Y-118113024D01*
X147196524Y-118280867D01*
X147177622Y-118405362D01*
X147143600Y-118493316D01*
X147091937Y-118551531D01*
X147018853Y-118584041D01*
X146920566Y-118594878D01*
X146819256Y-118585553D01*
X146753228Y-118557580D01*
X146688712Y-118415443D01*
X146436696Y-118415443D01*
X146200810Y-118415443D01*
X146200810Y-117425526D01*
X145942746Y-117425526D01*
X145942746Y-118568668D01*
X145249199Y-118568668D01*
X145249199Y-118794474D01*
X143989121Y-118794474D01*
X143989121Y-117321359D01*
X145249199Y-117321359D01*
X148706853Y-117321359D01*
X149126879Y-117321359D01*
X149126879Y-118898641D01*
G37*
X133587258Y-108726500D02*
X133112742Y-108726500D01*
X133587258Y-107681500D02*
X133112742Y-107681500D01*
X124714580Y-117731000D02*
X124433420Y-117731000D01*
X124714580Y-116711000D02*
X124433420Y-116711000D01*
G36*
X112620420Y-129048560D02*
G01*
X112200394Y-129048560D01*
X111811282Y-129048560D01*
X110339510Y-129048560D01*
X109391932Y-129048560D01*
X108857658Y-129048560D01*
X107597580Y-129048560D01*
X107597580Y-128504879D01*
X108857658Y-128504879D01*
X108870511Y-128659616D01*
X108909070Y-128777055D01*
X108976358Y-128862237D01*
X109075400Y-128920200D01*
X109211992Y-128953466D01*
X109391932Y-128964555D01*
X109504078Y-128960019D01*
X109598584Y-128946410D01*
X109687042Y-128921208D01*
X109781044Y-128881894D01*
X109781044Y-128629878D01*
X109667385Y-128684818D01*
X109572375Y-128720604D01*
X109484925Y-128740261D01*
X109393948Y-128746814D01*
X109258615Y-128733457D01*
X109171166Y-128693386D01*
X109123535Y-128619546D01*
X109107658Y-128504879D01*
X109120763Y-128414153D01*
X109160077Y-128351653D01*
X109229633Y-128315363D01*
X109333464Y-128303266D01*
X109433262Y-128309314D01*
X109555238Y-128327460D01*
X109555238Y-128089557D01*
X109216529Y-127789154D01*
X109752818Y-127789154D01*
X109752818Y-127575445D01*
X109932253Y-127575445D01*
X110339510Y-128946410D01*
X110656042Y-128946410D01*
X110787203Y-128504879D01*
X111277008Y-128504879D01*
X111289861Y-128659616D01*
X111328420Y-128777055D01*
X111395708Y-128862237D01*
X111494750Y-128920200D01*
X111631342Y-128953466D01*
X111811282Y-128964555D01*
X111923428Y-128960019D01*
X112017934Y-128946410D01*
X112106392Y-128921208D01*
X112200394Y-128881894D01*
X112200394Y-128629878D01*
X112086735Y-128684818D01*
X111991725Y-128720604D01*
X111904275Y-128740261D01*
X111813298Y-128746814D01*
X111677965Y-128733457D01*
X111590516Y-128693386D01*
X111542885Y-128619546D01*
X111527008Y-128504879D01*
X111540113Y-128414153D01*
X111579427Y-128351653D01*
X111648983Y-128315363D01*
X111752814Y-128303266D01*
X111852612Y-128309314D01*
X111974588Y-128327460D01*
X111974588Y-128089557D01*
X111635879Y-127789154D01*
X112172168Y-127789154D01*
X112172168Y-127575445D01*
X111329428Y-127575445D01*
X111329428Y-127809315D01*
X111668137Y-128095605D01*
X111668137Y-128105686D01*
X111587492Y-128101654D01*
X111484417Y-128111734D01*
X111405032Y-128141976D01*
X111346817Y-128194143D01*
X111307250Y-128270000D01*
X111284569Y-128372570D01*
X111277008Y-128504879D01*
X110787203Y-128504879D01*
X111063299Y-127575445D01*
X110801203Y-127575445D01*
X110502816Y-128643991D01*
X110492736Y-128643991D01*
X110194349Y-127575445D01*
X109932253Y-127575445D01*
X109752818Y-127575445D01*
X108910078Y-127575445D01*
X108910078Y-127809315D01*
X109248787Y-128095605D01*
X109248787Y-128105686D01*
X109168142Y-128101654D01*
X109065067Y-128111734D01*
X108985682Y-128141976D01*
X108927467Y-128194143D01*
X108887900Y-128270000D01*
X108865219Y-128372570D01*
X108857658Y-128504879D01*
X107597580Y-128504879D01*
X107597580Y-127491440D01*
X108857658Y-127491440D01*
X112200394Y-127491440D01*
X112620420Y-127491440D01*
X112620420Y-129048560D01*
G37*
G36*
X103198742Y-103012137D02*
G01*
X102884227Y-103012137D01*
X103039468Y-102435525D01*
X103043501Y-102435525D01*
X103198742Y-103012137D01*
G37*
G36*
X104489062Y-103344797D02*
G01*
X104329788Y-103350846D01*
X104208317Y-103333709D01*
X104118095Y-103298427D01*
X104054335Y-103240211D01*
X104012249Y-103154274D01*
X103988811Y-103034566D01*
X103980999Y-102875040D01*
X103988559Y-102724083D01*
X104011241Y-102609920D01*
X104051815Y-102526755D01*
X104113055Y-102468791D01*
X104199496Y-102431241D01*
X104315675Y-102409315D01*
X104410433Y-102401755D01*
X104489062Y-102399235D01*
X104489062Y-103344797D01*
G37*
G36*
X107247121Y-103658641D02*
G01*
X105987043Y-103658641D01*
X105456802Y-103658641D01*
X104390272Y-103658641D01*
X102468905Y-103658641D01*
X102048879Y-103658641D01*
X102048879Y-103556491D01*
X102468905Y-103556491D01*
X102724953Y-103556491D01*
X102823743Y-103227862D01*
X103259226Y-103227862D01*
X103358016Y-103556491D01*
X103614064Y-103556491D01*
X103414844Y-102889153D01*
X103720919Y-102889153D01*
X103727639Y-103053243D01*
X103747800Y-103190676D01*
X103781402Y-103301451D01*
X103862551Y-103426703D01*
X103985031Y-103510120D01*
X104093678Y-103544842D01*
X104228758Y-103565675D01*
X104390272Y-103572620D01*
X104496231Y-103570827D01*
X104615182Y-103565451D01*
X104747126Y-103556491D01*
X104747126Y-103189556D01*
X104940674Y-103189556D01*
X104952267Y-103323628D01*
X104987045Y-103423426D01*
X105049293Y-103493991D01*
X105143295Y-103540362D01*
X105276611Y-103566067D01*
X105456802Y-103574636D01*
X105642538Y-103565059D01*
X105780390Y-103536329D01*
X105877416Y-103484414D01*
X105940672Y-103405281D01*
X105973938Y-103293386D01*
X105980995Y-103143185D01*
X105728979Y-103143185D01*
X105696721Y-103273225D01*
X105611036Y-103336733D01*
X105538707Y-103350342D01*
X105440673Y-103354878D01*
X105290472Y-103340765D01*
X105214867Y-103291370D01*
X105192690Y-103191572D01*
X105224948Y-103088750D01*
X105330794Y-103011129D01*
X105419756Y-102974586D01*
X105539463Y-102935524D01*
X105689413Y-102884869D01*
X105800551Y-102833710D01*
X105878928Y-102777510D01*
X105930592Y-102711734D01*
X105959321Y-102631593D01*
X105968898Y-102532299D01*
X105957557Y-102405283D01*
X105923535Y-102310525D01*
X105862547Y-102243237D01*
X105770310Y-102198630D01*
X105640018Y-102173681D01*
X105464867Y-102165364D01*
X105293244Y-102173933D01*
X105165472Y-102199638D01*
X105074494Y-102246009D01*
X105013255Y-102316574D01*
X104978981Y-102416876D01*
X104968900Y-102552460D01*
X105224948Y-102552460D01*
X105254182Y-102450646D01*
X105328778Y-102400243D01*
X105472931Y-102385122D01*
X105621116Y-102399235D01*
X105694705Y-102445606D01*
X105716882Y-102540364D01*
X105639261Y-102644194D01*
X105531147Y-102693841D01*
X105362044Y-102752057D01*
X105215623Y-102804980D01*
X105107004Y-102858911D01*
X105030140Y-102919143D01*
X104978981Y-102990967D01*
X104950251Y-103079425D01*
X104940674Y-103189556D01*
X104747126Y-103189556D01*
X104747126Y-102185526D01*
X104624143Y-102179477D01*
X104513256Y-102177461D01*
X104404385Y-102179981D01*
X104307611Y-102187542D01*
X104165922Y-102207703D01*
X104047307Y-102238617D01*
X103951765Y-102280283D01*
X103844154Y-102368741D01*
X103773338Y-102492985D01*
X103744216Y-102600175D01*
X103726743Y-102732231D01*
X103720919Y-102889153D01*
X103414844Y-102889153D01*
X103204791Y-102185526D01*
X102878178Y-102185526D01*
X102468905Y-103556491D01*
X102048879Y-103556491D01*
X102048879Y-102081359D01*
X102468905Y-102081359D01*
X105987043Y-102081359D01*
X107247121Y-102081359D01*
X107247121Y-103658641D01*
G37*
X119873500Y-114346258D02*
X119873500Y-113871742D01*
X120918500Y-114346258D02*
X120918500Y-113871742D01*
X105424500Y-97552742D02*
X105424500Y-98027258D01*
X104379500Y-97552742D02*
X104379500Y-98027258D01*
X105170500Y-127969742D02*
X105170500Y-128444258D01*
X104125500Y-127969742D02*
X104125500Y-128444258D01*
X124508008Y-101045500D02*
X124033492Y-101045500D01*
X124508008Y-100000500D02*
X124033492Y-100000500D01*
X128659000Y-93628000D02*
X128659000Y-95128000D01*
X128659000Y-93628000D02*
X136059000Y-93628000D01*
X128659000Y-100428000D02*
X128659000Y-98928000D01*
X136059000Y-93628000D02*
X136059000Y-95128000D01*
X136059000Y-100428000D02*
X128659000Y-100428000D01*
X136059000Y-100428000D02*
X136059000Y-98928000D01*
G36*
X137777151Y-87742858D02*
G01*
X137862548Y-87759824D01*
X137924758Y-87790175D01*
X137968117Y-87835985D01*
X137996206Y-87900646D01*
X138012607Y-87987551D01*
X138018262Y-88058433D01*
X138020147Y-88117250D01*
X137312837Y-88117250D01*
X137308312Y-87998108D01*
X137321131Y-87907244D01*
X137347523Y-87839755D01*
X137391071Y-87792061D01*
X137455354Y-87760578D01*
X137544899Y-87743047D01*
X137664230Y-87737203D01*
X137777151Y-87742858D01*
G37*
G36*
X137792232Y-85927641D02*
G01*
X137886678Y-85941780D01*
X137953036Y-85966852D01*
X137996771Y-86004367D01*
X138021090Y-86057528D01*
X138029196Y-86129541D01*
X138021090Y-86201743D01*
X137996771Y-86255470D01*
X137952847Y-86293550D01*
X137885924Y-86318811D01*
X137791289Y-86332950D01*
X137664230Y-86337663D01*
X137539998Y-86332950D01*
X137447814Y-86318811D01*
X137382587Y-86293550D01*
X137339229Y-86255470D01*
X137314910Y-86201743D01*
X137306804Y-86129541D01*
X137314910Y-86057528D01*
X137339229Y-86004367D01*
X137382587Y-85966852D01*
X137447814Y-85941780D01*
X137539998Y-85927641D01*
X137664230Y-85922928D01*
X137792232Y-85927641D01*
G37*
G36*
X138257928Y-85731396D02*
G01*
X138257928Y-88310290D01*
X138257928Y-89252868D01*
X138246593Y-89367957D01*
X138213023Y-89478624D01*
X138158507Y-89580615D01*
X138085142Y-89670010D01*
X137995747Y-89743376D01*
X137893756Y-89797891D01*
X137783089Y-89831461D01*
X137668000Y-89842796D01*
X137552911Y-89831461D01*
X137442244Y-89797891D01*
X137340253Y-89743376D01*
X137250858Y-89670010D01*
X137177493Y-89580615D01*
X137122977Y-89478624D01*
X137089407Y-89367957D01*
X137078072Y-89252868D01*
X137078072Y-88310290D01*
X137078072Y-88043352D01*
X137142418Y-88043352D01*
X137143759Y-88122612D01*
X137147781Y-88211592D01*
X137154483Y-88310290D01*
X138180008Y-88310290D01*
X138184533Y-88218294D01*
X138186041Y-88135348D01*
X138184156Y-88053909D01*
X138178500Y-87981519D01*
X138163419Y-87875531D01*
X138140294Y-87786803D01*
X138109127Y-87715335D01*
X138042958Y-87634839D01*
X137950019Y-87581866D01*
X137869837Y-87560082D01*
X137771055Y-87547011D01*
X137653673Y-87542654D01*
X137530928Y-87547682D01*
X137428124Y-87562763D01*
X137345261Y-87587898D01*
X137251569Y-87648600D01*
X137189170Y-87740219D01*
X137163197Y-87821490D01*
X137147613Y-87922534D01*
X137142418Y-88043352D01*
X137078072Y-88043352D01*
X137078072Y-86752397D01*
X137154483Y-86752397D01*
X137154483Y-87317944D01*
X137321885Y-87317944D01*
X137321885Y-87129428D01*
X138012607Y-87129428D01*
X138012607Y-87307387D01*
X138180008Y-87307387D01*
X138180008Y-86762954D01*
X138012607Y-86762954D01*
X138012607Y-86940913D01*
X137321885Y-86940913D01*
X137321885Y-86752397D01*
X137154483Y-86752397D01*
X137078072Y-86752397D01*
X137078072Y-86129541D01*
X137140910Y-86129541D01*
X137146105Y-86226145D01*
X137161689Y-86306830D01*
X137187662Y-86371595D01*
X137250626Y-86444362D01*
X137346015Y-86492245D01*
X137430973Y-86511935D01*
X137537044Y-86523748D01*
X137664230Y-86527686D01*
X137793258Y-86523748D01*
X137900838Y-86511935D01*
X137986968Y-86492245D01*
X138083677Y-86444362D01*
X138147584Y-86371595D01*
X138173976Y-86306830D01*
X138189811Y-86226145D01*
X138195090Y-86129541D01*
X138189811Y-86032938D01*
X138173976Y-85952253D01*
X138147584Y-85887487D01*
X138083677Y-85814720D01*
X137986968Y-85766837D01*
X137900838Y-85747148D01*
X137793258Y-85735334D01*
X137664230Y-85731396D01*
X137537044Y-85735334D01*
X137430973Y-85747148D01*
X137346015Y-85766837D01*
X137250626Y-85814720D01*
X137187662Y-85887487D01*
X137161689Y-85952253D01*
X137146105Y-86032938D01*
X137140910Y-86129541D01*
X137078072Y-86129541D01*
X137078072Y-85731396D01*
X137078072Y-85417204D01*
X138257928Y-85417204D01*
X138257928Y-85731396D01*
G37*
X119886000Y-117361580D02*
X119886000Y-117080420D01*
X120906000Y-117361580D02*
X120906000Y-117080420D01*
X125476000Y-94772000D02*
X124676000Y-94772000D01*
X125476000Y-94772000D02*
X126276000Y-94772000D01*
X125476000Y-97892000D02*
X123676000Y-97892000D01*
X125476000Y-97892000D02*
X126276000Y-97892000D01*
X113988000Y-116771000D02*
X114248000Y-116771000D01*
X119178000Y-116771000D02*
X119178000Y-118446000D01*
X119438000Y-116771000D02*
X119178000Y-116771000D01*
X113988000Y-114046000D02*
X113988000Y-116771000D01*
X113988000Y-114046000D02*
X113988000Y-111321000D01*
X119438000Y-114046000D02*
X119438000Y-116771000D01*
X119438000Y-114046000D02*
X119438000Y-111321000D01*
X113988000Y-111321000D02*
X114248000Y-111321000D01*
X119438000Y-111321000D02*
X119178000Y-111321000D01*
G36*
X109436302Y-95724797D02*
G01*
X109277028Y-95730846D01*
X109155557Y-95713709D01*
X109065335Y-95678427D01*
X109001575Y-95620211D01*
X108959489Y-95534274D01*
X108936051Y-95414566D01*
X108928239Y-95255040D01*
X108935799Y-95104083D01*
X108958481Y-94989920D01*
X108999055Y-94906755D01*
X109060295Y-94848791D01*
X109146736Y-94811241D01*
X109262915Y-94789315D01*
X109357673Y-94781755D01*
X109436302Y-94779235D01*
X109436302Y-95724797D01*
G37*
G36*
X112555920Y-96038641D02*
G01*
X112135894Y-96038641D01*
X111567346Y-96038641D01*
X109891946Y-96038641D01*
X109337512Y-96038641D01*
X108668159Y-96038641D01*
X107408080Y-96038641D01*
X107408080Y-95269153D01*
X108668159Y-95269153D01*
X108674879Y-95433243D01*
X108695040Y-95570676D01*
X108728642Y-95681451D01*
X108809791Y-95806703D01*
X108932271Y-95890120D01*
X109040918Y-95924842D01*
X109175998Y-95945675D01*
X109337512Y-95952620D01*
X109443471Y-95950827D01*
X109562422Y-95945451D01*
X109694366Y-95936491D01*
X109694366Y-94565526D01*
X109891946Y-94565526D01*
X109891946Y-95936491D01*
X110206462Y-95936491D01*
X110698396Y-94861896D01*
X110704445Y-94861896D01*
X110676219Y-95148186D01*
X110676219Y-95936491D01*
X110924202Y-95936491D01*
X110924202Y-94944557D01*
X111101621Y-94944557D01*
X111351621Y-94944557D01*
X111381863Y-94836694D01*
X111457467Y-94783267D01*
X111599604Y-94767138D01*
X111697890Y-94778227D01*
X111770975Y-94811493D01*
X111822638Y-94870968D01*
X111856660Y-94960686D01*
X111875561Y-95087198D01*
X111881862Y-95257056D01*
X111874805Y-95423135D01*
X111853636Y-95546370D01*
X111816086Y-95633316D01*
X111759886Y-95690523D01*
X111680501Y-95722277D01*
X111573395Y-95732862D01*
X111449403Y-95723789D01*
X111349605Y-95692539D01*
X111349605Y-95384072D01*
X111633878Y-95384072D01*
X111633878Y-95164315D01*
X111105654Y-95164315D01*
X111105654Y-95847781D01*
X111231157Y-95900200D01*
X111337508Y-95932458D01*
X111443355Y-95949091D01*
X111567346Y-95954636D01*
X111705115Y-95947579D01*
X111820034Y-95926410D01*
X111912104Y-95891128D01*
X112015682Y-95805946D01*
X112084482Y-95677418D01*
X112113044Y-95563283D01*
X112130181Y-95421147D01*
X112135894Y-95251008D01*
X112130517Y-95079749D01*
X112114388Y-94936941D01*
X112087507Y-94822581D01*
X112022739Y-94694054D01*
X111925208Y-94608872D01*
X111838627Y-94573590D01*
X111730764Y-94552421D01*
X111601620Y-94545364D01*
X111434786Y-94554437D01*
X111309282Y-94581655D01*
X111218809Y-94630042D01*
X111157065Y-94702622D01*
X111119515Y-94805444D01*
X111101621Y-94944557D01*
X110924202Y-94944557D01*
X110924202Y-94565526D01*
X110609687Y-94565526D01*
X110117752Y-95640120D01*
X110111704Y-95640120D01*
X110139930Y-95353830D01*
X110139930Y-94565526D01*
X109891946Y-94565526D01*
X109694366Y-94565526D01*
X109571383Y-94559477D01*
X109460496Y-94557461D01*
X109351625Y-94559981D01*
X109254851Y-94567542D01*
X109113162Y-94587703D01*
X108994547Y-94618617D01*
X108899005Y-94660283D01*
X108791394Y-94748741D01*
X108720578Y-94872985D01*
X108691456Y-94980175D01*
X108673983Y-95112231D01*
X108668159Y-95269153D01*
X107408080Y-95269153D01*
X107408080Y-94461359D01*
X108668159Y-94461359D01*
X112135894Y-94461359D01*
X112555920Y-94461359D01*
X112555920Y-96038641D01*
G37*
X101676580Y-125224000D02*
X101395420Y-125224000D01*
X101676580Y-124204000D02*
X101395420Y-124204000D01*
G36*
X112092515Y-130344275D02*
G01*
X112092515Y-130713226D01*
X111832435Y-130713226D01*
X111708443Y-130669879D01*
X111675177Y-130513630D01*
X111709451Y-130389638D01*
X111836467Y-130348307D01*
X111934249Y-130343771D01*
X112005822Y-130342259D01*
X112092515Y-130344275D01*
G37*
G36*
X109663084Y-131231370D02*
G01*
X109602601Y-131286814D01*
X109467520Y-131301935D01*
X109334456Y-131286814D01*
X109275988Y-131239435D01*
X109243730Y-131130564D01*
X109222561Y-130985403D01*
X109215505Y-130803952D01*
X109219537Y-130670887D01*
X109663084Y-131231370D01*
G37*
G36*
X109596552Y-130331170D02*
G01*
X109655020Y-130377541D01*
X109689294Y-130485404D01*
X109709455Y-130623508D01*
X109715504Y-130705918D01*
X109717520Y-130810000D01*
X109715504Y-130897701D01*
X109709455Y-130991451D01*
X109257843Y-130420888D01*
X109321351Y-130339235D01*
X109469536Y-130318065D01*
X109596552Y-130331170D01*
G37*
G36*
X112768589Y-131599649D02*
G01*
X112348563Y-131599649D01*
X111342517Y-131599649D01*
X110124777Y-131599649D01*
X109469536Y-131599649D01*
X108963489Y-131599649D01*
X107703411Y-131599649D01*
X107703411Y-130822097D01*
X108963489Y-130822097D01*
X108965757Y-130929959D01*
X108972562Y-131023709D01*
X108984910Y-131110907D01*
X109003812Y-131199112D01*
X109042118Y-131318568D01*
X109088489Y-131402741D01*
X109147461Y-131458436D01*
X109223569Y-131492458D01*
X109327400Y-131509847D01*
X109469536Y-131515644D01*
X109610161Y-131509847D01*
X109683534Y-131497499D01*
X110124777Y-131497499D01*
X110411067Y-131497499D01*
X110673163Y-131013629D01*
X110679211Y-131013629D01*
X110941308Y-131497499D01*
X111227597Y-131497499D01*
X111342517Y-131497499D01*
X111618726Y-131497499D01*
X111713484Y-131088225D01*
X111786064Y-130968266D01*
X111856628Y-130944828D01*
X111963483Y-130937016D01*
X112092515Y-130937016D01*
X112092515Y-131497499D01*
X112348563Y-131497499D01*
X112348563Y-130128550D01*
X112108644Y-130120485D01*
X111989693Y-130118469D01*
X111852932Y-130122725D01*
X111738349Y-130135494D01*
X111645943Y-130156775D01*
X111541609Y-130207179D01*
X111472557Y-130281775D01*
X111433998Y-130385606D01*
X111421145Y-130523710D01*
X111442315Y-130686008D01*
X111513887Y-130776734D01*
X111657032Y-130822097D01*
X111657032Y-130840242D01*
X111531024Y-130902742D01*
X111491962Y-130968770D01*
X111457436Y-131070080D01*
X111342517Y-131497499D01*
X111227597Y-131497499D01*
X110816308Y-130781774D01*
X111207436Y-130122501D01*
X110925179Y-130122501D01*
X110679211Y-130574113D01*
X110673163Y-130574113D01*
X110431228Y-130122501D01*
X110144938Y-130122501D01*
X110536067Y-130781774D01*
X110124777Y-131497499D01*
X109683534Y-131497499D01*
X109713488Y-131492458D01*
X109789344Y-131458184D01*
X109847560Y-131401733D01*
X109893175Y-131316299D01*
X109931229Y-131195080D01*
X109952510Y-131079489D01*
X109965279Y-130950457D01*
X109969535Y-130807984D01*
X109964831Y-130661703D01*
X109950718Y-130531999D01*
X109927197Y-130418872D01*
X109889647Y-130302693D01*
X109845544Y-130220283D01*
X109788588Y-130164840D01*
X109712480Y-130129558D01*
X109607893Y-130110657D01*
X109465504Y-130104356D01*
X109323367Y-130110657D01*
X109219537Y-130129558D01*
X109144184Y-130164588D01*
X109087481Y-130219275D01*
X109043378Y-130300928D01*
X109005828Y-130416856D01*
X108982306Y-130533567D01*
X108968193Y-130668647D01*
X108963489Y-130822097D01*
X107703411Y-130822097D01*
X107703411Y-130020351D01*
X108963489Y-130020351D01*
X112348563Y-130020351D01*
X112768589Y-130020351D01*
X112768589Y-131599649D01*
G37*
G36*
X146012302Y-111015597D02*
G01*
X145853028Y-111021646D01*
X145731557Y-111004509D01*
X145641335Y-110969227D01*
X145577575Y-110911011D01*
X145535489Y-110825074D01*
X145512051Y-110705366D01*
X145504239Y-110545840D01*
X145511799Y-110394883D01*
X145534481Y-110280720D01*
X145575055Y-110197555D01*
X145636295Y-110139591D01*
X145722736Y-110102041D01*
X145838915Y-110080115D01*
X145933673Y-110072555D01*
X146012302Y-110070035D01*
X146012302Y-111015597D01*
G37*
G36*
X149131920Y-111329441D02*
G01*
X148711894Y-111329441D01*
X148143346Y-111329441D01*
X146467946Y-111329441D01*
X145913512Y-111329441D01*
X145244159Y-111329441D01*
X143984080Y-111329441D01*
X143984080Y-110559953D01*
X145244159Y-110559953D01*
X145250879Y-110724043D01*
X145271040Y-110861476D01*
X145304642Y-110972251D01*
X145385791Y-111097503D01*
X145508271Y-111180920D01*
X145616918Y-111215642D01*
X145751998Y-111236475D01*
X145913512Y-111243420D01*
X146019471Y-111241627D01*
X146138422Y-111236251D01*
X146270366Y-111227291D01*
X146270366Y-109856326D01*
X146467946Y-109856326D01*
X146467946Y-111227291D01*
X146782462Y-111227291D01*
X147274396Y-110152696D01*
X147280445Y-110152696D01*
X147252219Y-110438986D01*
X147252219Y-111227291D01*
X147500202Y-111227291D01*
X147500202Y-110235357D01*
X147677621Y-110235357D01*
X147927621Y-110235357D01*
X147957863Y-110127494D01*
X148033467Y-110074067D01*
X148175604Y-110057938D01*
X148273890Y-110069027D01*
X148346975Y-110102293D01*
X148398638Y-110161768D01*
X148432660Y-110251486D01*
X148451561Y-110377998D01*
X148457862Y-110547856D01*
X148450805Y-110713935D01*
X148429636Y-110837170D01*
X148392086Y-110924116D01*
X148335886Y-110981323D01*
X148256501Y-111013077D01*
X148149395Y-111023662D01*
X148025403Y-111014589D01*
X147925605Y-110983339D01*
X147925605Y-110674872D01*
X148209878Y-110674872D01*
X148209878Y-110455115D01*
X147681654Y-110455115D01*
X147681654Y-111138581D01*
X147807157Y-111191000D01*
X147913508Y-111223258D01*
X148019355Y-111239891D01*
X148143346Y-111245436D01*
X148281115Y-111238379D01*
X148396034Y-111217210D01*
X148488104Y-111181928D01*
X148591682Y-111096746D01*
X148660482Y-110968218D01*
X148689044Y-110854083D01*
X148706181Y-110711947D01*
X148711894Y-110541808D01*
X148706517Y-110370549D01*
X148690388Y-110227741D01*
X148663507Y-110113381D01*
X148598739Y-109984854D01*
X148501208Y-109899672D01*
X148414627Y-109864390D01*
X148306764Y-109843221D01*
X148177620Y-109836164D01*
X148010786Y-109845237D01*
X147885282Y-109872455D01*
X147794809Y-109920842D01*
X147733065Y-109993422D01*
X147695515Y-110096244D01*
X147677621Y-110235357D01*
X147500202Y-110235357D01*
X147500202Y-109856326D01*
X147185687Y-109856326D01*
X146693752Y-110930920D01*
X146687704Y-110930920D01*
X146715930Y-110644630D01*
X146715930Y-109856326D01*
X146467946Y-109856326D01*
X146270366Y-109856326D01*
X146147383Y-109850277D01*
X146036496Y-109848261D01*
X145927625Y-109850781D01*
X145830851Y-109858342D01*
X145689162Y-109878503D01*
X145570547Y-109909417D01*
X145475005Y-109951083D01*
X145367394Y-110039541D01*
X145296578Y-110163785D01*
X145267456Y-110270975D01*
X145249983Y-110403031D01*
X145244159Y-110559953D01*
X143984080Y-110559953D01*
X143984080Y-109752159D01*
X145244159Y-109752159D01*
X148711894Y-109752159D01*
X149131920Y-109752159D01*
X149131920Y-111329441D01*
G37*
G36*
X118304998Y-92209144D02*
G01*
X118057348Y-92209144D01*
X118179585Y-91755119D01*
X118182760Y-91755119D01*
X118304998Y-92209144D01*
G37*
G36*
X119303535Y-91993244D02*
G01*
X119081285Y-91993244D01*
X118988417Y-91963875D01*
X118963810Y-91864656D01*
X118996354Y-91764644D01*
X119043384Y-91741228D01*
X119119385Y-91728131D01*
X119251148Y-91723369D01*
X119303535Y-91723369D01*
X119303535Y-91993244D01*
G37*
G36*
X119303535Y-92472669D02*
G01*
X119231701Y-92475050D01*
X119165423Y-92475844D01*
X119079896Y-92472470D01*
X119016992Y-92462350D01*
X118943173Y-92416313D01*
X118920948Y-92323444D01*
X118939204Y-92228194D01*
X118999529Y-92181363D01*
X119120973Y-92167869D01*
X119303535Y-92167869D01*
X119303535Y-92472669D01*
G37*
G36*
X120165019Y-92848906D02*
G01*
X119503560Y-92848906D01*
X119192410Y-92848906D01*
X117730323Y-92848906D01*
X117127073Y-92848906D01*
X116838148Y-92848906D01*
X116308981Y-92848906D01*
X116308981Y-91558269D01*
X116838148Y-91558269D01*
X116838148Y-91739244D01*
X117127073Y-91739244D01*
X117127073Y-92637769D01*
X117330273Y-92637769D01*
X117730323Y-92637769D01*
X117931935Y-92637769D01*
X118009723Y-92379006D01*
X118352623Y-92379006D01*
X118430410Y-92637769D01*
X118632023Y-92637769D01*
X118542453Y-92337731D01*
X118717748Y-92337731D01*
X118728464Y-92447269D01*
X118760610Y-92528231D01*
X118817959Y-92585183D01*
X118904279Y-92622687D01*
X118981097Y-92638122D01*
X119077140Y-92647382D01*
X119192410Y-92650469D01*
X119289072Y-92648705D01*
X119392788Y-92643413D01*
X119503560Y-92634594D01*
X119503560Y-91555094D01*
X119242137Y-91550480D01*
X119130674Y-91553330D01*
X119032778Y-91562326D01*
X118954285Y-91577319D01*
X118865981Y-91613633D01*
X118807442Y-91668600D01*
X118774699Y-91746189D01*
X118763785Y-91850369D01*
X118771524Y-91942047D01*
X118794742Y-92004356D01*
X118838199Y-92044441D01*
X118906660Y-92069444D01*
X118906660Y-92078969D01*
X118791567Y-92120244D01*
X118734417Y-92199619D01*
X118721915Y-92259547D01*
X118717748Y-92337731D01*
X118542453Y-92337731D01*
X118309760Y-91558269D01*
X118052585Y-91558269D01*
X117730323Y-92637769D01*
X117330273Y-92637769D01*
X117330273Y-91739244D01*
X117619198Y-91739244D01*
X117619198Y-91558269D01*
X116838148Y-91558269D01*
X116308981Y-91558269D01*
X116308981Y-91351894D01*
X116838148Y-91351894D01*
X119503560Y-91351894D01*
X120165019Y-91351894D01*
X120165019Y-92848906D01*
G37*
X123905742Y-130287500D02*
X124380258Y-130287500D01*
X123905742Y-131332500D02*
X124380258Y-131332500D01*
X122801748Y-92803000D02*
X123324252Y-92803000D01*
X122801748Y-94273000D02*
X123324252Y-94273000D01*
G36*
X147451762Y-126480888D02*
G01*
X147507324Y-126533275D01*
X147534312Y-126638844D01*
X147161249Y-126638844D01*
X147184268Y-126533275D01*
X147240624Y-126480888D01*
X147348575Y-126465806D01*
X147451762Y-126480888D01*
G37*
G36*
X151870304Y-127367506D02*
G01*
X151539575Y-127367506D01*
X151156987Y-127367506D01*
X150106062Y-127367506D01*
X149251987Y-127367506D01*
X148199474Y-127367506D01*
X147335874Y-127367506D01*
X145954749Y-127367506D01*
X145624020Y-127367506D01*
X145624020Y-127151606D01*
X145954749Y-127151606D01*
X146138899Y-127151606D01*
X146138899Y-126653131D01*
X146143265Y-126565223D01*
X146156362Y-126511050D01*
X146219862Y-126473744D01*
X146271456Y-126492000D01*
X146297649Y-126553119D01*
X146305587Y-126675356D01*
X146305587Y-127151606D01*
X146489737Y-127151606D01*
X146486562Y-126653131D01*
X146490531Y-126567208D01*
X146505612Y-126512638D01*
X146573874Y-126473744D01*
X146625468Y-126492794D01*
X146650868Y-126556294D01*
X146658012Y-126683294D01*
X146658012Y-127151606D01*
X146842162Y-127151606D01*
X146842162Y-126738856D01*
X146970749Y-126738856D01*
X146972337Y-126800769D01*
X147535899Y-126800769D01*
X147510499Y-126923006D01*
X147450968Y-126984125D01*
X147337462Y-127002381D01*
X147233481Y-126980156D01*
X147181887Y-126897606D01*
X146985037Y-126897606D01*
X147006071Y-126990475D01*
X147037424Y-127059531D01*
X147082271Y-127108545D01*
X147143787Y-127141288D01*
X147226734Y-127159742D01*
X147335874Y-127165894D01*
X147473590Y-127156170D01*
X147500650Y-127148431D01*
X147947062Y-127148431D01*
X148092715Y-127163909D01*
X148199474Y-127169069D01*
X148299884Y-127161528D01*
X148372512Y-127138906D01*
X148451887Y-127049213D01*
X148467365Y-126978767D01*
X148470926Y-126915069D01*
X148878924Y-126915069D01*
X148887259Y-127002381D01*
X148912262Y-127067469D01*
X148957307Y-127113506D01*
X149025768Y-127143669D01*
X149122407Y-127160338D01*
X149251987Y-127165894D01*
X149386726Y-127159544D01*
X149486143Y-127140494D01*
X149555795Y-127105966D01*
X149601237Y-127053181D01*
X149625446Y-126978569D01*
X149631399Y-126878556D01*
X149436137Y-126878556D01*
X149417087Y-126953963D01*
X149357556Y-126991269D01*
X149237699Y-127002381D01*
X149158721Y-126997817D01*
X149109112Y-126984125D01*
X149074187Y-126916656D01*
X149094031Y-126863475D01*
X149161500Y-126826169D01*
X149219046Y-126810294D01*
X149296437Y-126794419D01*
X149408951Y-126769217D01*
X149492493Y-126741238D01*
X149590918Y-126666625D01*
X149620287Y-126546769D01*
X149612151Y-126461242D01*
X149587743Y-126398338D01*
X149543690Y-126354086D01*
X149476618Y-126324519D01*
X149381964Y-126307850D01*
X149255162Y-126302294D01*
X149131337Y-126308048D01*
X149039262Y-126325312D01*
X148974174Y-126356269D01*
X148931312Y-126403100D01*
X148907103Y-126469577D01*
X148897975Y-126559469D01*
X149088474Y-126559469D01*
X149127368Y-126485650D01*
X149177573Y-126470767D01*
X149256750Y-126465806D01*
X149339696Y-126470172D01*
X149391687Y-126483269D01*
X149428200Y-126548356D01*
X149378193Y-126593600D01*
X149304573Y-126616817D01*
X149183725Y-126646781D01*
X149078156Y-126675158D01*
X148999574Y-126706313D01*
X148906706Y-126788069D01*
X148885870Y-126844425D01*
X148878924Y-126915069D01*
X148470926Y-126915069D01*
X148472524Y-126886494D01*
X148472524Y-126486444D01*
X148677312Y-126486444D01*
X148639212Y-126322931D01*
X148466174Y-126322931D01*
X148466174Y-126154656D01*
X148282024Y-126076869D01*
X148282024Y-126322931D01*
X147972462Y-126322931D01*
X147972462Y-126486444D01*
X148282024Y-126486444D01*
X148282024Y-126880144D01*
X148273293Y-126954756D01*
X148235193Y-126989681D01*
X148145499Y-127000794D01*
X148061759Y-126996031D01*
X147947062Y-126981744D01*
X147947062Y-127148431D01*
X147500650Y-127148431D01*
X147575587Y-127127000D01*
X147647620Y-127074414D01*
X147695443Y-126994444D01*
X147715287Y-126923359D01*
X147727193Y-126834988D01*
X147731162Y-126729331D01*
X147727370Y-126625703D01*
X147715993Y-126539184D01*
X147697031Y-126469775D01*
X147650993Y-126391789D01*
X147581143Y-126340394D01*
X147482123Y-126311819D01*
X147348575Y-126302294D01*
X147218796Y-126312216D01*
X147121562Y-126341981D01*
X147052109Y-126395163D01*
X147005675Y-126475331D01*
X146986272Y-126546240D01*
X146974630Y-126634081D01*
X146970749Y-126738856D01*
X146842162Y-126738856D01*
X146842162Y-126322931D01*
X146662774Y-126322931D01*
X146662774Y-126424531D01*
X146650074Y-126424531D01*
X146585781Y-126327694D01*
X146499262Y-126302294D01*
X146383374Y-126330075D01*
X146323049Y-126424531D01*
X146321462Y-126424531D01*
X146265106Y-126327694D01*
X146157949Y-126302294D01*
X146034918Y-126331663D01*
X145973006Y-126429294D01*
X145959314Y-126512241D01*
X145954749Y-126624556D01*
X145954749Y-127151606D01*
X145624020Y-127151606D01*
X145624020Y-126068931D01*
X149782212Y-126068931D01*
X150106062Y-126711869D01*
X150106062Y-127151606D01*
X150309262Y-127151606D01*
X150309262Y-126915069D01*
X150783925Y-126915069D01*
X150792259Y-127002381D01*
X150817262Y-127067469D01*
X150862307Y-127113506D01*
X150930768Y-127143669D01*
X151027407Y-127160338D01*
X151156987Y-127165894D01*
X151291726Y-127159544D01*
X151391143Y-127140494D01*
X151460795Y-127105966D01*
X151506237Y-127053181D01*
X151530446Y-126978569D01*
X151536400Y-126878556D01*
X151341137Y-126878556D01*
X151322087Y-126953963D01*
X151262556Y-126991269D01*
X151142700Y-127002381D01*
X151063721Y-126997817D01*
X151014112Y-126984125D01*
X150979187Y-126916656D01*
X150999031Y-126863475D01*
X151066500Y-126826169D01*
X151124046Y-126810294D01*
X151201437Y-126794419D01*
X151313951Y-126769217D01*
X151397493Y-126741238D01*
X151495918Y-126666625D01*
X151525287Y-126546769D01*
X151517151Y-126461242D01*
X151492743Y-126398338D01*
X151448690Y-126354086D01*
X151381618Y-126324519D01*
X151286964Y-126307850D01*
X151160162Y-126302294D01*
X151036337Y-126308048D01*
X150944262Y-126325312D01*
X150879175Y-126356269D01*
X150836312Y-126403100D01*
X150812103Y-126469577D01*
X150802975Y-126559469D01*
X150993475Y-126559469D01*
X151032368Y-126485650D01*
X151082573Y-126470767D01*
X151161750Y-126465806D01*
X151244696Y-126470172D01*
X151296687Y-126483269D01*
X151333199Y-126548356D01*
X151283193Y-126593600D01*
X151209573Y-126616817D01*
X151088725Y-126646781D01*
X150983156Y-126675158D01*
X150904575Y-126706313D01*
X150811706Y-126788069D01*
X150790870Y-126844425D01*
X150783925Y-126915069D01*
X150309262Y-126915069D01*
X150309262Y-126711869D01*
X150631525Y-126068931D01*
X150412449Y-126068931D01*
X150210837Y-126511844D01*
X150202900Y-126511844D01*
X149999700Y-126068931D01*
X149782212Y-126068931D01*
X145624020Y-126068931D01*
X145624020Y-125870494D01*
X145954749Y-125870494D01*
X151539575Y-125870494D01*
X151870304Y-125870494D01*
X151870304Y-127367506D01*
G37*
X126880252Y-94273000D02*
X126357748Y-94273000D01*
X126880252Y-92803000D02*
X126357748Y-92803000D01*
G36*
X151870304Y-121689019D02*
G01*
X151539575Y-121689019D01*
X150696612Y-121689019D01*
X150158450Y-121689019D01*
X148831300Y-121689019D01*
X148158200Y-121689019D01*
X146910425Y-121689019D01*
X146579696Y-121689019D01*
X146579696Y-121473119D01*
X146910425Y-121473119D01*
X147642262Y-121473119D01*
X147642262Y-121469944D01*
X147905787Y-121469944D01*
X148051441Y-121485422D01*
X148158200Y-121490581D01*
X148258609Y-121483041D01*
X148290464Y-121473119D01*
X148831300Y-121473119D01*
X149583775Y-121473119D01*
X149583775Y-121308019D01*
X149293262Y-121308019D01*
X149293262Y-120482519D01*
X149567900Y-120482519D01*
X149567900Y-120393619D01*
X149772687Y-120393619D01*
X149772687Y-121120694D01*
X149781419Y-121248488D01*
X149807612Y-121342944D01*
X149854444Y-121409619D01*
X149925087Y-121454069D01*
X150024703Y-121479072D01*
X150158450Y-121487406D01*
X150297753Y-121479072D01*
X150401337Y-121454069D01*
X150474759Y-121409619D01*
X150523575Y-121342944D01*
X150550959Y-121248884D01*
X150560087Y-121122281D01*
X150560087Y-120393619D01*
X150696612Y-120393619D01*
X150696612Y-121473119D01*
X150883937Y-121473119D01*
X150883937Y-120927019D01*
X150864887Y-120646031D01*
X150871237Y-120646031D01*
X151037925Y-121112756D01*
X151198262Y-121112756D01*
X151364950Y-120646031D01*
X151371300Y-120646031D01*
X151352250Y-120927019D01*
X151352250Y-121473119D01*
X151539575Y-121473119D01*
X151539575Y-120393619D01*
X151299862Y-120393619D01*
X151126825Y-120911144D01*
X151109362Y-120911144D01*
X150933150Y-120393619D01*
X150696612Y-120393619D01*
X150560087Y-120393619D01*
X150356887Y-120393619D01*
X150356887Y-121114344D01*
X150338631Y-121232613D01*
X150278306Y-121292144D01*
X150158450Y-121309606D01*
X150048119Y-121292144D01*
X149992556Y-121233406D01*
X149975887Y-121115931D01*
X149975887Y-120393619D01*
X149772687Y-120393619D01*
X149567900Y-120393619D01*
X149567900Y-120317419D01*
X149102762Y-120317419D01*
X149102762Y-121308019D01*
X148831300Y-121308019D01*
X148831300Y-121473119D01*
X148290464Y-121473119D01*
X148331237Y-121460419D01*
X148410612Y-121370725D01*
X148426091Y-121300280D01*
X148431250Y-121208006D01*
X148431250Y-120807956D01*
X148636037Y-120807956D01*
X148597937Y-120644444D01*
X148424900Y-120644444D01*
X148424900Y-120476169D01*
X148240750Y-120398381D01*
X148240750Y-120644444D01*
X147931187Y-120644444D01*
X147931187Y-120807956D01*
X148240750Y-120807956D01*
X148240750Y-121201656D01*
X148232019Y-121276269D01*
X148193919Y-121311194D01*
X148104225Y-121322306D01*
X148020484Y-121317544D01*
X147905787Y-121303256D01*
X147905787Y-121469944D01*
X147642262Y-121469944D01*
X147642262Y-121309606D01*
X147366037Y-121309606D01*
X147366037Y-120807956D01*
X147626387Y-120807956D01*
X147626387Y-120644444D01*
X147175537Y-120644444D01*
X147175537Y-121309606D01*
X147169187Y-121309606D01*
X146910425Y-121309606D01*
X146910425Y-121473119D01*
X146579696Y-121473119D01*
X146579696Y-120317419D01*
X147169187Y-120317419D01*
X147169187Y-120541256D01*
X147412075Y-120541256D01*
X147412075Y-120317419D01*
X147169187Y-120317419D01*
X146579696Y-120317419D01*
X146579696Y-120118981D01*
X146910425Y-120118981D01*
X151539575Y-120118981D01*
X151870304Y-120118981D01*
X151870304Y-121689019D01*
G37*
X124033492Y-98349500D02*
X124508008Y-98349500D01*
X124033492Y-99394500D02*
X124508008Y-99394500D01*
G36*
X148465381Y-124428250D02*
G01*
X148524913Y-124510007D01*
X148538010Y-124579063D01*
X148542375Y-124671932D01*
X148538010Y-124760633D01*
X148524913Y-124826713D01*
X148465381Y-124904500D01*
X148347113Y-124927519D01*
X148229638Y-124904500D01*
X148170900Y-124826713D01*
X148157803Y-124760633D01*
X148153438Y-124671932D01*
X148157803Y-124579063D01*
X148170900Y-124510007D01*
X148229638Y-124428250D01*
X148347113Y-124403644D01*
X148465381Y-124428250D01*
G37*
G36*
X151870304Y-125633957D02*
G01*
X151539575Y-125633957D01*
X151336375Y-125633957D01*
X149863175Y-125633957D01*
X148894800Y-125633957D01*
X148337588Y-125633957D01*
X147016788Y-125633957D01*
X146332575Y-125633957D01*
X146080163Y-125633957D01*
X145749434Y-125633957D01*
X145749434Y-125110081D01*
X147962938Y-125110081D01*
X147971272Y-125223786D01*
X147996275Y-125307725D01*
X148041321Y-125366860D01*
X148109781Y-125406150D01*
X148206817Y-125428177D01*
X148337588Y-125435519D01*
X148464191Y-125429169D01*
X148558250Y-125410119D01*
X148624925Y-125376186D01*
X148669375Y-125325188D01*
X148695172Y-125253155D01*
X148705888Y-125156119D01*
X148510625Y-125156119D01*
X148493163Y-125230732D01*
X148443156Y-125266450D01*
X148336000Y-125276769D01*
X148225669Y-125260100D01*
X148170900Y-125204538D01*
X148153438Y-125094207D01*
X148151850Y-124973556D01*
X148164550Y-124973556D01*
X148212175Y-125045788D01*
X148279644Y-125080713D01*
X148394738Y-125091031D01*
X148452675Y-125086269D01*
X148894800Y-125086269D01*
X149626638Y-125086269D01*
X149863175Y-125086269D01*
X150615650Y-125086269D01*
X150615650Y-124921169D01*
X150325138Y-124921169D01*
X150325138Y-124095669D01*
X150599775Y-124095669D01*
X150599775Y-124006769D01*
X150806150Y-124006769D01*
X150806150Y-124186156D01*
X151336375Y-124186156D01*
X151336375Y-124457619D01*
X150869650Y-124457619D01*
X150869650Y-124635419D01*
X151336375Y-124635419D01*
X151336375Y-125086269D01*
X151539575Y-125086269D01*
X151539575Y-124006769D01*
X150806150Y-124006769D01*
X150599775Y-124006769D01*
X150599775Y-123930569D01*
X150134638Y-123930569D01*
X150134638Y-124921169D01*
X149863175Y-124921169D01*
X149863175Y-125086269D01*
X149626638Y-125086269D01*
X149626638Y-124922756D01*
X149350413Y-124922756D01*
X149350413Y-124421106D01*
X149610763Y-124421106D01*
X149610763Y-124257594D01*
X149159913Y-124257594D01*
X149159913Y-124922756D01*
X149153563Y-124922756D01*
X148894800Y-124922756D01*
X148894800Y-125086269D01*
X148452675Y-125086269D01*
X148510625Y-125081506D01*
X148597938Y-125052931D01*
X148660842Y-125001933D01*
X148703506Y-124925138D01*
X148727914Y-124816989D01*
X148736050Y-124671932D01*
X148732434Y-124567333D01*
X148721586Y-124480020D01*
X148703506Y-124409994D01*
X148659453Y-124331214D01*
X148592381Y-124279025D01*
X148497727Y-124249855D01*
X148370925Y-124240131D01*
X148292146Y-124246283D01*
X148236781Y-124264738D01*
X148161375Y-124356019D01*
X148148675Y-124356019D01*
X148148675Y-124257594D01*
X147962938Y-124257594D01*
X147962938Y-125110081D01*
X145749434Y-125110081D01*
X145749434Y-125083094D01*
X146080163Y-125083094D01*
X146225816Y-125098572D01*
X146332575Y-125103732D01*
X146432985Y-125096191D01*
X146464840Y-125086269D01*
X147016788Y-125086269D01*
X147210463Y-125086269D01*
X147210463Y-124556044D01*
X147218599Y-124481233D01*
X147243006Y-124434600D01*
X147290036Y-124410192D01*
X147366038Y-124402057D01*
X147485894Y-124424281D01*
X147545425Y-124500481D01*
X147558522Y-124565966D01*
X147562888Y-124654469D01*
X147562888Y-125086269D01*
X147756563Y-125086269D01*
X147756563Y-123930569D01*
X149153563Y-123930569D01*
X149153563Y-124154406D01*
X149396450Y-124154406D01*
X149396450Y-123930569D01*
X149153563Y-123930569D01*
X147756563Y-123930569D01*
X147562888Y-123930569D01*
X147562888Y-124368719D01*
X147550188Y-124368719D01*
X147508119Y-124305616D01*
X147461288Y-124265532D01*
X147402550Y-124244100D01*
X147324763Y-124236957D01*
X147216813Y-124244100D01*
X147137438Y-124265532D01*
X147081677Y-124304227D01*
X147044569Y-124363163D01*
X147023733Y-124446705D01*
X147016788Y-124559219D01*
X147016788Y-125086269D01*
X146464840Y-125086269D01*
X146505613Y-125073569D01*
X146584988Y-124983875D01*
X146600466Y-124913430D01*
X146605625Y-124821157D01*
X146605625Y-124421106D01*
X146810413Y-124421106D01*
X146772313Y-124257594D01*
X146599275Y-124257594D01*
X146599275Y-124089319D01*
X146415125Y-124011531D01*
X146415125Y-124257594D01*
X146105563Y-124257594D01*
X146105563Y-124421106D01*
X146415125Y-124421106D01*
X146415125Y-124814807D01*
X146406394Y-124889419D01*
X146368294Y-124924344D01*
X146278600Y-124935456D01*
X146194860Y-124930694D01*
X146080163Y-124916406D01*
X146080163Y-125083094D01*
X145749434Y-125083094D01*
X145749434Y-123732131D01*
X146080163Y-123732131D01*
X151539575Y-123732131D01*
X151870304Y-123732131D01*
X151870304Y-125633957D01*
G37*
G36*
X107216879Y-101118641D02*
G01*
X105956801Y-101118641D01*
X105426560Y-101118641D01*
X104170514Y-101118641D01*
X102499147Y-101118641D01*
X102079121Y-101118641D01*
X102079121Y-101014474D01*
X102499147Y-101014474D01*
X103450758Y-101014474D01*
X103450758Y-100635443D01*
X103686644Y-100635443D01*
X103705798Y-100774808D01*
X103743096Y-100878386D01*
X103802824Y-100951471D01*
X103889265Y-100999353D01*
X104009476Y-101025815D01*
X104170514Y-101034636D01*
X104302011Y-101027579D01*
X104411553Y-101006410D01*
X104499143Y-100971128D01*
X104597429Y-100886198D01*
X104662449Y-100758427D01*
X104688218Y-100649556D01*
X104910432Y-100649556D01*
X104922025Y-100783628D01*
X104956803Y-100883426D01*
X105019051Y-100953991D01*
X105113053Y-101000362D01*
X105246369Y-101026067D01*
X105426560Y-101034636D01*
X105612296Y-101025059D01*
X105750148Y-100996329D01*
X105847174Y-100944414D01*
X105910430Y-100865281D01*
X105943696Y-100753386D01*
X105950753Y-100603185D01*
X105698737Y-100603185D01*
X105666479Y-100733225D01*
X105580794Y-100796733D01*
X105508465Y-100810342D01*
X105410431Y-100814878D01*
X105260230Y-100800765D01*
X105184625Y-100751370D01*
X105162448Y-100651572D01*
X105194706Y-100548750D01*
X105300552Y-100471129D01*
X105389514Y-100434586D01*
X105509221Y-100395524D01*
X105659171Y-100344869D01*
X105770310Y-100293710D01*
X105848686Y-100237510D01*
X105900350Y-100171734D01*
X105929079Y-100091593D01*
X105938656Y-99992299D01*
X105927315Y-99865283D01*
X105893293Y-99770525D01*
X105832305Y-99703237D01*
X105740068Y-99658630D01*
X105609776Y-99633681D01*
X105434625Y-99625364D01*
X105263002Y-99633933D01*
X105135230Y-99659638D01*
X105044253Y-99706009D01*
X104983013Y-99776574D01*
X104948739Y-99876876D01*
X104938658Y-100012460D01*
X105194706Y-100012460D01*
X105223940Y-99910646D01*
X105298536Y-99860243D01*
X105442689Y-99845122D01*
X105590874Y-99859235D01*
X105664463Y-99905606D01*
X105686640Y-100000364D01*
X105609020Y-100104194D01*
X105500905Y-100153841D01*
X105331802Y-100212057D01*
X105185381Y-100264980D01*
X105076763Y-100318911D01*
X104999898Y-100379143D01*
X104948739Y-100450967D01*
X104920009Y-100539425D01*
X104910432Y-100649556D01*
X104688218Y-100649556D01*
X104689331Y-100644852D01*
X104705460Y-100503051D01*
X104710836Y-100333024D01*
X104705460Y-100161654D01*
X104689331Y-100018509D01*
X104662449Y-99903590D01*
X104597429Y-99774306D01*
X104499143Y-99688872D01*
X104411553Y-99653590D01*
X104302011Y-99632421D01*
X104170514Y-99625364D01*
X104011241Y-99634689D01*
X103892289Y-99662663D01*
X103807108Y-99712562D01*
X103749144Y-99787662D01*
X103714366Y-99893761D01*
X103698741Y-100036654D01*
X103950757Y-100036654D01*
X103977470Y-99943408D01*
X104017289Y-99885444D01*
X104078781Y-99855203D01*
X104170514Y-99845122D01*
X104268800Y-99855959D01*
X104341885Y-99888469D01*
X104393548Y-99947188D01*
X104427570Y-100036654D01*
X104446472Y-100163166D01*
X104452772Y-100333024D01*
X104446472Y-100500867D01*
X104427570Y-100625362D01*
X104393548Y-100713316D01*
X104341885Y-100771531D01*
X104268800Y-100804041D01*
X104170514Y-100814878D01*
X104069204Y-100805553D01*
X104003176Y-100777580D01*
X103938660Y-100635443D01*
X103686644Y-100635443D01*
X103450758Y-100635443D01*
X103450758Y-99645526D01*
X103192694Y-99645526D01*
X103192694Y-100788668D01*
X102499147Y-100788668D01*
X102499147Y-101014474D01*
X102079121Y-101014474D01*
X102079121Y-99541359D01*
X102499147Y-99541359D01*
X105956801Y-99541359D01*
X107216879Y-99541359D01*
X107216879Y-101118641D01*
G37*
X103773500Y-97552742D02*
X103773500Y-98027258D01*
X102728500Y-97552742D02*
X102728500Y-98027258D01*
G36*
X112493420Y-98568560D02*
G01*
X112073394Y-98568560D01*
X111684282Y-98568560D01*
X110212510Y-98568560D01*
X109264932Y-98568560D01*
X108730658Y-98568560D01*
X107470580Y-98568560D01*
X107470580Y-98024879D01*
X108730658Y-98024879D01*
X108743511Y-98179616D01*
X108782070Y-98297055D01*
X108849358Y-98382237D01*
X108948400Y-98440200D01*
X109084992Y-98473466D01*
X109264932Y-98484555D01*
X109377078Y-98480019D01*
X109471584Y-98466410D01*
X109560042Y-98441208D01*
X109654044Y-98401894D01*
X109654044Y-98149878D01*
X109540385Y-98204818D01*
X109445375Y-98240604D01*
X109357925Y-98260261D01*
X109266948Y-98266814D01*
X109131615Y-98253457D01*
X109044166Y-98213386D01*
X108996535Y-98139546D01*
X108980658Y-98024879D01*
X108993763Y-97934153D01*
X109033077Y-97871653D01*
X109102633Y-97835363D01*
X109206464Y-97823266D01*
X109306262Y-97829314D01*
X109428238Y-97847460D01*
X109428238Y-97609557D01*
X109089529Y-97309154D01*
X109625818Y-97309154D01*
X109625818Y-97095445D01*
X109805253Y-97095445D01*
X110212510Y-98466410D01*
X110529042Y-98466410D01*
X110660203Y-98024879D01*
X111150008Y-98024879D01*
X111162861Y-98179616D01*
X111201420Y-98297055D01*
X111268708Y-98382237D01*
X111367750Y-98440200D01*
X111504342Y-98473466D01*
X111684282Y-98484555D01*
X111796428Y-98480019D01*
X111890934Y-98466410D01*
X111979392Y-98441208D01*
X112073394Y-98401894D01*
X112073394Y-98149878D01*
X111959735Y-98204818D01*
X111864725Y-98240604D01*
X111777275Y-98260261D01*
X111686298Y-98266814D01*
X111550965Y-98253457D01*
X111463516Y-98213386D01*
X111415885Y-98139546D01*
X111400008Y-98024879D01*
X111413113Y-97934153D01*
X111452427Y-97871653D01*
X111521983Y-97835363D01*
X111625814Y-97823266D01*
X111725612Y-97829314D01*
X111847588Y-97847460D01*
X111847588Y-97609557D01*
X111508879Y-97309154D01*
X112045168Y-97309154D01*
X112045168Y-97095445D01*
X111202428Y-97095445D01*
X111202428Y-97329315D01*
X111541137Y-97615605D01*
X111541137Y-97625686D01*
X111460492Y-97621654D01*
X111357417Y-97631734D01*
X111278032Y-97661976D01*
X111219817Y-97714143D01*
X111180250Y-97790000D01*
X111157569Y-97892570D01*
X111150008Y-98024879D01*
X110660203Y-98024879D01*
X110936299Y-97095445D01*
X110674203Y-97095445D01*
X110375816Y-98163991D01*
X110365736Y-98163991D01*
X110067349Y-97095445D01*
X109805253Y-97095445D01*
X109625818Y-97095445D01*
X108783078Y-97095445D01*
X108783078Y-97329315D01*
X109121787Y-97615605D01*
X109121787Y-97625686D01*
X109041142Y-97621654D01*
X108938067Y-97631734D01*
X108858682Y-97661976D01*
X108800467Y-97714143D01*
X108760900Y-97790000D01*
X108738219Y-97892570D01*
X108730658Y-98024879D01*
X107470580Y-98024879D01*
X107470580Y-97011440D01*
X108730658Y-97011440D01*
X112073394Y-97011440D01*
X112493420Y-97011440D01*
X112493420Y-98568560D01*
G37*
G36*
X131306888Y-108959650D02*
G01*
X131084638Y-108959650D01*
X130991769Y-108930281D01*
X130967163Y-108831062D01*
X130999706Y-108731050D01*
X131046736Y-108707634D01*
X131122737Y-108694537D01*
X131254500Y-108689775D01*
X131306888Y-108689775D01*
X131306888Y-108959650D01*
G37*
G36*
X126538038Y-108696125D02*
G01*
X126538038Y-108986637D01*
X126333250Y-108986637D01*
X126235619Y-108952506D01*
X126209425Y-108829475D01*
X126236412Y-108731844D01*
X126336425Y-108699300D01*
X126413419Y-108695728D01*
X126469775Y-108694537D01*
X126538038Y-108696125D01*
G37*
G36*
X131306888Y-109439075D02*
G01*
X131235053Y-109441456D01*
X131168775Y-109442250D01*
X131083248Y-109438877D01*
X131020344Y-109428756D01*
X130946525Y-109382719D01*
X130924300Y-109289850D01*
X130942556Y-109194600D01*
X131002881Y-109147769D01*
X131124325Y-109134275D01*
X131306888Y-109134275D01*
X131306888Y-109439075D01*
G37*
G36*
X131837642Y-109684608D02*
G01*
X131506913Y-109684608D01*
X131195763Y-109684608D01*
X130176588Y-109684608D01*
X128854200Y-109684608D01*
X127901700Y-109684608D01*
X126949200Y-109684608D01*
X125947487Y-109684608D01*
X125616758Y-109684608D01*
X125616758Y-109604175D01*
X125947487Y-109604175D01*
X126164975Y-109604175D01*
X126239587Y-109281913D01*
X126296737Y-109187456D01*
X126352300Y-109169002D01*
X126436437Y-109162850D01*
X126538038Y-109162850D01*
X126538038Y-109604175D01*
X126739650Y-109604175D01*
X126949200Y-109604175D01*
X127650875Y-109604175D01*
X127650875Y-108524675D01*
X127901700Y-108524675D01*
X127901700Y-108688187D01*
X128417637Y-109420025D01*
X127901700Y-109420025D01*
X127901700Y-109604175D01*
X128657350Y-109604175D01*
X128657350Y-109431138D01*
X128144587Y-108708825D01*
X128630362Y-108708825D01*
X128630362Y-108524675D01*
X128854200Y-108524675D01*
X128854200Y-108688187D01*
X129370137Y-109420025D01*
X128854200Y-109420025D01*
X128854200Y-109604175D01*
X129609850Y-109604175D01*
X129609850Y-109431138D01*
X129097087Y-108708825D01*
X129582862Y-108708825D01*
X129582862Y-108524675D01*
X129790825Y-108524675D01*
X129790825Y-109251750D01*
X129799556Y-109379544D01*
X129825750Y-109474000D01*
X129872581Y-109540675D01*
X129943225Y-109585125D01*
X130042841Y-109610128D01*
X130176588Y-109618463D01*
X130315891Y-109610128D01*
X130419475Y-109585125D01*
X130492897Y-109540675D01*
X130541713Y-109474000D01*
X130569097Y-109379941D01*
X130574562Y-109304137D01*
X130721100Y-109304137D01*
X130731816Y-109413675D01*
X130763963Y-109494638D01*
X130821311Y-109551589D01*
X130907631Y-109589094D01*
X130984449Y-109604528D01*
X131080492Y-109613788D01*
X131195763Y-109616875D01*
X131292424Y-109615111D01*
X131396140Y-109609819D01*
X131506913Y-109601000D01*
X131506913Y-108521500D01*
X131245489Y-108516886D01*
X131134026Y-108519736D01*
X131036131Y-108528732D01*
X130957638Y-108543725D01*
X130869333Y-108580039D01*
X130810794Y-108635006D01*
X130778052Y-108712595D01*
X130767137Y-108816775D01*
X130774877Y-108908453D01*
X130798094Y-108970762D01*
X130841552Y-109010847D01*
X130910013Y-109035850D01*
X130910013Y-109045375D01*
X130794919Y-109086650D01*
X130737769Y-109166025D01*
X130725267Y-109225953D01*
X130721100Y-109304137D01*
X130574562Y-109304137D01*
X130578225Y-109253337D01*
X130578225Y-108524675D01*
X130375025Y-108524675D01*
X130375025Y-109245400D01*
X130356769Y-109363669D01*
X130296444Y-109423200D01*
X130176588Y-109440662D01*
X130066256Y-109423200D01*
X130010694Y-109364463D01*
X129994025Y-109246988D01*
X129994025Y-108524675D01*
X129790825Y-108524675D01*
X129582862Y-108524675D01*
X128854200Y-108524675D01*
X128630362Y-108524675D01*
X127901700Y-108524675D01*
X127650875Y-108524675D01*
X126980950Y-108524675D01*
X126980950Y-108699300D01*
X127447675Y-108699300D01*
X127447675Y-108956475D01*
X127044450Y-108956475D01*
X127044450Y-109131100D01*
X127447675Y-109131100D01*
X127447675Y-109429550D01*
X126949200Y-109429550D01*
X126949200Y-109604175D01*
X126739650Y-109604175D01*
X126739650Y-108526263D01*
X126550737Y-108519912D01*
X126457075Y-108518325D01*
X126349390Y-108521676D01*
X126259167Y-108531731D01*
X126186406Y-108548487D01*
X126104253Y-108588175D01*
X126049881Y-108646912D01*
X126019520Y-108728669D01*
X126009400Y-108837412D01*
X126026069Y-108965206D01*
X126082425Y-109036644D01*
X126195137Y-109072362D01*
X126195137Y-109086650D01*
X126095919Y-109135863D01*
X126065161Y-109187853D01*
X126037975Y-109267625D01*
X125947487Y-109604175D01*
X125616758Y-109604175D01*
X125616758Y-108450592D01*
X125947487Y-108450592D01*
X131506912Y-108450592D01*
X131506913Y-108450592D01*
X131837642Y-108450592D01*
X131837642Y-109684608D01*
G37*
G36*
X143575088Y-122898694D02*
G01*
X143685419Y-122911394D01*
X143740188Y-122948700D01*
X143756063Y-123024106D01*
X143728281Y-123106656D01*
X143622712Y-123128881D01*
X143500475Y-123108244D01*
X143439356Y-123038394D01*
X143424870Y-122978466D01*
X143417925Y-122897106D01*
X143575088Y-122898694D01*
G37*
G36*
X145604706Y-122618500D02*
G01*
X145665031Y-122700256D01*
X145678723Y-122769709D01*
X145683288Y-122863769D01*
X145678723Y-122956439D01*
X145665031Y-123024900D01*
X145604706Y-123105069D01*
X145483263Y-123128881D01*
X145361819Y-123105069D01*
X145301494Y-123024900D01*
X145287802Y-122956439D01*
X145283238Y-122863769D01*
X145287802Y-122769709D01*
X145301494Y-122700256D01*
X145361819Y-122618500D01*
X145483263Y-122593894D01*
X145604706Y-122618500D01*
G37*
G36*
X151870304Y-123495594D02*
G01*
X151539575Y-123495594D01*
X151336375Y-123495594D01*
X150337838Y-123495594D01*
X148921788Y-123495594D01*
X148312188Y-123495594D01*
X147285075Y-123495594D01*
X146037300Y-123495594D01*
X145483263Y-123495594D01*
X144159288Y-123495594D01*
X143656050Y-123495594D01*
X142243175Y-123495594D01*
X141912446Y-123495594D01*
X141912446Y-123279694D01*
X142243175Y-123279694D01*
X142995650Y-123279694D01*
X143230600Y-123279694D01*
X143411575Y-123279694D01*
X143411575Y-123181269D01*
X143424275Y-123181269D01*
X143469916Y-123236038D01*
X143517938Y-123270169D01*
X143577072Y-123288028D01*
X143656050Y-123293981D01*
X143758642Y-123288227D01*
X143796205Y-123279694D01*
X144159288Y-123279694D01*
X144352963Y-123279694D01*
X144352963Y-122752644D01*
X144361098Y-122679222D01*
X144385506Y-122633581D01*
X144432139Y-122609769D01*
X144506950Y-122601831D01*
X144626806Y-122624056D01*
X144687131Y-122699463D01*
X144700823Y-122763558D01*
X144705388Y-122849481D01*
X144705388Y-123279694D01*
X144899063Y-123279694D01*
X144899063Y-122863769D01*
X145089563Y-122863769D01*
X145093531Y-122968279D01*
X145105438Y-123055327D01*
X145125281Y-123124913D01*
X145173105Y-123203097D01*
X145245138Y-123255088D01*
X145346738Y-123284258D01*
X145483263Y-123293981D01*
X145619788Y-123284258D01*
X145635685Y-123279694D01*
X146037300Y-123279694D01*
X146769138Y-123279694D01*
X146769138Y-123276519D01*
X147032663Y-123276519D01*
X147178316Y-123291997D01*
X147285075Y-123297156D01*
X147385484Y-123289616D01*
X147458113Y-123266994D01*
X147537488Y-123177300D01*
X147552966Y-123106855D01*
X147558125Y-123014581D01*
X147558125Y-123011406D01*
X147961350Y-123011406D01*
X147971867Y-123109831D01*
X147997069Y-123182856D01*
X148039931Y-123234450D01*
X148103431Y-123268581D01*
X148192530Y-123287631D01*
X148312188Y-123293981D01*
X148451491Y-123284456D01*
X148468753Y-123279694D01*
X148921788Y-123279694D01*
X149115463Y-123279694D01*
X149115463Y-122752644D01*
X149123598Y-122679222D01*
X149148006Y-122633581D01*
X149194639Y-122609769D01*
X149269450Y-122601831D01*
X149389306Y-122624056D01*
X149449631Y-122699463D01*
X149463323Y-122763558D01*
X149467888Y-122849481D01*
X149467888Y-123279694D01*
X149661563Y-123279694D01*
X149661563Y-122451019D01*
X149877463Y-122451019D01*
X149877463Y-123279694D01*
X150071138Y-123279694D01*
X150071138Y-123163806D01*
X150083838Y-123163806D01*
X150128089Y-123226711D01*
X150178294Y-123266200D01*
X150244770Y-123287036D01*
X150337838Y-123293981D01*
X150434873Y-123286838D01*
X150506906Y-123265406D01*
X150557905Y-123226909D01*
X150591838Y-123168569D01*
X150610888Y-123086019D01*
X150617238Y-122974894D01*
X150617238Y-122451019D01*
X150423563Y-122451019D01*
X150423563Y-122978069D01*
X150394194Y-123097131D01*
X150282275Y-123128881D01*
X150208059Y-123123325D01*
X150153688Y-123106656D01*
X150090188Y-123031250D01*
X150075900Y-122966758D01*
X150071138Y-122879644D01*
X150071138Y-122451019D01*
X149877463Y-122451019D01*
X149661563Y-122451019D01*
X149467888Y-122451019D01*
X149467888Y-122565319D01*
X149455188Y-122565319D01*
X149409944Y-122499834D01*
X149363113Y-122458956D01*
X149305566Y-122437525D01*
X149228175Y-122430381D01*
X149121416Y-122437723D01*
X149042438Y-122459750D01*
X148986677Y-122499041D01*
X148949569Y-122558175D01*
X148928733Y-122642114D01*
X148921788Y-122755819D01*
X148921788Y-123279694D01*
X148468753Y-123279694D01*
X148555075Y-123255881D01*
X148628298Y-123204486D01*
X148676519Y-123126500D01*
X148696363Y-123057091D01*
X148708269Y-122970572D01*
X148712238Y-122866944D01*
X148708269Y-122761287D01*
X148696363Y-122672916D01*
X148676519Y-122601831D01*
X148628497Y-122521861D01*
X148555869Y-122469275D01*
X148453277Y-122440105D01*
X148315363Y-122430381D01*
X148194316Y-122437128D01*
X148104225Y-122457369D01*
X148040130Y-122493683D01*
X147997069Y-122548650D01*
X147971867Y-122626239D01*
X147961350Y-122730419D01*
X148153438Y-122730419D01*
X148197094Y-122624850D01*
X148305838Y-122597069D01*
X148380252Y-122603220D01*
X148435219Y-122621675D01*
X148499513Y-122704225D01*
X148513800Y-122774273D01*
X148518563Y-122868531D01*
X148513800Y-122958622D01*
X148499513Y-123025694D01*
X148434425Y-123104275D01*
X148378863Y-123121539D01*
X148304250Y-123127294D01*
X148198681Y-123102687D01*
X148151850Y-123011406D01*
X147961350Y-123011406D01*
X147558125Y-123011406D01*
X147558125Y-122614531D01*
X147762913Y-122614531D01*
X147724813Y-122451019D01*
X147551775Y-122451019D01*
X147551775Y-122282744D01*
X147367625Y-122204956D01*
X147367625Y-122451019D01*
X147058063Y-122451019D01*
X147058063Y-122614531D01*
X147367625Y-122614531D01*
X147367625Y-123008231D01*
X147358894Y-123082844D01*
X147320794Y-123117769D01*
X147231100Y-123128881D01*
X147147359Y-123124119D01*
X147032663Y-123109831D01*
X147032663Y-123276519D01*
X146769138Y-123276519D01*
X146769138Y-123116181D01*
X146492913Y-123116181D01*
X146492913Y-122614531D01*
X146753263Y-122614531D01*
X146753263Y-122451019D01*
X146302413Y-122451019D01*
X146302413Y-123116181D01*
X146296063Y-123116181D01*
X146037300Y-123116181D01*
X146037300Y-123279694D01*
X145635685Y-123279694D01*
X145721388Y-123255088D01*
X145793420Y-123203097D01*
X145841244Y-123124913D01*
X145861088Y-123055327D01*
X145872994Y-122968279D01*
X145876963Y-122863769D01*
X145872994Y-122758288D01*
X145861088Y-122670447D01*
X145841244Y-122600244D01*
X145793619Y-122521464D01*
X145722181Y-122469275D01*
X145620780Y-122440105D01*
X145483263Y-122430381D01*
X145345745Y-122440105D01*
X145244344Y-122469275D01*
X145172906Y-122521464D01*
X145125281Y-122600244D01*
X145105438Y-122670447D01*
X145093531Y-122758288D01*
X145089563Y-122863769D01*
X144899063Y-122863769D01*
X144899063Y-122451019D01*
X144705388Y-122451019D01*
X144705388Y-122565319D01*
X144692688Y-122565319D01*
X144647444Y-122499834D01*
X144600613Y-122458956D01*
X144543066Y-122437525D01*
X144465675Y-122430381D01*
X144358916Y-122437723D01*
X144279938Y-122459750D01*
X144224177Y-122499041D01*
X144187069Y-122558175D01*
X144166233Y-122642114D01*
X144159288Y-122755819D01*
X144159288Y-123279694D01*
X143796205Y-123279694D01*
X143834644Y-123270962D01*
X143923544Y-123193175D01*
X143943189Y-123127095D01*
X143949738Y-123038394D01*
X143940609Y-122934214D01*
X143913225Y-122856625D01*
X143864013Y-122801658D01*
X143789400Y-122765344D01*
X143683831Y-122745103D01*
X143541750Y-122738356D01*
X143416338Y-122738356D01*
X143416338Y-122728831D01*
X143451263Y-122620881D01*
X143501666Y-122599450D01*
X143583025Y-122592306D01*
X143701294Y-122615325D01*
X143729075Y-122703431D01*
X143922750Y-122703431D01*
X143918980Y-122607983D01*
X143898144Y-122537538D01*
X143857662Y-122487928D01*
X143794956Y-122454988D01*
X143705064Y-122436533D01*
X143583025Y-122430381D01*
X143460589Y-122437128D01*
X143369506Y-122457369D01*
X143305014Y-122493484D01*
X143262350Y-122547856D01*
X143238537Y-122624850D01*
X143230600Y-122728831D01*
X143230600Y-123279694D01*
X142995650Y-123279694D01*
X142995650Y-123114594D01*
X142705137Y-123114594D01*
X142705137Y-122289094D01*
X142979775Y-122289094D01*
X142979775Y-122123994D01*
X146296063Y-122123994D01*
X146296063Y-122347831D01*
X146538950Y-122347831D01*
X146538950Y-122200194D01*
X150806150Y-122200194D01*
X150806150Y-122379581D01*
X151336375Y-122379581D01*
X151336375Y-122651044D01*
X150869650Y-122651044D01*
X150869650Y-122828844D01*
X151336375Y-122828844D01*
X151336375Y-123279694D01*
X151539575Y-123279694D01*
X151539575Y-122200194D01*
X150806150Y-122200194D01*
X146538950Y-122200194D01*
X146538950Y-122123994D01*
X146296063Y-122123994D01*
X142979775Y-122123994D01*
X142514637Y-122123994D01*
X142514637Y-123114594D01*
X142243175Y-123114594D01*
X142243175Y-123279694D01*
X141912446Y-123279694D01*
X141912446Y-121925556D01*
X142243175Y-121925556D01*
X151539575Y-121925556D01*
X151870304Y-121925556D01*
X151870304Y-123495594D01*
G37*
G36*
X139527928Y-85720072D02*
G01*
X139527928Y-88333653D01*
X139527928Y-89213392D01*
X139516593Y-89328482D01*
X139483023Y-89439148D01*
X139428507Y-89541139D01*
X139355142Y-89630535D01*
X139265747Y-89703900D01*
X139163756Y-89758415D01*
X139053089Y-89791985D01*
X138938000Y-89803321D01*
X138822911Y-89791985D01*
X138712244Y-89758415D01*
X138610253Y-89703900D01*
X138520858Y-89630535D01*
X138447493Y-89541139D01*
X138392977Y-89439148D01*
X138359407Y-89328482D01*
X138348072Y-89213392D01*
X138348072Y-88333653D01*
X138348072Y-87929475D01*
X138410910Y-87929475D01*
X138416189Y-88027839D01*
X138432024Y-88109780D01*
X138458416Y-88175300D01*
X138521946Y-88248821D01*
X138617523Y-88297458D01*
X138702481Y-88317566D01*
X138808553Y-88329631D01*
X138935738Y-88333653D01*
X139063928Y-88329631D01*
X139171005Y-88317566D01*
X139256968Y-88297458D01*
X139353677Y-88248821D01*
X139417584Y-88175300D01*
X139443976Y-88109780D01*
X139459811Y-88027839D01*
X139465090Y-87929475D01*
X139458115Y-87810333D01*
X139437189Y-87721354D01*
X139399863Y-87657636D01*
X139343686Y-87614277D01*
X139264321Y-87588262D01*
X139157432Y-87576574D01*
X139157432Y-87765090D01*
X139227183Y-87785072D01*
X139270542Y-87814858D01*
X139293163Y-87860856D01*
X139300704Y-87929475D01*
X139292598Y-88002996D01*
X139268279Y-88057666D01*
X139224355Y-88096312D01*
X139157432Y-88121761D01*
X139062797Y-88135900D01*
X138935738Y-88140613D01*
X138810186Y-88135900D01*
X138717060Y-88121761D01*
X138651268Y-88096312D01*
X138607721Y-88057666D01*
X138583402Y-88002996D01*
X138575296Y-87929475D01*
X138582271Y-87853692D01*
X138603196Y-87804301D01*
X138709519Y-87756041D01*
X138709519Y-87567525D01*
X138605270Y-87581852D01*
X138527790Y-87609753D01*
X138473120Y-87654431D01*
X138437303Y-87719092D01*
X138417508Y-87809014D01*
X138410910Y-87929475D01*
X138348072Y-87929475D01*
X138348072Y-86679240D01*
X138425992Y-86679240D01*
X138425992Y-87391075D01*
X139450008Y-87391075D01*
X139450008Y-87198035D01*
X138594902Y-87198035D01*
X138594902Y-86679240D01*
X138425992Y-86679240D01*
X138348072Y-86679240D01*
X138348072Y-85720072D01*
X138424483Y-85720072D01*
X138424483Y-85959864D01*
X138913116Y-86335387D01*
X138424483Y-86335387D01*
X138424483Y-86526919D01*
X139450008Y-86526919D01*
X139450008Y-86335387D01*
X138979473Y-86335387D01*
X139450008Y-85999075D01*
X139450008Y-85777381D01*
X138949311Y-86145363D01*
X138944787Y-86145363D01*
X138424483Y-85720072D01*
X138348072Y-85720072D01*
X138348072Y-85405879D01*
X139527928Y-85405879D01*
X139527928Y-85720072D01*
G37*
G36*
X109436302Y-126204797D02*
G01*
X109277028Y-126210846D01*
X109155557Y-126193709D01*
X109065335Y-126158427D01*
X109001575Y-126100211D01*
X108959489Y-126014274D01*
X108936051Y-125894566D01*
X108928239Y-125735040D01*
X108935799Y-125584083D01*
X108958481Y-125469920D01*
X108999055Y-125386755D01*
X109060295Y-125328791D01*
X109146736Y-125291241D01*
X109262915Y-125269315D01*
X109357673Y-125261755D01*
X109436302Y-125259235D01*
X109436302Y-126204797D01*
G37*
G36*
X112555920Y-126518641D02*
G01*
X112135894Y-126518641D01*
X111567346Y-126518641D01*
X109891946Y-126518641D01*
X109337512Y-126518641D01*
X108668159Y-126518641D01*
X107408080Y-126518641D01*
X107408080Y-125749153D01*
X108668159Y-125749153D01*
X108674879Y-125913243D01*
X108695040Y-126050676D01*
X108728642Y-126161451D01*
X108809791Y-126286703D01*
X108932271Y-126370120D01*
X109040918Y-126404842D01*
X109175998Y-126425675D01*
X109337512Y-126432620D01*
X109443471Y-126430827D01*
X109562422Y-126425451D01*
X109694366Y-126416491D01*
X109694366Y-125045526D01*
X109891946Y-125045526D01*
X109891946Y-126416491D01*
X110206462Y-126416491D01*
X110698396Y-125341896D01*
X110704445Y-125341896D01*
X110676219Y-125628186D01*
X110676219Y-126416491D01*
X110924202Y-126416491D01*
X110924202Y-125424557D01*
X111101621Y-125424557D01*
X111351621Y-125424557D01*
X111381863Y-125316694D01*
X111457467Y-125263267D01*
X111599604Y-125247138D01*
X111697890Y-125258227D01*
X111770975Y-125291493D01*
X111822638Y-125350968D01*
X111856660Y-125440686D01*
X111875561Y-125567198D01*
X111881862Y-125737056D01*
X111874805Y-125903135D01*
X111853636Y-126026370D01*
X111816086Y-126113316D01*
X111759886Y-126170523D01*
X111680501Y-126202277D01*
X111573395Y-126212862D01*
X111449403Y-126203789D01*
X111349605Y-126172539D01*
X111349605Y-125864072D01*
X111633878Y-125864072D01*
X111633878Y-125644315D01*
X111105654Y-125644315D01*
X111105654Y-126327781D01*
X111231157Y-126380200D01*
X111337508Y-126412458D01*
X111443355Y-126429091D01*
X111567346Y-126434636D01*
X111705115Y-126427579D01*
X111820034Y-126406410D01*
X111912104Y-126371128D01*
X112015682Y-126285946D01*
X112084482Y-126157418D01*
X112113044Y-126043283D01*
X112130181Y-125901147D01*
X112135894Y-125731008D01*
X112130517Y-125559749D01*
X112114388Y-125416941D01*
X112087507Y-125302581D01*
X112022739Y-125174054D01*
X111925208Y-125088872D01*
X111838627Y-125053590D01*
X111730764Y-125032421D01*
X111601620Y-125025364D01*
X111434786Y-125034437D01*
X111309282Y-125061655D01*
X111218809Y-125110042D01*
X111157065Y-125182622D01*
X111119515Y-125285444D01*
X111101621Y-125424557D01*
X110924202Y-125424557D01*
X110924202Y-125045526D01*
X110609687Y-125045526D01*
X110117752Y-126120120D01*
X110111704Y-126120120D01*
X110139930Y-125833830D01*
X110139930Y-125045526D01*
X109891946Y-125045526D01*
X109694366Y-125045526D01*
X109571383Y-125039477D01*
X109460496Y-125037461D01*
X109351625Y-125039981D01*
X109254851Y-125047542D01*
X109113162Y-125067703D01*
X108994547Y-125098617D01*
X108899005Y-125140283D01*
X108791394Y-125228741D01*
X108720578Y-125352985D01*
X108691456Y-125460175D01*
X108673983Y-125592231D01*
X108668159Y-125749153D01*
X107408080Y-125749153D01*
X107408080Y-124941359D01*
X108668159Y-124941359D01*
X112135894Y-124941359D01*
X112555920Y-124941359D01*
X112555920Y-126518641D01*
G37*
G36*
X111218662Y-108323856D02*
G01*
X111093250Y-108328619D01*
X110997603Y-108315125D01*
X110926562Y-108287344D01*
X110876358Y-108241505D01*
X110843219Y-108173837D01*
X110824764Y-108079580D01*
X110818612Y-107953969D01*
X110824566Y-107835105D01*
X110842425Y-107745212D01*
X110874373Y-107679728D01*
X110922594Y-107634087D01*
X110990658Y-107604520D01*
X111082137Y-107587256D01*
X111156750Y-107581303D01*
X111218662Y-107579319D01*
X111218662Y-108323856D01*
G37*
G36*
X112916282Y-108703269D02*
G01*
X112464321Y-108703269D01*
X112398175Y-108703269D01*
X111980662Y-108703269D01*
X111140875Y-108703269D01*
X110613825Y-108703269D01*
X110547679Y-108703269D01*
X110095718Y-108703269D01*
X110317174Y-107965081D01*
X110613825Y-107965081D01*
X110619117Y-108094286D01*
X110634992Y-108202501D01*
X110661450Y-108289725D01*
X110725347Y-108388348D01*
X110821787Y-108454031D01*
X110907336Y-108481372D01*
X111013699Y-108497776D01*
X111140875Y-108503244D01*
X111224307Y-108501833D01*
X111317969Y-108497599D01*
X111421862Y-108490544D01*
X111421862Y-108201619D01*
X111574263Y-108201619D01*
X111583391Y-108307187D01*
X111610775Y-108385769D01*
X111659789Y-108441331D01*
X111733806Y-108477844D01*
X111838780Y-108498084D01*
X111980662Y-108504831D01*
X112126911Y-108497291D01*
X112235456Y-108474669D01*
X112311855Y-108433791D01*
X112361663Y-108371481D01*
X112387856Y-108283375D01*
X112393413Y-108165106D01*
X112194975Y-108165106D01*
X112169575Y-108267500D01*
X112102106Y-108317506D01*
X112045155Y-108328222D01*
X111967962Y-108331794D01*
X111849694Y-108320681D01*
X111790163Y-108281788D01*
X111772700Y-108203206D01*
X111798100Y-108122244D01*
X111881444Y-108061125D01*
X111951492Y-108032352D01*
X112045750Y-108001594D01*
X112163820Y-107961708D01*
X112251331Y-107921425D01*
X112313045Y-107877173D01*
X112353725Y-107825381D01*
X112376347Y-107762278D01*
X112383887Y-107684094D01*
X112374958Y-107584081D01*
X112348169Y-107509469D01*
X112300147Y-107456486D01*
X112227519Y-107421362D01*
X112124927Y-107401717D01*
X111987012Y-107395169D01*
X111851877Y-107401916D01*
X111751269Y-107422156D01*
X111679633Y-107458669D01*
X111631412Y-107514231D01*
X111604425Y-107593209D01*
X111596487Y-107699969D01*
X111798100Y-107699969D01*
X111821119Y-107619800D01*
X111879856Y-107580112D01*
X111993363Y-107568206D01*
X112110044Y-107579319D01*
X112167988Y-107615831D01*
X112185450Y-107690444D01*
X112124331Y-107772200D01*
X112039202Y-107811292D01*
X111906050Y-107857131D01*
X111790758Y-107898803D01*
X111705231Y-107941269D01*
X111644708Y-107988695D01*
X111604425Y-108045250D01*
X111581803Y-108114902D01*
X111574263Y-108201619D01*
X111421862Y-108201619D01*
X111421862Y-107411044D01*
X111325025Y-107406281D01*
X111237712Y-107404694D01*
X111151987Y-107406678D01*
X111075787Y-107412631D01*
X110964222Y-107428506D01*
X110870824Y-107452848D01*
X110795594Y-107485656D01*
X110710861Y-107555308D01*
X110655100Y-107653137D01*
X110632169Y-107737540D01*
X110618411Y-107841521D01*
X110613825Y-107965081D01*
X110317174Y-107965081D01*
X110547679Y-107196731D01*
X110613825Y-107196731D01*
X112398175Y-107196731D01*
X112464321Y-107196731D01*
X112916282Y-108703269D01*
G37*
D11*
X112877600Y-108699300D02*
X112877600Y-113560860D01*
X99570540Y-108699300D02*
X112877600Y-108699300D01*
X112877600Y-116029740D02*
X112877600Y-119275860D01*
X112877600Y-121744740D02*
X112877600Y-122694700D01*
X112877600Y-122694700D02*
X100307140Y-122694700D01*
X97688400Y-122694700D02*
X97688400Y-110035340D01*
%LPC*%
D12*
X134620000Y-138430000D03*
D13*
X132080000Y-138430000D03*
X129540000Y-138430000D03*
D12*
X124460000Y-138430000D03*
D13*
X121920000Y-138430000D03*
X119380000Y-138430000D03*
D12*
X129540000Y-90170000D03*
D13*
X132080000Y-90170000D03*
X134620000Y-90170000D03*
D12*
X119380000Y-90170000D03*
D13*
X121920000Y-90170000D03*
X124460000Y-90170000D03*
D14*
X116205000Y-106680000D03*
X116205000Y-121920000D03*
X137795000Y-106680000D03*
X137795000Y-121920000D03*
D15*
X114554000Y-87035000D03*
D16*
X114554000Y-92035000D03*
D17*
X144920000Y-88900000D03*
X145622944Y-87202944D03*
X145622944Y-90597056D03*
X147320000Y-86500000D03*
D18*
X147320000Y-88900000D03*
D17*
X147320000Y-91300000D03*
X149017056Y-87202944D03*
X149017056Y-90597056D03*
X149720000Y-88900000D03*
D19*
X141478000Y-89154000D03*
D20*
X140208000Y-89154000D03*
X138938000Y-89154000D03*
X137668000Y-89154000D03*
D12*
X115316000Y-128265000D03*
D13*
X115316000Y-130805000D03*
D21*
X107315000Y-95250000D03*
X107315000Y-97790000D03*
X107315000Y-100330000D03*
X107315000Y-102870000D03*
D17*
X144920000Y-139700000D03*
X145622944Y-138002944D03*
X145622944Y-141397056D03*
X147320000Y-137300000D03*
D18*
X147320000Y-139700000D03*
D17*
X147320000Y-142100000D03*
X149017056Y-138002944D03*
X149017056Y-141397056D03*
X149720000Y-139700000D03*
D21*
X143764000Y-110490000D03*
X143764000Y-113030000D03*
X143764000Y-115570000D03*
X143764000Y-118110000D03*
D17*
X104280000Y-139700000D03*
X104982944Y-138002944D03*
X104982944Y-141397056D03*
X106680000Y-137300000D03*
D18*
X106680000Y-139700000D03*
D17*
X106680000Y-142100000D03*
X108377056Y-138002944D03*
X108377056Y-141397056D03*
X109080000Y-139700000D03*
X104280000Y-88900000D03*
X104982944Y-87202944D03*
X104982944Y-90597056D03*
X106680000Y-86500000D03*
D18*
X106680000Y-88900000D03*
D17*
X106680000Y-91300000D03*
X108377056Y-87202944D03*
X108377056Y-90597056D03*
X109080000Y-88900000D03*
D21*
X107315000Y-125730000D03*
X107315000Y-128270000D03*
X107315000Y-130810000D03*
X107315000Y-133350000D03*
D22*
X149860000Y-114364000D03*
X149860000Y-116014000D03*
D23*
X134239000Y-110300000D03*
X134239000Y-118300000D03*
D24*
X120543000Y-128905000D03*
X120543000Y-127635000D03*
X120543000Y-126365000D03*
X120543000Y-125095000D03*
X127743000Y-125095000D03*
X127743000Y-126365000D03*
X127743000Y-127635000D03*
X127743000Y-128905000D03*
D22*
X151384000Y-114364000D03*
X151384000Y-116014000D03*
D25*
X121793000Y-102551000D03*
X121793000Y-100711000D03*
D26*
X117813000Y-101631000D03*
D27*
X127569000Y-91506000D03*
X125669000Y-91506000D03*
D25*
X121793000Y-97852000D03*
X121793000Y-96012000D03*
D26*
X117813000Y-96932000D03*
D28*
X101791000Y-106680000D03*
X103441000Y-106680000D03*
D29*
X128093000Y-130810000D03*
X126543000Y-130810000D03*
D30*
X126987000Y-117221000D03*
X128537000Y-117221000D03*
D22*
X102997000Y-127382000D03*
X102997000Y-129032000D03*
D31*
X126873000Y-98872000D03*
X126873000Y-100772000D03*
D28*
X120143000Y-130810000D03*
X121793000Y-130810000D03*
D27*
X125435000Y-102682000D03*
X123535000Y-102682000D03*
D32*
X134175000Y-108204000D03*
X132525000Y-108204000D03*
D29*
X125349000Y-117221000D03*
X123799000Y-117221000D03*
D33*
X120396000Y-114934000D03*
X120396000Y-113284000D03*
D22*
X104902000Y-96965000D03*
X104902000Y-98615000D03*
X104648000Y-127382000D03*
X104648000Y-129032000D03*
D32*
X125095750Y-100523000D03*
X123445750Y-100523000D03*
D34*
X129334000Y-97028000D03*
X135384000Y-97028000D03*
D35*
X120396000Y-117996000D03*
X120396000Y-116446000D03*
D36*
X124338500Y-97282000D03*
X124338500Y-96332000D03*
X124338500Y-95382000D03*
X126613500Y-95382000D03*
X126613500Y-96332000D03*
X126613500Y-97282000D03*
D37*
X118618000Y-117646000D03*
X117348000Y-117646000D03*
X116078000Y-117646000D03*
X114808000Y-117646000D03*
X114808000Y-110446000D03*
X116078000Y-110446000D03*
X117348000Y-110446000D03*
X118618000Y-110446000D03*
D29*
X102311000Y-124714000D03*
X100761000Y-124714000D03*
D28*
X123318000Y-130810000D03*
X124968000Y-130810000D03*
D38*
X122113000Y-93538000D03*
X124013000Y-93538000D03*
D27*
X127569000Y-93538000D03*
X125669000Y-93538000D03*
D28*
X123445750Y-98872000D03*
X125095750Y-98872000D03*
D22*
X103251000Y-96965000D03*
X103251000Y-98615000D03*
D39*
X101834127Y-113924972D03*
X102240527Y-115017172D03*
X101834127Y-116109372D03*
X101630927Y-117201572D03*
X101834127Y-118293772D03*
X101630927Y-119385972D03*
X101834127Y-120478172D03*
X101834127Y-121570372D03*
D40*
X98285300Y-109004100D03*
X99006617Y-122247742D03*
D41*
X112471200Y-114922300D03*
X112471200Y-120637300D03*
%LPD*%
M02*
