G04 #@! TF.GenerationSoftware,KiCad,Pcbnew,7.0.7*
G04 #@! TF.CreationDate,2024-02-08T13:12:57-05:00*
G04 #@! TF.ProjectId,UMRT_FC_R2,554d5254-5f46-4435-9f52-322e6b696361,rev?*
G04 #@! TF.SameCoordinates,Original*
G04 #@! TF.FileFunction,Copper,L3,Inr*
G04 #@! TF.FilePolarity,Positive*
%FSLAX46Y46*%
G04 Gerber Fmt 4.6, Leading zero omitted, Abs format (unit mm)*
G04 Created by KiCad (PCBNEW 7.0.7) date 2024-02-08 13:12:57*
%MOMM*%
%LPD*%
G01*
G04 APERTURE LIST*
G04 #@! TA.AperFunction,ComponentPad*
%ADD10R,1.700000X1.700000*%
G04 #@! TD*
G04 #@! TA.AperFunction,ComponentPad*
%ADD11O,1.700000X1.700000*%
G04 #@! TD*
G04 #@! TA.AperFunction,ComponentPad*
%ADD12C,4.000000*%
G04 #@! TD*
G04 #@! TA.AperFunction,ComponentPad*
%ADD13R,3.800000X3.800000*%
G04 #@! TD*
G04 #@! TA.AperFunction,ComponentPad*
%ADD14C,3.800000*%
G04 #@! TD*
G04 #@! TA.AperFunction,ComponentPad*
%ADD15C,0.800000*%
G04 #@! TD*
G04 #@! TA.AperFunction,ComponentPad*
%ADD16C,6.400000*%
G04 #@! TD*
G04 #@! TA.AperFunction,ComponentPad*
%ADD17R,1.000000X1.000000*%
G04 #@! TD*
G04 #@! TA.AperFunction,ComponentPad*
%ADD18O,1.000000X1.000000*%
G04 #@! TD*
G04 #@! TA.AperFunction,ComponentPad*
%ADD19C,2.000000*%
G04 #@! TD*
G04 #@! TA.AperFunction,ViaPad*
%ADD20C,0.400000*%
G04 #@! TD*
G04 #@! TA.AperFunction,ViaPad*
%ADD21C,0.600000*%
G04 #@! TD*
G04 APERTURE END LIST*
D10*
X134620000Y-138430000D03*
D11*
X132080000Y-138430000D03*
X129540000Y-138430000D03*
D10*
X124460000Y-138430000D03*
D11*
X121920000Y-138430000D03*
X119380000Y-138430000D03*
D10*
X129540000Y-90170000D03*
D11*
X132080000Y-90170000D03*
X134620000Y-90170000D03*
D10*
X119380000Y-90170000D03*
D11*
X121920000Y-90170000D03*
X124460000Y-90170000D03*
D12*
X116205000Y-106680000D03*
X116205000Y-121920000D03*
X137795000Y-106680000D03*
X137795000Y-121920000D03*
D13*
X114554000Y-87035000D03*
D14*
X114554000Y-92035000D03*
D15*
X144920000Y-88900000D03*
X145622944Y-87202944D03*
X145622944Y-90597056D03*
X147320000Y-86500000D03*
D16*
X147320000Y-88900000D03*
D15*
X147320000Y-91300000D03*
X149017056Y-87202944D03*
X149017056Y-90597056D03*
X149720000Y-88900000D03*
D17*
X141478000Y-89154000D03*
D18*
X140208000Y-89154000D03*
X138938000Y-89154000D03*
X137668000Y-89154000D03*
D10*
X115316000Y-128265000D03*
D11*
X115316000Y-130805000D03*
D19*
X107315000Y-95250000D03*
X107315000Y-97790000D03*
X107315000Y-100330000D03*
X107315000Y-102870000D03*
D15*
X144920000Y-139700000D03*
X145622944Y-138002944D03*
X145622944Y-141397056D03*
X147320000Y-137300000D03*
D16*
X147320000Y-139700000D03*
D15*
X147320000Y-142100000D03*
X149017056Y-138002944D03*
X149017056Y-141397056D03*
X149720000Y-139700000D03*
D19*
X143764000Y-110490000D03*
X143764000Y-113030000D03*
X143764000Y-115570000D03*
X143764000Y-118110000D03*
D15*
X104280000Y-139700000D03*
X104982944Y-138002944D03*
X104982944Y-141397056D03*
X106680000Y-137300000D03*
D16*
X106680000Y-139700000D03*
D15*
X106680000Y-142100000D03*
X108377056Y-138002944D03*
X108377056Y-141397056D03*
X109080000Y-139700000D03*
X104280000Y-88900000D03*
X104982944Y-87202944D03*
X104982944Y-90597056D03*
X106680000Y-86500000D03*
D16*
X106680000Y-88900000D03*
D15*
X106680000Y-91300000D03*
X108377056Y-87202944D03*
X108377056Y-90597056D03*
X109080000Y-88900000D03*
D19*
X107315000Y-125730000D03*
X107315000Y-128270000D03*
X107315000Y-130810000D03*
X107315000Y-133350000D03*
D20*
X136017000Y-92456000D03*
X99568000Y-118618000D03*
X122809000Y-122809000D03*
X117094000Y-114681000D03*
X132842000Y-114681000D03*
X100076000Y-108966000D03*
X142240000Y-93726000D03*
X124333000Y-114046000D03*
X112014000Y-122301000D03*
X122174000Y-117983000D03*
X131445000Y-110998000D03*
X141605000Y-94107000D03*
X142875000Y-94107000D03*
X149860000Y-133604000D03*
D21*
X149987000Y-128651000D03*
X147193000Y-94996000D03*
X149098000Y-128270000D03*
X148209000Y-128651000D03*
X148209000Y-94996000D03*
X147701000Y-95885000D03*
D20*
X132969000Y-112268000D03*
X126238000Y-116078000D03*
X137160000Y-103505000D03*
X138176000Y-102489000D03*
X100330000Y-119761000D03*
X137160000Y-102489000D03*
X131318000Y-110236000D03*
X136144000Y-102489000D03*
X117983000Y-130810000D03*
X121793000Y-107823000D03*
X136144000Y-103505000D03*
X114554000Y-100203000D03*
X136652000Y-102997000D03*
X128016000Y-114681000D03*
X126365000Y-127635000D03*
X125476000Y-116078000D03*
X107442000Y-110363000D03*
X137668000Y-102997000D03*
X101854000Y-105410000D03*
X138176000Y-103505000D03*
X117602000Y-104013000D03*
X120269000Y-106172000D03*
X105918000Y-113284000D03*
X119507000Y-105664000D03*
X105283000Y-112903000D03*
X120015000Y-122809000D03*
X121539000Y-109601000D03*
X107442000Y-107315000D03*
X118745000Y-112268000D03*
X117729000Y-112395000D03*
X115443000Y-116078000D03*
X103428800Y-112572800D03*
X118618000Y-115824000D03*
X116078000Y-113538000D03*
X114808000Y-113665000D03*
X117348000Y-115570000D03*
X130937000Y-117602000D03*
X137414000Y-100711000D03*
X137922000Y-101219000D03*
X131699000Y-117602000D03*
X108331000Y-116459000D03*
X134493000Y-116078000D03*
X134493000Y-114808000D03*
X107188000Y-118618000D03*
X130556000Y-122936000D03*
X124714000Y-108077000D03*
X124333000Y-108712000D03*
X129540000Y-122936000D03*
X128524000Y-122936000D03*
X123571000Y-108712000D03*
X122047000Y-122809000D03*
X122555000Y-108585000D03*
X121031000Y-122809000D03*
X122047000Y-109093000D03*
X118745000Y-128905000D03*
X119380000Y-116586000D03*
X118618000Y-105791000D03*
X141351000Y-127254000D03*
X140335000Y-127254000D03*
X141351000Y-126238000D03*
D21*
X148336000Y-133350000D03*
X148336000Y-134366000D03*
D20*
X140843000Y-126746000D03*
X140335000Y-126238000D03*
X139065000Y-97917000D03*
X139573000Y-97409000D03*
D21*
X147320000Y-104267000D03*
X147320000Y-105410000D03*
D20*
X140081000Y-97917000D03*
X132207000Y-123063000D03*
X132969000Y-123063000D03*
X136906000Y-100203000D03*
G04 #@! TA.AperFunction,Conductor*
G36*
X147735206Y-84138628D02*
G01*
X147737915Y-84138865D01*
X148148617Y-84192935D01*
X148151250Y-84193399D01*
X148555697Y-84283063D01*
X148558328Y-84283768D01*
X148953392Y-84408331D01*
X148955939Y-84409258D01*
X149338666Y-84567789D01*
X149341097Y-84568923D01*
X149708546Y-84760205D01*
X149710882Y-84761553D01*
X149966703Y-84924529D01*
X150060250Y-84984125D01*
X150062485Y-84985689D01*
X150391126Y-85237865D01*
X150393215Y-85239618D01*
X150698610Y-85519460D01*
X150700536Y-85521386D01*
X150929120Y-85770843D01*
X150980381Y-85826784D01*
X150982134Y-85828873D01*
X151234310Y-86157514D01*
X151235874Y-86159749D01*
X151355084Y-86346871D01*
X151458442Y-86509110D01*
X151459799Y-86511462D01*
X151651068Y-86878885D01*
X151652214Y-86881344D01*
X151766451Y-87157135D01*
X151810738Y-87264053D01*
X151811671Y-87266616D01*
X151936231Y-87661673D01*
X151936937Y-87664307D01*
X151965888Y-87794895D01*
X152026596Y-88068731D01*
X152027067Y-88071401D01*
X152081133Y-88482076D01*
X152081371Y-88484793D01*
X152099500Y-88900000D01*
X152099500Y-139700000D01*
X152081371Y-140115206D01*
X152081133Y-140117923D01*
X152027067Y-140528598D01*
X152026596Y-140531272D01*
X151989628Y-140698019D01*
X151936937Y-140935692D01*
X151936231Y-140938326D01*
X151811671Y-141333383D01*
X151810738Y-141335946D01*
X151696507Y-141611724D01*
X151677536Y-141657527D01*
X151652221Y-141718642D01*
X151651068Y-141721114D01*
X151459799Y-142088537D01*
X151458436Y-142090899D01*
X151235874Y-142440250D01*
X151234310Y-142442485D01*
X150982134Y-142771126D01*
X150980381Y-142773215D01*
X150700539Y-143078610D01*
X150698610Y-143080539D01*
X150393215Y-143360381D01*
X150391126Y-143362134D01*
X150062485Y-143614310D01*
X150060250Y-143615874D01*
X149710899Y-143838436D01*
X149708537Y-143839799D01*
X149341114Y-144031068D01*
X149338647Y-144032218D01*
X149231724Y-144076507D01*
X148955946Y-144190738D01*
X148953383Y-144191671D01*
X148558326Y-144316231D01*
X148555692Y-144316937D01*
X148318019Y-144369628D01*
X148151272Y-144406596D01*
X148148598Y-144407067D01*
X147737923Y-144461133D01*
X147735206Y-144461371D01*
X147320000Y-144479500D01*
X106680000Y-144479500D01*
X106264793Y-144461371D01*
X106262076Y-144461133D01*
X105851401Y-144407067D01*
X105848731Y-144406596D01*
X105611042Y-144353902D01*
X105444307Y-144316937D01*
X105441673Y-144316231D01*
X105046616Y-144191671D01*
X105044053Y-144190738D01*
X104937135Y-144146451D01*
X104661344Y-144032214D01*
X104658892Y-144031071D01*
X104291460Y-143839798D01*
X104289110Y-143838442D01*
X104126871Y-143735084D01*
X103939749Y-143615874D01*
X103937514Y-143614310D01*
X103608873Y-143362134D01*
X103606784Y-143360381D01*
X103301389Y-143080539D01*
X103299460Y-143078610D01*
X103019614Y-142773210D01*
X103017865Y-142771126D01*
X102765689Y-142442485D01*
X102764125Y-142440250D01*
X102704529Y-142346703D01*
X102541553Y-142090882D01*
X102540205Y-142088546D01*
X102348923Y-141721097D01*
X102347789Y-141718666D01*
X102189258Y-141335939D01*
X102188328Y-141333383D01*
X102157801Y-141236564D01*
X102063768Y-140938326D01*
X102063062Y-140935692D01*
X101973399Y-140531250D01*
X101972935Y-140528617D01*
X101918865Y-140117915D01*
X101918628Y-140115206D01*
X101900500Y-139700000D01*
X101900500Y-138430000D01*
X120937770Y-138430000D01*
X120956642Y-138621622D01*
X120956643Y-138621624D01*
X121012538Y-138805883D01*
X121012539Y-138805884D01*
X121103302Y-138975692D01*
X121103306Y-138975698D01*
X121225459Y-139124541D01*
X121374302Y-139246694D01*
X121374304Y-139246695D01*
X121374307Y-139246697D01*
X121418491Y-139270313D01*
X121544117Y-139337462D01*
X121728376Y-139393357D01*
X121920000Y-139412230D01*
X122111624Y-139393357D01*
X122295883Y-139337462D01*
X122379894Y-139292557D01*
X123482500Y-139292557D01*
X123489898Y-139329748D01*
X123489898Y-139329749D01*
X123518077Y-139371922D01*
X123546256Y-139390750D01*
X123560252Y-139400102D01*
X123597442Y-139407500D01*
X123597443Y-139407500D01*
X125322557Y-139407500D01*
X125322558Y-139407500D01*
X125359748Y-139400102D01*
X125401922Y-139371922D01*
X125430102Y-139329748D01*
X125437500Y-139292558D01*
X125437500Y-138430000D01*
X131097770Y-138430000D01*
X131116642Y-138621622D01*
X131116643Y-138621624D01*
X131172538Y-138805883D01*
X131172539Y-138805884D01*
X131263302Y-138975692D01*
X131263306Y-138975698D01*
X131385459Y-139124541D01*
X131534302Y-139246694D01*
X131534304Y-139246695D01*
X131534307Y-139246697D01*
X131578491Y-139270313D01*
X131704117Y-139337462D01*
X131888376Y-139393357D01*
X132080000Y-139412230D01*
X132271624Y-139393357D01*
X132455883Y-139337462D01*
X132539894Y-139292557D01*
X133642500Y-139292557D01*
X133649898Y-139329748D01*
X133649898Y-139329749D01*
X133678077Y-139371922D01*
X133706256Y-139390750D01*
X133720252Y-139400102D01*
X133757442Y-139407500D01*
X133757443Y-139407500D01*
X135482557Y-139407500D01*
X135482558Y-139407500D01*
X135519748Y-139400102D01*
X135561922Y-139371922D01*
X135590102Y-139329748D01*
X135597500Y-139292558D01*
X135597500Y-137567442D01*
X135590102Y-137530252D01*
X135590101Y-137530250D01*
X135561922Y-137488077D01*
X135519748Y-137459898D01*
X135482558Y-137452500D01*
X133757442Y-137452500D01*
X133738847Y-137456199D01*
X133720251Y-137459898D01*
X133720250Y-137459898D01*
X133678077Y-137488077D01*
X133649898Y-137530250D01*
X133649898Y-137530251D01*
X133642500Y-137567442D01*
X133642500Y-139292557D01*
X132539894Y-139292557D01*
X132625698Y-139246694D01*
X132774541Y-139124541D01*
X132896694Y-138975698D01*
X132987462Y-138805883D01*
X133043357Y-138621624D01*
X133062230Y-138430000D01*
X133043357Y-138238376D01*
X132987462Y-138054117D01*
X132896694Y-137884302D01*
X132774541Y-137735459D01*
X132625698Y-137613306D01*
X132625692Y-137613302D01*
X132518695Y-137556112D01*
X132455883Y-137522538D01*
X132338111Y-137486811D01*
X132271622Y-137466642D01*
X132080000Y-137447770D01*
X131888377Y-137466642D01*
X131770604Y-137502369D01*
X131704117Y-137522538D01*
X131704115Y-137522538D01*
X131704115Y-137522539D01*
X131534307Y-137613302D01*
X131534301Y-137613306D01*
X131385459Y-137735459D01*
X131263306Y-137884301D01*
X131263302Y-137884307D01*
X131172539Y-138054115D01*
X131116642Y-138238377D01*
X131097770Y-138429999D01*
X131097770Y-138430000D01*
X125437500Y-138430000D01*
X125437500Y-137567442D01*
X125430102Y-137530252D01*
X125430101Y-137530250D01*
X125401922Y-137488077D01*
X125359748Y-137459898D01*
X125322558Y-137452500D01*
X123597442Y-137452500D01*
X123578847Y-137456199D01*
X123560251Y-137459898D01*
X123560250Y-137459898D01*
X123518077Y-137488077D01*
X123489898Y-137530250D01*
X123489898Y-137530251D01*
X123482500Y-137567442D01*
X123482500Y-139292557D01*
X122379894Y-139292557D01*
X122465698Y-139246694D01*
X122614541Y-139124541D01*
X122736694Y-138975698D01*
X122827462Y-138805883D01*
X122883357Y-138621624D01*
X122902230Y-138430000D01*
X122883357Y-138238376D01*
X122827462Y-138054117D01*
X122736694Y-137884302D01*
X122614541Y-137735459D01*
X122465698Y-137613306D01*
X122465692Y-137613302D01*
X122358695Y-137556112D01*
X122295883Y-137522538D01*
X122178111Y-137486811D01*
X122111622Y-137466642D01*
X121920000Y-137447770D01*
X121728377Y-137466642D01*
X121610604Y-137502369D01*
X121544117Y-137522538D01*
X121544115Y-137522538D01*
X121544115Y-137522539D01*
X121374307Y-137613302D01*
X121374301Y-137613306D01*
X121225459Y-137735459D01*
X121103306Y-137884301D01*
X121103302Y-137884307D01*
X121012539Y-138054115D01*
X120956642Y-138238377D01*
X120937770Y-138429999D01*
X120937770Y-138430000D01*
X101900500Y-138430000D01*
X101900500Y-133350004D01*
X106182670Y-133350004D01*
X106201948Y-133558057D01*
X106201950Y-133558068D01*
X106259134Y-133759045D01*
X106352274Y-133946095D01*
X106352275Y-133946096D01*
X106352277Y-133946100D01*
X106478189Y-134112836D01*
X106478194Y-134112841D01*
X106478198Y-134112846D01*
X106582938Y-134208329D01*
X106632614Y-134253615D01*
X106632615Y-134253616D01*
X106632619Y-134253619D01*
X106810277Y-134363620D01*
X107005123Y-134439104D01*
X107210522Y-134477500D01*
X107210525Y-134477500D01*
X107419475Y-134477500D01*
X107419478Y-134477500D01*
X107624877Y-134439104D01*
X107813580Y-134366000D01*
X147880867Y-134366000D01*
X147899302Y-134494224D01*
X147899303Y-134494226D01*
X147953118Y-134612063D01*
X148037951Y-134709967D01*
X148146931Y-134780004D01*
X148146933Y-134780004D01*
X148146934Y-134780005D01*
X148271225Y-134816499D01*
X148271227Y-134816500D01*
X148271228Y-134816500D01*
X148400773Y-134816500D01*
X148400773Y-134816499D01*
X148525069Y-134780004D01*
X148634049Y-134709967D01*
X148718882Y-134612063D01*
X148772697Y-134494226D01*
X148791133Y-134366000D01*
X148772697Y-134237774D01*
X148718882Y-134119937D01*
X148634049Y-134022033D01*
X148634048Y-134022032D01*
X148592081Y-133995062D01*
X148525069Y-133951996D01*
X148525067Y-133951995D01*
X148525065Y-133951994D01*
X148409179Y-133917968D01*
X148371932Y-133887953D01*
X148366819Y-133840392D01*
X148396834Y-133803145D01*
X148409179Y-133798032D01*
X148493075Y-133773398D01*
X148525069Y-133764004D01*
X148634049Y-133693967D01*
X148718882Y-133596063D01*
X148772697Y-133478226D01*
X148791133Y-133350000D01*
X148772697Y-133221774D01*
X148718882Y-133103937D01*
X148634049Y-133006033D01*
X148634048Y-133006032D01*
X148532785Y-132940955D01*
X148525069Y-132935996D01*
X148525067Y-132935995D01*
X148525065Y-132935994D01*
X148400774Y-132899500D01*
X148400772Y-132899500D01*
X148271228Y-132899500D01*
X148271226Y-132899500D01*
X148146934Y-132935994D01*
X148037951Y-133006032D01*
X147953118Y-133103936D01*
X147953118Y-133103937D01*
X147899302Y-133221775D01*
X147880867Y-133350000D01*
X147899302Y-133478224D01*
X147899303Y-133478226D01*
X147953118Y-133596063D01*
X148037951Y-133693967D01*
X148146931Y-133764004D01*
X148146933Y-133764004D01*
X148146934Y-133764005D01*
X148262820Y-133798032D01*
X148300067Y-133828047D01*
X148305180Y-133875608D01*
X148275165Y-133912855D01*
X148262820Y-133917968D01*
X148146934Y-133951994D01*
X148037951Y-134022032D01*
X147953118Y-134119936D01*
X147953118Y-134119937D01*
X147899302Y-134237775D01*
X147880867Y-134366000D01*
X107813580Y-134366000D01*
X107819723Y-134363620D01*
X107997381Y-134253619D01*
X108151802Y-134112846D01*
X108277726Y-133946095D01*
X108370866Y-133759045D01*
X108428050Y-133558065D01*
X108435448Y-133478226D01*
X108447330Y-133350004D01*
X108447330Y-133349995D01*
X108428051Y-133141942D01*
X108428049Y-133141931D01*
X108389382Y-133006032D01*
X108370866Y-132940955D01*
X108277726Y-132753905D01*
X108277723Y-132753901D01*
X108277722Y-132753899D01*
X108151810Y-132587163D01*
X108151805Y-132587158D01*
X108151802Y-132587154D01*
X108054927Y-132498841D01*
X107997385Y-132446384D01*
X107997382Y-132446382D01*
X107997381Y-132446381D01*
X107819723Y-132336380D01*
X107819721Y-132336379D01*
X107763089Y-132314440D01*
X107624877Y-132260896D01*
X107624874Y-132260895D01*
X107624873Y-132260895D01*
X107419482Y-132222500D01*
X107419478Y-132222500D01*
X107210522Y-132222500D01*
X107210517Y-132222500D01*
X107005126Y-132260895D01*
X106810278Y-132336379D01*
X106632614Y-132446384D01*
X106478196Y-132587156D01*
X106478189Y-132587163D01*
X106352277Y-132753899D01*
X106352274Y-132753905D01*
X106259134Y-132940954D01*
X106201950Y-133141931D01*
X106201948Y-133141942D01*
X106182670Y-133349995D01*
X106182670Y-133350004D01*
X101900500Y-133350004D01*
X101900500Y-130810004D01*
X106182670Y-130810004D01*
X106201948Y-131018057D01*
X106201950Y-131018068D01*
X106259134Y-131219045D01*
X106352274Y-131406095D01*
X106352275Y-131406096D01*
X106352277Y-131406100D01*
X106478189Y-131572836D01*
X106478194Y-131572841D01*
X106478198Y-131572846D01*
X106582938Y-131668329D01*
X106632614Y-131713615D01*
X106632615Y-131713616D01*
X106632619Y-131713619D01*
X106810277Y-131823620D01*
X107005123Y-131899104D01*
X107210522Y-131937500D01*
X107210525Y-131937500D01*
X107419475Y-131937500D01*
X107419478Y-131937500D01*
X107624877Y-131899104D01*
X107819723Y-131823620D01*
X107997381Y-131713619D01*
X108151802Y-131572846D01*
X108277726Y-131406095D01*
X108370866Y-131219045D01*
X108428050Y-131018065D01*
X108428051Y-131018057D01*
X108447330Y-130810004D01*
X108447330Y-130810003D01*
X117628131Y-130810003D01*
X117645498Y-130919657D01*
X117645500Y-130919662D01*
X117695904Y-131018586D01*
X117695905Y-131018587D01*
X117774413Y-131097095D01*
X117873339Y-131147500D01*
X117873342Y-131147501D01*
X117982997Y-131164869D01*
X117983000Y-131164869D01*
X117983003Y-131164869D01*
X118092657Y-131147501D01*
X118092658Y-131147500D01*
X118092661Y-131147500D01*
X118191587Y-131097095D01*
X118270095Y-131018587D01*
X118320500Y-130919661D01*
X118320501Y-130919657D01*
X118337869Y-130810003D01*
X118337869Y-130809996D01*
X118320501Y-130700342D01*
X118320499Y-130700337D01*
X118270095Y-130601413D01*
X118191586Y-130522904D01*
X118092662Y-130472500D01*
X118092657Y-130472498D01*
X117983003Y-130455131D01*
X117982997Y-130455131D01*
X117873342Y-130472498D01*
X117873337Y-130472500D01*
X117774413Y-130522904D01*
X117695904Y-130601413D01*
X117645500Y-130700337D01*
X117645498Y-130700342D01*
X117628131Y-130809996D01*
X117628131Y-130810003D01*
X108447330Y-130810003D01*
X108447330Y-130809995D01*
X108428051Y-130601942D01*
X108428049Y-130601931D01*
X108405564Y-130522905D01*
X108370866Y-130400955D01*
X108277726Y-130213905D01*
X108277723Y-130213901D01*
X108277722Y-130213899D01*
X108151810Y-130047163D01*
X108151805Y-130047158D01*
X108151802Y-130047154D01*
X108054927Y-129958841D01*
X107997385Y-129906384D01*
X107997382Y-129906382D01*
X107997381Y-129906381D01*
X107819723Y-129796380D01*
X107819721Y-129796379D01*
X107763089Y-129774440D01*
X107624877Y-129720896D01*
X107624874Y-129720895D01*
X107624873Y-129720895D01*
X107419482Y-129682500D01*
X107419478Y-129682500D01*
X107210522Y-129682500D01*
X107210517Y-129682500D01*
X107005126Y-129720895D01*
X106810278Y-129796379D01*
X106632614Y-129906384D01*
X106478196Y-130047156D01*
X106478189Y-130047163D01*
X106352277Y-130213899D01*
X106352274Y-130213905D01*
X106259134Y-130400954D01*
X106201950Y-130601931D01*
X106201948Y-130601942D01*
X106182670Y-130809995D01*
X106182670Y-130810004D01*
X101900500Y-130810004D01*
X101900500Y-129360532D01*
X101869217Y-129002961D01*
X101806890Y-128649484D01*
X101806889Y-128649484D01*
X101806888Y-128649477D01*
X101713988Y-128302771D01*
X101702062Y-128270004D01*
X106182670Y-128270004D01*
X106201948Y-128478057D01*
X106201950Y-128478068D01*
X106241198Y-128616007D01*
X106259134Y-128679045D01*
X106352274Y-128866095D01*
X106352275Y-128866096D01*
X106352277Y-128866100D01*
X106478189Y-129032836D01*
X106478194Y-129032841D01*
X106478198Y-129032846D01*
X106553507Y-129101499D01*
X106632614Y-129173615D01*
X106632615Y-129173616D01*
X106632619Y-129173619D01*
X106810277Y-129283620D01*
X107005123Y-129359104D01*
X107210522Y-129397500D01*
X107210525Y-129397500D01*
X107419475Y-129397500D01*
X107419478Y-129397500D01*
X107624877Y-129359104D01*
X107819723Y-129283620D01*
X107997381Y-129173619D01*
X108047909Y-129127557D01*
X114338500Y-129127557D01*
X114345898Y-129164748D01*
X114345898Y-129164749D01*
X114374077Y-129206922D01*
X114402256Y-129225750D01*
X114416252Y-129235102D01*
X114453442Y-129242500D01*
X114453443Y-129242500D01*
X116178557Y-129242500D01*
X116178558Y-129242500D01*
X116215748Y-129235102D01*
X116257922Y-129206922D01*
X116286102Y-129164748D01*
X116293500Y-129127558D01*
X116293500Y-128905003D01*
X118390131Y-128905003D01*
X118407498Y-129014657D01*
X118407500Y-129014662D01*
X118457904Y-129113586D01*
X118536413Y-129192095D01*
X118620819Y-129235102D01*
X118635339Y-129242500D01*
X118635342Y-129242501D01*
X118744997Y-129259869D01*
X118745000Y-129259869D01*
X118745003Y-129259869D01*
X118854657Y-129242501D01*
X118854658Y-129242500D01*
X118854661Y-129242500D01*
X118953587Y-129192095D01*
X119032095Y-129113587D01*
X119082500Y-129014661D01*
X119082501Y-129014657D01*
X119099869Y-128905003D01*
X119099869Y-128904996D01*
X119082501Y-128795342D01*
X119082499Y-128795337D01*
X119032095Y-128696413D01*
X118986681Y-128650999D01*
X147753867Y-128650999D01*
X147772302Y-128779224D01*
X147772303Y-128779226D01*
X147826118Y-128897063D01*
X147910951Y-128994967D01*
X148019931Y-129065004D01*
X148019933Y-129065004D01*
X148019934Y-129065005D01*
X148144225Y-129101499D01*
X148144227Y-129101500D01*
X148144228Y-129101500D01*
X148273773Y-129101500D01*
X148273773Y-129101499D01*
X148398069Y-129065004D01*
X148507049Y-128994967D01*
X148591882Y-128897063D01*
X148645697Y-128779226D01*
X148664133Y-128651000D01*
X148661021Y-128629362D01*
X148672852Y-128583013D01*
X148713992Y-128558604D01*
X148760341Y-128570434D01*
X148770117Y-128579536D01*
X148799951Y-128613967D01*
X148908931Y-128684004D01*
X148908933Y-128684004D01*
X148908934Y-128684005D01*
X149033225Y-128720499D01*
X149033227Y-128720500D01*
X149033228Y-128720500D01*
X149162773Y-128720500D01*
X149162773Y-128720499D01*
X149287069Y-128684004D01*
X149396049Y-128613967D01*
X149425880Y-128579539D01*
X149468652Y-128558127D01*
X149514040Y-128573232D01*
X149535454Y-128616007D01*
X149534977Y-128629360D01*
X149531867Y-128650997D01*
X149531867Y-128650999D01*
X149550302Y-128779224D01*
X149550303Y-128779226D01*
X149604118Y-128897063D01*
X149688951Y-128994967D01*
X149797931Y-129065004D01*
X149797933Y-129065004D01*
X149797934Y-129065005D01*
X149922225Y-129101499D01*
X149922227Y-129101500D01*
X149922228Y-129101500D01*
X150051773Y-129101500D01*
X150051773Y-129101499D01*
X150176069Y-129065004D01*
X150285049Y-128994967D01*
X150369882Y-128897063D01*
X150423697Y-128779226D01*
X150442133Y-128651000D01*
X150423697Y-128522774D01*
X150369882Y-128404937D01*
X150285049Y-128307033D01*
X150285048Y-128307032D01*
X150243081Y-128280062D01*
X150176069Y-128236996D01*
X150176067Y-128236995D01*
X150176065Y-128236994D01*
X150051774Y-128200500D01*
X150051772Y-128200500D01*
X149922228Y-128200500D01*
X149922226Y-128200500D01*
X149797934Y-128236994D01*
X149688950Y-128307033D01*
X149659120Y-128341460D01*
X149616345Y-128362872D01*
X149570957Y-128347765D01*
X149549545Y-128304990D01*
X149550022Y-128291636D01*
X149553133Y-128270000D01*
X149534697Y-128141774D01*
X149480882Y-128023937D01*
X149396049Y-127926033D01*
X149396048Y-127926032D01*
X149294785Y-127860955D01*
X149287069Y-127855996D01*
X149287067Y-127855995D01*
X149287065Y-127855994D01*
X149162774Y-127819500D01*
X149162772Y-127819500D01*
X149033228Y-127819500D01*
X149033226Y-127819500D01*
X148908934Y-127855994D01*
X148799951Y-127926032D01*
X148715118Y-128023936D01*
X148715118Y-128023937D01*
X148661302Y-128141775D01*
X148642867Y-128270000D01*
X148642867Y-128270002D01*
X148645977Y-128291639D01*
X148634145Y-128337988D01*
X148593005Y-128362395D01*
X148546656Y-128350563D01*
X148536882Y-128341463D01*
X148507049Y-128307033D01*
X148507048Y-128307032D01*
X148465081Y-128280062D01*
X148398069Y-128236996D01*
X148398067Y-128236995D01*
X148398065Y-128236994D01*
X148273774Y-128200500D01*
X148273772Y-128200500D01*
X148144228Y-128200500D01*
X148144226Y-128200500D01*
X148019934Y-128236994D01*
X147910951Y-128307032D01*
X147826118Y-128404936D01*
X147826118Y-128404937D01*
X147772302Y-128522775D01*
X147753867Y-128650999D01*
X118986681Y-128650999D01*
X118953586Y-128617904D01*
X118854662Y-128567500D01*
X118854657Y-128567498D01*
X118745003Y-128550131D01*
X118744997Y-128550131D01*
X118635342Y-128567498D01*
X118635337Y-128567500D01*
X118536413Y-128617904D01*
X118457904Y-128696413D01*
X118407500Y-128795337D01*
X118407498Y-128795342D01*
X118390131Y-128904996D01*
X118390131Y-128905003D01*
X116293500Y-128905003D01*
X116293500Y-127635003D01*
X126010131Y-127635003D01*
X126027498Y-127744657D01*
X126027500Y-127744662D01*
X126065632Y-127819500D01*
X126077905Y-127843587D01*
X126156413Y-127922095D01*
X126255339Y-127972500D01*
X126255342Y-127972501D01*
X126364997Y-127989869D01*
X126365000Y-127989869D01*
X126365003Y-127989869D01*
X126474657Y-127972501D01*
X126474658Y-127972500D01*
X126474661Y-127972500D01*
X126573587Y-127922095D01*
X126652095Y-127843587D01*
X126702500Y-127744661D01*
X126713708Y-127673899D01*
X126719869Y-127635003D01*
X126719869Y-127634996D01*
X126702501Y-127525342D01*
X126702499Y-127525337D01*
X126652095Y-127426413D01*
X126573586Y-127347904D01*
X126474662Y-127297500D01*
X126474657Y-127297498D01*
X126365003Y-127280131D01*
X126364997Y-127280131D01*
X126255342Y-127297498D01*
X126255337Y-127297500D01*
X126156413Y-127347904D01*
X126077904Y-127426413D01*
X126027500Y-127525337D01*
X126027498Y-127525342D01*
X126010131Y-127634996D01*
X126010131Y-127635003D01*
X116293500Y-127635003D01*
X116293500Y-127402442D01*
X116286102Y-127365252D01*
X116285039Y-127363661D01*
X116257922Y-127323077D01*
X116215748Y-127294898D01*
X116215747Y-127294898D01*
X116178558Y-127287500D01*
X114453442Y-127287500D01*
X114434847Y-127291199D01*
X114416251Y-127294898D01*
X114416250Y-127294898D01*
X114374077Y-127323077D01*
X114345898Y-127365250D01*
X114345898Y-127365251D01*
X114338500Y-127402442D01*
X114338500Y-129127557D01*
X108047909Y-129127557D01*
X108151802Y-129032846D01*
X108277726Y-128866095D01*
X108370866Y-128679045D01*
X108428050Y-128478065D01*
X108428051Y-128478057D01*
X108447330Y-128270004D01*
X108447330Y-128269995D01*
X108428051Y-128061942D01*
X108428049Y-128061931D01*
X108407545Y-127989869D01*
X108370866Y-127860955D01*
X108277726Y-127673905D01*
X108277723Y-127673901D01*
X108277722Y-127673899D01*
X108151810Y-127507163D01*
X108151805Y-127507158D01*
X108151802Y-127507154D01*
X108036938Y-127402442D01*
X107997385Y-127366384D01*
X107997382Y-127366382D01*
X107997381Y-127366381D01*
X107819723Y-127256380D01*
X107819721Y-127256379D01*
X107813588Y-127254003D01*
X139980131Y-127254003D01*
X139997498Y-127363657D01*
X139997500Y-127363662D01*
X140047904Y-127462586D01*
X140047905Y-127462587D01*
X140126413Y-127541095D01*
X140225339Y-127591500D01*
X140225342Y-127591501D01*
X140334997Y-127608869D01*
X140335000Y-127608869D01*
X140335003Y-127608869D01*
X140444657Y-127591501D01*
X140444658Y-127591500D01*
X140444661Y-127591500D01*
X140543587Y-127541095D01*
X140622095Y-127462587D01*
X140672500Y-127363661D01*
X140674996Y-127347904D01*
X140689869Y-127254003D01*
X140689869Y-127253997D01*
X140674508Y-127157016D01*
X140685674Y-127110502D01*
X140726460Y-127085508D01*
X140746016Y-127085508D01*
X140842998Y-127100869D01*
X140843000Y-127100869D01*
X140843002Y-127100869D01*
X140939983Y-127085508D01*
X140986497Y-127096674D01*
X141011491Y-127137460D01*
X141011492Y-127157015D01*
X140996132Y-127253997D01*
X140996131Y-127254002D01*
X140996131Y-127254003D01*
X141013498Y-127363657D01*
X141013500Y-127363662D01*
X141063904Y-127462586D01*
X141063905Y-127462587D01*
X141142413Y-127541095D01*
X141241339Y-127591500D01*
X141241342Y-127591501D01*
X141350997Y-127608869D01*
X141351000Y-127608869D01*
X141351003Y-127608869D01*
X141460657Y-127591501D01*
X141460658Y-127591500D01*
X141460661Y-127591500D01*
X141559587Y-127541095D01*
X141638095Y-127462587D01*
X141688500Y-127363661D01*
X141690996Y-127347904D01*
X141705869Y-127254003D01*
X141705869Y-127253996D01*
X141688501Y-127144342D01*
X141688499Y-127144337D01*
X141638095Y-127045413D01*
X141559586Y-126966904D01*
X141460662Y-126916500D01*
X141460657Y-126916498D01*
X141351003Y-126899131D01*
X141351001Y-126899131D01*
X141351000Y-126899131D01*
X141289335Y-126908898D01*
X141254015Y-126914492D01*
X141207501Y-126903324D01*
X141182507Y-126862538D01*
X141182508Y-126842983D01*
X141197869Y-126746002D01*
X141197869Y-126745997D01*
X141182508Y-126649016D01*
X141193674Y-126602502D01*
X141234460Y-126577508D01*
X141254016Y-126577508D01*
X141350998Y-126592869D01*
X141351000Y-126592869D01*
X141351003Y-126592869D01*
X141460657Y-126575501D01*
X141460658Y-126575500D01*
X141460661Y-126575500D01*
X141559587Y-126525095D01*
X141638095Y-126446587D01*
X141688500Y-126347661D01*
X141705869Y-126238000D01*
X141705869Y-126237997D01*
X141705869Y-126237996D01*
X141688501Y-126128342D01*
X141688499Y-126128337D01*
X141638095Y-126029413D01*
X141559586Y-125950904D01*
X141460662Y-125900500D01*
X141460657Y-125900498D01*
X141351003Y-125883131D01*
X141350997Y-125883131D01*
X141241342Y-125900498D01*
X141241337Y-125900500D01*
X141142413Y-125950904D01*
X141063904Y-126029413D01*
X141013500Y-126128337D01*
X141013498Y-126128342D01*
X140996131Y-126237996D01*
X140996131Y-126237997D01*
X140996131Y-126238000D01*
X141008524Y-126316249D01*
X141011492Y-126334984D01*
X141000324Y-126381498D01*
X140959538Y-126406492D01*
X140939984Y-126406492D01*
X140899443Y-126400070D01*
X140843000Y-126391131D01*
X140842999Y-126391131D01*
X140746015Y-126406492D01*
X140699501Y-126395324D01*
X140674507Y-126354538D01*
X140674508Y-126334983D01*
X140689869Y-126238002D01*
X140689869Y-126237996D01*
X140672501Y-126128342D01*
X140672499Y-126128337D01*
X140622095Y-126029413D01*
X140543586Y-125950904D01*
X140444662Y-125900500D01*
X140444657Y-125900498D01*
X140335003Y-125883131D01*
X140334997Y-125883131D01*
X140225342Y-125900498D01*
X140225337Y-125900500D01*
X140126413Y-125950904D01*
X140047904Y-126029413D01*
X139997500Y-126128337D01*
X139997498Y-126128342D01*
X139980131Y-126237996D01*
X139980131Y-126238003D01*
X139997498Y-126347657D01*
X139997500Y-126347662D01*
X140047904Y-126446586D01*
X140047905Y-126446587D01*
X140126413Y-126525095D01*
X140225339Y-126575500D01*
X140225342Y-126575501D01*
X140334997Y-126592869D01*
X140335000Y-126592869D01*
X140335002Y-126592869D01*
X140431983Y-126577508D01*
X140478497Y-126588674D01*
X140503491Y-126629460D01*
X140503492Y-126649015D01*
X140488131Y-126745997D01*
X140488131Y-126746000D01*
X140490403Y-126760343D01*
X140503492Y-126842984D01*
X140492324Y-126889498D01*
X140451538Y-126914492D01*
X140431984Y-126914492D01*
X140413249Y-126911524D01*
X140335000Y-126899131D01*
X140334998Y-126899131D01*
X140334997Y-126899131D01*
X140225342Y-126916498D01*
X140225337Y-126916500D01*
X140126413Y-126966904D01*
X140047904Y-127045413D01*
X139997500Y-127144337D01*
X139997498Y-127144342D01*
X139980131Y-127253996D01*
X139980131Y-127254003D01*
X107813588Y-127254003D01*
X107763089Y-127234440D01*
X107624877Y-127180896D01*
X107624874Y-127180895D01*
X107624873Y-127180895D01*
X107419482Y-127142500D01*
X107419478Y-127142500D01*
X107210522Y-127142500D01*
X107210517Y-127142500D01*
X107005126Y-127180895D01*
X106810278Y-127256379D01*
X106632614Y-127366384D01*
X106478196Y-127507156D01*
X106478189Y-127507163D01*
X106352277Y-127673899D01*
X106352274Y-127673905D01*
X106259134Y-127860954D01*
X106201950Y-128061931D01*
X106201948Y-128061942D01*
X106182670Y-128269995D01*
X106182670Y-128270004D01*
X101702062Y-128270004D01*
X101591225Y-127965481D01*
X101591224Y-127965480D01*
X101591222Y-127965473D01*
X101439535Y-127640181D01*
X101439532Y-127640174D01*
X101321038Y-127434938D01*
X101260067Y-127329332D01*
X101054189Y-127035305D01*
X100931842Y-126889498D01*
X100823466Y-126760341D01*
X100730850Y-126667726D01*
X100720800Y-126654577D01*
X100716983Y-126647907D01*
X100686758Y-126623395D01*
X100684365Y-126621239D01*
X100673912Y-126610787D01*
X100662910Y-126599784D01*
X100654607Y-126595553D01*
X100643619Y-126588411D01*
X97887801Y-124353553D01*
X97880961Y-124347094D01*
X97662094Y-124106787D01*
X97660232Y-124104541D01*
X97456240Y-123833637D01*
X97454596Y-123831228D01*
X97276738Y-123542498D01*
X97275326Y-123539946D01*
X97152297Y-123290869D01*
X97125137Y-123235882D01*
X97123981Y-123233237D01*
X97002781Y-122916507D01*
X97001867Y-122913739D01*
X96985310Y-122854412D01*
X96972638Y-122809003D01*
X119660131Y-122809003D01*
X119677498Y-122918657D01*
X119677500Y-122918662D01*
X119727904Y-123017586D01*
X119806413Y-123096095D01*
X119901584Y-123144587D01*
X119905339Y-123146500D01*
X119905342Y-123146501D01*
X120014997Y-123163869D01*
X120015000Y-123163869D01*
X120015003Y-123163869D01*
X120124657Y-123146501D01*
X120124658Y-123146500D01*
X120124661Y-123146500D01*
X120223587Y-123096095D01*
X120302095Y-123017587D01*
X120352500Y-122918661D01*
X120352841Y-122916509D01*
X120369869Y-122809003D01*
X120676131Y-122809003D01*
X120693498Y-122918657D01*
X120693500Y-122918662D01*
X120743904Y-123017586D01*
X120822413Y-123096095D01*
X120917584Y-123144587D01*
X120921339Y-123146500D01*
X120921342Y-123146501D01*
X121030997Y-123163869D01*
X121031000Y-123163869D01*
X121031003Y-123163869D01*
X121140657Y-123146501D01*
X121140658Y-123146500D01*
X121140661Y-123146500D01*
X121239587Y-123096095D01*
X121318095Y-123017587D01*
X121368500Y-122918661D01*
X121368841Y-122916509D01*
X121385869Y-122809003D01*
X121692131Y-122809003D01*
X121709498Y-122918657D01*
X121709500Y-122918662D01*
X121759904Y-123017586D01*
X121838413Y-123096095D01*
X121933584Y-123144587D01*
X121937339Y-123146500D01*
X121937342Y-123146501D01*
X122046997Y-123163869D01*
X122047000Y-123163869D01*
X122047003Y-123163869D01*
X122156657Y-123146501D01*
X122156658Y-123146500D01*
X122156661Y-123146500D01*
X122255587Y-123096095D01*
X122334095Y-123017587D01*
X122375664Y-122936003D01*
X128169131Y-122936003D01*
X128186498Y-123045657D01*
X128186500Y-123045662D01*
X128236904Y-123144586D01*
X128315413Y-123223095D01*
X128410584Y-123271587D01*
X128414339Y-123273500D01*
X128414342Y-123273501D01*
X128523997Y-123290869D01*
X128524000Y-123290869D01*
X128524003Y-123290869D01*
X128633657Y-123273501D01*
X128633658Y-123273500D01*
X128633661Y-123273500D01*
X128732587Y-123223095D01*
X128811095Y-123144587D01*
X128861500Y-123045661D01*
X128874991Y-122960485D01*
X128878869Y-122936003D01*
X129185131Y-122936003D01*
X129202498Y-123045657D01*
X129202500Y-123045662D01*
X129252904Y-123144586D01*
X129331413Y-123223095D01*
X129426584Y-123271587D01*
X129430339Y-123273500D01*
X129430342Y-123273501D01*
X129539997Y-123290869D01*
X129540000Y-123290869D01*
X129540003Y-123290869D01*
X129649657Y-123273501D01*
X129649658Y-123273500D01*
X129649661Y-123273500D01*
X129748587Y-123223095D01*
X129827095Y-123144587D01*
X129877500Y-123045661D01*
X129890991Y-122960485D01*
X129894869Y-122936003D01*
X130201131Y-122936003D01*
X130218498Y-123045657D01*
X130218500Y-123045662D01*
X130268904Y-123144586D01*
X130347413Y-123223095D01*
X130442584Y-123271587D01*
X130446339Y-123273500D01*
X130446342Y-123273501D01*
X130555997Y-123290869D01*
X130556000Y-123290869D01*
X130556003Y-123290869D01*
X130665657Y-123273501D01*
X130665658Y-123273500D01*
X130665661Y-123273500D01*
X130764587Y-123223095D01*
X130843095Y-123144587D01*
X130884664Y-123063003D01*
X131852131Y-123063003D01*
X131869498Y-123172657D01*
X131869500Y-123172662D01*
X131919904Y-123271586D01*
X131919905Y-123271587D01*
X131998413Y-123350095D01*
X132097339Y-123400500D01*
X132097342Y-123400501D01*
X132206997Y-123417869D01*
X132207000Y-123417869D01*
X132207003Y-123417869D01*
X132316657Y-123400501D01*
X132316658Y-123400500D01*
X132316661Y-123400500D01*
X132415587Y-123350095D01*
X132494095Y-123271587D01*
X132532312Y-123196580D01*
X132568684Y-123165514D01*
X132616372Y-123169267D01*
X132643687Y-123196580D01*
X132681905Y-123271587D01*
X132760413Y-123350095D01*
X132859339Y-123400500D01*
X132859342Y-123400501D01*
X132968997Y-123417869D01*
X132969000Y-123417869D01*
X132969003Y-123417869D01*
X133078657Y-123400501D01*
X133078658Y-123400500D01*
X133078661Y-123400500D01*
X133177587Y-123350095D01*
X133256095Y-123271587D01*
X133306500Y-123172661D01*
X133310621Y-123146643D01*
X133323869Y-123063003D01*
X133323869Y-123062996D01*
X133306501Y-122953342D01*
X133306499Y-122953337D01*
X133256095Y-122854413D01*
X133177586Y-122775904D01*
X133078662Y-122725500D01*
X133078657Y-122725498D01*
X132969003Y-122708131D01*
X132968997Y-122708131D01*
X132859342Y-122725498D01*
X132859337Y-122725500D01*
X132760413Y-122775904D01*
X132681905Y-122854412D01*
X132643687Y-122929419D01*
X132607312Y-122960485D01*
X132559624Y-122956732D01*
X132532312Y-122929419D01*
X132494095Y-122854413D01*
X132415587Y-122775905D01*
X132415586Y-122775904D01*
X132316662Y-122725500D01*
X132316657Y-122725498D01*
X132207003Y-122708131D01*
X132206997Y-122708131D01*
X132097342Y-122725498D01*
X132097337Y-122725500D01*
X131998413Y-122775904D01*
X131919904Y-122854413D01*
X131869500Y-122953337D01*
X131869498Y-122953342D01*
X131852131Y-123062996D01*
X131852131Y-123063003D01*
X130884664Y-123063003D01*
X130893500Y-123045661D01*
X130906991Y-122960485D01*
X130910869Y-122936003D01*
X130910869Y-122935996D01*
X130893501Y-122826342D01*
X130893499Y-122826337D01*
X130843095Y-122727413D01*
X130764586Y-122648904D01*
X130665662Y-122598500D01*
X130665657Y-122598498D01*
X130556003Y-122581131D01*
X130555997Y-122581131D01*
X130446342Y-122598498D01*
X130446337Y-122598500D01*
X130347413Y-122648904D01*
X130268904Y-122727413D01*
X130218500Y-122826337D01*
X130218498Y-122826342D01*
X130201131Y-122935996D01*
X130201131Y-122936003D01*
X129894869Y-122936003D01*
X129894869Y-122935996D01*
X129877501Y-122826342D01*
X129877499Y-122826337D01*
X129827095Y-122727413D01*
X129748586Y-122648904D01*
X129649662Y-122598500D01*
X129649657Y-122598498D01*
X129540003Y-122581131D01*
X129539997Y-122581131D01*
X129430342Y-122598498D01*
X129430337Y-122598500D01*
X129331413Y-122648904D01*
X129252904Y-122727413D01*
X129202500Y-122826337D01*
X129202498Y-122826342D01*
X129185131Y-122935996D01*
X129185131Y-122936003D01*
X128878869Y-122936003D01*
X128878869Y-122935996D01*
X128861501Y-122826342D01*
X128861499Y-122826337D01*
X128811095Y-122727413D01*
X128732586Y-122648904D01*
X128633662Y-122598500D01*
X128633657Y-122598498D01*
X128524003Y-122581131D01*
X128523997Y-122581131D01*
X128414342Y-122598498D01*
X128414337Y-122598500D01*
X128315413Y-122648904D01*
X128236904Y-122727413D01*
X128186500Y-122826337D01*
X128186498Y-122826342D01*
X128169131Y-122935996D01*
X128169131Y-122936003D01*
X122375664Y-122936003D01*
X122384500Y-122918661D01*
X122384841Y-122916509D01*
X122401869Y-122809003D01*
X122401869Y-122808996D01*
X122384501Y-122699342D01*
X122384499Y-122699337D01*
X122334095Y-122600413D01*
X122255586Y-122521904D01*
X122156662Y-122471500D01*
X122156657Y-122471498D01*
X122047003Y-122454131D01*
X122046997Y-122454131D01*
X121937342Y-122471498D01*
X121937337Y-122471500D01*
X121838413Y-122521904D01*
X121759904Y-122600413D01*
X121709500Y-122699337D01*
X121709498Y-122699342D01*
X121692131Y-122808996D01*
X121692131Y-122809003D01*
X121385869Y-122809003D01*
X121385869Y-122808996D01*
X121368501Y-122699342D01*
X121368499Y-122699337D01*
X121318095Y-122600413D01*
X121239586Y-122521904D01*
X121140662Y-122471500D01*
X121140657Y-122471498D01*
X121031003Y-122454131D01*
X121030997Y-122454131D01*
X120921342Y-122471498D01*
X120921337Y-122471500D01*
X120822413Y-122521904D01*
X120743904Y-122600413D01*
X120693500Y-122699337D01*
X120693498Y-122699342D01*
X120676131Y-122808996D01*
X120676131Y-122809003D01*
X120369869Y-122809003D01*
X120369869Y-122808996D01*
X120352501Y-122699342D01*
X120352499Y-122699337D01*
X120302095Y-122600413D01*
X120223586Y-122521904D01*
X120124662Y-122471500D01*
X120124657Y-122471498D01*
X120015003Y-122454131D01*
X120014997Y-122454131D01*
X119905342Y-122471498D01*
X119905337Y-122471500D01*
X119806413Y-122521904D01*
X119727904Y-122600413D01*
X119677500Y-122699337D01*
X119677498Y-122699342D01*
X119660131Y-122808996D01*
X119660131Y-122809003D01*
X96972638Y-122809003D01*
X96910707Y-122587085D01*
X96910061Y-122584271D01*
X96849735Y-122250538D01*
X96849354Y-122247665D01*
X96820580Y-121912004D01*
X96820466Y-121909440D01*
X96813214Y-119761003D01*
X99975131Y-119761003D01*
X99992498Y-119870657D01*
X99992500Y-119870662D01*
X100042904Y-119969586D01*
X100042905Y-119969587D01*
X100121413Y-120048095D01*
X100220339Y-120098500D01*
X100220342Y-120098501D01*
X100329997Y-120115869D01*
X100330000Y-120115869D01*
X100330003Y-120115869D01*
X100439657Y-120098501D01*
X100439658Y-120098500D01*
X100439661Y-120098500D01*
X100538587Y-120048095D01*
X100617095Y-119969587D01*
X100667500Y-119870661D01*
X100684869Y-119761000D01*
X100684869Y-119760996D01*
X100667501Y-119651342D01*
X100667499Y-119651337D01*
X100617095Y-119552413D01*
X100538586Y-119473904D01*
X100439662Y-119423500D01*
X100439657Y-119423498D01*
X100330003Y-119406131D01*
X100329997Y-119406131D01*
X100220342Y-119423498D01*
X100220337Y-119423500D01*
X100121413Y-119473904D01*
X100042904Y-119552413D01*
X99992500Y-119651337D01*
X99992498Y-119651342D01*
X99975131Y-119760996D01*
X99975131Y-119761003D01*
X96813214Y-119761003D01*
X96809356Y-118618003D01*
X106833131Y-118618003D01*
X106850498Y-118727657D01*
X106850500Y-118727662D01*
X106900904Y-118826586D01*
X106900905Y-118826587D01*
X106979413Y-118905095D01*
X107078339Y-118955500D01*
X107078342Y-118955501D01*
X107187997Y-118972869D01*
X107188000Y-118972869D01*
X107188003Y-118972869D01*
X107297657Y-118955501D01*
X107297658Y-118955500D01*
X107297661Y-118955500D01*
X107396587Y-118905095D01*
X107475095Y-118826587D01*
X107525500Y-118727661D01*
X107542869Y-118618000D01*
X107542869Y-118617996D01*
X107525501Y-118508342D01*
X107525499Y-118508337D01*
X107475095Y-118409413D01*
X107396586Y-118330904D01*
X107297662Y-118280500D01*
X107297657Y-118280498D01*
X107188003Y-118263131D01*
X107187997Y-118263131D01*
X107078342Y-118280498D01*
X107078337Y-118280500D01*
X106979413Y-118330904D01*
X106900904Y-118409413D01*
X106850500Y-118508337D01*
X106850498Y-118508342D01*
X106833131Y-118617996D01*
X106833131Y-118618003D01*
X96809356Y-118618003D01*
X96807642Y-118110004D01*
X142631670Y-118110004D01*
X142650948Y-118318057D01*
X142650950Y-118318068D01*
X142705087Y-118508337D01*
X142708134Y-118519045D01*
X142801274Y-118706095D01*
X142801275Y-118706096D01*
X142801277Y-118706100D01*
X142927189Y-118872836D01*
X142927194Y-118872841D01*
X142927198Y-118872846D01*
X143031938Y-118968329D01*
X143081614Y-119013615D01*
X143081615Y-119013616D01*
X143081619Y-119013619D01*
X143259277Y-119123620D01*
X143454123Y-119199104D01*
X143659522Y-119237500D01*
X143659525Y-119237500D01*
X143868475Y-119237500D01*
X143868478Y-119237500D01*
X144073877Y-119199104D01*
X144268723Y-119123620D01*
X144446381Y-119013619D01*
X144600802Y-118872846D01*
X144726726Y-118706095D01*
X144819866Y-118519045D01*
X144877050Y-118318065D01*
X144880531Y-118280498D01*
X144896330Y-118110004D01*
X144896330Y-118109995D01*
X144877051Y-117901942D01*
X144877049Y-117901931D01*
X144851059Y-117810586D01*
X144819866Y-117700955D01*
X144726726Y-117513905D01*
X144726723Y-117513901D01*
X144726722Y-117513899D01*
X144600810Y-117347163D01*
X144600805Y-117347158D01*
X144600802Y-117347154D01*
X144491082Y-117247131D01*
X144446385Y-117206384D01*
X144446382Y-117206382D01*
X144446381Y-117206381D01*
X144268723Y-117096380D01*
X144268721Y-117096379D01*
X144212089Y-117074440D01*
X144073877Y-117020896D01*
X144073874Y-117020895D01*
X144073873Y-117020895D01*
X143868482Y-116982500D01*
X143868478Y-116982500D01*
X143659522Y-116982500D01*
X143659517Y-116982500D01*
X143454126Y-117020895D01*
X143259278Y-117096379D01*
X143081614Y-117206384D01*
X142927196Y-117347156D01*
X142927189Y-117347163D01*
X142801277Y-117513899D01*
X142801274Y-117513905D01*
X142708134Y-117700954D01*
X142650950Y-117901931D01*
X142650948Y-117901942D01*
X142631670Y-118109995D01*
X142631670Y-118110004D01*
X96807642Y-118110004D01*
X96805927Y-117602003D01*
X130582131Y-117602003D01*
X130599498Y-117711657D01*
X130599500Y-117711662D01*
X130649904Y-117810586D01*
X130649905Y-117810587D01*
X130728413Y-117889095D01*
X130827339Y-117939500D01*
X130827342Y-117939501D01*
X130936997Y-117956869D01*
X130937000Y-117956869D01*
X130937003Y-117956869D01*
X131046657Y-117939501D01*
X131046658Y-117939500D01*
X131046661Y-117939500D01*
X131145587Y-117889095D01*
X131224095Y-117810587D01*
X131262312Y-117735580D01*
X131298684Y-117704514D01*
X131346372Y-117708267D01*
X131373687Y-117735580D01*
X131411905Y-117810587D01*
X131490413Y-117889095D01*
X131589339Y-117939500D01*
X131589342Y-117939501D01*
X131698997Y-117956869D01*
X131699000Y-117956869D01*
X131699003Y-117956869D01*
X131808657Y-117939501D01*
X131808658Y-117939500D01*
X131808661Y-117939500D01*
X131907587Y-117889095D01*
X131986095Y-117810587D01*
X132036500Y-117711661D01*
X132053869Y-117602000D01*
X132053869Y-117601996D01*
X132036501Y-117492342D01*
X132036499Y-117492337D01*
X131986095Y-117393413D01*
X131907586Y-117314904D01*
X131808662Y-117264500D01*
X131808657Y-117264498D01*
X131699003Y-117247131D01*
X131698997Y-117247131D01*
X131589342Y-117264498D01*
X131589337Y-117264500D01*
X131490413Y-117314904D01*
X131411905Y-117393412D01*
X131373687Y-117468419D01*
X131337312Y-117499485D01*
X131289624Y-117495732D01*
X131262312Y-117468419D01*
X131224095Y-117393413D01*
X131145587Y-117314905D01*
X131145586Y-117314904D01*
X131046662Y-117264500D01*
X131046657Y-117264498D01*
X130937003Y-117247131D01*
X130936997Y-117247131D01*
X130827342Y-117264498D01*
X130827337Y-117264500D01*
X130728413Y-117314904D01*
X130649904Y-117393413D01*
X130599500Y-117492337D01*
X130599498Y-117492342D01*
X130582131Y-117601996D01*
X130582131Y-117602003D01*
X96805927Y-117602003D01*
X96802069Y-116459003D01*
X107976131Y-116459003D01*
X107993498Y-116568657D01*
X107993500Y-116568662D01*
X108043904Y-116667586D01*
X108122413Y-116746095D01*
X108217584Y-116794587D01*
X108221339Y-116796500D01*
X108221342Y-116796501D01*
X108330997Y-116813869D01*
X108331000Y-116813869D01*
X108331003Y-116813869D01*
X108440657Y-116796501D01*
X108440658Y-116796500D01*
X108440661Y-116796500D01*
X108539587Y-116746095D01*
X108618095Y-116667587D01*
X108659664Y-116586003D01*
X119025131Y-116586003D01*
X119042498Y-116695657D01*
X119042500Y-116695662D01*
X119043437Y-116697500D01*
X119092905Y-116794587D01*
X119171413Y-116873095D01*
X119270339Y-116923500D01*
X119270342Y-116923501D01*
X119379997Y-116940869D01*
X119380000Y-116940869D01*
X119380003Y-116940869D01*
X119489657Y-116923501D01*
X119489658Y-116923500D01*
X119489661Y-116923500D01*
X119588587Y-116873095D01*
X119667095Y-116794587D01*
X119717500Y-116695661D01*
X119721947Y-116667586D01*
X119734869Y-116586003D01*
X119734869Y-116585996D01*
X119717501Y-116476342D01*
X119717499Y-116476337D01*
X119667095Y-116377413D01*
X119588586Y-116298904D01*
X119489662Y-116248500D01*
X119489657Y-116248498D01*
X119380003Y-116231131D01*
X119379997Y-116231131D01*
X119270342Y-116248498D01*
X119270337Y-116248500D01*
X119171413Y-116298904D01*
X119092904Y-116377413D01*
X119042500Y-116476337D01*
X119042498Y-116476342D01*
X119025131Y-116585996D01*
X119025131Y-116586003D01*
X108659664Y-116586003D01*
X108668500Y-116568661D01*
X108668501Y-116568657D01*
X108685869Y-116459003D01*
X108685869Y-116458996D01*
X108668501Y-116349342D01*
X108668499Y-116349337D01*
X108618095Y-116250413D01*
X108539586Y-116171904D01*
X108440662Y-116121500D01*
X108440657Y-116121498D01*
X108331003Y-116104131D01*
X108330997Y-116104131D01*
X108221342Y-116121498D01*
X108221337Y-116121500D01*
X108122413Y-116171904D01*
X108043904Y-116250413D01*
X107993500Y-116349337D01*
X107993498Y-116349342D01*
X107976131Y-116458996D01*
X107976131Y-116459003D01*
X96802069Y-116459003D01*
X96800783Y-116078003D01*
X115088131Y-116078003D01*
X115105498Y-116187657D01*
X115105500Y-116187662D01*
X115155904Y-116286586D01*
X115155905Y-116286587D01*
X115234413Y-116365095D01*
X115333339Y-116415500D01*
X115333342Y-116415501D01*
X115442997Y-116432869D01*
X115443000Y-116432869D01*
X115443003Y-116432869D01*
X115552657Y-116415501D01*
X115552658Y-116415500D01*
X115552661Y-116415500D01*
X115651587Y-116365095D01*
X115730095Y-116286587D01*
X115780500Y-116187661D01*
X115783916Y-116166094D01*
X115797869Y-116078003D01*
X115797869Y-116077996D01*
X115780501Y-115968342D01*
X115780499Y-115968337D01*
X115730095Y-115869413D01*
X115651586Y-115790904D01*
X115552662Y-115740500D01*
X115552657Y-115740498D01*
X115443003Y-115723131D01*
X115442997Y-115723131D01*
X115333342Y-115740498D01*
X115333337Y-115740500D01*
X115234413Y-115790904D01*
X115155904Y-115869413D01*
X115105500Y-115968337D01*
X115105498Y-115968342D01*
X115088131Y-116077996D01*
X115088131Y-116078003D01*
X96800783Y-116078003D01*
X96799068Y-115570003D01*
X116993131Y-115570003D01*
X117010498Y-115679657D01*
X117010500Y-115679662D01*
X117060904Y-115778586D01*
X117060905Y-115778587D01*
X117139413Y-115857095D01*
X117238339Y-115907500D01*
X117238342Y-115907501D01*
X117347997Y-115924869D01*
X117348000Y-115924869D01*
X117348003Y-115924869D01*
X117457657Y-115907501D01*
X117457658Y-115907500D01*
X117457661Y-115907500D01*
X117556587Y-115857095D01*
X117589679Y-115824003D01*
X118263131Y-115824003D01*
X118280498Y-115933657D01*
X118280500Y-115933662D01*
X118299898Y-115971732D01*
X118330905Y-116032587D01*
X118409413Y-116111095D01*
X118508339Y-116161500D01*
X118508342Y-116161501D01*
X118617997Y-116178869D01*
X118618000Y-116178869D01*
X118618003Y-116178869D01*
X118727657Y-116161501D01*
X118727658Y-116161500D01*
X118727661Y-116161500D01*
X118826587Y-116111095D01*
X118859679Y-116078003D01*
X125121131Y-116078003D01*
X125138498Y-116187657D01*
X125138500Y-116187662D01*
X125188904Y-116286586D01*
X125188905Y-116286587D01*
X125267413Y-116365095D01*
X125366339Y-116415500D01*
X125366342Y-116415501D01*
X125475997Y-116432869D01*
X125476000Y-116432869D01*
X125476003Y-116432869D01*
X125585657Y-116415501D01*
X125585658Y-116415500D01*
X125585661Y-116415500D01*
X125684587Y-116365095D01*
X125763095Y-116286587D01*
X125801312Y-116211580D01*
X125837684Y-116180514D01*
X125885372Y-116184267D01*
X125912687Y-116211580D01*
X125950904Y-116286585D01*
X125950905Y-116286587D01*
X126029413Y-116365095D01*
X126128339Y-116415500D01*
X126128342Y-116415501D01*
X126237997Y-116432869D01*
X126238000Y-116432869D01*
X126238003Y-116432869D01*
X126347657Y-116415501D01*
X126347658Y-116415500D01*
X126347661Y-116415500D01*
X126446587Y-116365095D01*
X126525095Y-116286587D01*
X126575500Y-116187661D01*
X126578916Y-116166094D01*
X126592869Y-116078003D01*
X134138131Y-116078003D01*
X134155498Y-116187657D01*
X134155500Y-116187662D01*
X134205904Y-116286586D01*
X134205905Y-116286587D01*
X134284413Y-116365095D01*
X134383339Y-116415500D01*
X134383342Y-116415501D01*
X134492997Y-116432869D01*
X134493000Y-116432869D01*
X134493003Y-116432869D01*
X134602657Y-116415501D01*
X134602658Y-116415500D01*
X134602661Y-116415500D01*
X134701587Y-116365095D01*
X134780095Y-116286587D01*
X134830500Y-116187661D01*
X134833916Y-116166094D01*
X134847869Y-116078003D01*
X134847869Y-116077996D01*
X134830501Y-115968342D01*
X134830499Y-115968337D01*
X134780095Y-115869413D01*
X134701586Y-115790904D01*
X134602662Y-115740500D01*
X134602657Y-115740498D01*
X134493003Y-115723131D01*
X134492997Y-115723131D01*
X134383342Y-115740498D01*
X134383337Y-115740500D01*
X134284413Y-115790904D01*
X134205904Y-115869413D01*
X134155500Y-115968337D01*
X134155498Y-115968342D01*
X134138131Y-116077996D01*
X134138131Y-116078003D01*
X126592869Y-116078003D01*
X126592869Y-116077996D01*
X126575501Y-115968342D01*
X126575499Y-115968337D01*
X126525095Y-115869413D01*
X126446586Y-115790904D01*
X126347662Y-115740500D01*
X126347657Y-115740498D01*
X126238003Y-115723131D01*
X126237997Y-115723131D01*
X126128342Y-115740498D01*
X126128337Y-115740500D01*
X126029413Y-115790904D01*
X125950905Y-115869412D01*
X125912687Y-115944419D01*
X125876312Y-115975485D01*
X125828624Y-115971732D01*
X125801312Y-115944419D01*
X125763095Y-115869413D01*
X125684587Y-115790905D01*
X125684586Y-115790904D01*
X125585662Y-115740500D01*
X125585657Y-115740498D01*
X125476003Y-115723131D01*
X125475997Y-115723131D01*
X125366342Y-115740498D01*
X125366337Y-115740500D01*
X125267413Y-115790904D01*
X125188904Y-115869413D01*
X125138500Y-115968337D01*
X125138498Y-115968342D01*
X125121131Y-116077996D01*
X125121131Y-116078003D01*
X118859679Y-116078003D01*
X118905095Y-116032587D01*
X118955500Y-115933661D01*
X118956893Y-115924869D01*
X118972869Y-115824003D01*
X118972869Y-115823996D01*
X118955501Y-115714342D01*
X118955499Y-115714337D01*
X118905095Y-115615413D01*
X118859686Y-115570004D01*
X142631670Y-115570004D01*
X142650948Y-115778057D01*
X142650950Y-115778068D01*
X142695220Y-115933657D01*
X142708134Y-115979045D01*
X142801274Y-116166095D01*
X142801275Y-116166096D01*
X142801277Y-116166100D01*
X142927189Y-116332836D01*
X142927194Y-116332841D01*
X142927198Y-116332846D01*
X143031938Y-116428329D01*
X143081614Y-116473615D01*
X143081615Y-116473616D01*
X143081619Y-116473619D01*
X143259277Y-116583620D01*
X143454123Y-116659104D01*
X143659522Y-116697500D01*
X143659525Y-116697500D01*
X143868475Y-116697500D01*
X143868478Y-116697500D01*
X144073877Y-116659104D01*
X144268723Y-116583620D01*
X144446381Y-116473619D01*
X144600802Y-116332846D01*
X144664499Y-116248498D01*
X144715837Y-116180514D01*
X144726726Y-116166095D01*
X144819866Y-115979045D01*
X144877050Y-115778065D01*
X144880531Y-115740498D01*
X144896330Y-115570004D01*
X144896330Y-115569995D01*
X144877051Y-115361942D01*
X144877049Y-115361931D01*
X144854564Y-115282905D01*
X144819866Y-115160955D01*
X144726726Y-114973905D01*
X144726723Y-114973901D01*
X144726722Y-114973899D01*
X144600810Y-114807163D01*
X144600805Y-114807158D01*
X144600802Y-114807154D01*
X144481441Y-114698342D01*
X144446385Y-114666384D01*
X144446382Y-114666382D01*
X144446381Y-114666381D01*
X144268723Y-114556380D01*
X144268721Y-114556379D01*
X144212089Y-114534440D01*
X144073877Y-114480896D01*
X144073874Y-114480895D01*
X144073873Y-114480895D01*
X143868482Y-114442500D01*
X143868478Y-114442500D01*
X143659522Y-114442500D01*
X143659517Y-114442500D01*
X143454126Y-114480895D01*
X143259278Y-114556379D01*
X143081614Y-114666384D01*
X142927196Y-114807156D01*
X142927189Y-114807163D01*
X142801277Y-114973899D01*
X142801274Y-114973905D01*
X142708134Y-115160954D01*
X142650950Y-115361931D01*
X142650948Y-115361942D01*
X142631670Y-115569995D01*
X142631670Y-115570004D01*
X118859686Y-115570004D01*
X118826586Y-115536904D01*
X118727662Y-115486500D01*
X118727657Y-115486498D01*
X118618003Y-115469131D01*
X118617997Y-115469131D01*
X118508342Y-115486498D01*
X118508337Y-115486500D01*
X118409413Y-115536904D01*
X118330904Y-115615413D01*
X118280500Y-115714337D01*
X118280498Y-115714342D01*
X118263131Y-115823996D01*
X118263131Y-115824003D01*
X117589679Y-115824003D01*
X117635095Y-115778587D01*
X117685500Y-115679661D01*
X117685501Y-115679657D01*
X117702869Y-115570003D01*
X117702869Y-115569996D01*
X117685501Y-115460342D01*
X117685499Y-115460337D01*
X117635095Y-115361413D01*
X117556586Y-115282904D01*
X117457662Y-115232500D01*
X117457657Y-115232498D01*
X117348003Y-115215131D01*
X117347997Y-115215131D01*
X117238342Y-115232498D01*
X117238337Y-115232500D01*
X117139413Y-115282904D01*
X117060904Y-115361413D01*
X117010500Y-115460337D01*
X117010498Y-115460342D01*
X116993131Y-115569996D01*
X116993131Y-115570003D01*
X96799068Y-115570003D01*
X96798994Y-115548077D01*
X96798994Y-114681003D01*
X127661131Y-114681003D01*
X127678498Y-114790657D01*
X127678500Y-114790662D01*
X127728904Y-114889586D01*
X127807413Y-114968095D01*
X127902584Y-115016587D01*
X127906339Y-115018500D01*
X127906342Y-115018501D01*
X128015997Y-115035869D01*
X128016000Y-115035869D01*
X128016003Y-115035869D01*
X128125657Y-115018501D01*
X128125658Y-115018500D01*
X128125661Y-115018500D01*
X128224587Y-114968095D01*
X128303095Y-114889587D01*
X128344664Y-114808003D01*
X134138131Y-114808003D01*
X134155498Y-114917657D01*
X134155500Y-114917662D01*
X134205904Y-115016586D01*
X134205905Y-115016587D01*
X134284413Y-115095095D01*
X134383339Y-115145500D01*
X134383342Y-115145501D01*
X134492997Y-115162869D01*
X134493000Y-115162869D01*
X134493003Y-115162869D01*
X134602657Y-115145501D01*
X134602658Y-115145500D01*
X134602661Y-115145500D01*
X134701587Y-115095095D01*
X134780095Y-115016587D01*
X134830500Y-114917661D01*
X134847869Y-114808000D01*
X134847869Y-114807996D01*
X134830501Y-114698342D01*
X134830499Y-114698337D01*
X134780095Y-114599413D01*
X134701586Y-114520904D01*
X134602662Y-114470500D01*
X134602657Y-114470498D01*
X134493003Y-114453131D01*
X134492997Y-114453131D01*
X134383342Y-114470498D01*
X134383337Y-114470500D01*
X134284413Y-114520904D01*
X134205904Y-114599413D01*
X134155500Y-114698337D01*
X134155498Y-114698342D01*
X134138131Y-114807996D01*
X134138131Y-114808003D01*
X128344664Y-114808003D01*
X128353500Y-114790661D01*
X128353501Y-114790657D01*
X128370869Y-114681003D01*
X128370869Y-114680996D01*
X128353501Y-114571342D01*
X128353499Y-114571337D01*
X128303095Y-114472413D01*
X128224586Y-114393904D01*
X128125662Y-114343500D01*
X128125657Y-114343498D01*
X128016003Y-114326131D01*
X128015997Y-114326131D01*
X127906342Y-114343498D01*
X127906337Y-114343500D01*
X127807413Y-114393904D01*
X127728904Y-114472413D01*
X127678500Y-114571337D01*
X127678498Y-114571342D01*
X127661131Y-114680996D01*
X127661131Y-114681003D01*
X96798994Y-114681003D01*
X96798994Y-113665003D01*
X114453131Y-113665003D01*
X114470498Y-113774657D01*
X114470500Y-113774662D01*
X114496197Y-113825095D01*
X114520905Y-113873587D01*
X114599413Y-113952095D01*
X114698339Y-114002500D01*
X114698342Y-114002501D01*
X114807997Y-114019869D01*
X114808000Y-114019869D01*
X114808003Y-114019869D01*
X114917657Y-114002501D01*
X114917658Y-114002500D01*
X114917661Y-114002500D01*
X115016587Y-113952095D01*
X115095095Y-113873587D01*
X115145500Y-113774661D01*
X115162869Y-113665000D01*
X115162869Y-113664996D01*
X115145501Y-113555342D01*
X115145499Y-113555337D01*
X115136667Y-113538003D01*
X115723131Y-113538003D01*
X115740498Y-113647657D01*
X115740500Y-113647662D01*
X115790904Y-113746586D01*
X115869413Y-113825095D01*
X115964584Y-113873587D01*
X115968339Y-113875500D01*
X115968342Y-113875501D01*
X116077997Y-113892869D01*
X116078000Y-113892869D01*
X116078003Y-113892869D01*
X116187657Y-113875501D01*
X116187658Y-113875500D01*
X116187661Y-113875500D01*
X116286587Y-113825095D01*
X116365095Y-113746587D01*
X116415500Y-113647661D01*
X116418916Y-113626094D01*
X116432869Y-113538003D01*
X116432869Y-113537996D01*
X116415501Y-113428342D01*
X116415499Y-113428337D01*
X116365095Y-113329413D01*
X116286586Y-113250904D01*
X116187662Y-113200500D01*
X116187657Y-113200498D01*
X116078003Y-113183131D01*
X116077997Y-113183131D01*
X115968342Y-113200498D01*
X115968337Y-113200500D01*
X115869413Y-113250904D01*
X115790904Y-113329413D01*
X115740500Y-113428337D01*
X115740498Y-113428342D01*
X115723131Y-113537996D01*
X115723131Y-113538003D01*
X115136667Y-113538003D01*
X115095095Y-113456413D01*
X115016586Y-113377904D01*
X114917662Y-113327500D01*
X114917657Y-113327498D01*
X114808003Y-113310131D01*
X114807997Y-113310131D01*
X114698342Y-113327498D01*
X114698337Y-113327500D01*
X114599413Y-113377904D01*
X114520904Y-113456413D01*
X114470500Y-113555337D01*
X114470498Y-113555342D01*
X114453131Y-113664996D01*
X114453131Y-113665003D01*
X96798994Y-113665003D01*
X96798994Y-112572803D01*
X103073931Y-112572803D01*
X103091298Y-112682457D01*
X103091300Y-112682462D01*
X103141704Y-112781386D01*
X103141705Y-112781387D01*
X103220213Y-112859895D01*
X103319139Y-112910300D01*
X103319142Y-112910301D01*
X103428797Y-112927669D01*
X103428800Y-112927669D01*
X103428803Y-112927669D01*
X103538457Y-112910301D01*
X103538458Y-112910300D01*
X103538461Y-112910300D01*
X103552782Y-112903003D01*
X104928131Y-112903003D01*
X104945498Y-113012657D01*
X104945500Y-113012662D01*
X104995904Y-113111586D01*
X104995905Y-113111587D01*
X105074413Y-113190095D01*
X105173339Y-113240500D01*
X105173342Y-113240501D01*
X105282997Y-113257869D01*
X105283000Y-113257869D01*
X105283003Y-113257869D01*
X105392657Y-113240501D01*
X105392658Y-113240500D01*
X105392661Y-113240500D01*
X105476298Y-113197884D01*
X105523984Y-113194132D01*
X105560359Y-113225198D01*
X105566402Y-113263350D01*
X105563131Y-113284002D01*
X105563131Y-113284003D01*
X105580498Y-113393657D01*
X105580500Y-113393662D01*
X105630904Y-113492586D01*
X105630905Y-113492587D01*
X105709413Y-113571095D01*
X105808339Y-113621500D01*
X105808342Y-113621501D01*
X105917997Y-113638869D01*
X105918000Y-113638869D01*
X105918003Y-113638869D01*
X106027657Y-113621501D01*
X106027658Y-113621500D01*
X106027661Y-113621500D01*
X106126587Y-113571095D01*
X106205095Y-113492587D01*
X106255500Y-113393661D01*
X106257996Y-113377904D01*
X106272869Y-113284003D01*
X106272869Y-113283996D01*
X106255501Y-113174342D01*
X106255499Y-113174337D01*
X106205095Y-113075413D01*
X106159686Y-113030004D01*
X142631670Y-113030004D01*
X142650948Y-113238057D01*
X142650950Y-113238068D01*
X142690738Y-113377904D01*
X142708134Y-113439045D01*
X142801274Y-113626095D01*
X142801275Y-113626096D01*
X142801277Y-113626100D01*
X142927189Y-113792836D01*
X142927194Y-113792841D01*
X142927198Y-113792846D01*
X143031938Y-113888329D01*
X143081614Y-113933615D01*
X143081615Y-113933616D01*
X143081619Y-113933619D01*
X143259277Y-114043620D01*
X143454123Y-114119104D01*
X143659522Y-114157500D01*
X143659525Y-114157500D01*
X143868475Y-114157500D01*
X143868478Y-114157500D01*
X144073877Y-114119104D01*
X144268723Y-114043620D01*
X144446381Y-113933619D01*
X144600802Y-113792846D01*
X144726726Y-113626095D01*
X144819866Y-113439045D01*
X144877050Y-113238065D01*
X144877051Y-113238057D01*
X144896330Y-113030004D01*
X144896330Y-113029995D01*
X144877051Y-112821942D01*
X144877049Y-112821931D01*
X144856545Y-112749869D01*
X144819866Y-112620955D01*
X144726726Y-112433905D01*
X144726723Y-112433901D01*
X144726722Y-112433899D01*
X144600810Y-112267163D01*
X144600805Y-112267158D01*
X144600802Y-112267154D01*
X144481441Y-112158342D01*
X144446385Y-112126384D01*
X144446382Y-112126382D01*
X144446381Y-112126381D01*
X144268723Y-112016380D01*
X144268721Y-112016379D01*
X144212089Y-111994440D01*
X144073877Y-111940896D01*
X144073874Y-111940895D01*
X144073873Y-111940895D01*
X143868482Y-111902500D01*
X143868478Y-111902500D01*
X143659522Y-111902500D01*
X143659517Y-111902500D01*
X143454126Y-111940895D01*
X143259278Y-112016379D01*
X143081614Y-112126384D01*
X142927196Y-112267156D01*
X142927189Y-112267163D01*
X142801277Y-112433899D01*
X142801274Y-112433905D01*
X142708134Y-112620954D01*
X142650950Y-112821931D01*
X142650948Y-112821942D01*
X142631670Y-113029995D01*
X142631670Y-113030004D01*
X106159686Y-113030004D01*
X106126586Y-112996904D01*
X106027662Y-112946500D01*
X106027657Y-112946498D01*
X105918003Y-112929131D01*
X105917997Y-112929131D01*
X105808342Y-112946498D01*
X105808337Y-112946500D01*
X105724702Y-112989114D01*
X105677014Y-112992867D01*
X105640640Y-112961800D01*
X105634598Y-112923648D01*
X105637869Y-112903000D01*
X105637869Y-112902999D01*
X105637869Y-112902996D01*
X105620501Y-112793342D01*
X105620499Y-112793337D01*
X105570095Y-112694413D01*
X105491586Y-112615904D01*
X105392662Y-112565500D01*
X105392657Y-112565498D01*
X105283003Y-112548131D01*
X105282997Y-112548131D01*
X105173342Y-112565498D01*
X105173337Y-112565500D01*
X105074413Y-112615904D01*
X104995904Y-112694413D01*
X104945500Y-112793337D01*
X104945498Y-112793342D01*
X104928131Y-112902996D01*
X104928131Y-112903003D01*
X103552782Y-112903003D01*
X103637387Y-112859895D01*
X103715895Y-112781387D01*
X103766300Y-112682461D01*
X103783669Y-112572800D01*
X103783669Y-112572796D01*
X103766301Y-112463142D01*
X103766299Y-112463137D01*
X103731583Y-112395003D01*
X117374131Y-112395003D01*
X117391498Y-112504657D01*
X117391500Y-112504662D01*
X117441904Y-112603586D01*
X117441905Y-112603587D01*
X117520413Y-112682095D01*
X117619339Y-112732500D01*
X117619342Y-112732501D01*
X117728997Y-112749869D01*
X117729000Y-112749869D01*
X117729003Y-112749869D01*
X117838657Y-112732501D01*
X117838658Y-112732500D01*
X117838661Y-112732500D01*
X117937587Y-112682095D01*
X118016095Y-112603587D01*
X118066500Y-112504661D01*
X118070947Y-112476586D01*
X118083869Y-112395003D01*
X118083869Y-112394996D01*
X118066501Y-112285342D01*
X118066499Y-112285337D01*
X118057667Y-112268003D01*
X118390131Y-112268003D01*
X118407498Y-112377657D01*
X118407500Y-112377662D01*
X118457904Y-112476586D01*
X118536413Y-112555095D01*
X118631584Y-112603587D01*
X118635339Y-112605500D01*
X118635342Y-112605501D01*
X118744997Y-112622869D01*
X118745000Y-112622869D01*
X118745003Y-112622869D01*
X118854657Y-112605501D01*
X118854658Y-112605500D01*
X118854661Y-112605500D01*
X118953587Y-112555095D01*
X119032095Y-112476587D01*
X119082500Y-112377661D01*
X119097065Y-112285704D01*
X119099869Y-112268003D01*
X132614131Y-112268003D01*
X132631498Y-112377657D01*
X132631500Y-112377662D01*
X132681904Y-112476586D01*
X132760413Y-112555095D01*
X132855584Y-112603587D01*
X132859339Y-112605500D01*
X132859342Y-112605501D01*
X132968997Y-112622869D01*
X132969000Y-112622869D01*
X132969003Y-112622869D01*
X133078657Y-112605501D01*
X133078658Y-112605500D01*
X133078661Y-112605500D01*
X133177587Y-112555095D01*
X133256095Y-112476587D01*
X133306500Y-112377661D01*
X133321065Y-112285704D01*
X133323869Y-112268003D01*
X133323869Y-112267996D01*
X133306501Y-112158342D01*
X133306499Y-112158337D01*
X133256095Y-112059413D01*
X133177586Y-111980904D01*
X133078662Y-111930500D01*
X133078657Y-111930498D01*
X132969003Y-111913131D01*
X132968997Y-111913131D01*
X132859342Y-111930498D01*
X132859337Y-111930500D01*
X132760413Y-111980904D01*
X132681904Y-112059413D01*
X132631500Y-112158337D01*
X132631498Y-112158342D01*
X132614131Y-112267996D01*
X132614131Y-112268003D01*
X119099869Y-112268003D01*
X119099869Y-112267996D01*
X119082501Y-112158342D01*
X119082499Y-112158337D01*
X119032095Y-112059413D01*
X118953586Y-111980904D01*
X118854662Y-111930500D01*
X118854657Y-111930498D01*
X118745003Y-111913131D01*
X118744997Y-111913131D01*
X118635342Y-111930498D01*
X118635337Y-111930500D01*
X118536413Y-111980904D01*
X118457904Y-112059413D01*
X118407500Y-112158337D01*
X118407498Y-112158342D01*
X118390131Y-112267996D01*
X118390131Y-112268003D01*
X118057667Y-112268003D01*
X118016095Y-112186413D01*
X117937586Y-112107904D01*
X117838662Y-112057500D01*
X117838657Y-112057498D01*
X117729003Y-112040131D01*
X117728997Y-112040131D01*
X117619342Y-112057498D01*
X117619337Y-112057500D01*
X117520413Y-112107904D01*
X117441904Y-112186413D01*
X117391500Y-112285337D01*
X117391498Y-112285342D01*
X117374131Y-112394996D01*
X117374131Y-112395003D01*
X103731583Y-112395003D01*
X103715895Y-112364213D01*
X103637386Y-112285704D01*
X103538462Y-112235300D01*
X103538457Y-112235298D01*
X103428803Y-112217931D01*
X103428797Y-112217931D01*
X103319142Y-112235298D01*
X103319137Y-112235300D01*
X103220213Y-112285704D01*
X103141704Y-112364213D01*
X103091300Y-112463137D01*
X103091298Y-112463142D01*
X103073931Y-112572796D01*
X103073931Y-112572803D01*
X96798994Y-112572803D01*
X96798994Y-110363003D01*
X107087131Y-110363003D01*
X107104498Y-110472657D01*
X107104500Y-110472662D01*
X107130197Y-110523095D01*
X107154905Y-110571587D01*
X107233413Y-110650095D01*
X107332339Y-110700500D01*
X107332342Y-110700501D01*
X107441997Y-110717869D01*
X107442000Y-110717869D01*
X107442003Y-110717869D01*
X107551657Y-110700501D01*
X107551658Y-110700500D01*
X107551661Y-110700500D01*
X107650587Y-110650095D01*
X107729095Y-110571587D01*
X107779500Y-110472661D01*
X107796869Y-110363000D01*
X107796869Y-110362996D01*
X107779501Y-110253342D01*
X107779499Y-110253337D01*
X107770667Y-110236003D01*
X130963131Y-110236003D01*
X130980498Y-110345657D01*
X130980500Y-110345662D01*
X131030904Y-110444586D01*
X131109413Y-110523095D01*
X131204584Y-110571587D01*
X131208339Y-110573500D01*
X131208342Y-110573501D01*
X131317997Y-110590869D01*
X131318000Y-110590869D01*
X131318003Y-110590869D01*
X131427657Y-110573501D01*
X131427658Y-110573500D01*
X131427661Y-110573500D01*
X131526587Y-110523095D01*
X131605095Y-110444587D01*
X131655500Y-110345661D01*
X131655501Y-110345657D01*
X131672869Y-110236003D01*
X131672869Y-110235996D01*
X131655501Y-110126342D01*
X131655499Y-110126337D01*
X131605095Y-110027413D01*
X131526586Y-109948904D01*
X131427662Y-109898500D01*
X131427657Y-109898498D01*
X131318003Y-109881131D01*
X131317997Y-109881131D01*
X131208342Y-109898498D01*
X131208337Y-109898500D01*
X131109413Y-109948904D01*
X131030904Y-110027413D01*
X130980500Y-110126337D01*
X130980498Y-110126342D01*
X130963131Y-110235996D01*
X130963131Y-110236003D01*
X107770667Y-110236003D01*
X107729095Y-110154413D01*
X107650586Y-110075904D01*
X107551662Y-110025500D01*
X107551657Y-110025498D01*
X107442003Y-110008131D01*
X107441997Y-110008131D01*
X107332342Y-110025498D01*
X107332337Y-110025500D01*
X107233413Y-110075904D01*
X107154904Y-110154413D01*
X107104500Y-110253337D01*
X107104498Y-110253342D01*
X107087131Y-110362996D01*
X107087131Y-110363003D01*
X96798994Y-110363003D01*
X96798994Y-109601003D01*
X121184131Y-109601003D01*
X121201498Y-109710657D01*
X121201500Y-109710662D01*
X121251904Y-109809586D01*
X121251905Y-109809587D01*
X121330413Y-109888095D01*
X121429339Y-109938500D01*
X121429342Y-109938501D01*
X121538997Y-109955869D01*
X121539000Y-109955869D01*
X121539003Y-109955869D01*
X121648657Y-109938501D01*
X121648658Y-109938500D01*
X121648661Y-109938500D01*
X121747587Y-109888095D01*
X121826095Y-109809587D01*
X121876500Y-109710661D01*
X121893869Y-109601000D01*
X121878507Y-109504016D01*
X121889674Y-109457502D01*
X121930460Y-109432508D01*
X121950016Y-109432508D01*
X122046998Y-109447869D01*
X122047000Y-109447869D01*
X122047003Y-109447869D01*
X122156657Y-109430501D01*
X122156658Y-109430500D01*
X122156661Y-109430500D01*
X122255587Y-109380095D01*
X122334095Y-109301587D01*
X122384500Y-109202661D01*
X122384501Y-109202657D01*
X122401869Y-109093003D01*
X122401869Y-109093000D01*
X122386507Y-108996016D01*
X122397674Y-108949502D01*
X122438460Y-108924508D01*
X122458016Y-108924508D01*
X122554998Y-108939869D01*
X122555000Y-108939869D01*
X122555003Y-108939869D01*
X122664657Y-108922501D01*
X122664658Y-108922500D01*
X122664661Y-108922500D01*
X122763587Y-108872095D01*
X122842095Y-108793587D01*
X122883664Y-108712003D01*
X123216131Y-108712003D01*
X123233498Y-108821657D01*
X123233500Y-108821662D01*
X123283904Y-108920586D01*
X123283905Y-108920587D01*
X123362413Y-108999095D01*
X123461339Y-109049500D01*
X123461342Y-109049501D01*
X123570997Y-109066869D01*
X123571000Y-109066869D01*
X123571003Y-109066869D01*
X123680657Y-109049501D01*
X123680658Y-109049500D01*
X123680661Y-109049500D01*
X123779587Y-108999095D01*
X123858095Y-108920587D01*
X123896312Y-108845580D01*
X123932686Y-108814514D01*
X123980374Y-108818267D01*
X124007688Y-108845581D01*
X124027473Y-108884413D01*
X124045905Y-108920587D01*
X124124413Y-108999095D01*
X124223339Y-109049500D01*
X124223342Y-109049501D01*
X124332997Y-109066869D01*
X124333000Y-109066869D01*
X124333003Y-109066869D01*
X124442657Y-109049501D01*
X124442658Y-109049500D01*
X124442661Y-109049500D01*
X124541587Y-108999095D01*
X124620095Y-108920587D01*
X124670500Y-108821661D01*
X124674947Y-108793586D01*
X124687869Y-108712003D01*
X124687869Y-108711996D01*
X124670501Y-108602342D01*
X124670499Y-108602337D01*
X124635069Y-108532802D01*
X124627884Y-108518701D01*
X124624132Y-108471014D01*
X124655199Y-108434640D01*
X124693350Y-108428598D01*
X124714000Y-108431869D01*
X124714003Y-108431869D01*
X124823657Y-108414501D01*
X124823658Y-108414500D01*
X124823661Y-108414500D01*
X124922587Y-108364095D01*
X125001095Y-108285587D01*
X125051500Y-108186661D01*
X125052893Y-108177869D01*
X125068869Y-108077003D01*
X125068869Y-108076996D01*
X125051501Y-107967342D01*
X125051499Y-107967337D01*
X125001095Y-107868413D01*
X124922586Y-107789904D01*
X124823662Y-107739500D01*
X124823657Y-107739498D01*
X124714003Y-107722131D01*
X124713997Y-107722131D01*
X124604342Y-107739498D01*
X124604337Y-107739500D01*
X124505413Y-107789904D01*
X124426904Y-107868413D01*
X124376500Y-107967337D01*
X124376498Y-107967342D01*
X124359131Y-108076996D01*
X124359131Y-108077003D01*
X124376498Y-108186657D01*
X124376500Y-108186662D01*
X124419114Y-108270297D01*
X124422867Y-108317985D01*
X124391800Y-108354359D01*
X124353649Y-108360401D01*
X124333003Y-108357131D01*
X124332997Y-108357131D01*
X124223342Y-108374498D01*
X124223337Y-108374500D01*
X124124413Y-108424904D01*
X124045904Y-108503413D01*
X124007688Y-108578418D01*
X123971314Y-108609485D01*
X123923626Y-108605732D01*
X123896312Y-108578418D01*
X123858095Y-108503413D01*
X123779586Y-108424904D01*
X123680662Y-108374500D01*
X123680657Y-108374498D01*
X123571003Y-108357131D01*
X123570997Y-108357131D01*
X123461342Y-108374498D01*
X123461337Y-108374500D01*
X123362413Y-108424904D01*
X123283904Y-108503413D01*
X123233500Y-108602337D01*
X123233498Y-108602342D01*
X123216131Y-108711996D01*
X123216131Y-108712003D01*
X122883664Y-108712003D01*
X122892500Y-108694661D01*
X122894508Y-108681984D01*
X122909869Y-108585003D01*
X122909869Y-108584996D01*
X122892501Y-108475342D01*
X122892499Y-108475337D01*
X122842095Y-108376413D01*
X122763586Y-108297904D01*
X122664662Y-108247500D01*
X122664657Y-108247498D01*
X122555003Y-108230131D01*
X122554997Y-108230131D01*
X122445342Y-108247498D01*
X122445337Y-108247500D01*
X122346413Y-108297904D01*
X122267904Y-108376413D01*
X122217500Y-108475337D01*
X122217498Y-108475342D01*
X122200131Y-108584996D01*
X122200131Y-108584997D01*
X122200131Y-108585000D01*
X122202878Y-108602342D01*
X122215492Y-108681984D01*
X122204324Y-108728498D01*
X122163538Y-108753492D01*
X122143984Y-108753492D01*
X122125249Y-108750524D01*
X122047000Y-108738131D01*
X122046998Y-108738131D01*
X122046997Y-108738131D01*
X121937342Y-108755498D01*
X121937337Y-108755500D01*
X121838413Y-108805904D01*
X121759904Y-108884413D01*
X121709500Y-108983337D01*
X121709498Y-108983342D01*
X121692131Y-109092996D01*
X121692131Y-109092997D01*
X121692131Y-109093000D01*
X121699943Y-109142321D01*
X121707492Y-109189984D01*
X121696324Y-109236498D01*
X121655538Y-109261492D01*
X121635984Y-109261492D01*
X121617249Y-109258524D01*
X121539000Y-109246131D01*
X121538998Y-109246131D01*
X121538997Y-109246131D01*
X121429342Y-109263498D01*
X121429337Y-109263500D01*
X121330413Y-109313904D01*
X121251904Y-109392413D01*
X121201500Y-109491337D01*
X121201498Y-109491342D01*
X121184131Y-109600996D01*
X121184131Y-109601003D01*
X96798994Y-109601003D01*
X96798994Y-109208872D01*
X96799108Y-109206201D01*
X96827857Y-108870829D01*
X96828238Y-108867959D01*
X96888566Y-108534216D01*
X96889207Y-108531420D01*
X96980374Y-108204743D01*
X96981285Y-108201988D01*
X96987152Y-108186657D01*
X97102487Y-107885252D01*
X97103636Y-107882623D01*
X97133085Y-107823003D01*
X121438131Y-107823003D01*
X121455498Y-107932657D01*
X121455500Y-107932662D01*
X121505904Y-108031586D01*
X121505905Y-108031587D01*
X121584413Y-108110095D01*
X121683339Y-108160500D01*
X121683342Y-108160501D01*
X121792997Y-108177869D01*
X121793000Y-108177869D01*
X121793003Y-108177869D01*
X121902657Y-108160501D01*
X121902658Y-108160500D01*
X121902661Y-108160500D01*
X122001587Y-108110095D01*
X122080095Y-108031587D01*
X122130500Y-107932661D01*
X122130501Y-107932657D01*
X122147869Y-107823003D01*
X122147869Y-107822996D01*
X122130501Y-107713342D01*
X122130499Y-107713337D01*
X122080095Y-107614413D01*
X122001586Y-107535904D01*
X121902662Y-107485500D01*
X121902657Y-107485498D01*
X121793003Y-107468131D01*
X121792997Y-107468131D01*
X121683342Y-107485498D01*
X121683337Y-107485500D01*
X121584413Y-107535904D01*
X121505904Y-107614413D01*
X121455500Y-107713337D01*
X121455498Y-107713342D01*
X121438131Y-107822996D01*
X121438131Y-107823003D01*
X97133085Y-107823003D01*
X97253829Y-107578553D01*
X97255241Y-107576001D01*
X97416016Y-107315003D01*
X107087131Y-107315003D01*
X107104498Y-107424657D01*
X107104500Y-107424662D01*
X107154904Y-107523586D01*
X107154905Y-107523587D01*
X107233413Y-107602095D01*
X107332339Y-107652500D01*
X107332342Y-107652501D01*
X107441997Y-107669869D01*
X107442000Y-107669869D01*
X107442003Y-107669869D01*
X107551657Y-107652501D01*
X107551658Y-107652500D01*
X107551661Y-107652500D01*
X107650587Y-107602095D01*
X107729095Y-107523587D01*
X107779500Y-107424661D01*
X107796869Y-107315000D01*
X107796869Y-107314996D01*
X107779501Y-107205342D01*
X107779499Y-107205337D01*
X107729095Y-107106413D01*
X107650586Y-107027904D01*
X107551662Y-106977500D01*
X107551657Y-106977498D01*
X107442003Y-106960131D01*
X107441997Y-106960131D01*
X107332342Y-106977498D01*
X107332337Y-106977500D01*
X107233413Y-107027904D01*
X107154904Y-107106413D01*
X107104500Y-107205337D01*
X107104498Y-107205342D01*
X107087131Y-107314996D01*
X107087131Y-107315003D01*
X97416016Y-107315003D01*
X97416018Y-107315000D01*
X97433102Y-107287266D01*
X97434743Y-107284862D01*
X97494624Y-107205339D01*
X97638739Y-107013952D01*
X97640590Y-107011720D01*
X97671757Y-106977500D01*
X97859514Y-106771347D01*
X97866341Y-106764902D01*
X98597448Y-106172003D01*
X119914131Y-106172003D01*
X119931498Y-106281657D01*
X119931500Y-106281662D01*
X119981904Y-106380586D01*
X119981905Y-106380587D01*
X120060413Y-106459095D01*
X120159339Y-106509500D01*
X120159342Y-106509501D01*
X120268997Y-106526869D01*
X120269000Y-106526869D01*
X120269003Y-106526869D01*
X120378657Y-106509501D01*
X120378658Y-106509500D01*
X120378661Y-106509500D01*
X120477587Y-106459095D01*
X120556095Y-106380587D01*
X120606500Y-106281661D01*
X120623869Y-106172000D01*
X120623869Y-106171996D01*
X120606501Y-106062342D01*
X120606499Y-106062337D01*
X120556095Y-105963413D01*
X120477586Y-105884904D01*
X120378662Y-105834500D01*
X120378657Y-105834498D01*
X120269003Y-105817131D01*
X120268997Y-105817131D01*
X120159342Y-105834498D01*
X120159337Y-105834500D01*
X120060413Y-105884904D01*
X119981904Y-105963413D01*
X119931500Y-106062337D01*
X119931498Y-106062342D01*
X119914131Y-106171996D01*
X119914131Y-106172003D01*
X98597448Y-106172003D01*
X99067262Y-105791003D01*
X118263131Y-105791003D01*
X118280498Y-105900657D01*
X118280500Y-105900662D01*
X118330904Y-105999586D01*
X118330905Y-105999587D01*
X118409413Y-106078095D01*
X118508339Y-106128500D01*
X118508342Y-106128501D01*
X118617997Y-106145869D01*
X118618000Y-106145869D01*
X118618003Y-106145869D01*
X118727657Y-106128501D01*
X118727658Y-106128500D01*
X118727661Y-106128500D01*
X118826587Y-106078095D01*
X118905095Y-105999587D01*
X118955500Y-105900661D01*
X118961861Y-105860500D01*
X118972869Y-105791003D01*
X118972869Y-105790996D01*
X118955501Y-105681342D01*
X118955499Y-105681337D01*
X118946667Y-105664003D01*
X119152131Y-105664003D01*
X119169498Y-105773657D01*
X119169500Y-105773662D01*
X119219904Y-105872586D01*
X119298413Y-105951095D01*
X119393584Y-105999587D01*
X119397339Y-106001500D01*
X119397342Y-106001501D01*
X119506997Y-106018869D01*
X119507000Y-106018869D01*
X119507003Y-106018869D01*
X119616657Y-106001501D01*
X119616658Y-106001500D01*
X119616661Y-106001500D01*
X119715587Y-105951095D01*
X119794095Y-105872587D01*
X119844500Y-105773661D01*
X119845893Y-105764869D01*
X119861869Y-105664003D01*
X119861869Y-105663996D01*
X119844501Y-105554342D01*
X119844499Y-105554337D01*
X119794095Y-105455413D01*
X119748682Y-105410000D01*
X146864867Y-105410000D01*
X146867962Y-105431530D01*
X146883302Y-105538224D01*
X146883303Y-105538226D01*
X146937118Y-105656063D01*
X147021951Y-105753967D01*
X147130931Y-105824004D01*
X147130933Y-105824004D01*
X147130934Y-105824005D01*
X147255225Y-105860499D01*
X147255227Y-105860500D01*
X147255228Y-105860500D01*
X147384773Y-105860500D01*
X147384773Y-105860499D01*
X147509069Y-105824004D01*
X147618049Y-105753967D01*
X147702882Y-105656063D01*
X147756697Y-105538226D01*
X147775133Y-105410000D01*
X147756697Y-105281774D01*
X147702882Y-105163937D01*
X147618049Y-105066033D01*
X147618048Y-105066032D01*
X147576081Y-105039062D01*
X147509069Y-104995996D01*
X147509067Y-104995995D01*
X147509065Y-104995994D01*
X147384774Y-104959500D01*
X147384772Y-104959500D01*
X147255228Y-104959500D01*
X147255226Y-104959500D01*
X147130934Y-104995994D01*
X147021951Y-105066032D01*
X146937118Y-105163936D01*
X146937118Y-105163937D01*
X146883302Y-105281775D01*
X146864867Y-105409999D01*
X146864867Y-105410000D01*
X119748682Y-105410000D01*
X119715586Y-105376904D01*
X119616662Y-105326500D01*
X119616657Y-105326498D01*
X119507003Y-105309131D01*
X119506997Y-105309131D01*
X119397342Y-105326498D01*
X119397337Y-105326500D01*
X119298413Y-105376904D01*
X119219904Y-105455413D01*
X119169500Y-105554337D01*
X119169498Y-105554342D01*
X119152131Y-105663996D01*
X119152131Y-105664003D01*
X118946667Y-105664003D01*
X118905095Y-105582413D01*
X118826586Y-105503904D01*
X118727662Y-105453500D01*
X118727657Y-105453498D01*
X118618003Y-105436131D01*
X118617997Y-105436131D01*
X118508342Y-105453498D01*
X118508337Y-105453500D01*
X118409413Y-105503904D01*
X118330904Y-105582413D01*
X118280500Y-105681337D01*
X118280498Y-105681342D01*
X118263131Y-105790996D01*
X118263131Y-105791003D01*
X99067262Y-105791003D01*
X99537075Y-105410003D01*
X101499131Y-105410003D01*
X101516498Y-105519657D01*
X101516500Y-105519662D01*
X101566904Y-105618586D01*
X101566905Y-105618587D01*
X101645413Y-105697095D01*
X101744339Y-105747500D01*
X101744342Y-105747501D01*
X101853997Y-105764869D01*
X101854000Y-105764869D01*
X101854003Y-105764869D01*
X101963657Y-105747501D01*
X101963658Y-105747500D01*
X101963661Y-105747500D01*
X102062587Y-105697095D01*
X102141095Y-105618587D01*
X102191500Y-105519661D01*
X102193996Y-105503904D01*
X102208869Y-105410003D01*
X102208869Y-105409996D01*
X102191501Y-105300342D01*
X102191499Y-105300337D01*
X102141095Y-105201413D01*
X102062586Y-105122904D01*
X101963662Y-105072500D01*
X101963657Y-105072498D01*
X101854003Y-105055131D01*
X101853997Y-105055131D01*
X101744342Y-105072498D01*
X101744337Y-105072500D01*
X101645413Y-105122904D01*
X101566904Y-105201413D01*
X101516500Y-105300337D01*
X101516498Y-105300342D01*
X101499131Y-105409996D01*
X101499131Y-105410003D01*
X99537075Y-105410003D01*
X100622119Y-104530076D01*
X100633102Y-104522939D01*
X100641402Y-104518711D01*
X100662856Y-104497256D01*
X100665248Y-104495101D01*
X100673474Y-104488431D01*
X100682810Y-104477449D01*
X100684499Y-104475615D01*
X100801961Y-104358155D01*
X100999564Y-104122662D01*
X101032685Y-104083190D01*
X101081830Y-104013003D01*
X117247131Y-104013003D01*
X117264498Y-104122657D01*
X117264500Y-104122662D01*
X117272710Y-104138775D01*
X117314905Y-104221587D01*
X117393413Y-104300095D01*
X117492339Y-104350500D01*
X117492342Y-104350501D01*
X117601997Y-104367869D01*
X117602000Y-104367869D01*
X117602003Y-104367869D01*
X117711657Y-104350501D01*
X117711658Y-104350500D01*
X117711661Y-104350500D01*
X117810587Y-104300095D01*
X117843683Y-104266999D01*
X146864867Y-104266999D01*
X146883302Y-104395224D01*
X146883303Y-104395226D01*
X146937118Y-104513063D01*
X147021951Y-104610967D01*
X147130931Y-104681004D01*
X147130933Y-104681004D01*
X147130934Y-104681005D01*
X147255225Y-104717499D01*
X147255227Y-104717500D01*
X147255228Y-104717500D01*
X147384773Y-104717500D01*
X147384773Y-104717499D01*
X147509069Y-104681004D01*
X147618049Y-104610967D01*
X147702882Y-104513063D01*
X147756697Y-104395226D01*
X147775133Y-104267000D01*
X147756697Y-104138774D01*
X147702882Y-104020937D01*
X147618049Y-103923033D01*
X147618048Y-103923032D01*
X147556721Y-103883620D01*
X147509069Y-103852996D01*
X147509067Y-103852995D01*
X147509065Y-103852994D01*
X147384774Y-103816500D01*
X147384772Y-103816500D01*
X147255228Y-103816500D01*
X147255226Y-103816500D01*
X147130934Y-103852994D01*
X147021951Y-103923032D01*
X146937118Y-104020936D01*
X146937118Y-104020937D01*
X146883302Y-104138775D01*
X146864867Y-104266999D01*
X117843683Y-104266999D01*
X117889095Y-104221587D01*
X117939500Y-104122661D01*
X117939501Y-104122657D01*
X117956869Y-104013003D01*
X117956869Y-104012996D01*
X117939501Y-103903342D01*
X117939499Y-103903337D01*
X117889095Y-103804413D01*
X117810586Y-103725904D01*
X117711662Y-103675500D01*
X117711657Y-103675498D01*
X117602003Y-103658131D01*
X117601997Y-103658131D01*
X117492342Y-103675498D01*
X117492337Y-103675500D01*
X117393413Y-103725904D01*
X117314904Y-103804413D01*
X117264500Y-103903337D01*
X117264498Y-103903342D01*
X117247131Y-104012996D01*
X117247131Y-104013003D01*
X101081830Y-104013003D01*
X101238563Y-103789163D01*
X101339313Y-103614657D01*
X101418027Y-103478321D01*
X101472501Y-103361502D01*
X101569717Y-103153022D01*
X101591205Y-103093984D01*
X101672727Y-102870004D01*
X106182670Y-102870004D01*
X106201948Y-103078057D01*
X106201950Y-103078068D01*
X106238233Y-103205587D01*
X106259134Y-103279045D01*
X106352274Y-103466095D01*
X106352275Y-103466096D01*
X106352277Y-103466100D01*
X106478189Y-103632836D01*
X106478194Y-103632841D01*
X106478198Y-103632846D01*
X106566766Y-103713586D01*
X106632614Y-103773615D01*
X106632615Y-103773616D01*
X106632619Y-103773619D01*
X106810277Y-103883620D01*
X107005123Y-103959104D01*
X107210522Y-103997500D01*
X107210525Y-103997500D01*
X107419475Y-103997500D01*
X107419478Y-103997500D01*
X107624877Y-103959104D01*
X107819723Y-103883620D01*
X107997381Y-103773619D01*
X108151802Y-103632846D01*
X108248344Y-103505003D01*
X135789131Y-103505003D01*
X135806498Y-103614657D01*
X135806500Y-103614662D01*
X135856904Y-103713586D01*
X135856905Y-103713587D01*
X135935413Y-103792095D01*
X136034339Y-103842500D01*
X136034342Y-103842501D01*
X136143997Y-103859869D01*
X136144000Y-103859869D01*
X136144003Y-103859869D01*
X136253657Y-103842501D01*
X136253658Y-103842500D01*
X136253661Y-103842500D01*
X136352587Y-103792095D01*
X136431095Y-103713587D01*
X136481500Y-103614661D01*
X136481501Y-103614657D01*
X136498869Y-103505003D01*
X136498869Y-103504997D01*
X136483508Y-103408016D01*
X136494674Y-103361502D01*
X136535460Y-103336508D01*
X136555016Y-103336508D01*
X136651998Y-103351869D01*
X136652000Y-103351869D01*
X136652002Y-103351869D01*
X136748983Y-103336508D01*
X136795497Y-103347674D01*
X136820491Y-103388460D01*
X136820492Y-103408015D01*
X136805132Y-103504997D01*
X136805131Y-103505002D01*
X136805131Y-103505003D01*
X136822498Y-103614657D01*
X136822500Y-103614662D01*
X136872904Y-103713586D01*
X136872905Y-103713587D01*
X136951413Y-103792095D01*
X137050339Y-103842500D01*
X137050342Y-103842501D01*
X137159997Y-103859869D01*
X137160000Y-103859869D01*
X137160003Y-103859869D01*
X137269657Y-103842501D01*
X137269658Y-103842500D01*
X137269661Y-103842500D01*
X137368587Y-103792095D01*
X137447095Y-103713587D01*
X137497500Y-103614661D01*
X137497501Y-103614657D01*
X137514869Y-103505003D01*
X137514869Y-103504997D01*
X137499508Y-103408016D01*
X137510674Y-103361502D01*
X137551460Y-103336508D01*
X137571016Y-103336508D01*
X137667998Y-103351869D01*
X137668000Y-103351869D01*
X137668002Y-103351869D01*
X137764983Y-103336508D01*
X137811497Y-103347674D01*
X137836491Y-103388460D01*
X137836492Y-103408015D01*
X137821132Y-103504997D01*
X137821131Y-103505002D01*
X137821131Y-103505003D01*
X137838498Y-103614657D01*
X137838500Y-103614662D01*
X137888904Y-103713586D01*
X137888905Y-103713587D01*
X137967413Y-103792095D01*
X138066339Y-103842500D01*
X138066342Y-103842501D01*
X138175997Y-103859869D01*
X138176000Y-103859869D01*
X138176003Y-103859869D01*
X138285657Y-103842501D01*
X138285658Y-103842500D01*
X138285661Y-103842500D01*
X138384587Y-103792095D01*
X138463095Y-103713587D01*
X138513500Y-103614661D01*
X138513501Y-103614657D01*
X138530869Y-103505003D01*
X138530869Y-103504996D01*
X138513501Y-103395342D01*
X138513499Y-103395337D01*
X138463095Y-103296413D01*
X138384586Y-103217904D01*
X138285662Y-103167500D01*
X138285657Y-103167498D01*
X138176003Y-103150131D01*
X138176001Y-103150131D01*
X138176000Y-103150131D01*
X138114335Y-103159898D01*
X138079015Y-103165492D01*
X138032501Y-103154324D01*
X138007507Y-103113538D01*
X138007508Y-103093983D01*
X138022869Y-102997002D01*
X138022869Y-102996997D01*
X138007508Y-102900016D01*
X138018674Y-102853502D01*
X138059460Y-102828508D01*
X138079016Y-102828508D01*
X138175998Y-102843869D01*
X138176000Y-102843869D01*
X138176003Y-102843869D01*
X138285657Y-102826501D01*
X138285658Y-102826500D01*
X138285661Y-102826500D01*
X138384587Y-102776095D01*
X138463095Y-102697587D01*
X138513500Y-102598661D01*
X138530869Y-102489000D01*
X138530869Y-102488997D01*
X138530869Y-102488996D01*
X138513501Y-102379342D01*
X138513499Y-102379337D01*
X138463095Y-102280413D01*
X138384586Y-102201904D01*
X138285662Y-102151500D01*
X138285657Y-102151498D01*
X138176003Y-102134131D01*
X138175997Y-102134131D01*
X138066342Y-102151498D01*
X138066337Y-102151500D01*
X137967413Y-102201904D01*
X137888904Y-102280413D01*
X137838500Y-102379337D01*
X137838498Y-102379342D01*
X137821131Y-102488996D01*
X137821131Y-102488997D01*
X137821131Y-102489000D01*
X137833524Y-102567249D01*
X137836492Y-102585984D01*
X137825324Y-102632498D01*
X137784538Y-102657492D01*
X137764984Y-102657492D01*
X137724443Y-102651070D01*
X137668000Y-102642131D01*
X137667999Y-102642131D01*
X137571015Y-102657492D01*
X137524501Y-102646324D01*
X137499507Y-102605538D01*
X137499508Y-102585983D01*
X137514869Y-102489002D01*
X137514869Y-102488996D01*
X137497501Y-102379342D01*
X137497499Y-102379337D01*
X137447095Y-102280413D01*
X137368586Y-102201904D01*
X137269662Y-102151500D01*
X137269657Y-102151498D01*
X137160003Y-102134131D01*
X137159997Y-102134131D01*
X137050342Y-102151498D01*
X137050337Y-102151500D01*
X136951413Y-102201904D01*
X136872904Y-102280413D01*
X136822500Y-102379337D01*
X136822498Y-102379342D01*
X136805131Y-102488996D01*
X136805131Y-102488997D01*
X136805131Y-102489000D01*
X136817524Y-102567249D01*
X136820492Y-102585984D01*
X136809324Y-102632498D01*
X136768538Y-102657492D01*
X136748984Y-102657492D01*
X136708443Y-102651070D01*
X136652000Y-102642131D01*
X136651999Y-102642131D01*
X136555015Y-102657492D01*
X136508501Y-102646324D01*
X136483507Y-102605538D01*
X136483508Y-102585983D01*
X136498869Y-102489002D01*
X136498869Y-102488996D01*
X136481501Y-102379342D01*
X136481499Y-102379337D01*
X136431095Y-102280413D01*
X136352586Y-102201904D01*
X136253662Y-102151500D01*
X136253657Y-102151498D01*
X136144003Y-102134131D01*
X136143997Y-102134131D01*
X136034342Y-102151498D01*
X136034337Y-102151500D01*
X135935413Y-102201904D01*
X135856904Y-102280413D01*
X135806500Y-102379337D01*
X135806498Y-102379342D01*
X135789131Y-102488996D01*
X135789131Y-102489003D01*
X135806498Y-102598657D01*
X135806500Y-102598662D01*
X135838743Y-102661942D01*
X135856905Y-102697587D01*
X135935413Y-102776095D01*
X136034339Y-102826500D01*
X136034342Y-102826501D01*
X136143997Y-102843869D01*
X136144000Y-102843869D01*
X136144002Y-102843869D01*
X136240983Y-102828508D01*
X136287497Y-102839674D01*
X136312491Y-102880460D01*
X136312492Y-102900015D01*
X136297131Y-102996999D01*
X136312492Y-103093984D01*
X136301324Y-103140498D01*
X136260538Y-103165492D01*
X136240984Y-103165492D01*
X136222249Y-103162524D01*
X136144000Y-103150131D01*
X136143998Y-103150131D01*
X136143997Y-103150131D01*
X136034342Y-103167498D01*
X136034337Y-103167500D01*
X135935413Y-103217904D01*
X135856904Y-103296413D01*
X135806500Y-103395337D01*
X135806498Y-103395342D01*
X135789131Y-103504996D01*
X135789131Y-103505003D01*
X108248344Y-103505003D01*
X108277726Y-103466095D01*
X108370866Y-103279045D01*
X108428050Y-103078065D01*
X108444549Y-102900015D01*
X108447330Y-102870004D01*
X108447330Y-102869995D01*
X108428051Y-102661942D01*
X108428049Y-102661931D01*
X108418796Y-102629414D01*
X108370866Y-102460955D01*
X108277726Y-102273905D01*
X108277723Y-102273901D01*
X108277722Y-102273899D01*
X108151810Y-102107163D01*
X108151805Y-102107158D01*
X108151802Y-102107154D01*
X108054927Y-102018841D01*
X107997385Y-101966384D01*
X107997382Y-101966382D01*
X107997381Y-101966381D01*
X107819723Y-101856380D01*
X107819721Y-101856379D01*
X107763089Y-101834440D01*
X107624877Y-101780896D01*
X107624874Y-101780895D01*
X107624873Y-101780895D01*
X107419482Y-101742500D01*
X107419478Y-101742500D01*
X107210522Y-101742500D01*
X107210517Y-101742500D01*
X107005126Y-101780895D01*
X106810278Y-101856379D01*
X106632614Y-101966384D01*
X106478196Y-102107156D01*
X106478189Y-102107163D01*
X106352277Y-102273899D01*
X106352274Y-102273905D01*
X106259134Y-102460954D01*
X106201950Y-102661931D01*
X106201948Y-102661942D01*
X106182670Y-102869995D01*
X106182670Y-102870004D01*
X101672727Y-102870004D01*
X101692484Y-102815723D01*
X101785383Y-102469017D01*
X101785384Y-102469010D01*
X101785385Y-102469010D01*
X101847711Y-102115533D01*
X101878994Y-101757962D01*
X101878994Y-101578494D01*
X101880465Y-100711003D01*
X101881111Y-100330004D01*
X106182670Y-100330004D01*
X106201948Y-100538057D01*
X106201950Y-100538068D01*
X106251153Y-100710996D01*
X106259134Y-100739045D01*
X106352274Y-100926095D01*
X106352275Y-100926096D01*
X106352277Y-100926100D01*
X106478189Y-101092836D01*
X106478194Y-101092841D01*
X106478198Y-101092846D01*
X106582938Y-101188329D01*
X106632614Y-101233615D01*
X106632615Y-101233616D01*
X106632619Y-101233619D01*
X106810277Y-101343620D01*
X107005123Y-101419104D01*
X107210522Y-101457500D01*
X107210525Y-101457500D01*
X107419475Y-101457500D01*
X107419478Y-101457500D01*
X107624877Y-101419104D01*
X107819723Y-101343620D01*
X107997381Y-101233619D01*
X108151802Y-101092846D01*
X108185291Y-101048500D01*
X108235751Y-100981678D01*
X108277726Y-100926095D01*
X108370866Y-100739045D01*
X108428050Y-100538065D01*
X108432495Y-100490095D01*
X108447330Y-100330004D01*
X108447330Y-100329995D01*
X108435562Y-100203003D01*
X114199131Y-100203003D01*
X114216498Y-100312657D01*
X114216500Y-100312662D01*
X114266904Y-100411586D01*
X114266905Y-100411587D01*
X114345413Y-100490095D01*
X114444339Y-100540500D01*
X114444342Y-100540501D01*
X114553997Y-100557869D01*
X114554000Y-100557869D01*
X114554003Y-100557869D01*
X114663657Y-100540501D01*
X114663658Y-100540500D01*
X114663661Y-100540500D01*
X114762587Y-100490095D01*
X114841095Y-100411587D01*
X114891500Y-100312661D01*
X114908869Y-100203003D01*
X136551131Y-100203003D01*
X136568498Y-100312657D01*
X136568500Y-100312662D01*
X136618904Y-100411586D01*
X136618905Y-100411587D01*
X136697413Y-100490095D01*
X136796339Y-100540500D01*
X136796342Y-100540501D01*
X136905997Y-100557869D01*
X136906000Y-100557869D01*
X136906002Y-100557869D01*
X137002983Y-100542508D01*
X137049497Y-100553674D01*
X137074491Y-100594460D01*
X137074492Y-100614015D01*
X137059131Y-100711002D01*
X137059131Y-100711003D01*
X137076498Y-100820657D01*
X137076500Y-100820662D01*
X137126904Y-100919586D01*
X137126905Y-100919587D01*
X137205413Y-100998095D01*
X137304339Y-101048500D01*
X137304342Y-101048501D01*
X137413997Y-101065869D01*
X137414000Y-101065869D01*
X137414002Y-101065869D01*
X137510983Y-101050508D01*
X137557497Y-101061674D01*
X137582491Y-101102460D01*
X137582492Y-101122015D01*
X137567131Y-101219002D01*
X137567131Y-101219003D01*
X137584498Y-101328657D01*
X137584500Y-101328662D01*
X137634904Y-101427586D01*
X137634905Y-101427587D01*
X137713413Y-101506095D01*
X137812339Y-101556500D01*
X137812342Y-101556501D01*
X137921997Y-101573869D01*
X137922000Y-101573869D01*
X137922003Y-101573869D01*
X138031657Y-101556501D01*
X138031658Y-101556500D01*
X138031661Y-101556500D01*
X138130587Y-101506095D01*
X138209095Y-101427587D01*
X138259500Y-101328661D01*
X138274554Y-101233619D01*
X138276869Y-101219003D01*
X138276869Y-101218996D01*
X138259501Y-101109342D01*
X138259499Y-101109337D01*
X138209095Y-101010413D01*
X138130586Y-100931904D01*
X138031662Y-100881500D01*
X138031657Y-100881498D01*
X137922003Y-100864131D01*
X137922001Y-100864131D01*
X137922000Y-100864131D01*
X137860335Y-100873898D01*
X137825015Y-100879492D01*
X137778501Y-100868324D01*
X137753507Y-100827538D01*
X137753508Y-100807983D01*
X137768869Y-100711002D01*
X137768869Y-100710996D01*
X137751501Y-100601342D01*
X137751499Y-100601337D01*
X137701095Y-100502413D01*
X137622586Y-100423904D01*
X137523662Y-100373500D01*
X137523657Y-100373498D01*
X137414003Y-100356131D01*
X137414001Y-100356131D01*
X137414000Y-100356131D01*
X137352335Y-100365898D01*
X137317015Y-100371492D01*
X137270501Y-100360324D01*
X137245507Y-100319538D01*
X137245508Y-100299983D01*
X137260869Y-100203002D01*
X137260869Y-100202996D01*
X137243501Y-100093342D01*
X137243499Y-100093337D01*
X137193095Y-99994413D01*
X137114586Y-99915904D01*
X137015662Y-99865500D01*
X137015657Y-99865498D01*
X136906003Y-99848131D01*
X136905997Y-99848131D01*
X136796342Y-99865498D01*
X136796337Y-99865500D01*
X136697413Y-99915904D01*
X136618904Y-99994413D01*
X136568500Y-100093337D01*
X136568498Y-100093342D01*
X136551131Y-100202996D01*
X136551131Y-100203003D01*
X114908869Y-100203003D01*
X114908869Y-100203000D01*
X114908869Y-100202996D01*
X114891501Y-100093342D01*
X114891499Y-100093337D01*
X114841095Y-99994413D01*
X114762586Y-99915904D01*
X114663662Y-99865500D01*
X114663657Y-99865498D01*
X114554003Y-99848131D01*
X114553997Y-99848131D01*
X114444342Y-99865498D01*
X114444337Y-99865500D01*
X114345413Y-99915904D01*
X114266904Y-99994413D01*
X114216500Y-100093337D01*
X114216498Y-100093342D01*
X114199131Y-100202996D01*
X114199131Y-100203003D01*
X108435562Y-100203003D01*
X108428051Y-100121942D01*
X108428049Y-100121931D01*
X108418796Y-100089414D01*
X108370866Y-99920955D01*
X108277726Y-99733905D01*
X108277723Y-99733901D01*
X108277722Y-99733899D01*
X108151810Y-99567163D01*
X108151805Y-99567158D01*
X108151802Y-99567154D01*
X108054927Y-99478841D01*
X107997385Y-99426384D01*
X107997382Y-99426382D01*
X107997381Y-99426381D01*
X107819723Y-99316380D01*
X107819721Y-99316379D01*
X107763089Y-99294440D01*
X107624877Y-99240896D01*
X107624874Y-99240895D01*
X107624873Y-99240895D01*
X107419482Y-99202500D01*
X107419478Y-99202500D01*
X107210522Y-99202500D01*
X107210517Y-99202500D01*
X107005126Y-99240895D01*
X106810278Y-99316379D01*
X106632614Y-99426384D01*
X106478196Y-99567156D01*
X106478189Y-99567163D01*
X106352277Y-99733899D01*
X106352274Y-99733905D01*
X106259134Y-99920954D01*
X106201950Y-100121931D01*
X106201948Y-100121942D01*
X106182670Y-100329995D01*
X106182670Y-100330004D01*
X101881111Y-100330004D01*
X101885420Y-97790004D01*
X106182670Y-97790004D01*
X106201948Y-97998057D01*
X106201950Y-97998068D01*
X106238233Y-98125586D01*
X106259134Y-98199045D01*
X106352274Y-98386095D01*
X106352275Y-98386096D01*
X106352277Y-98386100D01*
X106478189Y-98552836D01*
X106478194Y-98552841D01*
X106478198Y-98552846D01*
X106582938Y-98648329D01*
X106632614Y-98693615D01*
X106632615Y-98693616D01*
X106632619Y-98693619D01*
X106810277Y-98803620D01*
X107005123Y-98879104D01*
X107210522Y-98917500D01*
X107210525Y-98917500D01*
X107419475Y-98917500D01*
X107419478Y-98917500D01*
X107624877Y-98879104D01*
X107819723Y-98803620D01*
X107997381Y-98693619D01*
X108151802Y-98552846D01*
X108277726Y-98386095D01*
X108370866Y-98199045D01*
X108428050Y-97998065D01*
X108428051Y-97998057D01*
X108435562Y-97917003D01*
X138710131Y-97917003D01*
X138727498Y-98026657D01*
X138727500Y-98026662D01*
X138777904Y-98125586D01*
X138777905Y-98125587D01*
X138856413Y-98204095D01*
X138955339Y-98254500D01*
X138955342Y-98254501D01*
X139064997Y-98271869D01*
X139065000Y-98271869D01*
X139065003Y-98271869D01*
X139174657Y-98254501D01*
X139174658Y-98254500D01*
X139174661Y-98254500D01*
X139273587Y-98204095D01*
X139352095Y-98125587D01*
X139402500Y-98026661D01*
X139407029Y-97998068D01*
X139419869Y-97917003D01*
X139419869Y-97916997D01*
X139404508Y-97820016D01*
X139415674Y-97773502D01*
X139456460Y-97748508D01*
X139476016Y-97748508D01*
X139572998Y-97763869D01*
X139573000Y-97763869D01*
X139573002Y-97763869D01*
X139669983Y-97748508D01*
X139716497Y-97759674D01*
X139741491Y-97800460D01*
X139741492Y-97820015D01*
X139726132Y-97916997D01*
X139726131Y-97917002D01*
X139726131Y-97917003D01*
X139743498Y-98026657D01*
X139743500Y-98026662D01*
X139793904Y-98125586D01*
X139793905Y-98125587D01*
X139872413Y-98204095D01*
X139971339Y-98254500D01*
X139971342Y-98254501D01*
X140080997Y-98271869D01*
X140081000Y-98271869D01*
X140081003Y-98271869D01*
X140190657Y-98254501D01*
X140190658Y-98254500D01*
X140190661Y-98254500D01*
X140289587Y-98204095D01*
X140368095Y-98125587D01*
X140418500Y-98026661D01*
X140423029Y-97998068D01*
X140435869Y-97917003D01*
X140435869Y-97916996D01*
X140418501Y-97807342D01*
X140418499Y-97807337D01*
X140368095Y-97708413D01*
X140289586Y-97629904D01*
X140190662Y-97579500D01*
X140190657Y-97579498D01*
X140081003Y-97562131D01*
X140081001Y-97562131D01*
X140081000Y-97562131D01*
X140019335Y-97571898D01*
X139984015Y-97577492D01*
X139937501Y-97566324D01*
X139912507Y-97525538D01*
X139912508Y-97505983D01*
X139927869Y-97409002D01*
X139927869Y-97408996D01*
X139910501Y-97299342D01*
X139910499Y-97299337D01*
X139860095Y-97200413D01*
X139781586Y-97121904D01*
X139682662Y-97071500D01*
X139682657Y-97071498D01*
X139573003Y-97054131D01*
X139572997Y-97054131D01*
X139463342Y-97071498D01*
X139463337Y-97071500D01*
X139364413Y-97121904D01*
X139285904Y-97200413D01*
X139235500Y-97299337D01*
X139235498Y-97299342D01*
X139218131Y-97408996D01*
X139218131Y-97408997D01*
X139218131Y-97409000D01*
X139230524Y-97487249D01*
X139233492Y-97505984D01*
X139222324Y-97552498D01*
X139181538Y-97577492D01*
X139161984Y-97577492D01*
X139143249Y-97574524D01*
X139065000Y-97562131D01*
X139064998Y-97562131D01*
X139064997Y-97562131D01*
X138955342Y-97579498D01*
X138955337Y-97579500D01*
X138856413Y-97629904D01*
X138777904Y-97708413D01*
X138727500Y-97807337D01*
X138727498Y-97807342D01*
X138710131Y-97916996D01*
X138710131Y-97917003D01*
X108435562Y-97917003D01*
X108447330Y-97790004D01*
X108447330Y-97789995D01*
X108428051Y-97581942D01*
X108428049Y-97581931D01*
X108418796Y-97549414D01*
X108370866Y-97380955D01*
X108277726Y-97193905D01*
X108277723Y-97193901D01*
X108277722Y-97193899D01*
X108151810Y-97027163D01*
X108151805Y-97027158D01*
X108151802Y-97027154D01*
X108054927Y-96938841D01*
X107997385Y-96886384D01*
X107997382Y-96886382D01*
X107997381Y-96886381D01*
X107819723Y-96776380D01*
X107819721Y-96776379D01*
X107763089Y-96754440D01*
X107624877Y-96700896D01*
X107624874Y-96700895D01*
X107624873Y-96700895D01*
X107419482Y-96662500D01*
X107419478Y-96662500D01*
X107210522Y-96662500D01*
X107210517Y-96662500D01*
X107005126Y-96700895D01*
X106810278Y-96776379D01*
X106632614Y-96886384D01*
X106478196Y-97027156D01*
X106478189Y-97027163D01*
X106352277Y-97193899D01*
X106352274Y-97193905D01*
X106259134Y-97380954D01*
X106201950Y-97581931D01*
X106201948Y-97581942D01*
X106182670Y-97789995D01*
X106182670Y-97790004D01*
X101885420Y-97790004D01*
X101890159Y-94995999D01*
X146737867Y-94995999D01*
X146756302Y-95124224D01*
X146756303Y-95124226D01*
X146810118Y-95242063D01*
X146894951Y-95339967D01*
X147003931Y-95410004D01*
X147003933Y-95410004D01*
X147003934Y-95410005D01*
X147128225Y-95446499D01*
X147128227Y-95446500D01*
X147128228Y-95446500D01*
X147257773Y-95446500D01*
X147257773Y-95446499D01*
X147378833Y-95410954D01*
X147426393Y-95416067D01*
X147456408Y-95453314D01*
X147451295Y-95500875D01*
X147430231Y-95523500D01*
X147402952Y-95541031D01*
X147318118Y-95638936D01*
X147318118Y-95638937D01*
X147264302Y-95756775D01*
X147245867Y-95885000D01*
X147264302Y-96013224D01*
X147264303Y-96013226D01*
X147318118Y-96131063D01*
X147402951Y-96228967D01*
X147511931Y-96299004D01*
X147511933Y-96299004D01*
X147511934Y-96299005D01*
X147636225Y-96335499D01*
X147636227Y-96335500D01*
X147636228Y-96335500D01*
X147765773Y-96335500D01*
X147765773Y-96335499D01*
X147890069Y-96299004D01*
X147999049Y-96228967D01*
X148083882Y-96131063D01*
X148137697Y-96013226D01*
X148156133Y-95885000D01*
X148137697Y-95756774D01*
X148083882Y-95638937D01*
X147999049Y-95541033D01*
X147999048Y-95541032D01*
X147999046Y-95541030D01*
X147971769Y-95523500D01*
X147944487Y-95484207D01*
X147951013Y-95448036D01*
X147917726Y-95471149D01*
X147886832Y-95470045D01*
X147765774Y-95434500D01*
X147765772Y-95434500D01*
X147636228Y-95434500D01*
X147636226Y-95434500D01*
X147515167Y-95470045D01*
X147467606Y-95464932D01*
X147437591Y-95427685D01*
X147442704Y-95380124D01*
X147463770Y-95357498D01*
X147491049Y-95339967D01*
X147575882Y-95242063D01*
X147629697Y-95124226D01*
X147639135Y-95058576D01*
X147663545Y-95017436D01*
X147709894Y-95005606D01*
X147751034Y-95030015D01*
X147762864Y-95058576D01*
X147772302Y-95124224D01*
X147826118Y-95242062D01*
X147826118Y-95242063D01*
X147910953Y-95339969D01*
X147938230Y-95357499D01*
X147965512Y-95396791D01*
X147958985Y-95432962D01*
X147992274Y-95409850D01*
X148023166Y-95410953D01*
X148098121Y-95432962D01*
X148144225Y-95446499D01*
X148144227Y-95446500D01*
X148144228Y-95446500D01*
X148273773Y-95446500D01*
X148273773Y-95446499D01*
X148398069Y-95410004D01*
X148507049Y-95339967D01*
X148591882Y-95242063D01*
X148645697Y-95124226D01*
X148664133Y-94996000D01*
X148645697Y-94867774D01*
X148591882Y-94749937D01*
X148507049Y-94652033D01*
X148507048Y-94652032D01*
X148465081Y-94625062D01*
X148398069Y-94581996D01*
X148398067Y-94581995D01*
X148398065Y-94581994D01*
X148273774Y-94545500D01*
X148273772Y-94545500D01*
X148144228Y-94545500D01*
X148144226Y-94545500D01*
X148019934Y-94581994D01*
X147910951Y-94652032D01*
X147826118Y-94749936D01*
X147826118Y-94749937D01*
X147772302Y-94867775D01*
X147762864Y-94933424D01*
X147738455Y-94974563D01*
X147692105Y-94986393D01*
X147650966Y-94961984D01*
X147639136Y-94933424D01*
X147629697Y-94867775D01*
X147629697Y-94867774D01*
X147575882Y-94749937D01*
X147491049Y-94652033D01*
X147491048Y-94652032D01*
X147449081Y-94625062D01*
X147382069Y-94581996D01*
X147382067Y-94581995D01*
X147382065Y-94581994D01*
X147257774Y-94545500D01*
X147257772Y-94545500D01*
X147128228Y-94545500D01*
X147128226Y-94545500D01*
X147003934Y-94581994D01*
X146894951Y-94652032D01*
X146810118Y-94749936D01*
X146810118Y-94749937D01*
X146756302Y-94867775D01*
X146737867Y-94995999D01*
X101890159Y-94995999D01*
X101895182Y-92035004D01*
X112521762Y-92035004D01*
X112540688Y-92311714D01*
X112540689Y-92311717D01*
X112540689Y-92311721D01*
X112540690Y-92311723D01*
X112593460Y-92565662D01*
X112597123Y-92583290D01*
X112597126Y-92583299D01*
X112690006Y-92844643D01*
X112690008Y-92844646D01*
X112817616Y-93090918D01*
X112977570Y-93317521D01*
X113166890Y-93520233D01*
X113382048Y-93695277D01*
X113382051Y-93695278D01*
X113382050Y-93695278D01*
X113619030Y-93839390D01*
X113619034Y-93839392D01*
X113619038Y-93839394D01*
X113873445Y-93949898D01*
X114140529Y-94024732D01*
X114415315Y-94062500D01*
X114415316Y-94062500D01*
X114692684Y-94062500D01*
X114692685Y-94062500D01*
X114967471Y-94024732D01*
X115234555Y-93949898D01*
X115488962Y-93839394D01*
X115725952Y-93695277D01*
X115941110Y-93520233D01*
X116130430Y-93317521D01*
X116290384Y-93090918D01*
X116417992Y-92844646D01*
X116510877Y-92583291D01*
X116537328Y-92456003D01*
X135662131Y-92456003D01*
X135679498Y-92565657D01*
X135679500Y-92565662D01*
X135729904Y-92664586D01*
X135729905Y-92664587D01*
X135808413Y-92743095D01*
X135907339Y-92793500D01*
X135907342Y-92793501D01*
X136016997Y-92810869D01*
X136017000Y-92810869D01*
X136017003Y-92810869D01*
X136126657Y-92793501D01*
X136126658Y-92793500D01*
X136126661Y-92793500D01*
X136225587Y-92743095D01*
X136304095Y-92664587D01*
X136354500Y-92565661D01*
X136371869Y-92456000D01*
X136371869Y-92455996D01*
X136354501Y-92346342D01*
X136354499Y-92346337D01*
X136304095Y-92247413D01*
X136225586Y-92168904D01*
X136126662Y-92118500D01*
X136126657Y-92118498D01*
X136017003Y-92101131D01*
X136016997Y-92101131D01*
X135907342Y-92118498D01*
X135907337Y-92118500D01*
X135808413Y-92168904D01*
X135729904Y-92247413D01*
X135679500Y-92346337D01*
X135679498Y-92346342D01*
X135662131Y-92455996D01*
X135662131Y-92456003D01*
X116537328Y-92456003D01*
X116567310Y-92311723D01*
X116586238Y-92035000D01*
X116567310Y-91758277D01*
X116510877Y-91486709D01*
X116417992Y-91225354D01*
X116318093Y-91032557D01*
X118402500Y-91032557D01*
X118409898Y-91069748D01*
X118409898Y-91069749D01*
X118438077Y-91111922D01*
X118466257Y-91130750D01*
X118480252Y-91140102D01*
X118517442Y-91147500D01*
X118517443Y-91147500D01*
X120242557Y-91147500D01*
X120242558Y-91147500D01*
X120279748Y-91140102D01*
X120321922Y-91111922D01*
X120350102Y-91069748D01*
X120357500Y-91032558D01*
X120357500Y-90170000D01*
X120937770Y-90170000D01*
X120956642Y-90361622D01*
X120976811Y-90428111D01*
X121012538Y-90545883D01*
X121012539Y-90545884D01*
X121103302Y-90715692D01*
X121103306Y-90715698D01*
X121225459Y-90864541D01*
X121374302Y-90986694D01*
X121374304Y-90986695D01*
X121374307Y-90986697D01*
X121418491Y-91010313D01*
X121544117Y-91077462D01*
X121728376Y-91133357D01*
X121920000Y-91152230D01*
X122111624Y-91133357D01*
X122295883Y-91077462D01*
X122379894Y-91032557D01*
X128562500Y-91032557D01*
X128569898Y-91069748D01*
X128569898Y-91069749D01*
X128598077Y-91111922D01*
X128626257Y-91130750D01*
X128640252Y-91140102D01*
X128677442Y-91147500D01*
X128677443Y-91147500D01*
X130402557Y-91147500D01*
X130402558Y-91147500D01*
X130439748Y-91140102D01*
X130481922Y-91111922D01*
X130510102Y-91069748D01*
X130517500Y-91032558D01*
X130517500Y-90170000D01*
X131097770Y-90170000D01*
X131116642Y-90361622D01*
X131136811Y-90428111D01*
X131172538Y-90545883D01*
X131172539Y-90545884D01*
X131263302Y-90715692D01*
X131263306Y-90715698D01*
X131385459Y-90864541D01*
X131534302Y-90986694D01*
X131534304Y-90986695D01*
X131534307Y-90986697D01*
X131578491Y-91010313D01*
X131704117Y-91077462D01*
X131888376Y-91133357D01*
X132080000Y-91152230D01*
X132271624Y-91133357D01*
X132455883Y-91077462D01*
X132625698Y-90986694D01*
X132774541Y-90864541D01*
X132896694Y-90715698D01*
X132987462Y-90545883D01*
X133043357Y-90361624D01*
X133062230Y-90170000D01*
X133057315Y-90120101D01*
X133043357Y-89978377D01*
X133043357Y-89978376D01*
X132987462Y-89794117D01*
X132896694Y-89624302D01*
X132774541Y-89475459D01*
X132625698Y-89353306D01*
X132625692Y-89353302D01*
X132518695Y-89296112D01*
X132455883Y-89262538D01*
X132338111Y-89226811D01*
X132271622Y-89206642D01*
X132080000Y-89187770D01*
X131888377Y-89206642D01*
X131770604Y-89242369D01*
X131704117Y-89262538D01*
X131704115Y-89262538D01*
X131704115Y-89262539D01*
X131534307Y-89353302D01*
X131534301Y-89353306D01*
X131385459Y-89475459D01*
X131263306Y-89624301D01*
X131263302Y-89624307D01*
X131172539Y-89794115D01*
X131116642Y-89978377D01*
X131097770Y-90169999D01*
X131097770Y-90170000D01*
X130517500Y-90170000D01*
X130517500Y-89307442D01*
X130510102Y-89270252D01*
X130510101Y-89270250D01*
X130481922Y-89228077D01*
X130439748Y-89199898D01*
X130439747Y-89199898D01*
X130402558Y-89192500D01*
X128677442Y-89192500D01*
X128658847Y-89196199D01*
X128640251Y-89199898D01*
X128640250Y-89199898D01*
X128598077Y-89228077D01*
X128569898Y-89270250D01*
X128569898Y-89270251D01*
X128562500Y-89307442D01*
X128562500Y-91032557D01*
X122379894Y-91032557D01*
X122465698Y-90986694D01*
X122614541Y-90864541D01*
X122736694Y-90715698D01*
X122827462Y-90545883D01*
X122883357Y-90361624D01*
X122902230Y-90170000D01*
X122897315Y-90120101D01*
X122883357Y-89978377D01*
X122883357Y-89978376D01*
X122827462Y-89794117D01*
X122736694Y-89624302D01*
X122614541Y-89475459D01*
X122465698Y-89353306D01*
X122465692Y-89353302D01*
X122358695Y-89296112D01*
X122295883Y-89262538D01*
X122178111Y-89226811D01*
X122111622Y-89206642D01*
X121920000Y-89187770D01*
X121728377Y-89206642D01*
X121610604Y-89242369D01*
X121544117Y-89262538D01*
X121544115Y-89262538D01*
X121544115Y-89262539D01*
X121374307Y-89353302D01*
X121374301Y-89353306D01*
X121225459Y-89475459D01*
X121103306Y-89624301D01*
X121103302Y-89624307D01*
X121012539Y-89794115D01*
X120956642Y-89978377D01*
X120937770Y-90169999D01*
X120937770Y-90170000D01*
X120357500Y-90170000D01*
X120357500Y-89307442D01*
X120350102Y-89270252D01*
X120350101Y-89270250D01*
X120321922Y-89228077D01*
X120279748Y-89199898D01*
X120279747Y-89199898D01*
X120242558Y-89192500D01*
X118517442Y-89192500D01*
X118498847Y-89196199D01*
X118480251Y-89199898D01*
X118480250Y-89199898D01*
X118438077Y-89228077D01*
X118409898Y-89270250D01*
X118409898Y-89270251D01*
X118402500Y-89307442D01*
X118402500Y-91032557D01*
X116318093Y-91032557D01*
X116290384Y-90979082D01*
X116130430Y-90752479D01*
X115941110Y-90549767D01*
X115936337Y-90545884D01*
X115842494Y-90469537D01*
X115725952Y-90374723D01*
X115704412Y-90361624D01*
X115488969Y-90230609D01*
X115349430Y-90169999D01*
X115234555Y-90120102D01*
X115234553Y-90120101D01*
X115234552Y-90120101D01*
X115234550Y-90120100D01*
X114967477Y-90045269D01*
X114967465Y-90045267D01*
X114692690Y-90007500D01*
X114692685Y-90007500D01*
X114415315Y-90007500D01*
X114415309Y-90007500D01*
X114140534Y-90045267D01*
X114140522Y-90045269D01*
X113873449Y-90120100D01*
X113873447Y-90120101D01*
X113619030Y-90230609D01*
X113382050Y-90374721D01*
X113166891Y-90549765D01*
X112977574Y-90752474D01*
X112817612Y-90979088D01*
X112690006Y-91225356D01*
X112597126Y-91486700D01*
X112597123Y-91486709D01*
X112540689Y-91758282D01*
X112540688Y-91758285D01*
X112521762Y-92034995D01*
X112521762Y-92035004D01*
X101895182Y-92035004D01*
X101900069Y-89154003D01*
X137035891Y-89154003D01*
X137054257Y-89305266D01*
X137054258Y-89305270D01*
X137054258Y-89305271D01*
X137054259Y-89305274D01*
X137072474Y-89353302D01*
X137108296Y-89447759D01*
X137194857Y-89573163D01*
X137194860Y-89573166D01*
X137308921Y-89674216D01*
X137443851Y-89745032D01*
X137591808Y-89781500D01*
X137591810Y-89781500D01*
X137744190Y-89781500D01*
X137744192Y-89781500D01*
X137892149Y-89745032D01*
X138027079Y-89674216D01*
X138141140Y-89573166D01*
X138227705Y-89447756D01*
X138244561Y-89403308D01*
X138277347Y-89368478D01*
X138325160Y-89367032D01*
X138359992Y-89399819D01*
X138361437Y-89403308D01*
X138378294Y-89447755D01*
X138464857Y-89573163D01*
X138464860Y-89573166D01*
X138578921Y-89674216D01*
X138713851Y-89745032D01*
X138861808Y-89781500D01*
X138861810Y-89781500D01*
X139014190Y-89781500D01*
X139014192Y-89781500D01*
X139162149Y-89745032D01*
X139297079Y-89674216D01*
X139411140Y-89573166D01*
X139497705Y-89447756D01*
X139514561Y-89403308D01*
X139547349Y-89368478D01*
X139595162Y-89367032D01*
X139629993Y-89399820D01*
X139631433Y-89403296D01*
X139631438Y-89403308D01*
X139631439Y-89403309D01*
X139648295Y-89447757D01*
X139734857Y-89573163D01*
X139734860Y-89573166D01*
X139848921Y-89674216D01*
X139983851Y-89745032D01*
X140131808Y-89781500D01*
X140131810Y-89781500D01*
X140284190Y-89781500D01*
X140284192Y-89781500D01*
X140432149Y-89745032D01*
X140567079Y-89674216D01*
X140681140Y-89573166D01*
X140767705Y-89447756D01*
X140821741Y-89305274D01*
X140821742Y-89305266D01*
X140840109Y-89154003D01*
X140840109Y-89153996D01*
X140821742Y-89002733D01*
X140821741Y-89002729D01*
X140821741Y-89002726D01*
X140767705Y-88860244D01*
X140767703Y-88860241D01*
X140767703Y-88860240D01*
X140681142Y-88734836D01*
X140681138Y-88734832D01*
X140567078Y-88633783D01*
X140432149Y-88562968D01*
X140284194Y-88526500D01*
X140284192Y-88526500D01*
X140131808Y-88526500D01*
X140131805Y-88526500D01*
X139983850Y-88562968D01*
X139848921Y-88633783D01*
X139734861Y-88734832D01*
X139734857Y-88734836D01*
X139648295Y-88860243D01*
X139631437Y-88904692D01*
X139598649Y-88939522D01*
X139550835Y-88940966D01*
X139516005Y-88908178D01*
X139514572Y-88904720D01*
X139497705Y-88860244D01*
X139497704Y-88860241D01*
X139411142Y-88734836D01*
X139411138Y-88734832D01*
X139297078Y-88633783D01*
X139162149Y-88562968D01*
X139014194Y-88526500D01*
X139014192Y-88526500D01*
X138861808Y-88526500D01*
X138861805Y-88526500D01*
X138713850Y-88562968D01*
X138578921Y-88633783D01*
X138464861Y-88734832D01*
X138464857Y-88734836D01*
X138378295Y-88860243D01*
X138361437Y-88904692D01*
X138328649Y-88939522D01*
X138280835Y-88940966D01*
X138246005Y-88908178D01*
X138244572Y-88904720D01*
X138227705Y-88860244D01*
X138227704Y-88860241D01*
X138141142Y-88734836D01*
X138141138Y-88734832D01*
X138027078Y-88633783D01*
X137892149Y-88562968D01*
X137744194Y-88526500D01*
X137744192Y-88526500D01*
X137591808Y-88526500D01*
X137591805Y-88526500D01*
X137443850Y-88562968D01*
X137308921Y-88633783D01*
X137194861Y-88734832D01*
X137194857Y-88734836D01*
X137108296Y-88860240D01*
X137054258Y-89002729D01*
X137054257Y-89002733D01*
X137035891Y-89153996D01*
X137035891Y-89154003D01*
X101900069Y-89154003D01*
X101900410Y-88953009D01*
X101900500Y-88951894D01*
X101900500Y-88899984D01*
X101918628Y-88484793D01*
X101918866Y-88482076D01*
X101972935Y-88071378D01*
X101973398Y-88068753D01*
X102063064Y-87664296D01*
X102063768Y-87661673D01*
X102188333Y-87266599D01*
X102189255Y-87264067D01*
X102347792Y-86881324D01*
X102348918Y-86878911D01*
X102540210Y-86511443D01*
X102541547Y-86509127D01*
X102764128Y-86159744D01*
X102765689Y-86157514D01*
X102776483Y-86143448D01*
X103017869Y-85828868D01*
X103019604Y-85826800D01*
X103299474Y-85521374D01*
X103301374Y-85519474D01*
X103606800Y-85239604D01*
X103608873Y-85237865D01*
X103937520Y-84985684D01*
X103939749Y-84984125D01*
X104289127Y-84761547D01*
X104291443Y-84760210D01*
X104658911Y-84568918D01*
X104661324Y-84567792D01*
X105044067Y-84409255D01*
X105046599Y-84408333D01*
X105441677Y-84283766D01*
X105444296Y-84283064D01*
X105848753Y-84193398D01*
X105851378Y-84192935D01*
X106262086Y-84138865D01*
X106264793Y-84138628D01*
X106680000Y-84120500D01*
X106727595Y-84120500D01*
X126943827Y-84120500D01*
X147272405Y-84120500D01*
X147320000Y-84120500D01*
X147735206Y-84138628D01*
G37*
G04 #@! TD.AperFunction*
M02*
