%TF.GenerationSoftware,KiCad,Pcbnew,7.0.7*%
%TF.CreationDate,2024-02-08T13:13:34-05:00*%
%TF.ProjectId,UMRT_FC_R2,554d5254-5f46-4435-9f52-322e6b696361,rev?*%
%TF.SameCoordinates,Original*%
%TF.FileFunction,Drillmap*%
%TF.FilePolarity,Positive*%
%FSLAX45Y45*%
G04 Gerber Fmt 4.5, Leading zero omitted, Abs format (unit mm)*
G04 Created by KiCad (PCBNEW 7.0.7) date 2024-02-08 13:13:34*
%MOMM*%
%LPD*%
G01*
G04 APERTURE LIST*
%ADD10C,0.100000*%
%ADD11C,0.200000*%
%ADD12C,0.020000*%
%ADD13C,0.040000*%
%ADD14C,0.050000*%
%ADD15C,0.065000*%
%ADD16C,0.130000*%
%ADD17C,0.240000*%
%ADD18C,0.270000*%
%ADD19C,0.320000*%
G04 APERTURE END LIST*
D10*
X12700000Y-14478000D02*
X14732000Y-14478000D01*
X9652000Y-12192000D02*
X9649849Y-11554849D01*
X10160000Y-8890000D02*
X10157849Y-10157849D01*
X12700000Y-8382000D02*
X14732000Y-8382000D01*
X10160000Y-13970000D02*
X10160000Y-12954000D01*
X12700000Y-8382000D02*
X10668000Y-8382000D01*
X10046257Y-10427257D02*
G75*
G03*
X10157849Y-10157849I-269407J269407D01*
G01*
X9649849Y-10919849D02*
X9649849Y-11554849D01*
X15240000Y-8890000D02*
G75*
G03*
X14732000Y-8382000I-508000J0D01*
G01*
X9651999Y-12192000D02*
G75*
G03*
X9767894Y-12457106I396411J15410D01*
G01*
X10668000Y-8382000D02*
G75*
G03*
X10160000Y-8890000I0J-508000D01*
G01*
X10160000Y-12954000D02*
G75*
G03*
X10048408Y-12684592I-381000J0D01*
G01*
X15240000Y-8890000D02*
X15240000Y-13970000D01*
X12700000Y-14478000D02*
X10668000Y-14478000D01*
X10160000Y-13970000D02*
G75*
G03*
X10668000Y-14478000I508000J0D01*
G01*
X9767894Y-12457106D02*
X10048408Y-12684592D01*
X9765743Y-10654743D02*
X10046257Y-10427257D01*
X14732000Y-14478000D02*
G75*
G03*
X15240000Y-13970000I0J508000D01*
G01*
X9765744Y-10654744D02*
G75*
G03*
X9649849Y-10919849I280516J-280516D01*
G01*
D11*
D12*
X9946800Y-11851800D02*
X9966800Y-11871800D01*
X9966800Y-11851800D02*
X9946800Y-11871800D01*
X9997600Y-10886600D02*
X10017600Y-10906600D01*
X10017600Y-10886600D02*
X9997600Y-10906600D01*
X10023000Y-11966100D02*
X10043000Y-11986100D01*
X10043000Y-11966100D02*
X10023000Y-11986100D01*
X10175400Y-10531000D02*
X10195400Y-10551000D01*
X10195400Y-10531000D02*
X10175400Y-10551000D01*
X10332880Y-11247280D02*
X10352880Y-11267280D01*
X10352880Y-11247280D02*
X10332880Y-11267280D01*
X10518300Y-11280300D02*
X10538300Y-11300300D01*
X10538300Y-11280300D02*
X10518300Y-11300300D01*
X10581800Y-11318400D02*
X10601800Y-11338400D01*
X10601800Y-11318400D02*
X10581800Y-11338400D01*
X10708800Y-11851800D02*
X10728800Y-11871800D01*
X10728800Y-11851800D02*
X10708800Y-11871800D01*
X10734200Y-10721500D02*
X10754200Y-10741500D01*
X10754200Y-10721500D02*
X10734200Y-10741500D01*
X10734200Y-11026300D02*
X10754200Y-11046300D01*
X10754200Y-11026300D02*
X10734200Y-11046300D01*
X10823100Y-11635900D02*
X10843100Y-11655900D01*
X10843100Y-11635900D02*
X10823100Y-11655900D01*
X11191400Y-12220100D02*
X11211400Y-12240100D01*
X11211400Y-12220100D02*
X11191400Y-12240100D01*
X11445400Y-10010300D02*
X11465400Y-10030300D01*
X11465400Y-10010300D02*
X11445400Y-10030300D01*
X11470800Y-11356500D02*
X11490800Y-11376500D01*
X11490800Y-11356500D02*
X11470800Y-11376500D01*
X11534300Y-11597800D02*
X11554300Y-11617800D01*
X11554300Y-11597800D02*
X11534300Y-11617800D01*
X11597800Y-11343800D02*
X11617800Y-11363800D01*
X11617800Y-11343800D02*
X11597800Y-11363800D01*
X11699400Y-11458100D02*
X11719400Y-11478100D01*
X11719400Y-11458100D02*
X11699400Y-11478100D01*
X11724800Y-11547000D02*
X11744800Y-11567000D01*
X11744800Y-11547000D02*
X11724800Y-11567000D01*
X11750200Y-10391300D02*
X11770200Y-10411300D01*
X11770200Y-10391300D02*
X11750200Y-10411300D01*
X11762900Y-11229500D02*
X11782900Y-11249500D01*
X11782900Y-11229500D02*
X11762900Y-11249500D01*
X11788300Y-13071000D02*
X11808300Y-13091000D01*
X11808300Y-13071000D02*
X11788300Y-13091000D01*
X11851800Y-10569100D02*
X11871800Y-10589100D01*
X11871800Y-10569100D02*
X11851800Y-10589100D01*
X11851800Y-11572400D02*
X11871800Y-11592400D01*
X11871800Y-11572400D02*
X11851800Y-11592400D01*
X11864500Y-11216800D02*
X11884500Y-11236800D01*
X11884500Y-11216800D02*
X11864500Y-11236800D01*
X11864500Y-12880500D02*
X11884500Y-12900500D01*
X11884500Y-12880500D02*
X11864500Y-12900500D01*
X11928000Y-11648600D02*
X11948000Y-11668600D01*
X11948000Y-11648600D02*
X11928000Y-11668600D01*
X11940700Y-10556400D02*
X11960700Y-10576400D01*
X11960700Y-10556400D02*
X11940700Y-10576400D01*
X11991500Y-12270900D02*
X12011500Y-12290900D01*
X12011500Y-12270900D02*
X11991500Y-12290900D01*
X12016900Y-10607200D02*
X12036900Y-10627200D01*
X12036900Y-10607200D02*
X12016900Y-10627200D01*
X12093100Y-12270900D02*
X12113100Y-12290900D01*
X12113100Y-12270900D02*
X12093100Y-12290900D01*
X12143900Y-10950100D02*
X12163900Y-10970100D01*
X12163900Y-10950100D02*
X12143900Y-10970100D01*
X12169300Y-10772300D02*
X12189300Y-10792300D01*
X12189300Y-10772300D02*
X12169300Y-10792300D01*
X12194700Y-10899300D02*
X12214700Y-10919300D01*
X12214700Y-10899300D02*
X12194700Y-10919300D01*
X12194700Y-12270900D02*
X12214700Y-12290900D01*
X12214700Y-12270900D02*
X12194700Y-12290900D01*
X12207400Y-11788300D02*
X12227400Y-11808300D01*
X12227400Y-11788300D02*
X12207400Y-11808300D01*
X12245500Y-10848500D02*
X12265500Y-10868500D01*
X12265500Y-10848500D02*
X12245500Y-10868500D01*
X12270900Y-12270900D02*
X12290900Y-12290900D01*
X12290900Y-12270900D02*
X12270900Y-12290900D01*
X12347100Y-10861200D02*
X12367100Y-10881200D01*
X12367100Y-10861200D02*
X12347100Y-10881200D01*
X12423300Y-10861200D02*
X12443300Y-10881200D01*
X12443300Y-10861200D02*
X12423300Y-10881200D01*
X12423300Y-11394600D02*
X12443300Y-11414600D01*
X12443300Y-11394600D02*
X12423300Y-11414600D01*
X12461400Y-10797700D02*
X12481400Y-10817700D01*
X12481400Y-10797700D02*
X12461400Y-10817700D01*
X12537600Y-11597800D02*
X12557600Y-11617800D01*
X12557600Y-11597800D02*
X12537600Y-11617800D01*
X12613800Y-11597800D02*
X12633800Y-11617800D01*
X12633800Y-11597800D02*
X12613800Y-11617800D01*
X12626500Y-12753500D02*
X12646500Y-12773500D01*
X12646500Y-12753500D02*
X12626500Y-12773500D01*
X12791600Y-11458100D02*
X12811600Y-11478100D01*
X12811600Y-11458100D02*
X12791600Y-11478100D01*
X12842400Y-12283600D02*
X12862400Y-12303600D01*
X12862400Y-12283600D02*
X12842400Y-12303600D01*
X12944000Y-12283600D02*
X12964000Y-12303600D01*
X12964000Y-12283600D02*
X12944000Y-12303600D01*
X13045600Y-12283600D02*
X13065600Y-12303600D01*
X13065600Y-12283600D02*
X13045600Y-12303600D01*
X13083700Y-11750200D02*
X13103700Y-11770200D01*
X13103700Y-11750200D02*
X13083700Y-11770200D01*
X13121800Y-11013600D02*
X13141800Y-11033600D01*
X13141800Y-11013600D02*
X13121800Y-11033600D01*
X13134500Y-11089800D02*
X13154500Y-11109800D01*
X13154500Y-11089800D02*
X13134500Y-11109800D01*
X13159900Y-11750200D02*
X13179900Y-11770200D01*
X13179900Y-11750200D02*
X13159900Y-11770200D01*
X13210700Y-12296300D02*
X13230700Y-12316300D01*
X13230700Y-12296300D02*
X13210700Y-12316300D01*
X13274200Y-11458100D02*
X13294200Y-11478100D01*
X13294200Y-11458100D02*
X13274200Y-11478100D01*
X13286900Y-11216800D02*
X13306900Y-11236800D01*
X13306900Y-11216800D02*
X13286900Y-11236800D01*
X13286900Y-12296300D02*
X13306900Y-12316300D01*
X13306900Y-12296300D02*
X13286900Y-12316300D01*
X13439300Y-11470800D02*
X13459300Y-11490800D01*
X13459300Y-11470800D02*
X13439300Y-11490800D01*
X13439300Y-11597800D02*
X13459300Y-11617800D01*
X13459300Y-11597800D02*
X13439300Y-11617800D01*
X13591700Y-9235600D02*
X13611700Y-9255600D01*
X13611700Y-9235600D02*
X13591700Y-9255600D01*
X13604400Y-10238900D02*
X13624400Y-10258900D01*
X13624400Y-10238900D02*
X13604400Y-10258900D01*
X13604400Y-10340500D02*
X13624400Y-10360500D01*
X13624400Y-10340500D02*
X13604400Y-10360500D01*
X13655200Y-10289700D02*
X13675200Y-10309700D01*
X13675200Y-10289700D02*
X13655200Y-10309700D01*
X13680600Y-10010300D02*
X13700600Y-10030300D01*
X13700600Y-10010300D02*
X13680600Y-10030300D01*
X13706000Y-10238900D02*
X13726000Y-10258900D01*
X13726000Y-10238900D02*
X13706000Y-10258900D01*
X13706000Y-10340500D02*
X13726000Y-10360500D01*
X13726000Y-10340500D02*
X13706000Y-10360500D01*
X13731400Y-10061100D02*
X13751400Y-10081100D01*
X13751400Y-10061100D02*
X13731400Y-10081100D01*
X13756800Y-10289700D02*
X13776800Y-10309700D01*
X13776800Y-10289700D02*
X13756800Y-10309700D01*
X13782200Y-10111900D02*
X13802200Y-10131900D01*
X13802200Y-10111900D02*
X13782200Y-10131900D01*
X13807600Y-10238900D02*
X13827600Y-10258900D01*
X13827600Y-10238900D02*
X13807600Y-10258900D01*
X13807600Y-10340500D02*
X13827600Y-10360500D01*
X13827600Y-10340500D02*
X13807600Y-10360500D01*
X13896500Y-9781700D02*
X13916500Y-9801700D01*
X13916500Y-9781700D02*
X13896500Y-9801700D01*
X13947300Y-9730900D02*
X13967300Y-9750900D01*
X13967300Y-9730900D02*
X13947300Y-9750900D01*
X13998100Y-9781700D02*
X14018100Y-9801700D01*
X14018100Y-9781700D02*
X13998100Y-9801700D01*
X14023500Y-12613800D02*
X14043500Y-12633800D01*
X14043500Y-12613800D02*
X14023500Y-12633800D01*
X14023500Y-12715400D02*
X14043500Y-12735400D01*
X14043500Y-12715400D02*
X14023500Y-12735400D01*
X14074300Y-12664600D02*
X14094300Y-12684600D01*
X14094300Y-12664600D02*
X14074300Y-12684600D01*
X14125100Y-12613800D02*
X14145100Y-12633800D01*
X14145100Y-12613800D02*
X14125100Y-12633800D01*
X14125100Y-12715400D02*
X14145100Y-12735400D01*
X14145100Y-12715400D02*
X14125100Y-12735400D01*
X14150500Y-9400700D02*
X14170500Y-9420700D01*
X14170500Y-9400700D02*
X14150500Y-9420700D01*
X14214000Y-9362600D02*
X14234000Y-9382600D01*
X14234000Y-9362600D02*
X14214000Y-9382600D01*
X14277500Y-9400700D02*
X14297500Y-9420700D01*
X14297500Y-9400700D02*
X14277500Y-9420700D01*
X14976000Y-13350400D02*
X14996000Y-13370400D01*
X14996000Y-13350400D02*
X14976000Y-13370400D01*
D13*
X14739300Y-9499600D02*
G75*
G03*
X14739300Y-9499600I-20000J0D01*
G01*
X14752000Y-10426700D02*
G75*
G03*
X14752000Y-10426700I-20000J0D01*
G01*
X14752000Y-10541000D02*
G75*
G03*
X14752000Y-10541000I-20000J0D01*
G01*
X14790100Y-9588500D02*
G75*
G03*
X14790100Y-9588500I-20000J0D01*
G01*
X14840900Y-9499600D02*
G75*
G03*
X14840900Y-9499600I-20000J0D01*
G01*
X14840900Y-12865100D02*
G75*
G03*
X14840900Y-12865100I-20000J0D01*
G01*
X14853600Y-13335000D02*
G75*
G03*
X14853600Y-13335000I-20000J0D01*
G01*
X14853600Y-13436600D02*
G75*
G03*
X14853600Y-13436600I-20000J0D01*
G01*
X14929800Y-12827000D02*
G75*
G03*
X14929800Y-12827000I-20000J0D01*
G01*
X15018700Y-12865100D02*
G75*
G03*
X15018700Y-12865100I-20000J0D01*
G01*
D14*
X10428000Y-8865000D02*
X10428000Y-8915000D01*
X10403000Y-8890000D02*
X10453000Y-8890000D01*
X10428000Y-13945000D02*
X10428000Y-13995000D01*
X10403000Y-13970000D02*
X10453000Y-13970000D01*
X10498294Y-8695294D02*
X10498294Y-8745294D01*
X10473294Y-8720294D02*
X10523294Y-8720294D01*
X10498294Y-9034706D02*
X10498294Y-9084706D01*
X10473294Y-9059706D02*
X10523294Y-9059706D01*
X10498294Y-13775294D02*
X10498294Y-13825294D01*
X10473294Y-13800294D02*
X10523294Y-13800294D01*
X10498294Y-14114706D02*
X10498294Y-14164706D01*
X10473294Y-14139706D02*
X10523294Y-14139706D01*
X10668000Y-8625000D02*
X10668000Y-8675000D01*
X10643000Y-8650000D02*
X10693000Y-8650000D01*
X10668000Y-9105000D02*
X10668000Y-9155000D01*
X10643000Y-9130000D02*
X10693000Y-9130000D01*
X10668000Y-13705000D02*
X10668000Y-13755000D01*
X10643000Y-13730000D02*
X10693000Y-13730000D01*
X10668000Y-14185000D02*
X10668000Y-14235000D01*
X10643000Y-14210000D02*
X10693000Y-14210000D01*
X10837706Y-8695294D02*
X10837706Y-8745294D01*
X10812706Y-8720294D02*
X10862706Y-8720294D01*
X10837706Y-9034706D02*
X10837706Y-9084706D01*
X10812706Y-9059706D02*
X10862706Y-9059706D01*
X10837706Y-13775294D02*
X10837706Y-13825294D01*
X10812706Y-13800294D02*
X10862706Y-13800294D01*
X10837706Y-14114706D02*
X10837706Y-14164706D01*
X10812706Y-14139706D02*
X10862706Y-14139706D01*
X10908000Y-8865000D02*
X10908000Y-8915000D01*
X10883000Y-8890000D02*
X10933000Y-8890000D01*
X10908000Y-13945000D02*
X10908000Y-13995000D01*
X10883000Y-13970000D02*
X10933000Y-13970000D01*
X14492000Y-8865000D02*
X14492000Y-8915000D01*
X14467000Y-8890000D02*
X14517000Y-8890000D01*
X14492000Y-13945000D02*
X14492000Y-13995000D01*
X14467000Y-13970000D02*
X14517000Y-13970000D01*
X14562294Y-8695294D02*
X14562294Y-8745294D01*
X14537294Y-8720294D02*
X14587294Y-8720294D01*
X14562294Y-9034706D02*
X14562294Y-9084706D01*
X14537294Y-9059706D02*
X14587294Y-9059706D01*
X14562294Y-13775294D02*
X14562294Y-13825294D01*
X14537294Y-13800294D02*
X14587294Y-13800294D01*
X14562294Y-14114706D02*
X14562294Y-14164706D01*
X14537294Y-14139706D02*
X14587294Y-14139706D01*
X14732000Y-8625000D02*
X14732000Y-8675000D01*
X14707000Y-8650000D02*
X14757000Y-8650000D01*
X14732000Y-9105000D02*
X14732000Y-9155000D01*
X14707000Y-9130000D02*
X14757000Y-9130000D01*
X14732000Y-13705000D02*
X14732000Y-13755000D01*
X14707000Y-13730000D02*
X14757000Y-13730000D01*
X14732000Y-14185000D02*
X14732000Y-14235000D01*
X14707000Y-14210000D02*
X14757000Y-14210000D01*
X14901706Y-8695294D02*
X14901706Y-8745294D01*
X14876706Y-8720294D02*
X14926706Y-8720294D01*
X14901706Y-9034706D02*
X14901706Y-9084706D01*
X14876706Y-9059706D02*
X14926706Y-9059706D01*
X14901706Y-13775294D02*
X14901706Y-13825294D01*
X14876706Y-13800294D02*
X14926706Y-13800294D01*
X14901706Y-14114706D02*
X14901706Y-14164706D01*
X14876706Y-14139706D02*
X14926706Y-14139706D01*
X14972000Y-8865000D02*
X14972000Y-8915000D01*
X14947000Y-8890000D02*
X14997000Y-8890000D01*
X14972000Y-13945000D02*
X14972000Y-13995000D01*
X14947000Y-13970000D02*
X14997000Y-13970000D01*
D15*
X13789781Y-8938381D02*
X13789781Y-8892419D01*
X13743819Y-8892419D01*
X13743819Y-8938381D01*
X13789781Y-8938381D01*
X13916781Y-8938381D02*
X13916781Y-8892419D01*
X13870819Y-8892419D01*
X13870819Y-8938381D01*
X13916781Y-8938381D01*
X14043781Y-8938381D02*
X14043781Y-8892419D01*
X13997819Y-8892419D01*
X13997819Y-8938381D01*
X14043781Y-8938381D01*
X14170781Y-8938381D02*
X14170781Y-8892419D01*
X14124819Y-8892419D01*
X14124819Y-8938381D01*
X14170781Y-8938381D01*
D10*
X11531600Y-12876500D02*
X11581600Y-12826500D01*
X11531600Y-12776500D01*
X11481600Y-12826500D01*
X11531600Y-12876500D01*
X11531600Y-13130500D02*
X11581600Y-13080500D01*
X11531600Y-13030500D01*
X11481600Y-13080500D01*
X11531600Y-13130500D01*
X11938000Y-9067000D02*
X11988000Y-9017000D01*
X11938000Y-8967000D01*
X11888000Y-9017000D01*
X11938000Y-9067000D01*
X11938000Y-13893000D02*
X11988000Y-13843000D01*
X11938000Y-13793000D01*
X11888000Y-13843000D01*
X11938000Y-13893000D01*
X12192000Y-9067000D02*
X12242000Y-9017000D01*
X12192000Y-8967000D01*
X12142000Y-9017000D01*
X12192000Y-9067000D01*
X12192000Y-13893000D02*
X12242000Y-13843000D01*
X12192000Y-13793000D01*
X12142000Y-13843000D01*
X12192000Y-13893000D01*
X12446000Y-9067000D02*
X12496000Y-9017000D01*
X12446000Y-8967000D01*
X12396000Y-9017000D01*
X12446000Y-9067000D01*
X12446000Y-13893000D02*
X12496000Y-13843000D01*
X12446000Y-13793000D01*
X12396000Y-13843000D01*
X12446000Y-13893000D01*
X12954000Y-9067000D02*
X13004000Y-9017000D01*
X12954000Y-8967000D01*
X12904000Y-9017000D01*
X12954000Y-9067000D01*
X12954000Y-13893000D02*
X13004000Y-13843000D01*
X12954000Y-13793000D01*
X12904000Y-13843000D01*
X12954000Y-13893000D01*
X13208000Y-9067000D02*
X13258000Y-9017000D01*
X13208000Y-8967000D01*
X13158000Y-9017000D01*
X13208000Y-9067000D01*
X13208000Y-13893000D02*
X13258000Y-13843000D01*
X13208000Y-13793000D01*
X13158000Y-13843000D01*
X13208000Y-13893000D01*
X13462000Y-9067000D02*
X13512000Y-9017000D01*
X13462000Y-8967000D01*
X13412000Y-9017000D01*
X13462000Y-9067000D01*
X13462000Y-13893000D02*
X13512000Y-13843000D01*
X13462000Y-13793000D01*
X13412000Y-13843000D01*
X13462000Y-13893000D01*
D16*
X10666500Y-9460000D02*
X10796500Y-9590000D01*
X10796500Y-9460000D02*
X10666500Y-9590000D01*
X10796500Y-9525000D02*
G75*
G03*
X10796500Y-9525000I-65000J0D01*
G01*
X10666500Y-9714000D02*
X10796500Y-9844000D01*
X10796500Y-9714000D02*
X10666500Y-9844000D01*
X10796500Y-9779000D02*
G75*
G03*
X10796500Y-9779000I-65000J0D01*
G01*
X10666500Y-9968000D02*
X10796500Y-10098000D01*
X10796500Y-9968000D02*
X10666500Y-10098000D01*
X10796500Y-10033000D02*
G75*
G03*
X10796500Y-10033000I-65000J0D01*
G01*
X10666500Y-10222000D02*
X10796500Y-10352000D01*
X10796500Y-10222000D02*
X10666500Y-10352000D01*
X10796500Y-10287000D02*
G75*
G03*
X10796500Y-10287000I-65000J0D01*
G01*
X10666500Y-12508000D02*
X10796500Y-12638000D01*
X10796500Y-12508000D02*
X10666500Y-12638000D01*
X10796500Y-12573000D02*
G75*
G03*
X10796500Y-12573000I-65000J0D01*
G01*
X10666500Y-12762000D02*
X10796500Y-12892000D01*
X10796500Y-12762000D02*
X10666500Y-12892000D01*
X10796500Y-12827000D02*
G75*
G03*
X10796500Y-12827000I-65000J0D01*
G01*
X10666500Y-13016000D02*
X10796500Y-13146000D01*
X10796500Y-13016000D02*
X10666500Y-13146000D01*
X10796500Y-13081000D02*
G75*
G03*
X10796500Y-13081000I-65000J0D01*
G01*
X10666500Y-13270000D02*
X10796500Y-13400000D01*
X10796500Y-13270000D02*
X10666500Y-13400000D01*
X10796500Y-13335000D02*
G75*
G03*
X10796500Y-13335000I-65000J0D01*
G01*
X14311400Y-10984000D02*
X14441400Y-11114000D01*
X14441400Y-10984000D02*
X14311400Y-11114000D01*
X14441400Y-11049000D02*
G75*
G03*
X14441400Y-11049000I-65000J0D01*
G01*
X14311400Y-11238000D02*
X14441400Y-11368000D01*
X14441400Y-11238000D02*
X14311400Y-11368000D01*
X14441400Y-11303000D02*
G75*
G03*
X14441400Y-11303000I-65000J0D01*
G01*
X14311400Y-11492000D02*
X14441400Y-11622000D01*
X14441400Y-11492000D02*
X14311400Y-11622000D01*
X14441400Y-11557000D02*
G75*
G03*
X14441400Y-11557000I-65000J0D01*
G01*
X14311400Y-11746000D02*
X14441400Y-11876000D01*
X14441400Y-11746000D02*
X14311400Y-11876000D01*
X14441400Y-11811000D02*
G75*
G03*
X14441400Y-11811000I-65000J0D01*
G01*
D17*
X11500500Y-10548000D02*
X11740500Y-10788000D01*
X11740500Y-10548000D02*
X11500500Y-10788000D01*
X11620500Y-10548000D02*
X11620500Y-10788000D01*
X11500500Y-10668000D02*
X11740500Y-10668000D01*
X11500500Y-12072000D02*
X11740500Y-12312000D01*
X11740500Y-12072000D02*
X11500500Y-12312000D01*
X11620500Y-12072000D02*
X11620500Y-12312000D01*
X11500500Y-12192000D02*
X11740500Y-12192000D01*
X13659500Y-10548000D02*
X13899500Y-10788000D01*
X13899500Y-10548000D02*
X13659500Y-10788000D01*
X13779500Y-10548000D02*
X13779500Y-10788000D01*
X13659500Y-10668000D02*
X13899500Y-10668000D01*
X13659500Y-12072000D02*
X13899500Y-12312000D01*
X13899500Y-12072000D02*
X13659500Y-12312000D01*
X13779500Y-12072000D02*
X13779500Y-12312000D01*
X13659500Y-12192000D02*
X13899500Y-12192000D01*
D18*
X11320400Y-8568500D02*
X11590400Y-8838500D01*
X11590400Y-8568500D02*
X11320400Y-8838500D01*
X11550860Y-8798960D02*
X11550860Y-8608040D01*
X11359940Y-8608040D01*
X11359940Y-8798960D01*
X11550860Y-8798960D01*
X11320400Y-9068500D02*
X11590400Y-9338500D01*
X11590400Y-9068500D02*
X11320400Y-9338500D01*
X11550860Y-9298960D02*
X11550860Y-9108040D01*
X11359940Y-9108040D01*
X11359940Y-9298960D01*
X11550860Y-9298960D01*
D19*
X10508000Y-8730000D02*
X10828000Y-9050000D01*
X10828000Y-8730000D02*
X10508000Y-9050000D01*
X10668000Y-9050000D02*
X10828000Y-8890000D01*
X10668000Y-8730000D01*
X10508000Y-8890000D01*
X10668000Y-9050000D01*
X10508000Y-13810000D02*
X10828000Y-14130000D01*
X10828000Y-13810000D02*
X10508000Y-14130000D01*
X10668000Y-14130000D02*
X10828000Y-13970000D01*
X10668000Y-13810000D01*
X10508000Y-13970000D01*
X10668000Y-14130000D01*
X14572000Y-8730000D02*
X14892000Y-9050000D01*
X14892000Y-8730000D02*
X14572000Y-9050000D01*
X14732000Y-9050000D02*
X14892000Y-8890000D01*
X14732000Y-8730000D01*
X14572000Y-8890000D01*
X14732000Y-9050000D01*
X14572000Y-13810000D02*
X14892000Y-14130000D01*
X14892000Y-13810000D02*
X14572000Y-14130000D01*
X14732000Y-14130000D02*
X14892000Y-13970000D01*
X14732000Y-13810000D01*
X14572000Y-13970000D01*
X14732000Y-14130000D01*
D11*
X9905626Y-14794484D02*
X9905626Y-14594484D01*
X9905626Y-14594484D02*
X9953245Y-14594484D01*
X9953245Y-14594484D02*
X9981817Y-14604008D01*
X9981817Y-14604008D02*
X10000864Y-14623055D01*
X10000864Y-14623055D02*
X10010388Y-14642103D01*
X10010388Y-14642103D02*
X10019912Y-14680198D01*
X10019912Y-14680198D02*
X10019912Y-14708769D01*
X10019912Y-14708769D02*
X10010388Y-14746865D01*
X10010388Y-14746865D02*
X10000864Y-14765912D01*
X10000864Y-14765912D02*
X9981817Y-14784960D01*
X9981817Y-14784960D02*
X9953245Y-14794484D01*
X9953245Y-14794484D02*
X9905626Y-14794484D01*
X10105626Y-14794484D02*
X10105626Y-14661150D01*
X10105626Y-14699246D02*
X10115150Y-14680198D01*
X10115150Y-14680198D02*
X10124674Y-14670674D01*
X10124674Y-14670674D02*
X10143721Y-14661150D01*
X10143721Y-14661150D02*
X10162769Y-14661150D01*
X10229436Y-14794484D02*
X10229436Y-14661150D01*
X10229436Y-14594484D02*
X10219912Y-14604008D01*
X10219912Y-14604008D02*
X10229436Y-14613531D01*
X10229436Y-14613531D02*
X10238960Y-14604008D01*
X10238960Y-14604008D02*
X10229436Y-14594484D01*
X10229436Y-14594484D02*
X10229436Y-14613531D01*
X10353245Y-14794484D02*
X10334198Y-14784960D01*
X10334198Y-14784960D02*
X10324674Y-14765912D01*
X10324674Y-14765912D02*
X10324674Y-14594484D01*
X10458007Y-14794484D02*
X10438960Y-14784960D01*
X10438960Y-14784960D02*
X10429436Y-14765912D01*
X10429436Y-14765912D02*
X10429436Y-14594484D01*
X10686579Y-14794484D02*
X10686579Y-14594484D01*
X10686579Y-14594484D02*
X10753245Y-14737341D01*
X10753245Y-14737341D02*
X10819912Y-14594484D01*
X10819912Y-14594484D02*
X10819912Y-14794484D01*
X11000864Y-14794484D02*
X11000864Y-14689722D01*
X11000864Y-14689722D02*
X10991341Y-14670674D01*
X10991341Y-14670674D02*
X10972293Y-14661150D01*
X10972293Y-14661150D02*
X10934198Y-14661150D01*
X10934198Y-14661150D02*
X10915150Y-14670674D01*
X11000864Y-14784960D02*
X10981817Y-14794484D01*
X10981817Y-14794484D02*
X10934198Y-14794484D01*
X10934198Y-14794484D02*
X10915150Y-14784960D01*
X10915150Y-14784960D02*
X10905626Y-14765912D01*
X10905626Y-14765912D02*
X10905626Y-14746865D01*
X10905626Y-14746865D02*
X10915150Y-14727817D01*
X10915150Y-14727817D02*
X10934198Y-14718293D01*
X10934198Y-14718293D02*
X10981817Y-14718293D01*
X10981817Y-14718293D02*
X11000864Y-14708769D01*
X11096102Y-14661150D02*
X11096102Y-14861150D01*
X11096102Y-14670674D02*
X11115150Y-14661150D01*
X11115150Y-14661150D02*
X11153245Y-14661150D01*
X11153245Y-14661150D02*
X11172293Y-14670674D01*
X11172293Y-14670674D02*
X11181817Y-14680198D01*
X11181817Y-14680198D02*
X11191340Y-14699246D01*
X11191340Y-14699246D02*
X11191340Y-14756388D01*
X11191340Y-14756388D02*
X11181817Y-14775436D01*
X11181817Y-14775436D02*
X11172293Y-14784960D01*
X11172293Y-14784960D02*
X11153245Y-14794484D01*
X11153245Y-14794484D02*
X11115150Y-14794484D01*
X11115150Y-14794484D02*
X11096102Y-14784960D01*
X11277055Y-14775436D02*
X11286579Y-14784960D01*
X11286579Y-14784960D02*
X11277055Y-14794484D01*
X11277055Y-14794484D02*
X11267531Y-14784960D01*
X11267531Y-14784960D02*
X11277055Y-14775436D01*
X11277055Y-14775436D02*
X11277055Y-14794484D01*
X11277055Y-14670674D02*
X11286579Y-14680198D01*
X11286579Y-14680198D02*
X11277055Y-14689722D01*
X11277055Y-14689722D02*
X11267531Y-14680198D01*
X11267531Y-14680198D02*
X11277055Y-14670674D01*
X11277055Y-14670674D02*
X11277055Y-14689722D01*
D12*
X9624849Y-15113000D02*
X9644849Y-15133000D01*
X9644849Y-15113000D02*
X9624849Y-15133000D01*
D11*
X9943721Y-15014484D02*
X9962769Y-15014484D01*
X9962769Y-15014484D02*
X9981817Y-15024008D01*
X9981817Y-15024008D02*
X9991341Y-15033531D01*
X9991341Y-15033531D02*
X10000864Y-15052579D01*
X10000864Y-15052579D02*
X10010388Y-15090674D01*
X10010388Y-15090674D02*
X10010388Y-15138293D01*
X10010388Y-15138293D02*
X10000864Y-15176388D01*
X10000864Y-15176388D02*
X9991341Y-15195436D01*
X9991341Y-15195436D02*
X9981817Y-15204960D01*
X9981817Y-15204960D02*
X9962769Y-15214484D01*
X9962769Y-15214484D02*
X9943721Y-15214484D01*
X9943721Y-15214484D02*
X9924674Y-15204960D01*
X9924674Y-15204960D02*
X9915150Y-15195436D01*
X9915150Y-15195436D02*
X9905626Y-15176388D01*
X9905626Y-15176388D02*
X9896102Y-15138293D01*
X9896102Y-15138293D02*
X9896102Y-15090674D01*
X9896102Y-15090674D02*
X9905626Y-15052579D01*
X9905626Y-15052579D02*
X9915150Y-15033531D01*
X9915150Y-15033531D02*
X9924674Y-15024008D01*
X9924674Y-15024008D02*
X9943721Y-15014484D01*
X10096102Y-15195436D02*
X10105626Y-15204960D01*
X10105626Y-15204960D02*
X10096102Y-15214484D01*
X10096102Y-15214484D02*
X10086579Y-15204960D01*
X10086579Y-15204960D02*
X10096102Y-15195436D01*
X10096102Y-15195436D02*
X10096102Y-15214484D01*
X10181817Y-15033531D02*
X10191341Y-15024008D01*
X10191341Y-15024008D02*
X10210388Y-15014484D01*
X10210388Y-15014484D02*
X10258007Y-15014484D01*
X10258007Y-15014484D02*
X10277055Y-15024008D01*
X10277055Y-15024008D02*
X10286579Y-15033531D01*
X10286579Y-15033531D02*
X10296102Y-15052579D01*
X10296102Y-15052579D02*
X10296102Y-15071627D01*
X10296102Y-15071627D02*
X10286579Y-15100198D01*
X10286579Y-15100198D02*
X10172293Y-15214484D01*
X10172293Y-15214484D02*
X10296102Y-15214484D01*
X10419912Y-15014484D02*
X10438960Y-15014484D01*
X10438960Y-15014484D02*
X10458007Y-15024008D01*
X10458007Y-15024008D02*
X10467531Y-15033531D01*
X10467531Y-15033531D02*
X10477055Y-15052579D01*
X10477055Y-15052579D02*
X10486579Y-15090674D01*
X10486579Y-15090674D02*
X10486579Y-15138293D01*
X10486579Y-15138293D02*
X10477055Y-15176388D01*
X10477055Y-15176388D02*
X10467531Y-15195436D01*
X10467531Y-15195436D02*
X10458007Y-15204960D01*
X10458007Y-15204960D02*
X10438960Y-15214484D01*
X10438960Y-15214484D02*
X10419912Y-15214484D01*
X10419912Y-15214484D02*
X10400864Y-15204960D01*
X10400864Y-15204960D02*
X10391341Y-15195436D01*
X10391341Y-15195436D02*
X10381817Y-15176388D01*
X10381817Y-15176388D02*
X10372293Y-15138293D01*
X10372293Y-15138293D02*
X10372293Y-15090674D01*
X10372293Y-15090674D02*
X10381817Y-15052579D01*
X10381817Y-15052579D02*
X10391341Y-15033531D01*
X10391341Y-15033531D02*
X10400864Y-15024008D01*
X10400864Y-15024008D02*
X10419912Y-15014484D01*
X10610388Y-15014484D02*
X10629436Y-15014484D01*
X10629436Y-15014484D02*
X10648483Y-15024008D01*
X10648483Y-15024008D02*
X10658007Y-15033531D01*
X10658007Y-15033531D02*
X10667531Y-15052579D01*
X10667531Y-15052579D02*
X10677055Y-15090674D01*
X10677055Y-15090674D02*
X10677055Y-15138293D01*
X10677055Y-15138293D02*
X10667531Y-15176388D01*
X10667531Y-15176388D02*
X10658007Y-15195436D01*
X10658007Y-15195436D02*
X10648483Y-15204960D01*
X10648483Y-15204960D02*
X10629436Y-15214484D01*
X10629436Y-15214484D02*
X10610388Y-15214484D01*
X10610388Y-15214484D02*
X10591341Y-15204960D01*
X10591341Y-15204960D02*
X10581817Y-15195436D01*
X10581817Y-15195436D02*
X10572293Y-15176388D01*
X10572293Y-15176388D02*
X10562769Y-15138293D01*
X10562769Y-15138293D02*
X10562769Y-15090674D01*
X10562769Y-15090674D02*
X10572293Y-15052579D01*
X10572293Y-15052579D02*
X10581817Y-15033531D01*
X10581817Y-15033531D02*
X10591341Y-15024008D01*
X10591341Y-15024008D02*
X10610388Y-15014484D01*
X10762769Y-15214484D02*
X10762769Y-15081150D01*
X10762769Y-15100198D02*
X10772293Y-15090674D01*
X10772293Y-15090674D02*
X10791341Y-15081150D01*
X10791341Y-15081150D02*
X10819912Y-15081150D01*
X10819912Y-15081150D02*
X10838960Y-15090674D01*
X10838960Y-15090674D02*
X10848483Y-15109722D01*
X10848483Y-15109722D02*
X10848483Y-15214484D01*
X10848483Y-15109722D02*
X10858007Y-15090674D01*
X10858007Y-15090674D02*
X10877055Y-15081150D01*
X10877055Y-15081150D02*
X10905626Y-15081150D01*
X10905626Y-15081150D02*
X10924674Y-15090674D01*
X10924674Y-15090674D02*
X10934198Y-15109722D01*
X10934198Y-15109722D02*
X10934198Y-15214484D01*
X11029436Y-15214484D02*
X11029436Y-15081150D01*
X11029436Y-15100198D02*
X11038960Y-15090674D01*
X11038960Y-15090674D02*
X11058007Y-15081150D01*
X11058007Y-15081150D02*
X11086579Y-15081150D01*
X11086579Y-15081150D02*
X11105626Y-15090674D01*
X11105626Y-15090674D02*
X11115150Y-15109722D01*
X11115150Y-15109722D02*
X11115150Y-15214484D01*
X11115150Y-15109722D02*
X11124674Y-15090674D01*
X11124674Y-15090674D02*
X11143722Y-15081150D01*
X11143722Y-15081150D02*
X11172293Y-15081150D01*
X11172293Y-15081150D02*
X11191341Y-15090674D01*
X11191341Y-15090674D02*
X11200864Y-15109722D01*
X11200864Y-15109722D02*
X11200864Y-15214484D01*
X11591341Y-15004960D02*
X11419912Y-15262103D01*
X11848483Y-15014484D02*
X11867531Y-15014484D01*
X11867531Y-15014484D02*
X11886579Y-15024008D01*
X11886579Y-15024008D02*
X11896103Y-15033531D01*
X11896103Y-15033531D02*
X11905626Y-15052579D01*
X11905626Y-15052579D02*
X11915150Y-15090674D01*
X11915150Y-15090674D02*
X11915150Y-15138293D01*
X11915150Y-15138293D02*
X11905626Y-15176388D01*
X11905626Y-15176388D02*
X11896103Y-15195436D01*
X11896103Y-15195436D02*
X11886579Y-15204960D01*
X11886579Y-15204960D02*
X11867531Y-15214484D01*
X11867531Y-15214484D02*
X11848483Y-15214484D01*
X11848483Y-15214484D02*
X11829436Y-15204960D01*
X11829436Y-15204960D02*
X11819912Y-15195436D01*
X11819912Y-15195436D02*
X11810388Y-15176388D01*
X11810388Y-15176388D02*
X11800864Y-15138293D01*
X11800864Y-15138293D02*
X11800864Y-15090674D01*
X11800864Y-15090674D02*
X11810388Y-15052579D01*
X11810388Y-15052579D02*
X11819912Y-15033531D01*
X11819912Y-15033531D02*
X11829436Y-15024008D01*
X11829436Y-15024008D02*
X11848483Y-15014484D01*
X12000864Y-15195436D02*
X12010388Y-15204960D01*
X12010388Y-15204960D02*
X12000864Y-15214484D01*
X12000864Y-15214484D02*
X11991341Y-15204960D01*
X11991341Y-15204960D02*
X12000864Y-15195436D01*
X12000864Y-15195436D02*
X12000864Y-15214484D01*
X12134198Y-15014484D02*
X12153245Y-15014484D01*
X12153245Y-15014484D02*
X12172293Y-15024008D01*
X12172293Y-15024008D02*
X12181817Y-15033531D01*
X12181817Y-15033531D02*
X12191341Y-15052579D01*
X12191341Y-15052579D02*
X12200864Y-15090674D01*
X12200864Y-15090674D02*
X12200864Y-15138293D01*
X12200864Y-15138293D02*
X12191341Y-15176388D01*
X12191341Y-15176388D02*
X12181817Y-15195436D01*
X12181817Y-15195436D02*
X12172293Y-15204960D01*
X12172293Y-15204960D02*
X12153245Y-15214484D01*
X12153245Y-15214484D02*
X12134198Y-15214484D01*
X12134198Y-15214484D02*
X12115150Y-15204960D01*
X12115150Y-15204960D02*
X12105626Y-15195436D01*
X12105626Y-15195436D02*
X12096103Y-15176388D01*
X12096103Y-15176388D02*
X12086579Y-15138293D01*
X12086579Y-15138293D02*
X12086579Y-15090674D01*
X12086579Y-15090674D02*
X12096103Y-15052579D01*
X12096103Y-15052579D02*
X12105626Y-15033531D01*
X12105626Y-15033531D02*
X12115150Y-15024008D01*
X12115150Y-15024008D02*
X12134198Y-15014484D01*
X12324674Y-15014484D02*
X12343722Y-15014484D01*
X12343722Y-15014484D02*
X12362769Y-15024008D01*
X12362769Y-15024008D02*
X12372293Y-15033531D01*
X12372293Y-15033531D02*
X12381817Y-15052579D01*
X12381817Y-15052579D02*
X12391341Y-15090674D01*
X12391341Y-15090674D02*
X12391341Y-15138293D01*
X12391341Y-15138293D02*
X12381817Y-15176388D01*
X12381817Y-15176388D02*
X12372293Y-15195436D01*
X12372293Y-15195436D02*
X12362769Y-15204960D01*
X12362769Y-15204960D02*
X12343722Y-15214484D01*
X12343722Y-15214484D02*
X12324674Y-15214484D01*
X12324674Y-15214484D02*
X12305626Y-15204960D01*
X12305626Y-15204960D02*
X12296103Y-15195436D01*
X12296103Y-15195436D02*
X12286579Y-15176388D01*
X12286579Y-15176388D02*
X12277055Y-15138293D01*
X12277055Y-15138293D02*
X12277055Y-15090674D01*
X12277055Y-15090674D02*
X12286579Y-15052579D01*
X12286579Y-15052579D02*
X12296103Y-15033531D01*
X12296103Y-15033531D02*
X12305626Y-15024008D01*
X12305626Y-15024008D02*
X12324674Y-15014484D01*
X12458007Y-15014484D02*
X12591341Y-15014484D01*
X12591341Y-15014484D02*
X12505626Y-15214484D01*
X12677055Y-15214484D02*
X12715150Y-15214484D01*
X12715150Y-15214484D02*
X12734198Y-15204960D01*
X12734198Y-15204960D02*
X12743722Y-15195436D01*
X12743722Y-15195436D02*
X12762769Y-15166865D01*
X12762769Y-15166865D02*
X12772293Y-15128769D01*
X12772293Y-15128769D02*
X12772293Y-15052579D01*
X12772293Y-15052579D02*
X12762769Y-15033531D01*
X12762769Y-15033531D02*
X12753245Y-15024008D01*
X12753245Y-15024008D02*
X12734198Y-15014484D01*
X12734198Y-15014484D02*
X12696103Y-15014484D01*
X12696103Y-15014484D02*
X12677055Y-15024008D01*
X12677055Y-15024008D02*
X12667531Y-15033531D01*
X12667531Y-15033531D02*
X12658007Y-15052579D01*
X12658007Y-15052579D02*
X12658007Y-15100198D01*
X12658007Y-15100198D02*
X12667531Y-15119246D01*
X12667531Y-15119246D02*
X12677055Y-15128769D01*
X12677055Y-15128769D02*
X12696103Y-15138293D01*
X12696103Y-15138293D02*
X12734198Y-15138293D01*
X12734198Y-15138293D02*
X12753245Y-15128769D01*
X12753245Y-15128769D02*
X12762769Y-15119246D01*
X12762769Y-15119246D02*
X12772293Y-15100198D01*
X12848484Y-15014484D02*
X12848484Y-15052579D01*
X12924674Y-15014484D02*
X12924674Y-15052579D01*
X13219912Y-15290674D02*
X13210388Y-15281150D01*
X13210388Y-15281150D02*
X13191341Y-15252579D01*
X13191341Y-15252579D02*
X13181817Y-15233531D01*
X13181817Y-15233531D02*
X13172293Y-15204960D01*
X13172293Y-15204960D02*
X13162769Y-15157341D01*
X13162769Y-15157341D02*
X13162769Y-15119246D01*
X13162769Y-15119246D02*
X13172293Y-15071627D01*
X13172293Y-15071627D02*
X13181817Y-15043055D01*
X13181817Y-15043055D02*
X13191341Y-15024008D01*
X13191341Y-15024008D02*
X13210388Y-14995436D01*
X13210388Y-14995436D02*
X13219912Y-14985912D01*
X13324674Y-15100198D02*
X13305626Y-15090674D01*
X13305626Y-15090674D02*
X13296103Y-15081150D01*
X13296103Y-15081150D02*
X13286579Y-15062103D01*
X13286579Y-15062103D02*
X13286579Y-15052579D01*
X13286579Y-15052579D02*
X13296103Y-15033531D01*
X13296103Y-15033531D02*
X13305626Y-15024008D01*
X13305626Y-15024008D02*
X13324674Y-15014484D01*
X13324674Y-15014484D02*
X13362769Y-15014484D01*
X13362769Y-15014484D02*
X13381817Y-15024008D01*
X13381817Y-15024008D02*
X13391341Y-15033531D01*
X13391341Y-15033531D02*
X13400865Y-15052579D01*
X13400865Y-15052579D02*
X13400865Y-15062103D01*
X13400865Y-15062103D02*
X13391341Y-15081150D01*
X13391341Y-15081150D02*
X13381817Y-15090674D01*
X13381817Y-15090674D02*
X13362769Y-15100198D01*
X13362769Y-15100198D02*
X13324674Y-15100198D01*
X13324674Y-15100198D02*
X13305626Y-15109722D01*
X13305626Y-15109722D02*
X13296103Y-15119246D01*
X13296103Y-15119246D02*
X13286579Y-15138293D01*
X13286579Y-15138293D02*
X13286579Y-15176388D01*
X13286579Y-15176388D02*
X13296103Y-15195436D01*
X13296103Y-15195436D02*
X13305626Y-15204960D01*
X13305626Y-15204960D02*
X13324674Y-15214484D01*
X13324674Y-15214484D02*
X13362769Y-15214484D01*
X13362769Y-15214484D02*
X13381817Y-15204960D01*
X13381817Y-15204960D02*
X13391341Y-15195436D01*
X13391341Y-15195436D02*
X13400865Y-15176388D01*
X13400865Y-15176388D02*
X13400865Y-15138293D01*
X13400865Y-15138293D02*
X13391341Y-15119246D01*
X13391341Y-15119246D02*
X13381817Y-15109722D01*
X13381817Y-15109722D02*
X13362769Y-15100198D01*
X13477055Y-15033531D02*
X13486579Y-15024008D01*
X13486579Y-15024008D02*
X13505626Y-15014484D01*
X13505626Y-15014484D02*
X13553246Y-15014484D01*
X13553246Y-15014484D02*
X13572293Y-15024008D01*
X13572293Y-15024008D02*
X13581817Y-15033531D01*
X13581817Y-15033531D02*
X13591341Y-15052579D01*
X13591341Y-15052579D02*
X13591341Y-15071627D01*
X13591341Y-15071627D02*
X13581817Y-15100198D01*
X13581817Y-15100198D02*
X13467531Y-15214484D01*
X13467531Y-15214484D02*
X13591341Y-15214484D01*
X13829436Y-15214484D02*
X13829436Y-15014484D01*
X13915150Y-15214484D02*
X13915150Y-15109722D01*
X13915150Y-15109722D02*
X13905627Y-15090674D01*
X13905627Y-15090674D02*
X13886579Y-15081150D01*
X13886579Y-15081150D02*
X13858007Y-15081150D01*
X13858007Y-15081150D02*
X13838960Y-15090674D01*
X13838960Y-15090674D02*
X13829436Y-15100198D01*
X14038960Y-15214484D02*
X14019912Y-15204960D01*
X14019912Y-15204960D02*
X14010388Y-15195436D01*
X14010388Y-15195436D02*
X14000865Y-15176388D01*
X14000865Y-15176388D02*
X14000865Y-15119246D01*
X14000865Y-15119246D02*
X14010388Y-15100198D01*
X14010388Y-15100198D02*
X14019912Y-15090674D01*
X14019912Y-15090674D02*
X14038960Y-15081150D01*
X14038960Y-15081150D02*
X14067531Y-15081150D01*
X14067531Y-15081150D02*
X14086579Y-15090674D01*
X14086579Y-15090674D02*
X14096103Y-15100198D01*
X14096103Y-15100198D02*
X14105627Y-15119246D01*
X14105627Y-15119246D02*
X14105627Y-15176388D01*
X14105627Y-15176388D02*
X14096103Y-15195436D01*
X14096103Y-15195436D02*
X14086579Y-15204960D01*
X14086579Y-15204960D02*
X14067531Y-15214484D01*
X14067531Y-15214484D02*
X14038960Y-15214484D01*
X14219912Y-15214484D02*
X14200865Y-15204960D01*
X14200865Y-15204960D02*
X14191341Y-15185912D01*
X14191341Y-15185912D02*
X14191341Y-15014484D01*
X14372293Y-15204960D02*
X14353246Y-15214484D01*
X14353246Y-15214484D02*
X14315150Y-15214484D01*
X14315150Y-15214484D02*
X14296103Y-15204960D01*
X14296103Y-15204960D02*
X14286579Y-15185912D01*
X14286579Y-15185912D02*
X14286579Y-15109722D01*
X14286579Y-15109722D02*
X14296103Y-15090674D01*
X14296103Y-15090674D02*
X14315150Y-15081150D01*
X14315150Y-15081150D02*
X14353246Y-15081150D01*
X14353246Y-15081150D02*
X14372293Y-15090674D01*
X14372293Y-15090674D02*
X14381817Y-15109722D01*
X14381817Y-15109722D02*
X14381817Y-15128769D01*
X14381817Y-15128769D02*
X14286579Y-15147817D01*
X14458008Y-15204960D02*
X14477055Y-15214484D01*
X14477055Y-15214484D02*
X14515150Y-15214484D01*
X14515150Y-15214484D02*
X14534198Y-15204960D01*
X14534198Y-15204960D02*
X14543722Y-15185912D01*
X14543722Y-15185912D02*
X14543722Y-15176388D01*
X14543722Y-15176388D02*
X14534198Y-15157341D01*
X14534198Y-15157341D02*
X14515150Y-15147817D01*
X14515150Y-15147817D02*
X14486579Y-15147817D01*
X14486579Y-15147817D02*
X14467531Y-15138293D01*
X14467531Y-15138293D02*
X14458008Y-15119246D01*
X14458008Y-15119246D02*
X14458008Y-15109722D01*
X14458008Y-15109722D02*
X14467531Y-15090674D01*
X14467531Y-15090674D02*
X14486579Y-15081150D01*
X14486579Y-15081150D02*
X14515150Y-15081150D01*
X14515150Y-15081150D02*
X14534198Y-15090674D01*
X14610389Y-15290674D02*
X14619912Y-15281150D01*
X14619912Y-15281150D02*
X14638960Y-15252579D01*
X14638960Y-15252579D02*
X14648484Y-15233531D01*
X14648484Y-15233531D02*
X14658008Y-15204960D01*
X14658008Y-15204960D02*
X14667531Y-15157341D01*
X14667531Y-15157341D02*
X14667531Y-15119246D01*
X14667531Y-15119246D02*
X14658008Y-15071627D01*
X14658008Y-15071627D02*
X14648484Y-15043055D01*
X14648484Y-15043055D02*
X14638960Y-15024008D01*
X14638960Y-15024008D02*
X14619912Y-14995436D01*
X14619912Y-14995436D02*
X14610389Y-14985912D01*
D13*
X9644849Y-15387000D02*
G75*
G03*
X9644849Y-15387000I-20000J0D01*
G01*
D11*
X9943721Y-15278484D02*
X9962769Y-15278484D01*
X9962769Y-15278484D02*
X9981817Y-15288008D01*
X9981817Y-15288008D02*
X9991341Y-15297531D01*
X9991341Y-15297531D02*
X10000864Y-15316579D01*
X10000864Y-15316579D02*
X10010388Y-15354674D01*
X10010388Y-15354674D02*
X10010388Y-15402293D01*
X10010388Y-15402293D02*
X10000864Y-15440388D01*
X10000864Y-15440388D02*
X9991341Y-15459436D01*
X9991341Y-15459436D02*
X9981817Y-15468960D01*
X9981817Y-15468960D02*
X9962769Y-15478484D01*
X9962769Y-15478484D02*
X9943721Y-15478484D01*
X9943721Y-15478484D02*
X9924674Y-15468960D01*
X9924674Y-15468960D02*
X9915150Y-15459436D01*
X9915150Y-15459436D02*
X9905626Y-15440388D01*
X9905626Y-15440388D02*
X9896102Y-15402293D01*
X9896102Y-15402293D02*
X9896102Y-15354674D01*
X9896102Y-15354674D02*
X9905626Y-15316579D01*
X9905626Y-15316579D02*
X9915150Y-15297531D01*
X9915150Y-15297531D02*
X9924674Y-15288008D01*
X9924674Y-15288008D02*
X9943721Y-15278484D01*
X10096102Y-15459436D02*
X10105626Y-15468960D01*
X10105626Y-15468960D02*
X10096102Y-15478484D01*
X10096102Y-15478484D02*
X10086579Y-15468960D01*
X10086579Y-15468960D02*
X10096102Y-15459436D01*
X10096102Y-15459436D02*
X10096102Y-15478484D01*
X10277055Y-15345150D02*
X10277055Y-15478484D01*
X10229436Y-15268960D02*
X10181817Y-15411817D01*
X10181817Y-15411817D02*
X10305626Y-15411817D01*
X10419912Y-15278484D02*
X10438960Y-15278484D01*
X10438960Y-15278484D02*
X10458007Y-15288008D01*
X10458007Y-15288008D02*
X10467531Y-15297531D01*
X10467531Y-15297531D02*
X10477055Y-15316579D01*
X10477055Y-15316579D02*
X10486579Y-15354674D01*
X10486579Y-15354674D02*
X10486579Y-15402293D01*
X10486579Y-15402293D02*
X10477055Y-15440388D01*
X10477055Y-15440388D02*
X10467531Y-15459436D01*
X10467531Y-15459436D02*
X10458007Y-15468960D01*
X10458007Y-15468960D02*
X10438960Y-15478484D01*
X10438960Y-15478484D02*
X10419912Y-15478484D01*
X10419912Y-15478484D02*
X10400864Y-15468960D01*
X10400864Y-15468960D02*
X10391341Y-15459436D01*
X10391341Y-15459436D02*
X10381817Y-15440388D01*
X10381817Y-15440388D02*
X10372293Y-15402293D01*
X10372293Y-15402293D02*
X10372293Y-15354674D01*
X10372293Y-15354674D02*
X10381817Y-15316579D01*
X10381817Y-15316579D02*
X10391341Y-15297531D01*
X10391341Y-15297531D02*
X10400864Y-15288008D01*
X10400864Y-15288008D02*
X10419912Y-15278484D01*
X10610388Y-15278484D02*
X10629436Y-15278484D01*
X10629436Y-15278484D02*
X10648483Y-15288008D01*
X10648483Y-15288008D02*
X10658007Y-15297531D01*
X10658007Y-15297531D02*
X10667531Y-15316579D01*
X10667531Y-15316579D02*
X10677055Y-15354674D01*
X10677055Y-15354674D02*
X10677055Y-15402293D01*
X10677055Y-15402293D02*
X10667531Y-15440388D01*
X10667531Y-15440388D02*
X10658007Y-15459436D01*
X10658007Y-15459436D02*
X10648483Y-15468960D01*
X10648483Y-15468960D02*
X10629436Y-15478484D01*
X10629436Y-15478484D02*
X10610388Y-15478484D01*
X10610388Y-15478484D02*
X10591341Y-15468960D01*
X10591341Y-15468960D02*
X10581817Y-15459436D01*
X10581817Y-15459436D02*
X10572293Y-15440388D01*
X10572293Y-15440388D02*
X10562769Y-15402293D01*
X10562769Y-15402293D02*
X10562769Y-15354674D01*
X10562769Y-15354674D02*
X10572293Y-15316579D01*
X10572293Y-15316579D02*
X10581817Y-15297531D01*
X10581817Y-15297531D02*
X10591341Y-15288008D01*
X10591341Y-15288008D02*
X10610388Y-15278484D01*
X10762769Y-15478484D02*
X10762769Y-15345150D01*
X10762769Y-15364198D02*
X10772293Y-15354674D01*
X10772293Y-15354674D02*
X10791341Y-15345150D01*
X10791341Y-15345150D02*
X10819912Y-15345150D01*
X10819912Y-15345150D02*
X10838960Y-15354674D01*
X10838960Y-15354674D02*
X10848483Y-15373722D01*
X10848483Y-15373722D02*
X10848483Y-15478484D01*
X10848483Y-15373722D02*
X10858007Y-15354674D01*
X10858007Y-15354674D02*
X10877055Y-15345150D01*
X10877055Y-15345150D02*
X10905626Y-15345150D01*
X10905626Y-15345150D02*
X10924674Y-15354674D01*
X10924674Y-15354674D02*
X10934198Y-15373722D01*
X10934198Y-15373722D02*
X10934198Y-15478484D01*
X11029436Y-15478484D02*
X11029436Y-15345150D01*
X11029436Y-15364198D02*
X11038960Y-15354674D01*
X11038960Y-15354674D02*
X11058007Y-15345150D01*
X11058007Y-15345150D02*
X11086579Y-15345150D01*
X11086579Y-15345150D02*
X11105626Y-15354674D01*
X11105626Y-15354674D02*
X11115150Y-15373722D01*
X11115150Y-15373722D02*
X11115150Y-15478484D01*
X11115150Y-15373722D02*
X11124674Y-15354674D01*
X11124674Y-15354674D02*
X11143722Y-15345150D01*
X11143722Y-15345150D02*
X11172293Y-15345150D01*
X11172293Y-15345150D02*
X11191341Y-15354674D01*
X11191341Y-15354674D02*
X11200864Y-15373722D01*
X11200864Y-15373722D02*
X11200864Y-15478484D01*
X11591341Y-15268960D02*
X11419912Y-15526103D01*
X11848483Y-15278484D02*
X11867531Y-15278484D01*
X11867531Y-15278484D02*
X11886579Y-15288008D01*
X11886579Y-15288008D02*
X11896103Y-15297531D01*
X11896103Y-15297531D02*
X11905626Y-15316579D01*
X11905626Y-15316579D02*
X11915150Y-15354674D01*
X11915150Y-15354674D02*
X11915150Y-15402293D01*
X11915150Y-15402293D02*
X11905626Y-15440388D01*
X11905626Y-15440388D02*
X11896103Y-15459436D01*
X11896103Y-15459436D02*
X11886579Y-15468960D01*
X11886579Y-15468960D02*
X11867531Y-15478484D01*
X11867531Y-15478484D02*
X11848483Y-15478484D01*
X11848483Y-15478484D02*
X11829436Y-15468960D01*
X11829436Y-15468960D02*
X11819912Y-15459436D01*
X11819912Y-15459436D02*
X11810388Y-15440388D01*
X11810388Y-15440388D02*
X11800864Y-15402293D01*
X11800864Y-15402293D02*
X11800864Y-15354674D01*
X11800864Y-15354674D02*
X11810388Y-15316579D01*
X11810388Y-15316579D02*
X11819912Y-15297531D01*
X11819912Y-15297531D02*
X11829436Y-15288008D01*
X11829436Y-15288008D02*
X11848483Y-15278484D01*
X12000864Y-15459436D02*
X12010388Y-15468960D01*
X12010388Y-15468960D02*
X12000864Y-15478484D01*
X12000864Y-15478484D02*
X11991341Y-15468960D01*
X11991341Y-15468960D02*
X12000864Y-15459436D01*
X12000864Y-15459436D02*
X12000864Y-15478484D01*
X12134198Y-15278484D02*
X12153245Y-15278484D01*
X12153245Y-15278484D02*
X12172293Y-15288008D01*
X12172293Y-15288008D02*
X12181817Y-15297531D01*
X12181817Y-15297531D02*
X12191341Y-15316579D01*
X12191341Y-15316579D02*
X12200864Y-15354674D01*
X12200864Y-15354674D02*
X12200864Y-15402293D01*
X12200864Y-15402293D02*
X12191341Y-15440388D01*
X12191341Y-15440388D02*
X12181817Y-15459436D01*
X12181817Y-15459436D02*
X12172293Y-15468960D01*
X12172293Y-15468960D02*
X12153245Y-15478484D01*
X12153245Y-15478484D02*
X12134198Y-15478484D01*
X12134198Y-15478484D02*
X12115150Y-15468960D01*
X12115150Y-15468960D02*
X12105626Y-15459436D01*
X12105626Y-15459436D02*
X12096103Y-15440388D01*
X12096103Y-15440388D02*
X12086579Y-15402293D01*
X12086579Y-15402293D02*
X12086579Y-15354674D01*
X12086579Y-15354674D02*
X12096103Y-15316579D01*
X12096103Y-15316579D02*
X12105626Y-15297531D01*
X12105626Y-15297531D02*
X12115150Y-15288008D01*
X12115150Y-15288008D02*
X12134198Y-15278484D01*
X12391341Y-15478484D02*
X12277055Y-15478484D01*
X12334198Y-15478484D02*
X12334198Y-15278484D01*
X12334198Y-15278484D02*
X12315150Y-15307055D01*
X12315150Y-15307055D02*
X12296103Y-15326103D01*
X12296103Y-15326103D02*
X12277055Y-15335627D01*
X12572293Y-15278484D02*
X12477055Y-15278484D01*
X12477055Y-15278484D02*
X12467531Y-15373722D01*
X12467531Y-15373722D02*
X12477055Y-15364198D01*
X12477055Y-15364198D02*
X12496103Y-15354674D01*
X12496103Y-15354674D02*
X12543722Y-15354674D01*
X12543722Y-15354674D02*
X12562769Y-15364198D01*
X12562769Y-15364198D02*
X12572293Y-15373722D01*
X12572293Y-15373722D02*
X12581817Y-15392769D01*
X12581817Y-15392769D02*
X12581817Y-15440388D01*
X12581817Y-15440388D02*
X12572293Y-15459436D01*
X12572293Y-15459436D02*
X12562769Y-15468960D01*
X12562769Y-15468960D02*
X12543722Y-15478484D01*
X12543722Y-15478484D02*
X12496103Y-15478484D01*
X12496103Y-15478484D02*
X12477055Y-15468960D01*
X12477055Y-15468960D02*
X12467531Y-15459436D01*
X12648484Y-15278484D02*
X12781817Y-15278484D01*
X12781817Y-15278484D02*
X12696103Y-15478484D01*
X12848484Y-15278484D02*
X12848484Y-15316579D01*
X12924674Y-15278484D02*
X12924674Y-15316579D01*
X13219912Y-15554674D02*
X13210388Y-15545150D01*
X13210388Y-15545150D02*
X13191341Y-15516579D01*
X13191341Y-15516579D02*
X13181817Y-15497531D01*
X13181817Y-15497531D02*
X13172293Y-15468960D01*
X13172293Y-15468960D02*
X13162769Y-15421341D01*
X13162769Y-15421341D02*
X13162769Y-15383246D01*
X13162769Y-15383246D02*
X13172293Y-15335627D01*
X13172293Y-15335627D02*
X13181817Y-15307055D01*
X13181817Y-15307055D02*
X13191341Y-15288008D01*
X13191341Y-15288008D02*
X13210388Y-15259436D01*
X13210388Y-15259436D02*
X13219912Y-15249912D01*
X13400865Y-15478484D02*
X13286579Y-15478484D01*
X13343722Y-15478484D02*
X13343722Y-15278484D01*
X13343722Y-15278484D02*
X13324674Y-15307055D01*
X13324674Y-15307055D02*
X13305626Y-15326103D01*
X13305626Y-15326103D02*
X13286579Y-15335627D01*
X13524674Y-15278484D02*
X13543722Y-15278484D01*
X13543722Y-15278484D02*
X13562769Y-15288008D01*
X13562769Y-15288008D02*
X13572293Y-15297531D01*
X13572293Y-15297531D02*
X13581817Y-15316579D01*
X13581817Y-15316579D02*
X13591341Y-15354674D01*
X13591341Y-15354674D02*
X13591341Y-15402293D01*
X13591341Y-15402293D02*
X13581817Y-15440388D01*
X13581817Y-15440388D02*
X13572293Y-15459436D01*
X13572293Y-15459436D02*
X13562769Y-15468960D01*
X13562769Y-15468960D02*
X13543722Y-15478484D01*
X13543722Y-15478484D02*
X13524674Y-15478484D01*
X13524674Y-15478484D02*
X13505626Y-15468960D01*
X13505626Y-15468960D02*
X13496103Y-15459436D01*
X13496103Y-15459436D02*
X13486579Y-15440388D01*
X13486579Y-15440388D02*
X13477055Y-15402293D01*
X13477055Y-15402293D02*
X13477055Y-15354674D01*
X13477055Y-15354674D02*
X13486579Y-15316579D01*
X13486579Y-15316579D02*
X13496103Y-15297531D01*
X13496103Y-15297531D02*
X13505626Y-15288008D01*
X13505626Y-15288008D02*
X13524674Y-15278484D01*
X13829436Y-15478484D02*
X13829436Y-15278484D01*
X13915150Y-15478484D02*
X13915150Y-15373722D01*
X13915150Y-15373722D02*
X13905627Y-15354674D01*
X13905627Y-15354674D02*
X13886579Y-15345150D01*
X13886579Y-15345150D02*
X13858007Y-15345150D01*
X13858007Y-15345150D02*
X13838960Y-15354674D01*
X13838960Y-15354674D02*
X13829436Y-15364198D01*
X14038960Y-15478484D02*
X14019912Y-15468960D01*
X14019912Y-15468960D02*
X14010388Y-15459436D01*
X14010388Y-15459436D02*
X14000865Y-15440388D01*
X14000865Y-15440388D02*
X14000865Y-15383246D01*
X14000865Y-15383246D02*
X14010388Y-15364198D01*
X14010388Y-15364198D02*
X14019912Y-15354674D01*
X14019912Y-15354674D02*
X14038960Y-15345150D01*
X14038960Y-15345150D02*
X14067531Y-15345150D01*
X14067531Y-15345150D02*
X14086579Y-15354674D01*
X14086579Y-15354674D02*
X14096103Y-15364198D01*
X14096103Y-15364198D02*
X14105627Y-15383246D01*
X14105627Y-15383246D02*
X14105627Y-15440388D01*
X14105627Y-15440388D02*
X14096103Y-15459436D01*
X14096103Y-15459436D02*
X14086579Y-15468960D01*
X14086579Y-15468960D02*
X14067531Y-15478484D01*
X14067531Y-15478484D02*
X14038960Y-15478484D01*
X14219912Y-15478484D02*
X14200865Y-15468960D01*
X14200865Y-15468960D02*
X14191341Y-15449912D01*
X14191341Y-15449912D02*
X14191341Y-15278484D01*
X14372293Y-15468960D02*
X14353246Y-15478484D01*
X14353246Y-15478484D02*
X14315150Y-15478484D01*
X14315150Y-15478484D02*
X14296103Y-15468960D01*
X14296103Y-15468960D02*
X14286579Y-15449912D01*
X14286579Y-15449912D02*
X14286579Y-15373722D01*
X14286579Y-15373722D02*
X14296103Y-15354674D01*
X14296103Y-15354674D02*
X14315150Y-15345150D01*
X14315150Y-15345150D02*
X14353246Y-15345150D01*
X14353246Y-15345150D02*
X14372293Y-15354674D01*
X14372293Y-15354674D02*
X14381817Y-15373722D01*
X14381817Y-15373722D02*
X14381817Y-15392769D01*
X14381817Y-15392769D02*
X14286579Y-15411817D01*
X14458008Y-15468960D02*
X14477055Y-15478484D01*
X14477055Y-15478484D02*
X14515150Y-15478484D01*
X14515150Y-15478484D02*
X14534198Y-15468960D01*
X14534198Y-15468960D02*
X14543722Y-15449912D01*
X14543722Y-15449912D02*
X14543722Y-15440388D01*
X14543722Y-15440388D02*
X14534198Y-15421341D01*
X14534198Y-15421341D02*
X14515150Y-15411817D01*
X14515150Y-15411817D02*
X14486579Y-15411817D01*
X14486579Y-15411817D02*
X14467531Y-15402293D01*
X14467531Y-15402293D02*
X14458008Y-15383246D01*
X14458008Y-15383246D02*
X14458008Y-15373722D01*
X14458008Y-15373722D02*
X14467531Y-15354674D01*
X14467531Y-15354674D02*
X14486579Y-15345150D01*
X14486579Y-15345150D02*
X14515150Y-15345150D01*
X14515150Y-15345150D02*
X14534198Y-15354674D01*
X14610389Y-15554674D02*
X14619912Y-15545150D01*
X14619912Y-15545150D02*
X14638960Y-15516579D01*
X14638960Y-15516579D02*
X14648484Y-15497531D01*
X14648484Y-15497531D02*
X14658008Y-15468960D01*
X14658008Y-15468960D02*
X14667531Y-15421341D01*
X14667531Y-15421341D02*
X14667531Y-15383246D01*
X14667531Y-15383246D02*
X14658008Y-15335627D01*
X14658008Y-15335627D02*
X14648484Y-15307055D01*
X14648484Y-15307055D02*
X14638960Y-15288008D01*
X14638960Y-15288008D02*
X14619912Y-15259436D01*
X14619912Y-15259436D02*
X14610389Y-15249912D01*
D14*
X9619849Y-15626000D02*
X9619849Y-15676000D01*
X9594849Y-15651000D02*
X9644849Y-15651000D01*
D11*
X9943721Y-15542484D02*
X9962769Y-15542484D01*
X9962769Y-15542484D02*
X9981817Y-15552008D01*
X9981817Y-15552008D02*
X9991341Y-15561531D01*
X9991341Y-15561531D02*
X10000864Y-15580579D01*
X10000864Y-15580579D02*
X10010388Y-15618674D01*
X10010388Y-15618674D02*
X10010388Y-15666293D01*
X10010388Y-15666293D02*
X10000864Y-15704388D01*
X10000864Y-15704388D02*
X9991341Y-15723436D01*
X9991341Y-15723436D02*
X9981817Y-15732960D01*
X9981817Y-15732960D02*
X9962769Y-15742484D01*
X9962769Y-15742484D02*
X9943721Y-15742484D01*
X9943721Y-15742484D02*
X9924674Y-15732960D01*
X9924674Y-15732960D02*
X9915150Y-15723436D01*
X9915150Y-15723436D02*
X9905626Y-15704388D01*
X9905626Y-15704388D02*
X9896102Y-15666293D01*
X9896102Y-15666293D02*
X9896102Y-15618674D01*
X9896102Y-15618674D02*
X9905626Y-15580579D01*
X9905626Y-15580579D02*
X9915150Y-15561531D01*
X9915150Y-15561531D02*
X9924674Y-15552008D01*
X9924674Y-15552008D02*
X9943721Y-15542484D01*
X10096102Y-15723436D02*
X10105626Y-15732960D01*
X10105626Y-15732960D02*
X10096102Y-15742484D01*
X10096102Y-15742484D02*
X10086579Y-15732960D01*
X10086579Y-15732960D02*
X10096102Y-15723436D01*
X10096102Y-15723436D02*
X10096102Y-15742484D01*
X10286579Y-15542484D02*
X10191341Y-15542484D01*
X10191341Y-15542484D02*
X10181817Y-15637722D01*
X10181817Y-15637722D02*
X10191341Y-15628198D01*
X10191341Y-15628198D02*
X10210388Y-15618674D01*
X10210388Y-15618674D02*
X10258007Y-15618674D01*
X10258007Y-15618674D02*
X10277055Y-15628198D01*
X10277055Y-15628198D02*
X10286579Y-15637722D01*
X10286579Y-15637722D02*
X10296102Y-15656769D01*
X10296102Y-15656769D02*
X10296102Y-15704388D01*
X10296102Y-15704388D02*
X10286579Y-15723436D01*
X10286579Y-15723436D02*
X10277055Y-15732960D01*
X10277055Y-15732960D02*
X10258007Y-15742484D01*
X10258007Y-15742484D02*
X10210388Y-15742484D01*
X10210388Y-15742484D02*
X10191341Y-15732960D01*
X10191341Y-15732960D02*
X10181817Y-15723436D01*
X10419912Y-15542484D02*
X10438960Y-15542484D01*
X10438960Y-15542484D02*
X10458007Y-15552008D01*
X10458007Y-15552008D02*
X10467531Y-15561531D01*
X10467531Y-15561531D02*
X10477055Y-15580579D01*
X10477055Y-15580579D02*
X10486579Y-15618674D01*
X10486579Y-15618674D02*
X10486579Y-15666293D01*
X10486579Y-15666293D02*
X10477055Y-15704388D01*
X10477055Y-15704388D02*
X10467531Y-15723436D01*
X10467531Y-15723436D02*
X10458007Y-15732960D01*
X10458007Y-15732960D02*
X10438960Y-15742484D01*
X10438960Y-15742484D02*
X10419912Y-15742484D01*
X10419912Y-15742484D02*
X10400864Y-15732960D01*
X10400864Y-15732960D02*
X10391341Y-15723436D01*
X10391341Y-15723436D02*
X10381817Y-15704388D01*
X10381817Y-15704388D02*
X10372293Y-15666293D01*
X10372293Y-15666293D02*
X10372293Y-15618674D01*
X10372293Y-15618674D02*
X10381817Y-15580579D01*
X10381817Y-15580579D02*
X10391341Y-15561531D01*
X10391341Y-15561531D02*
X10400864Y-15552008D01*
X10400864Y-15552008D02*
X10419912Y-15542484D01*
X10610388Y-15542484D02*
X10629436Y-15542484D01*
X10629436Y-15542484D02*
X10648483Y-15552008D01*
X10648483Y-15552008D02*
X10658007Y-15561531D01*
X10658007Y-15561531D02*
X10667531Y-15580579D01*
X10667531Y-15580579D02*
X10677055Y-15618674D01*
X10677055Y-15618674D02*
X10677055Y-15666293D01*
X10677055Y-15666293D02*
X10667531Y-15704388D01*
X10667531Y-15704388D02*
X10658007Y-15723436D01*
X10658007Y-15723436D02*
X10648483Y-15732960D01*
X10648483Y-15732960D02*
X10629436Y-15742484D01*
X10629436Y-15742484D02*
X10610388Y-15742484D01*
X10610388Y-15742484D02*
X10591341Y-15732960D01*
X10591341Y-15732960D02*
X10581817Y-15723436D01*
X10581817Y-15723436D02*
X10572293Y-15704388D01*
X10572293Y-15704388D02*
X10562769Y-15666293D01*
X10562769Y-15666293D02*
X10562769Y-15618674D01*
X10562769Y-15618674D02*
X10572293Y-15580579D01*
X10572293Y-15580579D02*
X10581817Y-15561531D01*
X10581817Y-15561531D02*
X10591341Y-15552008D01*
X10591341Y-15552008D02*
X10610388Y-15542484D01*
X10762769Y-15742484D02*
X10762769Y-15609150D01*
X10762769Y-15628198D02*
X10772293Y-15618674D01*
X10772293Y-15618674D02*
X10791341Y-15609150D01*
X10791341Y-15609150D02*
X10819912Y-15609150D01*
X10819912Y-15609150D02*
X10838960Y-15618674D01*
X10838960Y-15618674D02*
X10848483Y-15637722D01*
X10848483Y-15637722D02*
X10848483Y-15742484D01*
X10848483Y-15637722D02*
X10858007Y-15618674D01*
X10858007Y-15618674D02*
X10877055Y-15609150D01*
X10877055Y-15609150D02*
X10905626Y-15609150D01*
X10905626Y-15609150D02*
X10924674Y-15618674D01*
X10924674Y-15618674D02*
X10934198Y-15637722D01*
X10934198Y-15637722D02*
X10934198Y-15742484D01*
X11029436Y-15742484D02*
X11029436Y-15609150D01*
X11029436Y-15628198D02*
X11038960Y-15618674D01*
X11038960Y-15618674D02*
X11058007Y-15609150D01*
X11058007Y-15609150D02*
X11086579Y-15609150D01*
X11086579Y-15609150D02*
X11105626Y-15618674D01*
X11105626Y-15618674D02*
X11115150Y-15637722D01*
X11115150Y-15637722D02*
X11115150Y-15742484D01*
X11115150Y-15637722D02*
X11124674Y-15618674D01*
X11124674Y-15618674D02*
X11143722Y-15609150D01*
X11143722Y-15609150D02*
X11172293Y-15609150D01*
X11172293Y-15609150D02*
X11191341Y-15618674D01*
X11191341Y-15618674D02*
X11200864Y-15637722D01*
X11200864Y-15637722D02*
X11200864Y-15742484D01*
X11591341Y-15532960D02*
X11419912Y-15790103D01*
X11848483Y-15542484D02*
X11867531Y-15542484D01*
X11867531Y-15542484D02*
X11886579Y-15552008D01*
X11886579Y-15552008D02*
X11896103Y-15561531D01*
X11896103Y-15561531D02*
X11905626Y-15580579D01*
X11905626Y-15580579D02*
X11915150Y-15618674D01*
X11915150Y-15618674D02*
X11915150Y-15666293D01*
X11915150Y-15666293D02*
X11905626Y-15704388D01*
X11905626Y-15704388D02*
X11896103Y-15723436D01*
X11896103Y-15723436D02*
X11886579Y-15732960D01*
X11886579Y-15732960D02*
X11867531Y-15742484D01*
X11867531Y-15742484D02*
X11848483Y-15742484D01*
X11848483Y-15742484D02*
X11829436Y-15732960D01*
X11829436Y-15732960D02*
X11819912Y-15723436D01*
X11819912Y-15723436D02*
X11810388Y-15704388D01*
X11810388Y-15704388D02*
X11800864Y-15666293D01*
X11800864Y-15666293D02*
X11800864Y-15618674D01*
X11800864Y-15618674D02*
X11810388Y-15580579D01*
X11810388Y-15580579D02*
X11819912Y-15561531D01*
X11819912Y-15561531D02*
X11829436Y-15552008D01*
X11829436Y-15552008D02*
X11848483Y-15542484D01*
X12000864Y-15723436D02*
X12010388Y-15732960D01*
X12010388Y-15732960D02*
X12000864Y-15742484D01*
X12000864Y-15742484D02*
X11991341Y-15732960D01*
X11991341Y-15732960D02*
X12000864Y-15723436D01*
X12000864Y-15723436D02*
X12000864Y-15742484D01*
X12134198Y-15542484D02*
X12153245Y-15542484D01*
X12153245Y-15542484D02*
X12172293Y-15552008D01*
X12172293Y-15552008D02*
X12181817Y-15561531D01*
X12181817Y-15561531D02*
X12191341Y-15580579D01*
X12191341Y-15580579D02*
X12200864Y-15618674D01*
X12200864Y-15618674D02*
X12200864Y-15666293D01*
X12200864Y-15666293D02*
X12191341Y-15704388D01*
X12191341Y-15704388D02*
X12181817Y-15723436D01*
X12181817Y-15723436D02*
X12172293Y-15732960D01*
X12172293Y-15732960D02*
X12153245Y-15742484D01*
X12153245Y-15742484D02*
X12134198Y-15742484D01*
X12134198Y-15742484D02*
X12115150Y-15732960D01*
X12115150Y-15732960D02*
X12105626Y-15723436D01*
X12105626Y-15723436D02*
X12096103Y-15704388D01*
X12096103Y-15704388D02*
X12086579Y-15666293D01*
X12086579Y-15666293D02*
X12086579Y-15618674D01*
X12086579Y-15618674D02*
X12096103Y-15580579D01*
X12096103Y-15580579D02*
X12105626Y-15561531D01*
X12105626Y-15561531D02*
X12115150Y-15552008D01*
X12115150Y-15552008D02*
X12134198Y-15542484D01*
X12391341Y-15742484D02*
X12277055Y-15742484D01*
X12334198Y-15742484D02*
X12334198Y-15542484D01*
X12334198Y-15542484D02*
X12315150Y-15571055D01*
X12315150Y-15571055D02*
X12296103Y-15590103D01*
X12296103Y-15590103D02*
X12277055Y-15599627D01*
X12486579Y-15742484D02*
X12524674Y-15742484D01*
X12524674Y-15742484D02*
X12543722Y-15732960D01*
X12543722Y-15732960D02*
X12553245Y-15723436D01*
X12553245Y-15723436D02*
X12572293Y-15694865D01*
X12572293Y-15694865D02*
X12581817Y-15656769D01*
X12581817Y-15656769D02*
X12581817Y-15580579D01*
X12581817Y-15580579D02*
X12572293Y-15561531D01*
X12572293Y-15561531D02*
X12562769Y-15552008D01*
X12562769Y-15552008D02*
X12543722Y-15542484D01*
X12543722Y-15542484D02*
X12505626Y-15542484D01*
X12505626Y-15542484D02*
X12486579Y-15552008D01*
X12486579Y-15552008D02*
X12477055Y-15561531D01*
X12477055Y-15561531D02*
X12467531Y-15580579D01*
X12467531Y-15580579D02*
X12467531Y-15628198D01*
X12467531Y-15628198D02*
X12477055Y-15647246D01*
X12477055Y-15647246D02*
X12486579Y-15656769D01*
X12486579Y-15656769D02*
X12505626Y-15666293D01*
X12505626Y-15666293D02*
X12543722Y-15666293D01*
X12543722Y-15666293D02*
X12562769Y-15656769D01*
X12562769Y-15656769D02*
X12572293Y-15647246D01*
X12572293Y-15647246D02*
X12581817Y-15628198D01*
X12648484Y-15542484D02*
X12781817Y-15542484D01*
X12781817Y-15542484D02*
X12696103Y-15742484D01*
X12848484Y-15542484D02*
X12848484Y-15580579D01*
X12924674Y-15542484D02*
X12924674Y-15580579D01*
X13219912Y-15818674D02*
X13210388Y-15809150D01*
X13210388Y-15809150D02*
X13191341Y-15780579D01*
X13191341Y-15780579D02*
X13181817Y-15761531D01*
X13181817Y-15761531D02*
X13172293Y-15732960D01*
X13172293Y-15732960D02*
X13162769Y-15685341D01*
X13162769Y-15685341D02*
X13162769Y-15647246D01*
X13162769Y-15647246D02*
X13172293Y-15599627D01*
X13172293Y-15599627D02*
X13181817Y-15571055D01*
X13181817Y-15571055D02*
X13191341Y-15552008D01*
X13191341Y-15552008D02*
X13210388Y-15523436D01*
X13210388Y-15523436D02*
X13219912Y-15513912D01*
X13277055Y-15542484D02*
X13400865Y-15542484D01*
X13400865Y-15542484D02*
X13334198Y-15618674D01*
X13334198Y-15618674D02*
X13362769Y-15618674D01*
X13362769Y-15618674D02*
X13381817Y-15628198D01*
X13381817Y-15628198D02*
X13391341Y-15637722D01*
X13391341Y-15637722D02*
X13400865Y-15656769D01*
X13400865Y-15656769D02*
X13400865Y-15704388D01*
X13400865Y-15704388D02*
X13391341Y-15723436D01*
X13391341Y-15723436D02*
X13381817Y-15732960D01*
X13381817Y-15732960D02*
X13362769Y-15742484D01*
X13362769Y-15742484D02*
X13305626Y-15742484D01*
X13305626Y-15742484D02*
X13286579Y-15732960D01*
X13286579Y-15732960D02*
X13277055Y-15723436D01*
X13477055Y-15561531D02*
X13486579Y-15552008D01*
X13486579Y-15552008D02*
X13505626Y-15542484D01*
X13505626Y-15542484D02*
X13553246Y-15542484D01*
X13553246Y-15542484D02*
X13572293Y-15552008D01*
X13572293Y-15552008D02*
X13581817Y-15561531D01*
X13581817Y-15561531D02*
X13591341Y-15580579D01*
X13591341Y-15580579D02*
X13591341Y-15599627D01*
X13591341Y-15599627D02*
X13581817Y-15628198D01*
X13581817Y-15628198D02*
X13467531Y-15742484D01*
X13467531Y-15742484D02*
X13591341Y-15742484D01*
X13829436Y-15742484D02*
X13829436Y-15542484D01*
X13915150Y-15742484D02*
X13915150Y-15637722D01*
X13915150Y-15637722D02*
X13905627Y-15618674D01*
X13905627Y-15618674D02*
X13886579Y-15609150D01*
X13886579Y-15609150D02*
X13858007Y-15609150D01*
X13858007Y-15609150D02*
X13838960Y-15618674D01*
X13838960Y-15618674D02*
X13829436Y-15628198D01*
X14038960Y-15742484D02*
X14019912Y-15732960D01*
X14019912Y-15732960D02*
X14010388Y-15723436D01*
X14010388Y-15723436D02*
X14000865Y-15704388D01*
X14000865Y-15704388D02*
X14000865Y-15647246D01*
X14000865Y-15647246D02*
X14010388Y-15628198D01*
X14010388Y-15628198D02*
X14019912Y-15618674D01*
X14019912Y-15618674D02*
X14038960Y-15609150D01*
X14038960Y-15609150D02*
X14067531Y-15609150D01*
X14067531Y-15609150D02*
X14086579Y-15618674D01*
X14086579Y-15618674D02*
X14096103Y-15628198D01*
X14096103Y-15628198D02*
X14105627Y-15647246D01*
X14105627Y-15647246D02*
X14105627Y-15704388D01*
X14105627Y-15704388D02*
X14096103Y-15723436D01*
X14096103Y-15723436D02*
X14086579Y-15732960D01*
X14086579Y-15732960D02*
X14067531Y-15742484D01*
X14067531Y-15742484D02*
X14038960Y-15742484D01*
X14219912Y-15742484D02*
X14200865Y-15732960D01*
X14200865Y-15732960D02*
X14191341Y-15713912D01*
X14191341Y-15713912D02*
X14191341Y-15542484D01*
X14372293Y-15732960D02*
X14353246Y-15742484D01*
X14353246Y-15742484D02*
X14315150Y-15742484D01*
X14315150Y-15742484D02*
X14296103Y-15732960D01*
X14296103Y-15732960D02*
X14286579Y-15713912D01*
X14286579Y-15713912D02*
X14286579Y-15637722D01*
X14286579Y-15637722D02*
X14296103Y-15618674D01*
X14296103Y-15618674D02*
X14315150Y-15609150D01*
X14315150Y-15609150D02*
X14353246Y-15609150D01*
X14353246Y-15609150D02*
X14372293Y-15618674D01*
X14372293Y-15618674D02*
X14381817Y-15637722D01*
X14381817Y-15637722D02*
X14381817Y-15656769D01*
X14381817Y-15656769D02*
X14286579Y-15675817D01*
X14458008Y-15732960D02*
X14477055Y-15742484D01*
X14477055Y-15742484D02*
X14515150Y-15742484D01*
X14515150Y-15742484D02*
X14534198Y-15732960D01*
X14534198Y-15732960D02*
X14543722Y-15713912D01*
X14543722Y-15713912D02*
X14543722Y-15704388D01*
X14543722Y-15704388D02*
X14534198Y-15685341D01*
X14534198Y-15685341D02*
X14515150Y-15675817D01*
X14515150Y-15675817D02*
X14486579Y-15675817D01*
X14486579Y-15675817D02*
X14467531Y-15666293D01*
X14467531Y-15666293D02*
X14458008Y-15647246D01*
X14458008Y-15647246D02*
X14458008Y-15637722D01*
X14458008Y-15637722D02*
X14467531Y-15618674D01*
X14467531Y-15618674D02*
X14486579Y-15609150D01*
X14486579Y-15609150D02*
X14515150Y-15609150D01*
X14515150Y-15609150D02*
X14534198Y-15618674D01*
X14610389Y-15818674D02*
X14619912Y-15809150D01*
X14619912Y-15809150D02*
X14638960Y-15780579D01*
X14638960Y-15780579D02*
X14648484Y-15761531D01*
X14648484Y-15761531D02*
X14658008Y-15732960D01*
X14658008Y-15732960D02*
X14667531Y-15685341D01*
X14667531Y-15685341D02*
X14667531Y-15647246D01*
X14667531Y-15647246D02*
X14658008Y-15599627D01*
X14658008Y-15599627D02*
X14648484Y-15571055D01*
X14648484Y-15571055D02*
X14638960Y-15552008D01*
X14638960Y-15552008D02*
X14619912Y-15523436D01*
X14619912Y-15523436D02*
X14610389Y-15513912D01*
D15*
X9635331Y-15937981D02*
X9635331Y-15892019D01*
X9589368Y-15892019D01*
X9589368Y-15937981D01*
X9635331Y-15937981D01*
D11*
X9943721Y-15806484D02*
X9962769Y-15806484D01*
X9962769Y-15806484D02*
X9981817Y-15816008D01*
X9981817Y-15816008D02*
X9991341Y-15825531D01*
X9991341Y-15825531D02*
X10000864Y-15844579D01*
X10000864Y-15844579D02*
X10010388Y-15882674D01*
X10010388Y-15882674D02*
X10010388Y-15930293D01*
X10010388Y-15930293D02*
X10000864Y-15968388D01*
X10000864Y-15968388D02*
X9991341Y-15987436D01*
X9991341Y-15987436D02*
X9981817Y-15996960D01*
X9981817Y-15996960D02*
X9962769Y-16006484D01*
X9962769Y-16006484D02*
X9943721Y-16006484D01*
X9943721Y-16006484D02*
X9924674Y-15996960D01*
X9924674Y-15996960D02*
X9915150Y-15987436D01*
X9915150Y-15987436D02*
X9905626Y-15968388D01*
X9905626Y-15968388D02*
X9896102Y-15930293D01*
X9896102Y-15930293D02*
X9896102Y-15882674D01*
X9896102Y-15882674D02*
X9905626Y-15844579D01*
X9905626Y-15844579D02*
X9915150Y-15825531D01*
X9915150Y-15825531D02*
X9924674Y-15816008D01*
X9924674Y-15816008D02*
X9943721Y-15806484D01*
X10096102Y-15987436D02*
X10105626Y-15996960D01*
X10105626Y-15996960D02*
X10096102Y-16006484D01*
X10096102Y-16006484D02*
X10086579Y-15996960D01*
X10086579Y-15996960D02*
X10096102Y-15987436D01*
X10096102Y-15987436D02*
X10096102Y-16006484D01*
X10277055Y-15806484D02*
X10238960Y-15806484D01*
X10238960Y-15806484D02*
X10219912Y-15816008D01*
X10219912Y-15816008D02*
X10210388Y-15825531D01*
X10210388Y-15825531D02*
X10191341Y-15854103D01*
X10191341Y-15854103D02*
X10181817Y-15892198D01*
X10181817Y-15892198D02*
X10181817Y-15968388D01*
X10181817Y-15968388D02*
X10191341Y-15987436D01*
X10191341Y-15987436D02*
X10200864Y-15996960D01*
X10200864Y-15996960D02*
X10219912Y-16006484D01*
X10219912Y-16006484D02*
X10258007Y-16006484D01*
X10258007Y-16006484D02*
X10277055Y-15996960D01*
X10277055Y-15996960D02*
X10286579Y-15987436D01*
X10286579Y-15987436D02*
X10296102Y-15968388D01*
X10296102Y-15968388D02*
X10296102Y-15920769D01*
X10296102Y-15920769D02*
X10286579Y-15901722D01*
X10286579Y-15901722D02*
X10277055Y-15892198D01*
X10277055Y-15892198D02*
X10258007Y-15882674D01*
X10258007Y-15882674D02*
X10219912Y-15882674D01*
X10219912Y-15882674D02*
X10200864Y-15892198D01*
X10200864Y-15892198D02*
X10191341Y-15901722D01*
X10191341Y-15901722D02*
X10181817Y-15920769D01*
X10477055Y-15806484D02*
X10381817Y-15806484D01*
X10381817Y-15806484D02*
X10372293Y-15901722D01*
X10372293Y-15901722D02*
X10381817Y-15892198D01*
X10381817Y-15892198D02*
X10400864Y-15882674D01*
X10400864Y-15882674D02*
X10448483Y-15882674D01*
X10448483Y-15882674D02*
X10467531Y-15892198D01*
X10467531Y-15892198D02*
X10477055Y-15901722D01*
X10477055Y-15901722D02*
X10486579Y-15920769D01*
X10486579Y-15920769D02*
X10486579Y-15968388D01*
X10486579Y-15968388D02*
X10477055Y-15987436D01*
X10477055Y-15987436D02*
X10467531Y-15996960D01*
X10467531Y-15996960D02*
X10448483Y-16006484D01*
X10448483Y-16006484D02*
X10400864Y-16006484D01*
X10400864Y-16006484D02*
X10381817Y-15996960D01*
X10381817Y-15996960D02*
X10372293Y-15987436D01*
X10610388Y-15806484D02*
X10629436Y-15806484D01*
X10629436Y-15806484D02*
X10648483Y-15816008D01*
X10648483Y-15816008D02*
X10658007Y-15825531D01*
X10658007Y-15825531D02*
X10667531Y-15844579D01*
X10667531Y-15844579D02*
X10677055Y-15882674D01*
X10677055Y-15882674D02*
X10677055Y-15930293D01*
X10677055Y-15930293D02*
X10667531Y-15968388D01*
X10667531Y-15968388D02*
X10658007Y-15987436D01*
X10658007Y-15987436D02*
X10648483Y-15996960D01*
X10648483Y-15996960D02*
X10629436Y-16006484D01*
X10629436Y-16006484D02*
X10610388Y-16006484D01*
X10610388Y-16006484D02*
X10591341Y-15996960D01*
X10591341Y-15996960D02*
X10581817Y-15987436D01*
X10581817Y-15987436D02*
X10572293Y-15968388D01*
X10572293Y-15968388D02*
X10562769Y-15930293D01*
X10562769Y-15930293D02*
X10562769Y-15882674D01*
X10562769Y-15882674D02*
X10572293Y-15844579D01*
X10572293Y-15844579D02*
X10581817Y-15825531D01*
X10581817Y-15825531D02*
X10591341Y-15816008D01*
X10591341Y-15816008D02*
X10610388Y-15806484D01*
X10762769Y-16006484D02*
X10762769Y-15873150D01*
X10762769Y-15892198D02*
X10772293Y-15882674D01*
X10772293Y-15882674D02*
X10791341Y-15873150D01*
X10791341Y-15873150D02*
X10819912Y-15873150D01*
X10819912Y-15873150D02*
X10838960Y-15882674D01*
X10838960Y-15882674D02*
X10848483Y-15901722D01*
X10848483Y-15901722D02*
X10848483Y-16006484D01*
X10848483Y-15901722D02*
X10858007Y-15882674D01*
X10858007Y-15882674D02*
X10877055Y-15873150D01*
X10877055Y-15873150D02*
X10905626Y-15873150D01*
X10905626Y-15873150D02*
X10924674Y-15882674D01*
X10924674Y-15882674D02*
X10934198Y-15901722D01*
X10934198Y-15901722D02*
X10934198Y-16006484D01*
X11029436Y-16006484D02*
X11029436Y-15873150D01*
X11029436Y-15892198D02*
X11038960Y-15882674D01*
X11038960Y-15882674D02*
X11058007Y-15873150D01*
X11058007Y-15873150D02*
X11086579Y-15873150D01*
X11086579Y-15873150D02*
X11105626Y-15882674D01*
X11105626Y-15882674D02*
X11115150Y-15901722D01*
X11115150Y-15901722D02*
X11115150Y-16006484D01*
X11115150Y-15901722D02*
X11124674Y-15882674D01*
X11124674Y-15882674D02*
X11143722Y-15873150D01*
X11143722Y-15873150D02*
X11172293Y-15873150D01*
X11172293Y-15873150D02*
X11191341Y-15882674D01*
X11191341Y-15882674D02*
X11200864Y-15901722D01*
X11200864Y-15901722D02*
X11200864Y-16006484D01*
X11591341Y-15796960D02*
X11419912Y-16054103D01*
X11848483Y-15806484D02*
X11867531Y-15806484D01*
X11867531Y-15806484D02*
X11886579Y-15816008D01*
X11886579Y-15816008D02*
X11896103Y-15825531D01*
X11896103Y-15825531D02*
X11905626Y-15844579D01*
X11905626Y-15844579D02*
X11915150Y-15882674D01*
X11915150Y-15882674D02*
X11915150Y-15930293D01*
X11915150Y-15930293D02*
X11905626Y-15968388D01*
X11905626Y-15968388D02*
X11896103Y-15987436D01*
X11896103Y-15987436D02*
X11886579Y-15996960D01*
X11886579Y-15996960D02*
X11867531Y-16006484D01*
X11867531Y-16006484D02*
X11848483Y-16006484D01*
X11848483Y-16006484D02*
X11829436Y-15996960D01*
X11829436Y-15996960D02*
X11819912Y-15987436D01*
X11819912Y-15987436D02*
X11810388Y-15968388D01*
X11810388Y-15968388D02*
X11800864Y-15930293D01*
X11800864Y-15930293D02*
X11800864Y-15882674D01*
X11800864Y-15882674D02*
X11810388Y-15844579D01*
X11810388Y-15844579D02*
X11819912Y-15825531D01*
X11819912Y-15825531D02*
X11829436Y-15816008D01*
X11829436Y-15816008D02*
X11848483Y-15806484D01*
X12000864Y-15987436D02*
X12010388Y-15996960D01*
X12010388Y-15996960D02*
X12000864Y-16006484D01*
X12000864Y-16006484D02*
X11991341Y-15996960D01*
X11991341Y-15996960D02*
X12000864Y-15987436D01*
X12000864Y-15987436D02*
X12000864Y-16006484D01*
X12134198Y-15806484D02*
X12153245Y-15806484D01*
X12153245Y-15806484D02*
X12172293Y-15816008D01*
X12172293Y-15816008D02*
X12181817Y-15825531D01*
X12181817Y-15825531D02*
X12191341Y-15844579D01*
X12191341Y-15844579D02*
X12200864Y-15882674D01*
X12200864Y-15882674D02*
X12200864Y-15930293D01*
X12200864Y-15930293D02*
X12191341Y-15968388D01*
X12191341Y-15968388D02*
X12181817Y-15987436D01*
X12181817Y-15987436D02*
X12172293Y-15996960D01*
X12172293Y-15996960D02*
X12153245Y-16006484D01*
X12153245Y-16006484D02*
X12134198Y-16006484D01*
X12134198Y-16006484D02*
X12115150Y-15996960D01*
X12115150Y-15996960D02*
X12105626Y-15987436D01*
X12105626Y-15987436D02*
X12096103Y-15968388D01*
X12096103Y-15968388D02*
X12086579Y-15930293D01*
X12086579Y-15930293D02*
X12086579Y-15882674D01*
X12086579Y-15882674D02*
X12096103Y-15844579D01*
X12096103Y-15844579D02*
X12105626Y-15825531D01*
X12105626Y-15825531D02*
X12115150Y-15816008D01*
X12115150Y-15816008D02*
X12134198Y-15806484D01*
X12277055Y-15825531D02*
X12286579Y-15816008D01*
X12286579Y-15816008D02*
X12305626Y-15806484D01*
X12305626Y-15806484D02*
X12353245Y-15806484D01*
X12353245Y-15806484D02*
X12372293Y-15816008D01*
X12372293Y-15816008D02*
X12381817Y-15825531D01*
X12381817Y-15825531D02*
X12391341Y-15844579D01*
X12391341Y-15844579D02*
X12391341Y-15863627D01*
X12391341Y-15863627D02*
X12381817Y-15892198D01*
X12381817Y-15892198D02*
X12267531Y-16006484D01*
X12267531Y-16006484D02*
X12391341Y-16006484D01*
X12572293Y-15806484D02*
X12477055Y-15806484D01*
X12477055Y-15806484D02*
X12467531Y-15901722D01*
X12467531Y-15901722D02*
X12477055Y-15892198D01*
X12477055Y-15892198D02*
X12496103Y-15882674D01*
X12496103Y-15882674D02*
X12543722Y-15882674D01*
X12543722Y-15882674D02*
X12562769Y-15892198D01*
X12562769Y-15892198D02*
X12572293Y-15901722D01*
X12572293Y-15901722D02*
X12581817Y-15920769D01*
X12581817Y-15920769D02*
X12581817Y-15968388D01*
X12581817Y-15968388D02*
X12572293Y-15987436D01*
X12572293Y-15987436D02*
X12562769Y-15996960D01*
X12562769Y-15996960D02*
X12543722Y-16006484D01*
X12543722Y-16006484D02*
X12496103Y-16006484D01*
X12496103Y-16006484D02*
X12477055Y-15996960D01*
X12477055Y-15996960D02*
X12467531Y-15987436D01*
X12753245Y-15806484D02*
X12715150Y-15806484D01*
X12715150Y-15806484D02*
X12696103Y-15816008D01*
X12696103Y-15816008D02*
X12686579Y-15825531D01*
X12686579Y-15825531D02*
X12667531Y-15854103D01*
X12667531Y-15854103D02*
X12658007Y-15892198D01*
X12658007Y-15892198D02*
X12658007Y-15968388D01*
X12658007Y-15968388D02*
X12667531Y-15987436D01*
X12667531Y-15987436D02*
X12677055Y-15996960D01*
X12677055Y-15996960D02*
X12696103Y-16006484D01*
X12696103Y-16006484D02*
X12734198Y-16006484D01*
X12734198Y-16006484D02*
X12753245Y-15996960D01*
X12753245Y-15996960D02*
X12762769Y-15987436D01*
X12762769Y-15987436D02*
X12772293Y-15968388D01*
X12772293Y-15968388D02*
X12772293Y-15920769D01*
X12772293Y-15920769D02*
X12762769Y-15901722D01*
X12762769Y-15901722D02*
X12753245Y-15892198D01*
X12753245Y-15892198D02*
X12734198Y-15882674D01*
X12734198Y-15882674D02*
X12696103Y-15882674D01*
X12696103Y-15882674D02*
X12677055Y-15892198D01*
X12677055Y-15892198D02*
X12667531Y-15901722D01*
X12667531Y-15901722D02*
X12658007Y-15920769D01*
X12848484Y-15806484D02*
X12848484Y-15844579D01*
X12924674Y-15806484D02*
X12924674Y-15844579D01*
X13219912Y-16082674D02*
X13210388Y-16073150D01*
X13210388Y-16073150D02*
X13191341Y-16044579D01*
X13191341Y-16044579D02*
X13181817Y-16025531D01*
X13181817Y-16025531D02*
X13172293Y-15996960D01*
X13172293Y-15996960D02*
X13162769Y-15949341D01*
X13162769Y-15949341D02*
X13162769Y-15911246D01*
X13162769Y-15911246D02*
X13172293Y-15863627D01*
X13172293Y-15863627D02*
X13181817Y-15835055D01*
X13181817Y-15835055D02*
X13191341Y-15816008D01*
X13191341Y-15816008D02*
X13210388Y-15787436D01*
X13210388Y-15787436D02*
X13219912Y-15777912D01*
X13381817Y-15873150D02*
X13381817Y-16006484D01*
X13334198Y-15796960D02*
X13286579Y-15939817D01*
X13286579Y-15939817D02*
X13410388Y-15939817D01*
X13638960Y-16006484D02*
X13638960Y-15806484D01*
X13724674Y-16006484D02*
X13724674Y-15901722D01*
X13724674Y-15901722D02*
X13715150Y-15882674D01*
X13715150Y-15882674D02*
X13696103Y-15873150D01*
X13696103Y-15873150D02*
X13667531Y-15873150D01*
X13667531Y-15873150D02*
X13648484Y-15882674D01*
X13648484Y-15882674D02*
X13638960Y-15892198D01*
X13848484Y-16006484D02*
X13829436Y-15996960D01*
X13829436Y-15996960D02*
X13819912Y-15987436D01*
X13819912Y-15987436D02*
X13810388Y-15968388D01*
X13810388Y-15968388D02*
X13810388Y-15911246D01*
X13810388Y-15911246D02*
X13819912Y-15892198D01*
X13819912Y-15892198D02*
X13829436Y-15882674D01*
X13829436Y-15882674D02*
X13848484Y-15873150D01*
X13848484Y-15873150D02*
X13877055Y-15873150D01*
X13877055Y-15873150D02*
X13896103Y-15882674D01*
X13896103Y-15882674D02*
X13905627Y-15892198D01*
X13905627Y-15892198D02*
X13915150Y-15911246D01*
X13915150Y-15911246D02*
X13915150Y-15968388D01*
X13915150Y-15968388D02*
X13905627Y-15987436D01*
X13905627Y-15987436D02*
X13896103Y-15996960D01*
X13896103Y-15996960D02*
X13877055Y-16006484D01*
X13877055Y-16006484D02*
X13848484Y-16006484D01*
X14029436Y-16006484D02*
X14010388Y-15996960D01*
X14010388Y-15996960D02*
X14000865Y-15977912D01*
X14000865Y-15977912D02*
X14000865Y-15806484D01*
X14181817Y-15996960D02*
X14162769Y-16006484D01*
X14162769Y-16006484D02*
X14124674Y-16006484D01*
X14124674Y-16006484D02*
X14105627Y-15996960D01*
X14105627Y-15996960D02*
X14096103Y-15977912D01*
X14096103Y-15977912D02*
X14096103Y-15901722D01*
X14096103Y-15901722D02*
X14105627Y-15882674D01*
X14105627Y-15882674D02*
X14124674Y-15873150D01*
X14124674Y-15873150D02*
X14162769Y-15873150D01*
X14162769Y-15873150D02*
X14181817Y-15882674D01*
X14181817Y-15882674D02*
X14191341Y-15901722D01*
X14191341Y-15901722D02*
X14191341Y-15920769D01*
X14191341Y-15920769D02*
X14096103Y-15939817D01*
X14267531Y-15996960D02*
X14286579Y-16006484D01*
X14286579Y-16006484D02*
X14324674Y-16006484D01*
X14324674Y-16006484D02*
X14343722Y-15996960D01*
X14343722Y-15996960D02*
X14353246Y-15977912D01*
X14353246Y-15977912D02*
X14353246Y-15968388D01*
X14353246Y-15968388D02*
X14343722Y-15949341D01*
X14343722Y-15949341D02*
X14324674Y-15939817D01*
X14324674Y-15939817D02*
X14296103Y-15939817D01*
X14296103Y-15939817D02*
X14277055Y-15930293D01*
X14277055Y-15930293D02*
X14267531Y-15911246D01*
X14267531Y-15911246D02*
X14267531Y-15901722D01*
X14267531Y-15901722D02*
X14277055Y-15882674D01*
X14277055Y-15882674D02*
X14296103Y-15873150D01*
X14296103Y-15873150D02*
X14324674Y-15873150D01*
X14324674Y-15873150D02*
X14343722Y-15882674D01*
X14419912Y-16082674D02*
X14429436Y-16073150D01*
X14429436Y-16073150D02*
X14448484Y-16044579D01*
X14448484Y-16044579D02*
X14458008Y-16025531D01*
X14458008Y-16025531D02*
X14467531Y-15996960D01*
X14467531Y-15996960D02*
X14477055Y-15949341D01*
X14477055Y-15949341D02*
X14477055Y-15911246D01*
X14477055Y-15911246D02*
X14467531Y-15863627D01*
X14467531Y-15863627D02*
X14458008Y-15835055D01*
X14458008Y-15835055D02*
X14448484Y-15816008D01*
X14448484Y-15816008D02*
X14429436Y-15787436D01*
X14429436Y-15787436D02*
X14419912Y-15777912D01*
D10*
X9594849Y-16229000D02*
X9644849Y-16179000D01*
X9594849Y-16129000D01*
X9544849Y-16179000D01*
X9594849Y-16229000D01*
D11*
X10010388Y-16270484D02*
X9896102Y-16270484D01*
X9953245Y-16270484D02*
X9953245Y-16070484D01*
X9953245Y-16070484D02*
X9934198Y-16099055D01*
X9934198Y-16099055D02*
X9915150Y-16118103D01*
X9915150Y-16118103D02*
X9896102Y-16127627D01*
X10096102Y-16251436D02*
X10105626Y-16260960D01*
X10105626Y-16260960D02*
X10096102Y-16270484D01*
X10096102Y-16270484D02*
X10086579Y-16260960D01*
X10086579Y-16260960D02*
X10096102Y-16251436D01*
X10096102Y-16251436D02*
X10096102Y-16270484D01*
X10229436Y-16070484D02*
X10248483Y-16070484D01*
X10248483Y-16070484D02*
X10267531Y-16080008D01*
X10267531Y-16080008D02*
X10277055Y-16089531D01*
X10277055Y-16089531D02*
X10286579Y-16108579D01*
X10286579Y-16108579D02*
X10296102Y-16146674D01*
X10296102Y-16146674D02*
X10296102Y-16194293D01*
X10296102Y-16194293D02*
X10286579Y-16232388D01*
X10286579Y-16232388D02*
X10277055Y-16251436D01*
X10277055Y-16251436D02*
X10267531Y-16260960D01*
X10267531Y-16260960D02*
X10248483Y-16270484D01*
X10248483Y-16270484D02*
X10229436Y-16270484D01*
X10229436Y-16270484D02*
X10210388Y-16260960D01*
X10210388Y-16260960D02*
X10200864Y-16251436D01*
X10200864Y-16251436D02*
X10191341Y-16232388D01*
X10191341Y-16232388D02*
X10181817Y-16194293D01*
X10181817Y-16194293D02*
X10181817Y-16146674D01*
X10181817Y-16146674D02*
X10191341Y-16108579D01*
X10191341Y-16108579D02*
X10200864Y-16089531D01*
X10200864Y-16089531D02*
X10210388Y-16080008D01*
X10210388Y-16080008D02*
X10229436Y-16070484D01*
X10419912Y-16070484D02*
X10438960Y-16070484D01*
X10438960Y-16070484D02*
X10458007Y-16080008D01*
X10458007Y-16080008D02*
X10467531Y-16089531D01*
X10467531Y-16089531D02*
X10477055Y-16108579D01*
X10477055Y-16108579D02*
X10486579Y-16146674D01*
X10486579Y-16146674D02*
X10486579Y-16194293D01*
X10486579Y-16194293D02*
X10477055Y-16232388D01*
X10477055Y-16232388D02*
X10467531Y-16251436D01*
X10467531Y-16251436D02*
X10458007Y-16260960D01*
X10458007Y-16260960D02*
X10438960Y-16270484D01*
X10438960Y-16270484D02*
X10419912Y-16270484D01*
X10419912Y-16270484D02*
X10400864Y-16260960D01*
X10400864Y-16260960D02*
X10391341Y-16251436D01*
X10391341Y-16251436D02*
X10381817Y-16232388D01*
X10381817Y-16232388D02*
X10372293Y-16194293D01*
X10372293Y-16194293D02*
X10372293Y-16146674D01*
X10372293Y-16146674D02*
X10381817Y-16108579D01*
X10381817Y-16108579D02*
X10391341Y-16089531D01*
X10391341Y-16089531D02*
X10400864Y-16080008D01*
X10400864Y-16080008D02*
X10419912Y-16070484D01*
X10610388Y-16070484D02*
X10629436Y-16070484D01*
X10629436Y-16070484D02*
X10648483Y-16080008D01*
X10648483Y-16080008D02*
X10658007Y-16089531D01*
X10658007Y-16089531D02*
X10667531Y-16108579D01*
X10667531Y-16108579D02*
X10677055Y-16146674D01*
X10677055Y-16146674D02*
X10677055Y-16194293D01*
X10677055Y-16194293D02*
X10667531Y-16232388D01*
X10667531Y-16232388D02*
X10658007Y-16251436D01*
X10658007Y-16251436D02*
X10648483Y-16260960D01*
X10648483Y-16260960D02*
X10629436Y-16270484D01*
X10629436Y-16270484D02*
X10610388Y-16270484D01*
X10610388Y-16270484D02*
X10591341Y-16260960D01*
X10591341Y-16260960D02*
X10581817Y-16251436D01*
X10581817Y-16251436D02*
X10572293Y-16232388D01*
X10572293Y-16232388D02*
X10562769Y-16194293D01*
X10562769Y-16194293D02*
X10562769Y-16146674D01*
X10562769Y-16146674D02*
X10572293Y-16108579D01*
X10572293Y-16108579D02*
X10581817Y-16089531D01*
X10581817Y-16089531D02*
X10591341Y-16080008D01*
X10591341Y-16080008D02*
X10610388Y-16070484D01*
X10762769Y-16270484D02*
X10762769Y-16137150D01*
X10762769Y-16156198D02*
X10772293Y-16146674D01*
X10772293Y-16146674D02*
X10791341Y-16137150D01*
X10791341Y-16137150D02*
X10819912Y-16137150D01*
X10819912Y-16137150D02*
X10838960Y-16146674D01*
X10838960Y-16146674D02*
X10848483Y-16165722D01*
X10848483Y-16165722D02*
X10848483Y-16270484D01*
X10848483Y-16165722D02*
X10858007Y-16146674D01*
X10858007Y-16146674D02*
X10877055Y-16137150D01*
X10877055Y-16137150D02*
X10905626Y-16137150D01*
X10905626Y-16137150D02*
X10924674Y-16146674D01*
X10924674Y-16146674D02*
X10934198Y-16165722D01*
X10934198Y-16165722D02*
X10934198Y-16270484D01*
X11029436Y-16270484D02*
X11029436Y-16137150D01*
X11029436Y-16156198D02*
X11038960Y-16146674D01*
X11038960Y-16146674D02*
X11058007Y-16137150D01*
X11058007Y-16137150D02*
X11086579Y-16137150D01*
X11086579Y-16137150D02*
X11105626Y-16146674D01*
X11105626Y-16146674D02*
X11115150Y-16165722D01*
X11115150Y-16165722D02*
X11115150Y-16270484D01*
X11115150Y-16165722D02*
X11124674Y-16146674D01*
X11124674Y-16146674D02*
X11143722Y-16137150D01*
X11143722Y-16137150D02*
X11172293Y-16137150D01*
X11172293Y-16137150D02*
X11191341Y-16146674D01*
X11191341Y-16146674D02*
X11200864Y-16165722D01*
X11200864Y-16165722D02*
X11200864Y-16270484D01*
X11591341Y-16060960D02*
X11419912Y-16318103D01*
X11848483Y-16070484D02*
X11867531Y-16070484D01*
X11867531Y-16070484D02*
X11886579Y-16080008D01*
X11886579Y-16080008D02*
X11896103Y-16089531D01*
X11896103Y-16089531D02*
X11905626Y-16108579D01*
X11905626Y-16108579D02*
X11915150Y-16146674D01*
X11915150Y-16146674D02*
X11915150Y-16194293D01*
X11915150Y-16194293D02*
X11905626Y-16232388D01*
X11905626Y-16232388D02*
X11896103Y-16251436D01*
X11896103Y-16251436D02*
X11886579Y-16260960D01*
X11886579Y-16260960D02*
X11867531Y-16270484D01*
X11867531Y-16270484D02*
X11848483Y-16270484D01*
X11848483Y-16270484D02*
X11829436Y-16260960D01*
X11829436Y-16260960D02*
X11819912Y-16251436D01*
X11819912Y-16251436D02*
X11810388Y-16232388D01*
X11810388Y-16232388D02*
X11800864Y-16194293D01*
X11800864Y-16194293D02*
X11800864Y-16146674D01*
X11800864Y-16146674D02*
X11810388Y-16108579D01*
X11810388Y-16108579D02*
X11819912Y-16089531D01*
X11819912Y-16089531D02*
X11829436Y-16080008D01*
X11829436Y-16080008D02*
X11848483Y-16070484D01*
X12000864Y-16251436D02*
X12010388Y-16260960D01*
X12010388Y-16260960D02*
X12000864Y-16270484D01*
X12000864Y-16270484D02*
X11991341Y-16260960D01*
X11991341Y-16260960D02*
X12000864Y-16251436D01*
X12000864Y-16251436D02*
X12000864Y-16270484D01*
X12134198Y-16070484D02*
X12153245Y-16070484D01*
X12153245Y-16070484D02*
X12172293Y-16080008D01*
X12172293Y-16080008D02*
X12181817Y-16089531D01*
X12181817Y-16089531D02*
X12191341Y-16108579D01*
X12191341Y-16108579D02*
X12200864Y-16146674D01*
X12200864Y-16146674D02*
X12200864Y-16194293D01*
X12200864Y-16194293D02*
X12191341Y-16232388D01*
X12191341Y-16232388D02*
X12181817Y-16251436D01*
X12181817Y-16251436D02*
X12172293Y-16260960D01*
X12172293Y-16260960D02*
X12153245Y-16270484D01*
X12153245Y-16270484D02*
X12134198Y-16270484D01*
X12134198Y-16270484D02*
X12115150Y-16260960D01*
X12115150Y-16260960D02*
X12105626Y-16251436D01*
X12105626Y-16251436D02*
X12096103Y-16232388D01*
X12096103Y-16232388D02*
X12086579Y-16194293D01*
X12086579Y-16194293D02*
X12086579Y-16146674D01*
X12086579Y-16146674D02*
X12096103Y-16108579D01*
X12096103Y-16108579D02*
X12105626Y-16089531D01*
X12105626Y-16089531D02*
X12115150Y-16080008D01*
X12115150Y-16080008D02*
X12134198Y-16070484D01*
X12267531Y-16070484D02*
X12391341Y-16070484D01*
X12391341Y-16070484D02*
X12324674Y-16146674D01*
X12324674Y-16146674D02*
X12353245Y-16146674D01*
X12353245Y-16146674D02*
X12372293Y-16156198D01*
X12372293Y-16156198D02*
X12381817Y-16165722D01*
X12381817Y-16165722D02*
X12391341Y-16184769D01*
X12391341Y-16184769D02*
X12391341Y-16232388D01*
X12391341Y-16232388D02*
X12381817Y-16251436D01*
X12381817Y-16251436D02*
X12372293Y-16260960D01*
X12372293Y-16260960D02*
X12353245Y-16270484D01*
X12353245Y-16270484D02*
X12296103Y-16270484D01*
X12296103Y-16270484D02*
X12277055Y-16260960D01*
X12277055Y-16260960D02*
X12267531Y-16251436D01*
X12486579Y-16270484D02*
X12524674Y-16270484D01*
X12524674Y-16270484D02*
X12543722Y-16260960D01*
X12543722Y-16260960D02*
X12553245Y-16251436D01*
X12553245Y-16251436D02*
X12572293Y-16222865D01*
X12572293Y-16222865D02*
X12581817Y-16184769D01*
X12581817Y-16184769D02*
X12581817Y-16108579D01*
X12581817Y-16108579D02*
X12572293Y-16089531D01*
X12572293Y-16089531D02*
X12562769Y-16080008D01*
X12562769Y-16080008D02*
X12543722Y-16070484D01*
X12543722Y-16070484D02*
X12505626Y-16070484D01*
X12505626Y-16070484D02*
X12486579Y-16080008D01*
X12486579Y-16080008D02*
X12477055Y-16089531D01*
X12477055Y-16089531D02*
X12467531Y-16108579D01*
X12467531Y-16108579D02*
X12467531Y-16156198D01*
X12467531Y-16156198D02*
X12477055Y-16175246D01*
X12477055Y-16175246D02*
X12486579Y-16184769D01*
X12486579Y-16184769D02*
X12505626Y-16194293D01*
X12505626Y-16194293D02*
X12543722Y-16194293D01*
X12543722Y-16194293D02*
X12562769Y-16184769D01*
X12562769Y-16184769D02*
X12572293Y-16175246D01*
X12572293Y-16175246D02*
X12581817Y-16156198D01*
X12753245Y-16137150D02*
X12753245Y-16270484D01*
X12705626Y-16060960D02*
X12658007Y-16203817D01*
X12658007Y-16203817D02*
X12781817Y-16203817D01*
X12848484Y-16070484D02*
X12848484Y-16108579D01*
X12924674Y-16070484D02*
X12924674Y-16108579D01*
X13219912Y-16346674D02*
X13210388Y-16337150D01*
X13210388Y-16337150D02*
X13191341Y-16308579D01*
X13191341Y-16308579D02*
X13181817Y-16289531D01*
X13181817Y-16289531D02*
X13172293Y-16260960D01*
X13172293Y-16260960D02*
X13162769Y-16213341D01*
X13162769Y-16213341D02*
X13162769Y-16175246D01*
X13162769Y-16175246D02*
X13172293Y-16127627D01*
X13172293Y-16127627D02*
X13181817Y-16099055D01*
X13181817Y-16099055D02*
X13191341Y-16080008D01*
X13191341Y-16080008D02*
X13210388Y-16051436D01*
X13210388Y-16051436D02*
X13219912Y-16041912D01*
X13400865Y-16270484D02*
X13286579Y-16270484D01*
X13343722Y-16270484D02*
X13343722Y-16070484D01*
X13343722Y-16070484D02*
X13324674Y-16099055D01*
X13324674Y-16099055D02*
X13305626Y-16118103D01*
X13305626Y-16118103D02*
X13286579Y-16127627D01*
X13572293Y-16137150D02*
X13572293Y-16270484D01*
X13524674Y-16060960D02*
X13477055Y-16203817D01*
X13477055Y-16203817D02*
X13600865Y-16203817D01*
X13829436Y-16270484D02*
X13829436Y-16070484D01*
X13915150Y-16270484D02*
X13915150Y-16165722D01*
X13915150Y-16165722D02*
X13905627Y-16146674D01*
X13905627Y-16146674D02*
X13886579Y-16137150D01*
X13886579Y-16137150D02*
X13858007Y-16137150D01*
X13858007Y-16137150D02*
X13838960Y-16146674D01*
X13838960Y-16146674D02*
X13829436Y-16156198D01*
X14038960Y-16270484D02*
X14019912Y-16260960D01*
X14019912Y-16260960D02*
X14010388Y-16251436D01*
X14010388Y-16251436D02*
X14000865Y-16232388D01*
X14000865Y-16232388D02*
X14000865Y-16175246D01*
X14000865Y-16175246D02*
X14010388Y-16156198D01*
X14010388Y-16156198D02*
X14019912Y-16146674D01*
X14019912Y-16146674D02*
X14038960Y-16137150D01*
X14038960Y-16137150D02*
X14067531Y-16137150D01*
X14067531Y-16137150D02*
X14086579Y-16146674D01*
X14086579Y-16146674D02*
X14096103Y-16156198D01*
X14096103Y-16156198D02*
X14105627Y-16175246D01*
X14105627Y-16175246D02*
X14105627Y-16232388D01*
X14105627Y-16232388D02*
X14096103Y-16251436D01*
X14096103Y-16251436D02*
X14086579Y-16260960D01*
X14086579Y-16260960D02*
X14067531Y-16270484D01*
X14067531Y-16270484D02*
X14038960Y-16270484D01*
X14219912Y-16270484D02*
X14200865Y-16260960D01*
X14200865Y-16260960D02*
X14191341Y-16241912D01*
X14191341Y-16241912D02*
X14191341Y-16070484D01*
X14372293Y-16260960D02*
X14353246Y-16270484D01*
X14353246Y-16270484D02*
X14315150Y-16270484D01*
X14315150Y-16270484D02*
X14296103Y-16260960D01*
X14296103Y-16260960D02*
X14286579Y-16241912D01*
X14286579Y-16241912D02*
X14286579Y-16165722D01*
X14286579Y-16165722D02*
X14296103Y-16146674D01*
X14296103Y-16146674D02*
X14315150Y-16137150D01*
X14315150Y-16137150D02*
X14353246Y-16137150D01*
X14353246Y-16137150D02*
X14372293Y-16146674D01*
X14372293Y-16146674D02*
X14381817Y-16165722D01*
X14381817Y-16165722D02*
X14381817Y-16184769D01*
X14381817Y-16184769D02*
X14286579Y-16203817D01*
X14458008Y-16260960D02*
X14477055Y-16270484D01*
X14477055Y-16270484D02*
X14515150Y-16270484D01*
X14515150Y-16270484D02*
X14534198Y-16260960D01*
X14534198Y-16260960D02*
X14543722Y-16241912D01*
X14543722Y-16241912D02*
X14543722Y-16232388D01*
X14543722Y-16232388D02*
X14534198Y-16213341D01*
X14534198Y-16213341D02*
X14515150Y-16203817D01*
X14515150Y-16203817D02*
X14486579Y-16203817D01*
X14486579Y-16203817D02*
X14467531Y-16194293D01*
X14467531Y-16194293D02*
X14458008Y-16175246D01*
X14458008Y-16175246D02*
X14458008Y-16165722D01*
X14458008Y-16165722D02*
X14467531Y-16146674D01*
X14467531Y-16146674D02*
X14486579Y-16137150D01*
X14486579Y-16137150D02*
X14515150Y-16137150D01*
X14515150Y-16137150D02*
X14534198Y-16146674D01*
X14610389Y-16346674D02*
X14619912Y-16337150D01*
X14619912Y-16337150D02*
X14638960Y-16308579D01*
X14638960Y-16308579D02*
X14648484Y-16289531D01*
X14648484Y-16289531D02*
X14658008Y-16260960D01*
X14658008Y-16260960D02*
X14667531Y-16213341D01*
X14667531Y-16213341D02*
X14667531Y-16175246D01*
X14667531Y-16175246D02*
X14658008Y-16127627D01*
X14658008Y-16127627D02*
X14648484Y-16099055D01*
X14648484Y-16099055D02*
X14638960Y-16080008D01*
X14638960Y-16080008D02*
X14619912Y-16051436D01*
X14619912Y-16051436D02*
X14610389Y-16041912D01*
D16*
X9514849Y-16378000D02*
X9644849Y-16508000D01*
X9644849Y-16378000D02*
X9514849Y-16508000D01*
X9644849Y-16443000D02*
G75*
G03*
X9644849Y-16443000I-65000J0D01*
G01*
D11*
X10010388Y-16534484D02*
X9896102Y-16534484D01*
X9953245Y-16534484D02*
X9953245Y-16334484D01*
X9953245Y-16334484D02*
X9934198Y-16363055D01*
X9934198Y-16363055D02*
X9915150Y-16382103D01*
X9915150Y-16382103D02*
X9896102Y-16391627D01*
X10096102Y-16515436D02*
X10105626Y-16524960D01*
X10105626Y-16524960D02*
X10096102Y-16534484D01*
X10096102Y-16534484D02*
X10086579Y-16524960D01*
X10086579Y-16524960D02*
X10096102Y-16515436D01*
X10096102Y-16515436D02*
X10096102Y-16534484D01*
X10172293Y-16334484D02*
X10296102Y-16334484D01*
X10296102Y-16334484D02*
X10229436Y-16410674D01*
X10229436Y-16410674D02*
X10258007Y-16410674D01*
X10258007Y-16410674D02*
X10277055Y-16420198D01*
X10277055Y-16420198D02*
X10286579Y-16429722D01*
X10286579Y-16429722D02*
X10296102Y-16448769D01*
X10296102Y-16448769D02*
X10296102Y-16496388D01*
X10296102Y-16496388D02*
X10286579Y-16515436D01*
X10286579Y-16515436D02*
X10277055Y-16524960D01*
X10277055Y-16524960D02*
X10258007Y-16534484D01*
X10258007Y-16534484D02*
X10200864Y-16534484D01*
X10200864Y-16534484D02*
X10181817Y-16524960D01*
X10181817Y-16524960D02*
X10172293Y-16515436D01*
X10419912Y-16334484D02*
X10438960Y-16334484D01*
X10438960Y-16334484D02*
X10458007Y-16344008D01*
X10458007Y-16344008D02*
X10467531Y-16353531D01*
X10467531Y-16353531D02*
X10477055Y-16372579D01*
X10477055Y-16372579D02*
X10486579Y-16410674D01*
X10486579Y-16410674D02*
X10486579Y-16458293D01*
X10486579Y-16458293D02*
X10477055Y-16496388D01*
X10477055Y-16496388D02*
X10467531Y-16515436D01*
X10467531Y-16515436D02*
X10458007Y-16524960D01*
X10458007Y-16524960D02*
X10438960Y-16534484D01*
X10438960Y-16534484D02*
X10419912Y-16534484D01*
X10419912Y-16534484D02*
X10400864Y-16524960D01*
X10400864Y-16524960D02*
X10391341Y-16515436D01*
X10391341Y-16515436D02*
X10381817Y-16496388D01*
X10381817Y-16496388D02*
X10372293Y-16458293D01*
X10372293Y-16458293D02*
X10372293Y-16410674D01*
X10372293Y-16410674D02*
X10381817Y-16372579D01*
X10381817Y-16372579D02*
X10391341Y-16353531D01*
X10391341Y-16353531D02*
X10400864Y-16344008D01*
X10400864Y-16344008D02*
X10419912Y-16334484D01*
X10610388Y-16334484D02*
X10629436Y-16334484D01*
X10629436Y-16334484D02*
X10648483Y-16344008D01*
X10648483Y-16344008D02*
X10658007Y-16353531D01*
X10658007Y-16353531D02*
X10667531Y-16372579D01*
X10667531Y-16372579D02*
X10677055Y-16410674D01*
X10677055Y-16410674D02*
X10677055Y-16458293D01*
X10677055Y-16458293D02*
X10667531Y-16496388D01*
X10667531Y-16496388D02*
X10658007Y-16515436D01*
X10658007Y-16515436D02*
X10648483Y-16524960D01*
X10648483Y-16524960D02*
X10629436Y-16534484D01*
X10629436Y-16534484D02*
X10610388Y-16534484D01*
X10610388Y-16534484D02*
X10591341Y-16524960D01*
X10591341Y-16524960D02*
X10581817Y-16515436D01*
X10581817Y-16515436D02*
X10572293Y-16496388D01*
X10572293Y-16496388D02*
X10562769Y-16458293D01*
X10562769Y-16458293D02*
X10562769Y-16410674D01*
X10562769Y-16410674D02*
X10572293Y-16372579D01*
X10572293Y-16372579D02*
X10581817Y-16353531D01*
X10581817Y-16353531D02*
X10591341Y-16344008D01*
X10591341Y-16344008D02*
X10610388Y-16334484D01*
X10762769Y-16534484D02*
X10762769Y-16401150D01*
X10762769Y-16420198D02*
X10772293Y-16410674D01*
X10772293Y-16410674D02*
X10791341Y-16401150D01*
X10791341Y-16401150D02*
X10819912Y-16401150D01*
X10819912Y-16401150D02*
X10838960Y-16410674D01*
X10838960Y-16410674D02*
X10848483Y-16429722D01*
X10848483Y-16429722D02*
X10848483Y-16534484D01*
X10848483Y-16429722D02*
X10858007Y-16410674D01*
X10858007Y-16410674D02*
X10877055Y-16401150D01*
X10877055Y-16401150D02*
X10905626Y-16401150D01*
X10905626Y-16401150D02*
X10924674Y-16410674D01*
X10924674Y-16410674D02*
X10934198Y-16429722D01*
X10934198Y-16429722D02*
X10934198Y-16534484D01*
X11029436Y-16534484D02*
X11029436Y-16401150D01*
X11029436Y-16420198D02*
X11038960Y-16410674D01*
X11038960Y-16410674D02*
X11058007Y-16401150D01*
X11058007Y-16401150D02*
X11086579Y-16401150D01*
X11086579Y-16401150D02*
X11105626Y-16410674D01*
X11105626Y-16410674D02*
X11115150Y-16429722D01*
X11115150Y-16429722D02*
X11115150Y-16534484D01*
X11115150Y-16429722D02*
X11124674Y-16410674D01*
X11124674Y-16410674D02*
X11143722Y-16401150D01*
X11143722Y-16401150D02*
X11172293Y-16401150D01*
X11172293Y-16401150D02*
X11191341Y-16410674D01*
X11191341Y-16410674D02*
X11200864Y-16429722D01*
X11200864Y-16429722D02*
X11200864Y-16534484D01*
X11591341Y-16324960D02*
X11419912Y-16582103D01*
X11848483Y-16334484D02*
X11867531Y-16334484D01*
X11867531Y-16334484D02*
X11886579Y-16344008D01*
X11886579Y-16344008D02*
X11896103Y-16353531D01*
X11896103Y-16353531D02*
X11905626Y-16372579D01*
X11905626Y-16372579D02*
X11915150Y-16410674D01*
X11915150Y-16410674D02*
X11915150Y-16458293D01*
X11915150Y-16458293D02*
X11905626Y-16496388D01*
X11905626Y-16496388D02*
X11896103Y-16515436D01*
X11896103Y-16515436D02*
X11886579Y-16524960D01*
X11886579Y-16524960D02*
X11867531Y-16534484D01*
X11867531Y-16534484D02*
X11848483Y-16534484D01*
X11848483Y-16534484D02*
X11829436Y-16524960D01*
X11829436Y-16524960D02*
X11819912Y-16515436D01*
X11819912Y-16515436D02*
X11810388Y-16496388D01*
X11810388Y-16496388D02*
X11800864Y-16458293D01*
X11800864Y-16458293D02*
X11800864Y-16410674D01*
X11800864Y-16410674D02*
X11810388Y-16372579D01*
X11810388Y-16372579D02*
X11819912Y-16353531D01*
X11819912Y-16353531D02*
X11829436Y-16344008D01*
X11829436Y-16344008D02*
X11848483Y-16334484D01*
X12000864Y-16515436D02*
X12010388Y-16524960D01*
X12010388Y-16524960D02*
X12000864Y-16534484D01*
X12000864Y-16534484D02*
X11991341Y-16524960D01*
X11991341Y-16524960D02*
X12000864Y-16515436D01*
X12000864Y-16515436D02*
X12000864Y-16534484D01*
X12134198Y-16334484D02*
X12153245Y-16334484D01*
X12153245Y-16334484D02*
X12172293Y-16344008D01*
X12172293Y-16344008D02*
X12181817Y-16353531D01*
X12181817Y-16353531D02*
X12191341Y-16372579D01*
X12191341Y-16372579D02*
X12200864Y-16410674D01*
X12200864Y-16410674D02*
X12200864Y-16458293D01*
X12200864Y-16458293D02*
X12191341Y-16496388D01*
X12191341Y-16496388D02*
X12181817Y-16515436D01*
X12181817Y-16515436D02*
X12172293Y-16524960D01*
X12172293Y-16524960D02*
X12153245Y-16534484D01*
X12153245Y-16534484D02*
X12134198Y-16534484D01*
X12134198Y-16534484D02*
X12115150Y-16524960D01*
X12115150Y-16524960D02*
X12105626Y-16515436D01*
X12105626Y-16515436D02*
X12096103Y-16496388D01*
X12096103Y-16496388D02*
X12086579Y-16458293D01*
X12086579Y-16458293D02*
X12086579Y-16410674D01*
X12086579Y-16410674D02*
X12096103Y-16372579D01*
X12096103Y-16372579D02*
X12105626Y-16353531D01*
X12105626Y-16353531D02*
X12115150Y-16344008D01*
X12115150Y-16344008D02*
X12134198Y-16334484D01*
X12381817Y-16334484D02*
X12286579Y-16334484D01*
X12286579Y-16334484D02*
X12277055Y-16429722D01*
X12277055Y-16429722D02*
X12286579Y-16420198D01*
X12286579Y-16420198D02*
X12305626Y-16410674D01*
X12305626Y-16410674D02*
X12353245Y-16410674D01*
X12353245Y-16410674D02*
X12372293Y-16420198D01*
X12372293Y-16420198D02*
X12381817Y-16429722D01*
X12381817Y-16429722D02*
X12391341Y-16448769D01*
X12391341Y-16448769D02*
X12391341Y-16496388D01*
X12391341Y-16496388D02*
X12381817Y-16515436D01*
X12381817Y-16515436D02*
X12372293Y-16524960D01*
X12372293Y-16524960D02*
X12353245Y-16534484D01*
X12353245Y-16534484D02*
X12305626Y-16534484D01*
X12305626Y-16534484D02*
X12286579Y-16524960D01*
X12286579Y-16524960D02*
X12277055Y-16515436D01*
X12581817Y-16534484D02*
X12467531Y-16534484D01*
X12524674Y-16534484D02*
X12524674Y-16334484D01*
X12524674Y-16334484D02*
X12505626Y-16363055D01*
X12505626Y-16363055D02*
X12486579Y-16382103D01*
X12486579Y-16382103D02*
X12467531Y-16391627D01*
X12658007Y-16353531D02*
X12667531Y-16344008D01*
X12667531Y-16344008D02*
X12686579Y-16334484D01*
X12686579Y-16334484D02*
X12734198Y-16334484D01*
X12734198Y-16334484D02*
X12753245Y-16344008D01*
X12753245Y-16344008D02*
X12762769Y-16353531D01*
X12762769Y-16353531D02*
X12772293Y-16372579D01*
X12772293Y-16372579D02*
X12772293Y-16391627D01*
X12772293Y-16391627D02*
X12762769Y-16420198D01*
X12762769Y-16420198D02*
X12648484Y-16534484D01*
X12648484Y-16534484D02*
X12772293Y-16534484D01*
X12848484Y-16334484D02*
X12848484Y-16372579D01*
X12924674Y-16334484D02*
X12924674Y-16372579D01*
X13219912Y-16610674D02*
X13210388Y-16601150D01*
X13210388Y-16601150D02*
X13191341Y-16572579D01*
X13191341Y-16572579D02*
X13181817Y-16553531D01*
X13181817Y-16553531D02*
X13172293Y-16524960D01*
X13172293Y-16524960D02*
X13162769Y-16477341D01*
X13162769Y-16477341D02*
X13162769Y-16439246D01*
X13162769Y-16439246D02*
X13172293Y-16391627D01*
X13172293Y-16391627D02*
X13181817Y-16363055D01*
X13181817Y-16363055D02*
X13191341Y-16344008D01*
X13191341Y-16344008D02*
X13210388Y-16315436D01*
X13210388Y-16315436D02*
X13219912Y-16305912D01*
X13400865Y-16534484D02*
X13286579Y-16534484D01*
X13343722Y-16534484D02*
X13343722Y-16334484D01*
X13343722Y-16334484D02*
X13324674Y-16363055D01*
X13324674Y-16363055D02*
X13305626Y-16382103D01*
X13305626Y-16382103D02*
X13286579Y-16391627D01*
X13477055Y-16353531D02*
X13486579Y-16344008D01*
X13486579Y-16344008D02*
X13505626Y-16334484D01*
X13505626Y-16334484D02*
X13553246Y-16334484D01*
X13553246Y-16334484D02*
X13572293Y-16344008D01*
X13572293Y-16344008D02*
X13581817Y-16353531D01*
X13581817Y-16353531D02*
X13591341Y-16372579D01*
X13591341Y-16372579D02*
X13591341Y-16391627D01*
X13591341Y-16391627D02*
X13581817Y-16420198D01*
X13581817Y-16420198D02*
X13467531Y-16534484D01*
X13467531Y-16534484D02*
X13591341Y-16534484D01*
X13829436Y-16534484D02*
X13829436Y-16334484D01*
X13915150Y-16534484D02*
X13915150Y-16429722D01*
X13915150Y-16429722D02*
X13905627Y-16410674D01*
X13905627Y-16410674D02*
X13886579Y-16401150D01*
X13886579Y-16401150D02*
X13858007Y-16401150D01*
X13858007Y-16401150D02*
X13838960Y-16410674D01*
X13838960Y-16410674D02*
X13829436Y-16420198D01*
X14038960Y-16534484D02*
X14019912Y-16524960D01*
X14019912Y-16524960D02*
X14010388Y-16515436D01*
X14010388Y-16515436D02*
X14000865Y-16496388D01*
X14000865Y-16496388D02*
X14000865Y-16439246D01*
X14000865Y-16439246D02*
X14010388Y-16420198D01*
X14010388Y-16420198D02*
X14019912Y-16410674D01*
X14019912Y-16410674D02*
X14038960Y-16401150D01*
X14038960Y-16401150D02*
X14067531Y-16401150D01*
X14067531Y-16401150D02*
X14086579Y-16410674D01*
X14086579Y-16410674D02*
X14096103Y-16420198D01*
X14096103Y-16420198D02*
X14105627Y-16439246D01*
X14105627Y-16439246D02*
X14105627Y-16496388D01*
X14105627Y-16496388D02*
X14096103Y-16515436D01*
X14096103Y-16515436D02*
X14086579Y-16524960D01*
X14086579Y-16524960D02*
X14067531Y-16534484D01*
X14067531Y-16534484D02*
X14038960Y-16534484D01*
X14219912Y-16534484D02*
X14200865Y-16524960D01*
X14200865Y-16524960D02*
X14191341Y-16505912D01*
X14191341Y-16505912D02*
X14191341Y-16334484D01*
X14372293Y-16524960D02*
X14353246Y-16534484D01*
X14353246Y-16534484D02*
X14315150Y-16534484D01*
X14315150Y-16534484D02*
X14296103Y-16524960D01*
X14296103Y-16524960D02*
X14286579Y-16505912D01*
X14286579Y-16505912D02*
X14286579Y-16429722D01*
X14286579Y-16429722D02*
X14296103Y-16410674D01*
X14296103Y-16410674D02*
X14315150Y-16401150D01*
X14315150Y-16401150D02*
X14353246Y-16401150D01*
X14353246Y-16401150D02*
X14372293Y-16410674D01*
X14372293Y-16410674D02*
X14381817Y-16429722D01*
X14381817Y-16429722D02*
X14381817Y-16448769D01*
X14381817Y-16448769D02*
X14286579Y-16467817D01*
X14458008Y-16524960D02*
X14477055Y-16534484D01*
X14477055Y-16534484D02*
X14515150Y-16534484D01*
X14515150Y-16534484D02*
X14534198Y-16524960D01*
X14534198Y-16524960D02*
X14543722Y-16505912D01*
X14543722Y-16505912D02*
X14543722Y-16496388D01*
X14543722Y-16496388D02*
X14534198Y-16477341D01*
X14534198Y-16477341D02*
X14515150Y-16467817D01*
X14515150Y-16467817D02*
X14486579Y-16467817D01*
X14486579Y-16467817D02*
X14467531Y-16458293D01*
X14467531Y-16458293D02*
X14458008Y-16439246D01*
X14458008Y-16439246D02*
X14458008Y-16429722D01*
X14458008Y-16429722D02*
X14467531Y-16410674D01*
X14467531Y-16410674D02*
X14486579Y-16401150D01*
X14486579Y-16401150D02*
X14515150Y-16401150D01*
X14515150Y-16401150D02*
X14534198Y-16410674D01*
X14610389Y-16610674D02*
X14619912Y-16601150D01*
X14619912Y-16601150D02*
X14638960Y-16572579D01*
X14638960Y-16572579D02*
X14648484Y-16553531D01*
X14648484Y-16553531D02*
X14658008Y-16524960D01*
X14658008Y-16524960D02*
X14667531Y-16477341D01*
X14667531Y-16477341D02*
X14667531Y-16439246D01*
X14667531Y-16439246D02*
X14658008Y-16391627D01*
X14658008Y-16391627D02*
X14648484Y-16363055D01*
X14648484Y-16363055D02*
X14638960Y-16344008D01*
X14638960Y-16344008D02*
X14619912Y-16315436D01*
X14619912Y-16315436D02*
X14610389Y-16305912D01*
X9444849Y-16607000D02*
X9644849Y-16807000D01*
X9644849Y-16607000D02*
X9444849Y-16807000D01*
X9544849Y-16607000D02*
X9544849Y-16807000D01*
X9444849Y-16707000D02*
X9644849Y-16707000D01*
X9896102Y-16617531D02*
X9905626Y-16608008D01*
X9905626Y-16608008D02*
X9924674Y-16598484D01*
X9924674Y-16598484D02*
X9972293Y-16598484D01*
X9972293Y-16598484D02*
X9991341Y-16608008D01*
X9991341Y-16608008D02*
X10000864Y-16617531D01*
X10000864Y-16617531D02*
X10010388Y-16636579D01*
X10010388Y-16636579D02*
X10010388Y-16655627D01*
X10010388Y-16655627D02*
X10000864Y-16684198D01*
X10000864Y-16684198D02*
X9886579Y-16798484D01*
X9886579Y-16798484D02*
X10010388Y-16798484D01*
X10096102Y-16779436D02*
X10105626Y-16788960D01*
X10105626Y-16788960D02*
X10096102Y-16798484D01*
X10096102Y-16798484D02*
X10086579Y-16788960D01*
X10086579Y-16788960D02*
X10096102Y-16779436D01*
X10096102Y-16779436D02*
X10096102Y-16798484D01*
X10277055Y-16665150D02*
X10277055Y-16798484D01*
X10229436Y-16588960D02*
X10181817Y-16731817D01*
X10181817Y-16731817D02*
X10305626Y-16731817D01*
X10419912Y-16598484D02*
X10438960Y-16598484D01*
X10438960Y-16598484D02*
X10458007Y-16608008D01*
X10458007Y-16608008D02*
X10467531Y-16617531D01*
X10467531Y-16617531D02*
X10477055Y-16636579D01*
X10477055Y-16636579D02*
X10486579Y-16674674D01*
X10486579Y-16674674D02*
X10486579Y-16722293D01*
X10486579Y-16722293D02*
X10477055Y-16760388D01*
X10477055Y-16760388D02*
X10467531Y-16779436D01*
X10467531Y-16779436D02*
X10458007Y-16788960D01*
X10458007Y-16788960D02*
X10438960Y-16798484D01*
X10438960Y-16798484D02*
X10419912Y-16798484D01*
X10419912Y-16798484D02*
X10400864Y-16788960D01*
X10400864Y-16788960D02*
X10391341Y-16779436D01*
X10391341Y-16779436D02*
X10381817Y-16760388D01*
X10381817Y-16760388D02*
X10372293Y-16722293D01*
X10372293Y-16722293D02*
X10372293Y-16674674D01*
X10372293Y-16674674D02*
X10381817Y-16636579D01*
X10381817Y-16636579D02*
X10391341Y-16617531D01*
X10391341Y-16617531D02*
X10400864Y-16608008D01*
X10400864Y-16608008D02*
X10419912Y-16598484D01*
X10610388Y-16598484D02*
X10629436Y-16598484D01*
X10629436Y-16598484D02*
X10648483Y-16608008D01*
X10648483Y-16608008D02*
X10658007Y-16617531D01*
X10658007Y-16617531D02*
X10667531Y-16636579D01*
X10667531Y-16636579D02*
X10677055Y-16674674D01*
X10677055Y-16674674D02*
X10677055Y-16722293D01*
X10677055Y-16722293D02*
X10667531Y-16760388D01*
X10667531Y-16760388D02*
X10658007Y-16779436D01*
X10658007Y-16779436D02*
X10648483Y-16788960D01*
X10648483Y-16788960D02*
X10629436Y-16798484D01*
X10629436Y-16798484D02*
X10610388Y-16798484D01*
X10610388Y-16798484D02*
X10591341Y-16788960D01*
X10591341Y-16788960D02*
X10581817Y-16779436D01*
X10581817Y-16779436D02*
X10572293Y-16760388D01*
X10572293Y-16760388D02*
X10562769Y-16722293D01*
X10562769Y-16722293D02*
X10562769Y-16674674D01*
X10562769Y-16674674D02*
X10572293Y-16636579D01*
X10572293Y-16636579D02*
X10581817Y-16617531D01*
X10581817Y-16617531D02*
X10591341Y-16608008D01*
X10591341Y-16608008D02*
X10610388Y-16598484D01*
X10762769Y-16798484D02*
X10762769Y-16665150D01*
X10762769Y-16684198D02*
X10772293Y-16674674D01*
X10772293Y-16674674D02*
X10791341Y-16665150D01*
X10791341Y-16665150D02*
X10819912Y-16665150D01*
X10819912Y-16665150D02*
X10838960Y-16674674D01*
X10838960Y-16674674D02*
X10848483Y-16693722D01*
X10848483Y-16693722D02*
X10848483Y-16798484D01*
X10848483Y-16693722D02*
X10858007Y-16674674D01*
X10858007Y-16674674D02*
X10877055Y-16665150D01*
X10877055Y-16665150D02*
X10905626Y-16665150D01*
X10905626Y-16665150D02*
X10924674Y-16674674D01*
X10924674Y-16674674D02*
X10934198Y-16693722D01*
X10934198Y-16693722D02*
X10934198Y-16798484D01*
X11029436Y-16798484D02*
X11029436Y-16665150D01*
X11029436Y-16684198D02*
X11038960Y-16674674D01*
X11038960Y-16674674D02*
X11058007Y-16665150D01*
X11058007Y-16665150D02*
X11086579Y-16665150D01*
X11086579Y-16665150D02*
X11105626Y-16674674D01*
X11105626Y-16674674D02*
X11115150Y-16693722D01*
X11115150Y-16693722D02*
X11115150Y-16798484D01*
X11115150Y-16693722D02*
X11124674Y-16674674D01*
X11124674Y-16674674D02*
X11143722Y-16665150D01*
X11143722Y-16665150D02*
X11172293Y-16665150D01*
X11172293Y-16665150D02*
X11191341Y-16674674D01*
X11191341Y-16674674D02*
X11200864Y-16693722D01*
X11200864Y-16693722D02*
X11200864Y-16798484D01*
X11591341Y-16588960D02*
X11419912Y-16846103D01*
X11848483Y-16598484D02*
X11867531Y-16598484D01*
X11867531Y-16598484D02*
X11886579Y-16608008D01*
X11886579Y-16608008D02*
X11896103Y-16617531D01*
X11896103Y-16617531D02*
X11905626Y-16636579D01*
X11905626Y-16636579D02*
X11915150Y-16674674D01*
X11915150Y-16674674D02*
X11915150Y-16722293D01*
X11915150Y-16722293D02*
X11905626Y-16760388D01*
X11905626Y-16760388D02*
X11896103Y-16779436D01*
X11896103Y-16779436D02*
X11886579Y-16788960D01*
X11886579Y-16788960D02*
X11867531Y-16798484D01*
X11867531Y-16798484D02*
X11848483Y-16798484D01*
X11848483Y-16798484D02*
X11829436Y-16788960D01*
X11829436Y-16788960D02*
X11819912Y-16779436D01*
X11819912Y-16779436D02*
X11810388Y-16760388D01*
X11810388Y-16760388D02*
X11800864Y-16722293D01*
X11800864Y-16722293D02*
X11800864Y-16674674D01*
X11800864Y-16674674D02*
X11810388Y-16636579D01*
X11810388Y-16636579D02*
X11819912Y-16617531D01*
X11819912Y-16617531D02*
X11829436Y-16608008D01*
X11829436Y-16608008D02*
X11848483Y-16598484D01*
X12000864Y-16779436D02*
X12010388Y-16788960D01*
X12010388Y-16788960D02*
X12000864Y-16798484D01*
X12000864Y-16798484D02*
X11991341Y-16788960D01*
X11991341Y-16788960D02*
X12000864Y-16779436D01*
X12000864Y-16779436D02*
X12000864Y-16798484D01*
X12134198Y-16598484D02*
X12153245Y-16598484D01*
X12153245Y-16598484D02*
X12172293Y-16608008D01*
X12172293Y-16608008D02*
X12181817Y-16617531D01*
X12181817Y-16617531D02*
X12191341Y-16636579D01*
X12191341Y-16636579D02*
X12200864Y-16674674D01*
X12200864Y-16674674D02*
X12200864Y-16722293D01*
X12200864Y-16722293D02*
X12191341Y-16760388D01*
X12191341Y-16760388D02*
X12181817Y-16779436D01*
X12181817Y-16779436D02*
X12172293Y-16788960D01*
X12172293Y-16788960D02*
X12153245Y-16798484D01*
X12153245Y-16798484D02*
X12134198Y-16798484D01*
X12134198Y-16798484D02*
X12115150Y-16788960D01*
X12115150Y-16788960D02*
X12105626Y-16779436D01*
X12105626Y-16779436D02*
X12096103Y-16760388D01*
X12096103Y-16760388D02*
X12086579Y-16722293D01*
X12086579Y-16722293D02*
X12086579Y-16674674D01*
X12086579Y-16674674D02*
X12096103Y-16636579D01*
X12096103Y-16636579D02*
X12105626Y-16617531D01*
X12105626Y-16617531D02*
X12115150Y-16608008D01*
X12115150Y-16608008D02*
X12134198Y-16598484D01*
X12296103Y-16798484D02*
X12334198Y-16798484D01*
X12334198Y-16798484D02*
X12353245Y-16788960D01*
X12353245Y-16788960D02*
X12362769Y-16779436D01*
X12362769Y-16779436D02*
X12381817Y-16750865D01*
X12381817Y-16750865D02*
X12391341Y-16712769D01*
X12391341Y-16712769D02*
X12391341Y-16636579D01*
X12391341Y-16636579D02*
X12381817Y-16617531D01*
X12381817Y-16617531D02*
X12372293Y-16608008D01*
X12372293Y-16608008D02*
X12353245Y-16598484D01*
X12353245Y-16598484D02*
X12315150Y-16598484D01*
X12315150Y-16598484D02*
X12296103Y-16608008D01*
X12296103Y-16608008D02*
X12286579Y-16617531D01*
X12286579Y-16617531D02*
X12277055Y-16636579D01*
X12277055Y-16636579D02*
X12277055Y-16684198D01*
X12277055Y-16684198D02*
X12286579Y-16703246D01*
X12286579Y-16703246D02*
X12296103Y-16712769D01*
X12296103Y-16712769D02*
X12315150Y-16722293D01*
X12315150Y-16722293D02*
X12353245Y-16722293D01*
X12353245Y-16722293D02*
X12372293Y-16712769D01*
X12372293Y-16712769D02*
X12381817Y-16703246D01*
X12381817Y-16703246D02*
X12391341Y-16684198D01*
X12562769Y-16665150D02*
X12562769Y-16798484D01*
X12515150Y-16588960D02*
X12467531Y-16731817D01*
X12467531Y-16731817D02*
X12591341Y-16731817D01*
X12762769Y-16598484D02*
X12667531Y-16598484D01*
X12667531Y-16598484D02*
X12658007Y-16693722D01*
X12658007Y-16693722D02*
X12667531Y-16684198D01*
X12667531Y-16684198D02*
X12686579Y-16674674D01*
X12686579Y-16674674D02*
X12734198Y-16674674D01*
X12734198Y-16674674D02*
X12753245Y-16684198D01*
X12753245Y-16684198D02*
X12762769Y-16693722D01*
X12762769Y-16693722D02*
X12772293Y-16712769D01*
X12772293Y-16712769D02*
X12772293Y-16760388D01*
X12772293Y-16760388D02*
X12762769Y-16779436D01*
X12762769Y-16779436D02*
X12753245Y-16788960D01*
X12753245Y-16788960D02*
X12734198Y-16798484D01*
X12734198Y-16798484D02*
X12686579Y-16798484D01*
X12686579Y-16798484D02*
X12667531Y-16788960D01*
X12667531Y-16788960D02*
X12658007Y-16779436D01*
X12848484Y-16598484D02*
X12848484Y-16636579D01*
X12924674Y-16598484D02*
X12924674Y-16636579D01*
X13219912Y-16874674D02*
X13210388Y-16865150D01*
X13210388Y-16865150D02*
X13191341Y-16836579D01*
X13191341Y-16836579D02*
X13181817Y-16817531D01*
X13181817Y-16817531D02*
X13172293Y-16788960D01*
X13172293Y-16788960D02*
X13162769Y-16741341D01*
X13162769Y-16741341D02*
X13162769Y-16703246D01*
X13162769Y-16703246D02*
X13172293Y-16655627D01*
X13172293Y-16655627D02*
X13181817Y-16627055D01*
X13181817Y-16627055D02*
X13191341Y-16608008D01*
X13191341Y-16608008D02*
X13210388Y-16579436D01*
X13210388Y-16579436D02*
X13219912Y-16569912D01*
X13381817Y-16665150D02*
X13381817Y-16798484D01*
X13334198Y-16588960D02*
X13286579Y-16731817D01*
X13286579Y-16731817D02*
X13410388Y-16731817D01*
X13638960Y-16798484D02*
X13638960Y-16598484D01*
X13724674Y-16798484D02*
X13724674Y-16693722D01*
X13724674Y-16693722D02*
X13715150Y-16674674D01*
X13715150Y-16674674D02*
X13696103Y-16665150D01*
X13696103Y-16665150D02*
X13667531Y-16665150D01*
X13667531Y-16665150D02*
X13648484Y-16674674D01*
X13648484Y-16674674D02*
X13638960Y-16684198D01*
X13848484Y-16798484D02*
X13829436Y-16788960D01*
X13829436Y-16788960D02*
X13819912Y-16779436D01*
X13819912Y-16779436D02*
X13810388Y-16760388D01*
X13810388Y-16760388D02*
X13810388Y-16703246D01*
X13810388Y-16703246D02*
X13819912Y-16684198D01*
X13819912Y-16684198D02*
X13829436Y-16674674D01*
X13829436Y-16674674D02*
X13848484Y-16665150D01*
X13848484Y-16665150D02*
X13877055Y-16665150D01*
X13877055Y-16665150D02*
X13896103Y-16674674D01*
X13896103Y-16674674D02*
X13905627Y-16684198D01*
X13905627Y-16684198D02*
X13915150Y-16703246D01*
X13915150Y-16703246D02*
X13915150Y-16760388D01*
X13915150Y-16760388D02*
X13905627Y-16779436D01*
X13905627Y-16779436D02*
X13896103Y-16788960D01*
X13896103Y-16788960D02*
X13877055Y-16798484D01*
X13877055Y-16798484D02*
X13848484Y-16798484D01*
X14029436Y-16798484D02*
X14010388Y-16788960D01*
X14010388Y-16788960D02*
X14000865Y-16769912D01*
X14000865Y-16769912D02*
X14000865Y-16598484D01*
X14181817Y-16788960D02*
X14162769Y-16798484D01*
X14162769Y-16798484D02*
X14124674Y-16798484D01*
X14124674Y-16798484D02*
X14105627Y-16788960D01*
X14105627Y-16788960D02*
X14096103Y-16769912D01*
X14096103Y-16769912D02*
X14096103Y-16693722D01*
X14096103Y-16693722D02*
X14105627Y-16674674D01*
X14105627Y-16674674D02*
X14124674Y-16665150D01*
X14124674Y-16665150D02*
X14162769Y-16665150D01*
X14162769Y-16665150D02*
X14181817Y-16674674D01*
X14181817Y-16674674D02*
X14191341Y-16693722D01*
X14191341Y-16693722D02*
X14191341Y-16712769D01*
X14191341Y-16712769D02*
X14096103Y-16731817D01*
X14267531Y-16788960D02*
X14286579Y-16798484D01*
X14286579Y-16798484D02*
X14324674Y-16798484D01*
X14324674Y-16798484D02*
X14343722Y-16788960D01*
X14343722Y-16788960D02*
X14353246Y-16769912D01*
X14353246Y-16769912D02*
X14353246Y-16760388D01*
X14353246Y-16760388D02*
X14343722Y-16741341D01*
X14343722Y-16741341D02*
X14324674Y-16731817D01*
X14324674Y-16731817D02*
X14296103Y-16731817D01*
X14296103Y-16731817D02*
X14277055Y-16722293D01*
X14277055Y-16722293D02*
X14267531Y-16703246D01*
X14267531Y-16703246D02*
X14267531Y-16693722D01*
X14267531Y-16693722D02*
X14277055Y-16674674D01*
X14277055Y-16674674D02*
X14296103Y-16665150D01*
X14296103Y-16665150D02*
X14324674Y-16665150D01*
X14324674Y-16665150D02*
X14343722Y-16674674D01*
X14419912Y-16874674D02*
X14429436Y-16865150D01*
X14429436Y-16865150D02*
X14448484Y-16836579D01*
X14448484Y-16836579D02*
X14458008Y-16817531D01*
X14458008Y-16817531D02*
X14467531Y-16788960D01*
X14467531Y-16788960D02*
X14477055Y-16741341D01*
X14477055Y-16741341D02*
X14477055Y-16703246D01*
X14477055Y-16703246D02*
X14467531Y-16655627D01*
X14467531Y-16655627D02*
X14458008Y-16627055D01*
X14458008Y-16627055D02*
X14448484Y-16608008D01*
X14448484Y-16608008D02*
X14429436Y-16579436D01*
X14429436Y-16579436D02*
X14419912Y-16569912D01*
X9444849Y-16927000D02*
X9644849Y-17127000D01*
X9644849Y-16927000D02*
X9444849Y-17127000D01*
X9615561Y-17097711D02*
X9615561Y-16956289D01*
X9474138Y-16956289D01*
X9474138Y-17097711D01*
X9615561Y-17097711D01*
X9896102Y-16937531D02*
X9905626Y-16928008D01*
X9905626Y-16928008D02*
X9924674Y-16918484D01*
X9924674Y-16918484D02*
X9972293Y-16918484D01*
X9972293Y-16918484D02*
X9991341Y-16928008D01*
X9991341Y-16928008D02*
X10000864Y-16937531D01*
X10000864Y-16937531D02*
X10010388Y-16956579D01*
X10010388Y-16956579D02*
X10010388Y-16975627D01*
X10010388Y-16975627D02*
X10000864Y-17004198D01*
X10000864Y-17004198D02*
X9886579Y-17118484D01*
X9886579Y-17118484D02*
X10010388Y-17118484D01*
X10096102Y-17099436D02*
X10105626Y-17108960D01*
X10105626Y-17108960D02*
X10096102Y-17118484D01*
X10096102Y-17118484D02*
X10086579Y-17108960D01*
X10086579Y-17108960D02*
X10096102Y-17099436D01*
X10096102Y-17099436D02*
X10096102Y-17118484D01*
X10172293Y-16918484D02*
X10305626Y-16918484D01*
X10305626Y-16918484D02*
X10219912Y-17118484D01*
X10419912Y-16918484D02*
X10438960Y-16918484D01*
X10438960Y-16918484D02*
X10458007Y-16928008D01*
X10458007Y-16928008D02*
X10467531Y-16937531D01*
X10467531Y-16937531D02*
X10477055Y-16956579D01*
X10477055Y-16956579D02*
X10486579Y-16994674D01*
X10486579Y-16994674D02*
X10486579Y-17042293D01*
X10486579Y-17042293D02*
X10477055Y-17080389D01*
X10477055Y-17080389D02*
X10467531Y-17099436D01*
X10467531Y-17099436D02*
X10458007Y-17108960D01*
X10458007Y-17108960D02*
X10438960Y-17118484D01*
X10438960Y-17118484D02*
X10419912Y-17118484D01*
X10419912Y-17118484D02*
X10400864Y-17108960D01*
X10400864Y-17108960D02*
X10391341Y-17099436D01*
X10391341Y-17099436D02*
X10381817Y-17080389D01*
X10381817Y-17080389D02*
X10372293Y-17042293D01*
X10372293Y-17042293D02*
X10372293Y-16994674D01*
X10372293Y-16994674D02*
X10381817Y-16956579D01*
X10381817Y-16956579D02*
X10391341Y-16937531D01*
X10391341Y-16937531D02*
X10400864Y-16928008D01*
X10400864Y-16928008D02*
X10419912Y-16918484D01*
X10610388Y-16918484D02*
X10629436Y-16918484D01*
X10629436Y-16918484D02*
X10648483Y-16928008D01*
X10648483Y-16928008D02*
X10658007Y-16937531D01*
X10658007Y-16937531D02*
X10667531Y-16956579D01*
X10667531Y-16956579D02*
X10677055Y-16994674D01*
X10677055Y-16994674D02*
X10677055Y-17042293D01*
X10677055Y-17042293D02*
X10667531Y-17080389D01*
X10667531Y-17080389D02*
X10658007Y-17099436D01*
X10658007Y-17099436D02*
X10648483Y-17108960D01*
X10648483Y-17108960D02*
X10629436Y-17118484D01*
X10629436Y-17118484D02*
X10610388Y-17118484D01*
X10610388Y-17118484D02*
X10591341Y-17108960D01*
X10591341Y-17108960D02*
X10581817Y-17099436D01*
X10581817Y-17099436D02*
X10572293Y-17080389D01*
X10572293Y-17080389D02*
X10562769Y-17042293D01*
X10562769Y-17042293D02*
X10562769Y-16994674D01*
X10562769Y-16994674D02*
X10572293Y-16956579D01*
X10572293Y-16956579D02*
X10581817Y-16937531D01*
X10581817Y-16937531D02*
X10591341Y-16928008D01*
X10591341Y-16928008D02*
X10610388Y-16918484D01*
X10762769Y-17118484D02*
X10762769Y-16985150D01*
X10762769Y-17004198D02*
X10772293Y-16994674D01*
X10772293Y-16994674D02*
X10791341Y-16985150D01*
X10791341Y-16985150D02*
X10819912Y-16985150D01*
X10819912Y-16985150D02*
X10838960Y-16994674D01*
X10838960Y-16994674D02*
X10848483Y-17013722D01*
X10848483Y-17013722D02*
X10848483Y-17118484D01*
X10848483Y-17013722D02*
X10858007Y-16994674D01*
X10858007Y-16994674D02*
X10877055Y-16985150D01*
X10877055Y-16985150D02*
X10905626Y-16985150D01*
X10905626Y-16985150D02*
X10924674Y-16994674D01*
X10924674Y-16994674D02*
X10934198Y-17013722D01*
X10934198Y-17013722D02*
X10934198Y-17118484D01*
X11029436Y-17118484D02*
X11029436Y-16985150D01*
X11029436Y-17004198D02*
X11038960Y-16994674D01*
X11038960Y-16994674D02*
X11058007Y-16985150D01*
X11058007Y-16985150D02*
X11086579Y-16985150D01*
X11086579Y-16985150D02*
X11105626Y-16994674D01*
X11105626Y-16994674D02*
X11115150Y-17013722D01*
X11115150Y-17013722D02*
X11115150Y-17118484D01*
X11115150Y-17013722D02*
X11124674Y-16994674D01*
X11124674Y-16994674D02*
X11143722Y-16985150D01*
X11143722Y-16985150D02*
X11172293Y-16985150D01*
X11172293Y-16985150D02*
X11191341Y-16994674D01*
X11191341Y-16994674D02*
X11200864Y-17013722D01*
X11200864Y-17013722D02*
X11200864Y-17118484D01*
X11591341Y-16908960D02*
X11419912Y-17166103D01*
X11848483Y-16918484D02*
X11867531Y-16918484D01*
X11867531Y-16918484D02*
X11886579Y-16928008D01*
X11886579Y-16928008D02*
X11896103Y-16937531D01*
X11896103Y-16937531D02*
X11905626Y-16956579D01*
X11905626Y-16956579D02*
X11915150Y-16994674D01*
X11915150Y-16994674D02*
X11915150Y-17042293D01*
X11915150Y-17042293D02*
X11905626Y-17080389D01*
X11905626Y-17080389D02*
X11896103Y-17099436D01*
X11896103Y-17099436D02*
X11886579Y-17108960D01*
X11886579Y-17108960D02*
X11867531Y-17118484D01*
X11867531Y-17118484D02*
X11848483Y-17118484D01*
X11848483Y-17118484D02*
X11829436Y-17108960D01*
X11829436Y-17108960D02*
X11819912Y-17099436D01*
X11819912Y-17099436D02*
X11810388Y-17080389D01*
X11810388Y-17080389D02*
X11800864Y-17042293D01*
X11800864Y-17042293D02*
X11800864Y-16994674D01*
X11800864Y-16994674D02*
X11810388Y-16956579D01*
X11810388Y-16956579D02*
X11819912Y-16937531D01*
X11819912Y-16937531D02*
X11829436Y-16928008D01*
X11829436Y-16928008D02*
X11848483Y-16918484D01*
X12000864Y-17099436D02*
X12010388Y-17108960D01*
X12010388Y-17108960D02*
X12000864Y-17118484D01*
X12000864Y-17118484D02*
X11991341Y-17108960D01*
X11991341Y-17108960D02*
X12000864Y-17099436D01*
X12000864Y-17099436D02*
X12000864Y-17118484D01*
X12200864Y-17118484D02*
X12086579Y-17118484D01*
X12143722Y-17118484D02*
X12143722Y-16918484D01*
X12143722Y-16918484D02*
X12124674Y-16947055D01*
X12124674Y-16947055D02*
X12105626Y-16966103D01*
X12105626Y-16966103D02*
X12086579Y-16975627D01*
X12324674Y-16918484D02*
X12343722Y-16918484D01*
X12343722Y-16918484D02*
X12362769Y-16928008D01*
X12362769Y-16928008D02*
X12372293Y-16937531D01*
X12372293Y-16937531D02*
X12381817Y-16956579D01*
X12381817Y-16956579D02*
X12391341Y-16994674D01*
X12391341Y-16994674D02*
X12391341Y-17042293D01*
X12391341Y-17042293D02*
X12381817Y-17080389D01*
X12381817Y-17080389D02*
X12372293Y-17099436D01*
X12372293Y-17099436D02*
X12362769Y-17108960D01*
X12362769Y-17108960D02*
X12343722Y-17118484D01*
X12343722Y-17118484D02*
X12324674Y-17118484D01*
X12324674Y-17118484D02*
X12305626Y-17108960D01*
X12305626Y-17108960D02*
X12296103Y-17099436D01*
X12296103Y-17099436D02*
X12286579Y-17080389D01*
X12286579Y-17080389D02*
X12277055Y-17042293D01*
X12277055Y-17042293D02*
X12277055Y-16994674D01*
X12277055Y-16994674D02*
X12286579Y-16956579D01*
X12286579Y-16956579D02*
X12296103Y-16937531D01*
X12296103Y-16937531D02*
X12305626Y-16928008D01*
X12305626Y-16928008D02*
X12324674Y-16918484D01*
X12562769Y-16918484D02*
X12524674Y-16918484D01*
X12524674Y-16918484D02*
X12505626Y-16928008D01*
X12505626Y-16928008D02*
X12496103Y-16937531D01*
X12496103Y-16937531D02*
X12477055Y-16966103D01*
X12477055Y-16966103D02*
X12467531Y-17004198D01*
X12467531Y-17004198D02*
X12467531Y-17080389D01*
X12467531Y-17080389D02*
X12477055Y-17099436D01*
X12477055Y-17099436D02*
X12486579Y-17108960D01*
X12486579Y-17108960D02*
X12505626Y-17118484D01*
X12505626Y-17118484D02*
X12543722Y-17118484D01*
X12543722Y-17118484D02*
X12562769Y-17108960D01*
X12562769Y-17108960D02*
X12572293Y-17099436D01*
X12572293Y-17099436D02*
X12581817Y-17080389D01*
X12581817Y-17080389D02*
X12581817Y-17032770D01*
X12581817Y-17032770D02*
X12572293Y-17013722D01*
X12572293Y-17013722D02*
X12562769Y-17004198D01*
X12562769Y-17004198D02*
X12543722Y-16994674D01*
X12543722Y-16994674D02*
X12505626Y-16994674D01*
X12505626Y-16994674D02*
X12486579Y-17004198D01*
X12486579Y-17004198D02*
X12477055Y-17013722D01*
X12477055Y-17013722D02*
X12467531Y-17032770D01*
X12648484Y-16918484D02*
X12772293Y-16918484D01*
X12772293Y-16918484D02*
X12705626Y-16994674D01*
X12705626Y-16994674D02*
X12734198Y-16994674D01*
X12734198Y-16994674D02*
X12753245Y-17004198D01*
X12753245Y-17004198D02*
X12762769Y-17013722D01*
X12762769Y-17013722D02*
X12772293Y-17032770D01*
X12772293Y-17032770D02*
X12772293Y-17080389D01*
X12772293Y-17080389D02*
X12762769Y-17099436D01*
X12762769Y-17099436D02*
X12753245Y-17108960D01*
X12753245Y-17108960D02*
X12734198Y-17118484D01*
X12734198Y-17118484D02*
X12677055Y-17118484D01*
X12677055Y-17118484D02*
X12658007Y-17108960D01*
X12658007Y-17108960D02*
X12648484Y-17099436D01*
X12848484Y-16918484D02*
X12848484Y-16956579D01*
X12924674Y-16918484D02*
X12924674Y-16956579D01*
X13219912Y-17194674D02*
X13210388Y-17185150D01*
X13210388Y-17185150D02*
X13191341Y-17156579D01*
X13191341Y-17156579D02*
X13181817Y-17137531D01*
X13181817Y-17137531D02*
X13172293Y-17108960D01*
X13172293Y-17108960D02*
X13162769Y-17061341D01*
X13162769Y-17061341D02*
X13162769Y-17023246D01*
X13162769Y-17023246D02*
X13172293Y-16975627D01*
X13172293Y-16975627D02*
X13181817Y-16947055D01*
X13181817Y-16947055D02*
X13191341Y-16928008D01*
X13191341Y-16928008D02*
X13210388Y-16899436D01*
X13210388Y-16899436D02*
X13219912Y-16889912D01*
X13286579Y-16937531D02*
X13296103Y-16928008D01*
X13296103Y-16928008D02*
X13315150Y-16918484D01*
X13315150Y-16918484D02*
X13362769Y-16918484D01*
X13362769Y-16918484D02*
X13381817Y-16928008D01*
X13381817Y-16928008D02*
X13391341Y-16937531D01*
X13391341Y-16937531D02*
X13400865Y-16956579D01*
X13400865Y-16956579D02*
X13400865Y-16975627D01*
X13400865Y-16975627D02*
X13391341Y-17004198D01*
X13391341Y-17004198D02*
X13277055Y-17118484D01*
X13277055Y-17118484D02*
X13400865Y-17118484D01*
X13638960Y-17118484D02*
X13638960Y-16918484D01*
X13724674Y-17118484D02*
X13724674Y-17013722D01*
X13724674Y-17013722D02*
X13715150Y-16994674D01*
X13715150Y-16994674D02*
X13696103Y-16985150D01*
X13696103Y-16985150D02*
X13667531Y-16985150D01*
X13667531Y-16985150D02*
X13648484Y-16994674D01*
X13648484Y-16994674D02*
X13638960Y-17004198D01*
X13848484Y-17118484D02*
X13829436Y-17108960D01*
X13829436Y-17108960D02*
X13819912Y-17099436D01*
X13819912Y-17099436D02*
X13810388Y-17080389D01*
X13810388Y-17080389D02*
X13810388Y-17023246D01*
X13810388Y-17023246D02*
X13819912Y-17004198D01*
X13819912Y-17004198D02*
X13829436Y-16994674D01*
X13829436Y-16994674D02*
X13848484Y-16985150D01*
X13848484Y-16985150D02*
X13877055Y-16985150D01*
X13877055Y-16985150D02*
X13896103Y-16994674D01*
X13896103Y-16994674D02*
X13905627Y-17004198D01*
X13905627Y-17004198D02*
X13915150Y-17023246D01*
X13915150Y-17023246D02*
X13915150Y-17080389D01*
X13915150Y-17080389D02*
X13905627Y-17099436D01*
X13905627Y-17099436D02*
X13896103Y-17108960D01*
X13896103Y-17108960D02*
X13877055Y-17118484D01*
X13877055Y-17118484D02*
X13848484Y-17118484D01*
X14029436Y-17118484D02*
X14010388Y-17108960D01*
X14010388Y-17108960D02*
X14000865Y-17089912D01*
X14000865Y-17089912D02*
X14000865Y-16918484D01*
X14181817Y-17108960D02*
X14162769Y-17118484D01*
X14162769Y-17118484D02*
X14124674Y-17118484D01*
X14124674Y-17118484D02*
X14105627Y-17108960D01*
X14105627Y-17108960D02*
X14096103Y-17089912D01*
X14096103Y-17089912D02*
X14096103Y-17013722D01*
X14096103Y-17013722D02*
X14105627Y-16994674D01*
X14105627Y-16994674D02*
X14124674Y-16985150D01*
X14124674Y-16985150D02*
X14162769Y-16985150D01*
X14162769Y-16985150D02*
X14181817Y-16994674D01*
X14181817Y-16994674D02*
X14191341Y-17013722D01*
X14191341Y-17013722D02*
X14191341Y-17032770D01*
X14191341Y-17032770D02*
X14096103Y-17051817D01*
X14267531Y-17108960D02*
X14286579Y-17118484D01*
X14286579Y-17118484D02*
X14324674Y-17118484D01*
X14324674Y-17118484D02*
X14343722Y-17108960D01*
X14343722Y-17108960D02*
X14353246Y-17089912D01*
X14353246Y-17089912D02*
X14353246Y-17080389D01*
X14353246Y-17080389D02*
X14343722Y-17061341D01*
X14343722Y-17061341D02*
X14324674Y-17051817D01*
X14324674Y-17051817D02*
X14296103Y-17051817D01*
X14296103Y-17051817D02*
X14277055Y-17042293D01*
X14277055Y-17042293D02*
X14267531Y-17023246D01*
X14267531Y-17023246D02*
X14267531Y-17013722D01*
X14267531Y-17013722D02*
X14277055Y-16994674D01*
X14277055Y-16994674D02*
X14296103Y-16985150D01*
X14296103Y-16985150D02*
X14324674Y-16985150D01*
X14324674Y-16985150D02*
X14343722Y-16994674D01*
X14419912Y-17194674D02*
X14429436Y-17185150D01*
X14429436Y-17185150D02*
X14448484Y-17156579D01*
X14448484Y-17156579D02*
X14458008Y-17137531D01*
X14458008Y-17137531D02*
X14467531Y-17108960D01*
X14467531Y-17108960D02*
X14477055Y-17061341D01*
X14477055Y-17061341D02*
X14477055Y-17023246D01*
X14477055Y-17023246D02*
X14467531Y-16975627D01*
X14467531Y-16975627D02*
X14458008Y-16947055D01*
X14458008Y-16947055D02*
X14448484Y-16928008D01*
X14448484Y-16928008D02*
X14429436Y-16899436D01*
X14429436Y-16899436D02*
X14419912Y-16889912D01*
X9444849Y-17247000D02*
X9644849Y-17447000D01*
X9644849Y-17247000D02*
X9444849Y-17447000D01*
X9544849Y-17447000D02*
X9644849Y-17347000D01*
X9544849Y-17247000D01*
X9444849Y-17347000D01*
X9544849Y-17447000D01*
X9886579Y-17238484D02*
X10010388Y-17238484D01*
X10010388Y-17238484D02*
X9943721Y-17314674D01*
X9943721Y-17314674D02*
X9972293Y-17314674D01*
X9972293Y-17314674D02*
X9991341Y-17324198D01*
X9991341Y-17324198D02*
X10000864Y-17333722D01*
X10000864Y-17333722D02*
X10010388Y-17352770D01*
X10010388Y-17352770D02*
X10010388Y-17400389D01*
X10010388Y-17400389D02*
X10000864Y-17419436D01*
X10000864Y-17419436D02*
X9991341Y-17428960D01*
X9991341Y-17428960D02*
X9972293Y-17438484D01*
X9972293Y-17438484D02*
X9915150Y-17438484D01*
X9915150Y-17438484D02*
X9896102Y-17428960D01*
X9896102Y-17428960D02*
X9886579Y-17419436D01*
X10096102Y-17419436D02*
X10105626Y-17428960D01*
X10105626Y-17428960D02*
X10096102Y-17438484D01*
X10096102Y-17438484D02*
X10086579Y-17428960D01*
X10086579Y-17428960D02*
X10096102Y-17419436D01*
X10096102Y-17419436D02*
X10096102Y-17438484D01*
X10181817Y-17257531D02*
X10191341Y-17248008D01*
X10191341Y-17248008D02*
X10210388Y-17238484D01*
X10210388Y-17238484D02*
X10258007Y-17238484D01*
X10258007Y-17238484D02*
X10277055Y-17248008D01*
X10277055Y-17248008D02*
X10286579Y-17257531D01*
X10286579Y-17257531D02*
X10296102Y-17276579D01*
X10296102Y-17276579D02*
X10296102Y-17295627D01*
X10296102Y-17295627D02*
X10286579Y-17324198D01*
X10286579Y-17324198D02*
X10172293Y-17438484D01*
X10172293Y-17438484D02*
X10296102Y-17438484D01*
X10419912Y-17238484D02*
X10438960Y-17238484D01*
X10438960Y-17238484D02*
X10458007Y-17248008D01*
X10458007Y-17248008D02*
X10467531Y-17257531D01*
X10467531Y-17257531D02*
X10477055Y-17276579D01*
X10477055Y-17276579D02*
X10486579Y-17314674D01*
X10486579Y-17314674D02*
X10486579Y-17362293D01*
X10486579Y-17362293D02*
X10477055Y-17400389D01*
X10477055Y-17400389D02*
X10467531Y-17419436D01*
X10467531Y-17419436D02*
X10458007Y-17428960D01*
X10458007Y-17428960D02*
X10438960Y-17438484D01*
X10438960Y-17438484D02*
X10419912Y-17438484D01*
X10419912Y-17438484D02*
X10400864Y-17428960D01*
X10400864Y-17428960D02*
X10391341Y-17419436D01*
X10391341Y-17419436D02*
X10381817Y-17400389D01*
X10381817Y-17400389D02*
X10372293Y-17362293D01*
X10372293Y-17362293D02*
X10372293Y-17314674D01*
X10372293Y-17314674D02*
X10381817Y-17276579D01*
X10381817Y-17276579D02*
X10391341Y-17257531D01*
X10391341Y-17257531D02*
X10400864Y-17248008D01*
X10400864Y-17248008D02*
X10419912Y-17238484D01*
X10610388Y-17238484D02*
X10629436Y-17238484D01*
X10629436Y-17238484D02*
X10648483Y-17248008D01*
X10648483Y-17248008D02*
X10658007Y-17257531D01*
X10658007Y-17257531D02*
X10667531Y-17276579D01*
X10667531Y-17276579D02*
X10677055Y-17314674D01*
X10677055Y-17314674D02*
X10677055Y-17362293D01*
X10677055Y-17362293D02*
X10667531Y-17400389D01*
X10667531Y-17400389D02*
X10658007Y-17419436D01*
X10658007Y-17419436D02*
X10648483Y-17428960D01*
X10648483Y-17428960D02*
X10629436Y-17438484D01*
X10629436Y-17438484D02*
X10610388Y-17438484D01*
X10610388Y-17438484D02*
X10591341Y-17428960D01*
X10591341Y-17428960D02*
X10581817Y-17419436D01*
X10581817Y-17419436D02*
X10572293Y-17400389D01*
X10572293Y-17400389D02*
X10562769Y-17362293D01*
X10562769Y-17362293D02*
X10562769Y-17314674D01*
X10562769Y-17314674D02*
X10572293Y-17276579D01*
X10572293Y-17276579D02*
X10581817Y-17257531D01*
X10581817Y-17257531D02*
X10591341Y-17248008D01*
X10591341Y-17248008D02*
X10610388Y-17238484D01*
X10762769Y-17438484D02*
X10762769Y-17305150D01*
X10762769Y-17324198D02*
X10772293Y-17314674D01*
X10772293Y-17314674D02*
X10791341Y-17305150D01*
X10791341Y-17305150D02*
X10819912Y-17305150D01*
X10819912Y-17305150D02*
X10838960Y-17314674D01*
X10838960Y-17314674D02*
X10848483Y-17333722D01*
X10848483Y-17333722D02*
X10848483Y-17438484D01*
X10848483Y-17333722D02*
X10858007Y-17314674D01*
X10858007Y-17314674D02*
X10877055Y-17305150D01*
X10877055Y-17305150D02*
X10905626Y-17305150D01*
X10905626Y-17305150D02*
X10924674Y-17314674D01*
X10924674Y-17314674D02*
X10934198Y-17333722D01*
X10934198Y-17333722D02*
X10934198Y-17438484D01*
X11029436Y-17438484D02*
X11029436Y-17305150D01*
X11029436Y-17324198D02*
X11038960Y-17314674D01*
X11038960Y-17314674D02*
X11058007Y-17305150D01*
X11058007Y-17305150D02*
X11086579Y-17305150D01*
X11086579Y-17305150D02*
X11105626Y-17314674D01*
X11105626Y-17314674D02*
X11115150Y-17333722D01*
X11115150Y-17333722D02*
X11115150Y-17438484D01*
X11115150Y-17333722D02*
X11124674Y-17314674D01*
X11124674Y-17314674D02*
X11143722Y-17305150D01*
X11143722Y-17305150D02*
X11172293Y-17305150D01*
X11172293Y-17305150D02*
X11191341Y-17314674D01*
X11191341Y-17314674D02*
X11200864Y-17333722D01*
X11200864Y-17333722D02*
X11200864Y-17438484D01*
X11591341Y-17228960D02*
X11419912Y-17486103D01*
X11848483Y-17238484D02*
X11867531Y-17238484D01*
X11867531Y-17238484D02*
X11886579Y-17248008D01*
X11886579Y-17248008D02*
X11896103Y-17257531D01*
X11896103Y-17257531D02*
X11905626Y-17276579D01*
X11905626Y-17276579D02*
X11915150Y-17314674D01*
X11915150Y-17314674D02*
X11915150Y-17362293D01*
X11915150Y-17362293D02*
X11905626Y-17400389D01*
X11905626Y-17400389D02*
X11896103Y-17419436D01*
X11896103Y-17419436D02*
X11886579Y-17428960D01*
X11886579Y-17428960D02*
X11867531Y-17438484D01*
X11867531Y-17438484D02*
X11848483Y-17438484D01*
X11848483Y-17438484D02*
X11829436Y-17428960D01*
X11829436Y-17428960D02*
X11819912Y-17419436D01*
X11819912Y-17419436D02*
X11810388Y-17400389D01*
X11810388Y-17400389D02*
X11800864Y-17362293D01*
X11800864Y-17362293D02*
X11800864Y-17314674D01*
X11800864Y-17314674D02*
X11810388Y-17276579D01*
X11810388Y-17276579D02*
X11819912Y-17257531D01*
X11819912Y-17257531D02*
X11829436Y-17248008D01*
X11829436Y-17248008D02*
X11848483Y-17238484D01*
X12000864Y-17419436D02*
X12010388Y-17428960D01*
X12010388Y-17428960D02*
X12000864Y-17438484D01*
X12000864Y-17438484D02*
X11991341Y-17428960D01*
X11991341Y-17428960D02*
X12000864Y-17419436D01*
X12000864Y-17419436D02*
X12000864Y-17438484D01*
X12200864Y-17438484D02*
X12086579Y-17438484D01*
X12143722Y-17438484D02*
X12143722Y-17238484D01*
X12143722Y-17238484D02*
X12124674Y-17267055D01*
X12124674Y-17267055D02*
X12105626Y-17286103D01*
X12105626Y-17286103D02*
X12086579Y-17295627D01*
X12277055Y-17257531D02*
X12286579Y-17248008D01*
X12286579Y-17248008D02*
X12305626Y-17238484D01*
X12305626Y-17238484D02*
X12353245Y-17238484D01*
X12353245Y-17238484D02*
X12372293Y-17248008D01*
X12372293Y-17248008D02*
X12381817Y-17257531D01*
X12381817Y-17257531D02*
X12391341Y-17276579D01*
X12391341Y-17276579D02*
X12391341Y-17295627D01*
X12391341Y-17295627D02*
X12381817Y-17324198D01*
X12381817Y-17324198D02*
X12267531Y-17438484D01*
X12267531Y-17438484D02*
X12391341Y-17438484D01*
X12562769Y-17238484D02*
X12524674Y-17238484D01*
X12524674Y-17238484D02*
X12505626Y-17248008D01*
X12505626Y-17248008D02*
X12496103Y-17257531D01*
X12496103Y-17257531D02*
X12477055Y-17286103D01*
X12477055Y-17286103D02*
X12467531Y-17324198D01*
X12467531Y-17324198D02*
X12467531Y-17400389D01*
X12467531Y-17400389D02*
X12477055Y-17419436D01*
X12477055Y-17419436D02*
X12486579Y-17428960D01*
X12486579Y-17428960D02*
X12505626Y-17438484D01*
X12505626Y-17438484D02*
X12543722Y-17438484D01*
X12543722Y-17438484D02*
X12562769Y-17428960D01*
X12562769Y-17428960D02*
X12572293Y-17419436D01*
X12572293Y-17419436D02*
X12581817Y-17400389D01*
X12581817Y-17400389D02*
X12581817Y-17352770D01*
X12581817Y-17352770D02*
X12572293Y-17333722D01*
X12572293Y-17333722D02*
X12562769Y-17324198D01*
X12562769Y-17324198D02*
X12543722Y-17314674D01*
X12543722Y-17314674D02*
X12505626Y-17314674D01*
X12505626Y-17314674D02*
X12486579Y-17324198D01*
X12486579Y-17324198D02*
X12477055Y-17333722D01*
X12477055Y-17333722D02*
X12467531Y-17352770D01*
X12705626Y-17238484D02*
X12724674Y-17238484D01*
X12724674Y-17238484D02*
X12743722Y-17248008D01*
X12743722Y-17248008D02*
X12753245Y-17257531D01*
X12753245Y-17257531D02*
X12762769Y-17276579D01*
X12762769Y-17276579D02*
X12772293Y-17314674D01*
X12772293Y-17314674D02*
X12772293Y-17362293D01*
X12772293Y-17362293D02*
X12762769Y-17400389D01*
X12762769Y-17400389D02*
X12753245Y-17419436D01*
X12753245Y-17419436D02*
X12743722Y-17428960D01*
X12743722Y-17428960D02*
X12724674Y-17438484D01*
X12724674Y-17438484D02*
X12705626Y-17438484D01*
X12705626Y-17438484D02*
X12686579Y-17428960D01*
X12686579Y-17428960D02*
X12677055Y-17419436D01*
X12677055Y-17419436D02*
X12667531Y-17400389D01*
X12667531Y-17400389D02*
X12658007Y-17362293D01*
X12658007Y-17362293D02*
X12658007Y-17314674D01*
X12658007Y-17314674D02*
X12667531Y-17276579D01*
X12667531Y-17276579D02*
X12677055Y-17257531D01*
X12677055Y-17257531D02*
X12686579Y-17248008D01*
X12686579Y-17248008D02*
X12705626Y-17238484D01*
X12848484Y-17238484D02*
X12848484Y-17276579D01*
X12924674Y-17238484D02*
X12924674Y-17276579D01*
X13219912Y-17514674D02*
X13210388Y-17505150D01*
X13210388Y-17505150D02*
X13191341Y-17476579D01*
X13191341Y-17476579D02*
X13181817Y-17457531D01*
X13181817Y-17457531D02*
X13172293Y-17428960D01*
X13172293Y-17428960D02*
X13162769Y-17381341D01*
X13162769Y-17381341D02*
X13162769Y-17343246D01*
X13162769Y-17343246D02*
X13172293Y-17295627D01*
X13172293Y-17295627D02*
X13181817Y-17267055D01*
X13181817Y-17267055D02*
X13191341Y-17248008D01*
X13191341Y-17248008D02*
X13210388Y-17219436D01*
X13210388Y-17219436D02*
X13219912Y-17209912D01*
X13381817Y-17305150D02*
X13381817Y-17438484D01*
X13334198Y-17228960D02*
X13286579Y-17371817D01*
X13286579Y-17371817D02*
X13410388Y-17371817D01*
X13638960Y-17438484D02*
X13638960Y-17238484D01*
X13724674Y-17438484D02*
X13724674Y-17333722D01*
X13724674Y-17333722D02*
X13715150Y-17314674D01*
X13715150Y-17314674D02*
X13696103Y-17305150D01*
X13696103Y-17305150D02*
X13667531Y-17305150D01*
X13667531Y-17305150D02*
X13648484Y-17314674D01*
X13648484Y-17314674D02*
X13638960Y-17324198D01*
X13848484Y-17438484D02*
X13829436Y-17428960D01*
X13829436Y-17428960D02*
X13819912Y-17419436D01*
X13819912Y-17419436D02*
X13810388Y-17400389D01*
X13810388Y-17400389D02*
X13810388Y-17343246D01*
X13810388Y-17343246D02*
X13819912Y-17324198D01*
X13819912Y-17324198D02*
X13829436Y-17314674D01*
X13829436Y-17314674D02*
X13848484Y-17305150D01*
X13848484Y-17305150D02*
X13877055Y-17305150D01*
X13877055Y-17305150D02*
X13896103Y-17314674D01*
X13896103Y-17314674D02*
X13905627Y-17324198D01*
X13905627Y-17324198D02*
X13915150Y-17343246D01*
X13915150Y-17343246D02*
X13915150Y-17400389D01*
X13915150Y-17400389D02*
X13905627Y-17419436D01*
X13905627Y-17419436D02*
X13896103Y-17428960D01*
X13896103Y-17428960D02*
X13877055Y-17438484D01*
X13877055Y-17438484D02*
X13848484Y-17438484D01*
X14029436Y-17438484D02*
X14010388Y-17428960D01*
X14010388Y-17428960D02*
X14000865Y-17409912D01*
X14000865Y-17409912D02*
X14000865Y-17238484D01*
X14181817Y-17428960D02*
X14162769Y-17438484D01*
X14162769Y-17438484D02*
X14124674Y-17438484D01*
X14124674Y-17438484D02*
X14105627Y-17428960D01*
X14105627Y-17428960D02*
X14096103Y-17409912D01*
X14096103Y-17409912D02*
X14096103Y-17333722D01*
X14096103Y-17333722D02*
X14105627Y-17314674D01*
X14105627Y-17314674D02*
X14124674Y-17305150D01*
X14124674Y-17305150D02*
X14162769Y-17305150D01*
X14162769Y-17305150D02*
X14181817Y-17314674D01*
X14181817Y-17314674D02*
X14191341Y-17333722D01*
X14191341Y-17333722D02*
X14191341Y-17352770D01*
X14191341Y-17352770D02*
X14096103Y-17371817D01*
X14267531Y-17428960D02*
X14286579Y-17438484D01*
X14286579Y-17438484D02*
X14324674Y-17438484D01*
X14324674Y-17438484D02*
X14343722Y-17428960D01*
X14343722Y-17428960D02*
X14353246Y-17409912D01*
X14353246Y-17409912D02*
X14353246Y-17400389D01*
X14353246Y-17400389D02*
X14343722Y-17381341D01*
X14343722Y-17381341D02*
X14324674Y-17371817D01*
X14324674Y-17371817D02*
X14296103Y-17371817D01*
X14296103Y-17371817D02*
X14277055Y-17362293D01*
X14277055Y-17362293D02*
X14267531Y-17343246D01*
X14267531Y-17343246D02*
X14267531Y-17333722D01*
X14267531Y-17333722D02*
X14277055Y-17314674D01*
X14277055Y-17314674D02*
X14296103Y-17305150D01*
X14296103Y-17305150D02*
X14324674Y-17305150D01*
X14324674Y-17305150D02*
X14343722Y-17314674D01*
X14419912Y-17514674D02*
X14429436Y-17505150D01*
X14429436Y-17505150D02*
X14448484Y-17476579D01*
X14448484Y-17476579D02*
X14458008Y-17457531D01*
X14458008Y-17457531D02*
X14467531Y-17428960D01*
X14467531Y-17428960D02*
X14477055Y-17381341D01*
X14477055Y-17381341D02*
X14477055Y-17343246D01*
X14477055Y-17343246D02*
X14467531Y-17295627D01*
X14467531Y-17295627D02*
X14458008Y-17267055D01*
X14458008Y-17267055D02*
X14448484Y-17248008D01*
X14448484Y-17248008D02*
X14429436Y-17219436D01*
X14429436Y-17219436D02*
X14419912Y-17209912D01*
M02*
