G04 #@! TF.GenerationSoftware,KiCad,Pcbnew,7.0.7*
G04 #@! TF.CreationDate,2024-02-08T13:12:57-05:00*
G04 #@! TF.ProjectId,UMRT_FC_R2,554d5254-5f46-4435-9f52-322e6b696361,rev?*
G04 #@! TF.SameCoordinates,Original*
G04 #@! TF.FileFunction,Paste,Top*
G04 #@! TF.FilePolarity,Positive*
%FSLAX46Y46*%
G04 Gerber Fmt 4.6, Leading zero omitted, Abs format (unit mm)*
G04 Created by KiCad (PCBNEW 7.0.7) date 2024-02-08 13:12:57*
%MOMM*%
%LPD*%
G01*
G04 APERTURE LIST*
G04 Aperture macros list*
%AMRoundRect*
0 Rectangle with rounded corners*
0 $1 Rounding radius*
0 $2 $3 $4 $5 $6 $7 $8 $9 X,Y pos of 4 corners*
0 Add a 4 corners polygon primitive as box body*
4,1,4,$2,$3,$4,$5,$6,$7,$8,$9,$2,$3,0*
0 Add four circle primitives for the rounded corners*
1,1,$1+$1,$2,$3*
1,1,$1+$1,$4,$5*
1,1,$1+$1,$6,$7*
1,1,$1+$1,$8,$9*
0 Add four rect primitives between the rounded corners*
20,1,$1+$1,$2,$3,$4,$5,0*
20,1,$1+$1,$4,$5,$6,$7,0*
20,1,$1+$1,$6,$7,$8,$9,0*
20,1,$1+$1,$8,$9,$2,$3,0*%
G04 Aperture macros list end*
%ADD10R,0.900000X1.500000*%
%ADD11RoundRect,0.225000X0.225000X0.250000X-0.225000X0.250000X-0.225000X-0.250000X0.225000X-0.250000X0*%
%ADD12RoundRect,0.200000X-0.275000X0.200000X-0.275000X-0.200000X0.275000X-0.200000X0.275000X0.200000X0*%
%ADD13RoundRect,0.250000X-0.475000X0.250000X-0.475000X-0.250000X0.475000X-0.250000X0.475000X0.250000X0*%
%ADD14RoundRect,0.249999X-0.395001X-0.395001X0.395001X-0.395001X0.395001X0.395001X-0.395001X0.395001X0*%
%ADD15RoundRect,0.050000X-0.387500X-0.050000X0.387500X-0.050000X0.387500X0.050000X-0.387500X0.050000X0*%
%ADD16RoundRect,0.050000X-0.050000X-0.387500X0.050000X-0.387500X0.050000X0.387500X-0.050000X0.387500X0*%
%ADD17RoundRect,0.150000X0.512500X0.150000X-0.512500X0.150000X-0.512500X-0.150000X0.512500X-0.150000X0*%
%ADD18RoundRect,0.218750X0.218750X0.256250X-0.218750X0.256250X-0.218750X-0.256250X0.218750X-0.256250X0*%
%ADD19RoundRect,0.200000X0.275000X-0.200000X0.275000X0.200000X-0.275000X0.200000X-0.275000X-0.200000X0*%
%ADD20RoundRect,0.250000X-0.250000X-0.475000X0.250000X-0.475000X0.250000X0.475000X-0.250000X0.475000X0*%
%ADD21RoundRect,0.225000X0.250000X-0.225000X0.250000X0.225000X-0.250000X0.225000X-0.250000X-0.225000X0*%
%ADD22R,1.400000X0.400000*%
%ADD23R,1.900000X2.300000*%
%ADD24R,1.900000X1.800000*%
%ADD25RoundRect,0.250000X0.250000X0.475000X-0.250000X0.475000X-0.250000X-0.475000X0.250000X-0.475000X0*%
%ADD26RoundRect,0.200000X-0.200000X-0.275000X0.200000X-0.275000X0.200000X0.275000X-0.200000X0.275000X0*%
%ADD27RoundRect,0.225000X-0.225000X-0.250000X0.225000X-0.250000X0.225000X0.250000X-0.225000X0.250000X0*%
%ADD28RoundRect,0.250000X0.475000X-0.250000X0.475000X0.250000X-0.475000X0.250000X-0.475000X-0.250000X0*%
%ADD29RoundRect,0.235000X0.940000X1.465000X-0.940000X1.465000X-0.940000X-1.465000X0.940000X-1.465000X0*%
%ADD30R,1.200000X1.400000*%
%ADD31RoundRect,0.225000X-0.250000X0.225000X-0.250000X-0.225000X0.250000X-0.225000X0.250000X0.225000X0*%
G04 APERTURE END LIST*
D10*
X114807000Y-98134000D03*
X111507000Y-98134000D03*
X111507000Y-103034000D03*
X114807000Y-103034000D03*
D11*
X120536000Y-114681000D03*
X118986000Y-114681000D03*
D12*
X149860000Y-130493000D03*
X149860000Y-132143000D03*
D11*
X120536000Y-110236000D03*
X118986000Y-110236000D03*
D13*
X144526000Y-132019000D03*
X144526000Y-133919000D03*
D14*
X124684500Y-112836000D03*
X124684500Y-114436000D03*
X126284500Y-112836000D03*
X126284500Y-114436000D03*
D15*
X122047000Y-111036000D03*
X122047000Y-111436000D03*
X122047000Y-111836000D03*
X122047000Y-112236000D03*
X122047000Y-112636000D03*
X122047000Y-113036000D03*
X122047000Y-113436000D03*
X122047000Y-113836000D03*
X122047000Y-114236000D03*
X122047000Y-114636000D03*
X122047000Y-115036000D03*
X122047000Y-115436000D03*
X122047000Y-115836000D03*
X122047000Y-116236000D03*
D16*
X122884500Y-117073500D03*
X123284500Y-117073500D03*
X123684500Y-117073500D03*
X124084500Y-117073500D03*
X124484500Y-117073500D03*
X124884500Y-117073500D03*
X125284500Y-117073500D03*
X125684500Y-117073500D03*
X126084500Y-117073500D03*
X126484500Y-117073500D03*
X126884500Y-117073500D03*
X127284500Y-117073500D03*
X127684500Y-117073500D03*
X128084500Y-117073500D03*
D15*
X128922000Y-116236000D03*
X128922000Y-115836000D03*
X128922000Y-115436000D03*
X128922000Y-115036000D03*
X128922000Y-114636000D03*
X128922000Y-114236000D03*
X128922000Y-113836000D03*
X128922000Y-113436000D03*
X128922000Y-113036000D03*
X128922000Y-112636000D03*
X128922000Y-112236000D03*
X128922000Y-111836000D03*
X128922000Y-111436000D03*
X128922000Y-111036000D03*
D16*
X128084500Y-110198500D03*
X127684500Y-110198500D03*
X127284500Y-110198500D03*
X126884500Y-110198500D03*
X126484500Y-110198500D03*
X126084500Y-110198500D03*
X125684500Y-110198500D03*
X125284500Y-110198500D03*
X124884500Y-110198500D03*
X124484500Y-110198500D03*
X124084500Y-110198500D03*
X123684500Y-110198500D03*
X123284500Y-110198500D03*
X122884500Y-110198500D03*
D17*
X145409500Y-101153000D03*
X145409500Y-100203000D03*
X145409500Y-99253000D03*
X143134500Y-99253000D03*
X143134500Y-100203000D03*
X143134500Y-101153000D03*
D18*
X109054500Y-114300000D03*
X107479500Y-114300000D03*
X109054500Y-108712000D03*
X107479500Y-108712000D03*
D19*
X148336000Y-132143000D03*
X148336000Y-130493000D03*
D20*
X143449000Y-124714000D03*
X145349000Y-124714000D03*
D12*
X127381000Y-119177000D03*
X127381000Y-120827000D03*
X148590000Y-101283000D03*
X148590000Y-102933000D03*
D21*
X130937000Y-108725000D03*
X130937000Y-107175000D03*
D22*
X100864000Y-114397000D03*
X100864000Y-115047000D03*
X100864000Y-115697000D03*
X100864000Y-116347000D03*
X100864000Y-116997000D03*
D23*
X98014000Y-111947000D03*
D24*
X98014000Y-114547000D03*
X98014000Y-116847000D03*
D23*
X98014000Y-119447000D03*
D12*
X127762000Y-107112000D03*
X127762000Y-108762000D03*
D19*
X147066000Y-102933000D03*
X147066000Y-101283000D03*
D25*
X147508000Y-97409000D03*
X145608000Y-97409000D03*
D26*
X110617000Y-108712000D03*
X112267000Y-108712000D03*
X110617000Y-114300000D03*
X112267000Y-114300000D03*
D20*
X143449000Y-126746000D03*
X145349000Y-126746000D03*
D21*
X132461000Y-108725000D03*
X132461000Y-107175000D03*
D27*
X130416000Y-114681000D03*
X131966000Y-114681000D03*
D11*
X125616000Y-122923000D03*
X124066000Y-122923000D03*
D28*
X145288000Y-104582000D03*
X145288000Y-102682000D03*
D11*
X112662000Y-96139000D03*
X111112000Y-96139000D03*
D26*
X110617000Y-117094000D03*
X112267000Y-117094000D03*
D11*
X124727000Y-107188000D03*
X123177000Y-107188000D03*
D26*
X110617000Y-119888000D03*
X112267000Y-119888000D03*
D20*
X142118000Y-97409000D03*
X144018000Y-97409000D03*
D21*
X129413000Y-108712000D03*
X129413000Y-107162000D03*
D25*
X148905000Y-126746000D03*
X147005000Y-126746000D03*
D17*
X146679500Y-130490000D03*
X146679500Y-129540000D03*
X146679500Y-128590000D03*
X144404500Y-128590000D03*
X144404500Y-129540000D03*
X144404500Y-130490000D03*
D18*
X109054500Y-111506000D03*
X107479500Y-111506000D03*
X109063500Y-119888000D03*
X107488500Y-119888000D03*
D29*
X140416000Y-100457000D03*
X134366000Y-100457000D03*
D28*
X146558000Y-133919000D03*
X146558000Y-132019000D03*
D30*
X125691000Y-121102000D03*
X125691000Y-118902000D03*
X123991000Y-118902000D03*
X123991000Y-121102000D03*
D20*
X142118000Y-95377000D03*
X144018000Y-95377000D03*
D31*
X130429000Y-110223000D03*
X130429000Y-111773000D03*
D13*
X143256000Y-102682000D03*
X143256000Y-104582000D03*
D29*
X141709000Y-129794000D03*
X135659000Y-129794000D03*
D12*
X126238000Y-107112000D03*
X126238000Y-108762000D03*
D26*
X110617000Y-111506000D03*
X112267000Y-111506000D03*
D18*
X109054500Y-117094000D03*
X107479500Y-117094000D03*
D31*
X122301000Y-119227000D03*
X122301000Y-120777000D03*
D21*
X120523000Y-108725000D03*
X120523000Y-107175000D03*
M02*
