G04 #@! TF.GenerationSoftware,KiCad,Pcbnew,7.0.7*
G04 #@! TF.CreationDate,2024-02-08T13:12:57-05:00*
G04 #@! TF.ProjectId,UMRT_FC_R2,554d5254-5f46-4435-9f52-322e6b696361,rev?*
G04 #@! TF.SameCoordinates,Original*
G04 #@! TF.FileFunction,Copper,L2,Inr*
G04 #@! TF.FilePolarity,Positive*
%FSLAX46Y46*%
G04 Gerber Fmt 4.6, Leading zero omitted, Abs format (unit mm)*
G04 Created by KiCad (PCBNEW 7.0.7) date 2024-02-08 13:12:57*
%MOMM*%
%LPD*%
G01*
G04 APERTURE LIST*
G04 #@! TA.AperFunction,ComponentPad*
%ADD10R,1.700000X1.700000*%
G04 #@! TD*
G04 #@! TA.AperFunction,ComponentPad*
%ADD11O,1.700000X1.700000*%
G04 #@! TD*
G04 #@! TA.AperFunction,ComponentPad*
%ADD12C,4.000000*%
G04 #@! TD*
G04 #@! TA.AperFunction,ComponentPad*
%ADD13R,3.800000X3.800000*%
G04 #@! TD*
G04 #@! TA.AperFunction,ComponentPad*
%ADD14C,3.800000*%
G04 #@! TD*
G04 #@! TA.AperFunction,ComponentPad*
%ADD15C,0.800000*%
G04 #@! TD*
G04 #@! TA.AperFunction,ComponentPad*
%ADD16C,6.400000*%
G04 #@! TD*
G04 #@! TA.AperFunction,ComponentPad*
%ADD17R,1.000000X1.000000*%
G04 #@! TD*
G04 #@! TA.AperFunction,ComponentPad*
%ADD18O,1.000000X1.000000*%
G04 #@! TD*
G04 #@! TA.AperFunction,ComponentPad*
%ADD19C,2.000000*%
G04 #@! TD*
G04 #@! TA.AperFunction,ViaPad*
%ADD20C,0.400000*%
G04 #@! TD*
G04 #@! TA.AperFunction,ViaPad*
%ADD21C,0.600000*%
G04 #@! TD*
G04 #@! TA.AperFunction,Conductor*
%ADD22C,0.090000*%
G04 #@! TD*
G04 APERTURE END LIST*
D10*
X134620000Y-138430000D03*
D11*
X132080000Y-138430000D03*
X129540000Y-138430000D03*
D10*
X124460000Y-138430000D03*
D11*
X121920000Y-138430000D03*
X119380000Y-138430000D03*
D10*
X129540000Y-90170000D03*
D11*
X132080000Y-90170000D03*
X134620000Y-90170000D03*
D10*
X119380000Y-90170000D03*
D11*
X121920000Y-90170000D03*
X124460000Y-90170000D03*
D12*
X116205000Y-106680000D03*
X116205000Y-121920000D03*
X137795000Y-106680000D03*
X137795000Y-121920000D03*
D13*
X114554000Y-87035000D03*
D14*
X114554000Y-92035000D03*
D15*
X144920000Y-88900000D03*
X145622944Y-87202944D03*
X145622944Y-90597056D03*
X147320000Y-86500000D03*
D16*
X147320000Y-88900000D03*
D15*
X147320000Y-91300000D03*
X149017056Y-87202944D03*
X149017056Y-90597056D03*
X149720000Y-88900000D03*
D17*
X141478000Y-89154000D03*
D18*
X140208000Y-89154000D03*
X138938000Y-89154000D03*
X137668000Y-89154000D03*
D10*
X115316000Y-128265000D03*
D11*
X115316000Y-130805000D03*
D19*
X107315000Y-95250000D03*
X107315000Y-97790000D03*
X107315000Y-100330000D03*
X107315000Y-102870000D03*
D15*
X144920000Y-139700000D03*
X145622944Y-138002944D03*
X145622944Y-141397056D03*
X147320000Y-137300000D03*
D16*
X147320000Y-139700000D03*
D15*
X147320000Y-142100000D03*
X149017056Y-138002944D03*
X149017056Y-141397056D03*
X149720000Y-139700000D03*
D19*
X143764000Y-110490000D03*
X143764000Y-113030000D03*
X143764000Y-115570000D03*
X143764000Y-118110000D03*
D15*
X104280000Y-139700000D03*
X104982944Y-138002944D03*
X104982944Y-141397056D03*
X106680000Y-137300000D03*
D16*
X106680000Y-139700000D03*
D15*
X106680000Y-142100000D03*
X108377056Y-138002944D03*
X108377056Y-141397056D03*
X109080000Y-139700000D03*
X104280000Y-88900000D03*
X104982944Y-87202944D03*
X104982944Y-90597056D03*
X106680000Y-86500000D03*
D16*
X106680000Y-88900000D03*
D15*
X106680000Y-91300000D03*
X108377056Y-87202944D03*
X108377056Y-90597056D03*
X109080000Y-88900000D03*
D19*
X107315000Y-125730000D03*
X107315000Y-128270000D03*
X107315000Y-130810000D03*
X107315000Y-133350000D03*
D20*
X136017000Y-92456000D03*
X99568000Y-118618000D03*
X122809000Y-122809000D03*
X117094000Y-114681000D03*
X132842000Y-114681000D03*
X100076000Y-108966000D03*
X142240000Y-93726000D03*
X124333000Y-114046000D03*
X112014000Y-122301000D03*
X122174000Y-117983000D03*
X131445000Y-110998000D03*
X141605000Y-94107000D03*
X142875000Y-94107000D03*
X149860000Y-133604000D03*
D21*
X149987000Y-128651000D03*
X147193000Y-94996000D03*
X149098000Y-128270000D03*
X148209000Y-128651000D03*
X148209000Y-94996000D03*
X147701000Y-95885000D03*
D20*
X132969000Y-112268000D03*
X126238000Y-116078000D03*
X137160000Y-103505000D03*
X138176000Y-102489000D03*
X100330000Y-119761000D03*
X137160000Y-102489000D03*
X131318000Y-110236000D03*
X136144000Y-102489000D03*
X117983000Y-130810000D03*
X121793000Y-107823000D03*
X136144000Y-103505000D03*
X114554000Y-100203000D03*
X136652000Y-102997000D03*
X128016000Y-114681000D03*
X126365000Y-127635000D03*
X125476000Y-116078000D03*
X107442000Y-110363000D03*
X137668000Y-102997000D03*
X101854000Y-105410000D03*
X138176000Y-103505000D03*
X117602000Y-104013000D03*
X120269000Y-106172000D03*
X105918000Y-113284000D03*
X119507000Y-105664000D03*
X105283000Y-112903000D03*
X120015000Y-122809000D03*
X121539000Y-109601000D03*
X107442000Y-107315000D03*
X118745000Y-112268000D03*
X117729000Y-112395000D03*
X115443000Y-116078000D03*
X103428800Y-112572800D03*
X118618000Y-115824000D03*
X116078000Y-113538000D03*
X114808000Y-113665000D03*
X117348000Y-115570000D03*
X130937000Y-117602000D03*
X137414000Y-100711000D03*
X137922000Y-101219000D03*
X131699000Y-117602000D03*
X108331000Y-116459000D03*
X134493000Y-116078000D03*
X134493000Y-114808000D03*
X107188000Y-118618000D03*
X130556000Y-122936000D03*
X124714000Y-108077000D03*
X124333000Y-108712000D03*
X129540000Y-122936000D03*
X128524000Y-122936000D03*
X123571000Y-108712000D03*
X122047000Y-122809000D03*
X122555000Y-108585000D03*
X121031000Y-122809000D03*
X122047000Y-109093000D03*
X118745000Y-128905000D03*
X119380000Y-116586000D03*
X118618000Y-105791000D03*
X141351000Y-127254000D03*
X140335000Y-127254000D03*
X141351000Y-126238000D03*
D21*
X148336000Y-133350000D03*
X148336000Y-134366000D03*
D20*
X140843000Y-126746000D03*
X140335000Y-126238000D03*
X139065000Y-97917000D03*
X139573000Y-97409000D03*
D21*
X147320000Y-104267000D03*
X147320000Y-105410000D03*
D20*
X140081000Y-97917000D03*
X132207000Y-123063000D03*
X132969000Y-123063000D03*
X136906000Y-100203000D03*
D22*
X122428000Y-115062000D02*
X122428000Y-110490000D01*
X122428000Y-110490000D02*
X121539000Y-109601000D01*
X120015000Y-122809000D02*
X120015000Y-122301000D01*
X120523000Y-121793000D02*
X120523000Y-116967000D01*
X120523000Y-116967000D02*
X122428000Y-115062000D01*
X120015000Y-122301000D02*
X120523000Y-121793000D01*
X103428800Y-114604800D02*
X103428800Y-112572800D01*
X104241600Y-115062000D02*
X114427000Y-115062000D01*
X103886000Y-115062000D02*
X103428800Y-114604800D01*
X104241600Y-115062000D02*
X103886000Y-115062000D01*
X114427000Y-115062000D02*
X115443000Y-116078000D01*
X137414000Y-100711000D02*
X132715000Y-100711000D01*
X131953000Y-101473000D02*
X131953000Y-113792000D01*
X130937000Y-114808000D02*
X130937000Y-117602000D01*
X132715000Y-100711000D02*
X131953000Y-101473000D01*
X131953000Y-113792000D02*
X130937000Y-114808000D01*
X132842000Y-101219000D02*
X132461000Y-101600000D01*
X132461000Y-101600000D02*
X132461000Y-114046000D01*
X137922000Y-101219000D02*
X132842000Y-101219000D01*
X132461000Y-114046000D02*
X131699000Y-114808000D01*
X131699000Y-114808000D02*
X131699000Y-117602000D01*
X125349000Y-112649000D02*
X125349000Y-108712000D01*
X125349000Y-108712000D02*
X124714000Y-108077000D01*
X130048000Y-117348000D02*
X125349000Y-112649000D01*
X130556000Y-122936000D02*
X130556000Y-122555000D01*
X130048000Y-122047000D02*
X130048000Y-117348000D01*
X130556000Y-122555000D02*
X130048000Y-122047000D01*
X124841000Y-109220000D02*
X124333000Y-108712000D01*
X129540000Y-122936000D02*
X129540000Y-117348000D01*
X124841000Y-112649000D02*
X124841000Y-109220000D01*
X129540000Y-117348000D02*
X124841000Y-112649000D01*
X129032000Y-122047000D02*
X129032000Y-117348000D01*
X124333000Y-112649000D02*
X124333000Y-109474000D01*
X129032000Y-117348000D02*
X124333000Y-112649000D01*
X128524000Y-122555000D02*
X129032000Y-122047000D01*
X124333000Y-109474000D02*
X123571000Y-108712000D01*
X128524000Y-122936000D02*
X128524000Y-122555000D01*
X123444000Y-109474000D02*
X122555000Y-108585000D01*
X121539000Y-121793000D02*
X121539000Y-117094000D01*
X123444000Y-115189000D02*
X123444000Y-109474000D01*
X121539000Y-117094000D02*
X123444000Y-115189000D01*
X122047000Y-122301000D02*
X121539000Y-121793000D01*
X122047000Y-122809000D02*
X122047000Y-122301000D01*
X122936000Y-109982000D02*
X122047000Y-109093000D01*
X121031000Y-122809000D02*
X121031000Y-116967000D01*
X122936000Y-115062000D02*
X122936000Y-109982000D01*
X121031000Y-116967000D02*
X122936000Y-115062000D01*
X119761000Y-106934000D02*
X119761000Y-116205000D01*
X119761000Y-116205000D02*
X119380000Y-116586000D01*
X118618000Y-105791000D02*
X119761000Y-106934000D01*
G04 #@! TA.AperFunction,Conductor*
G36*
X147735206Y-84138628D02*
G01*
X147737915Y-84138865D01*
X148148617Y-84192935D01*
X148151250Y-84193399D01*
X148555697Y-84283063D01*
X148558328Y-84283768D01*
X148953392Y-84408331D01*
X148955939Y-84409258D01*
X149338666Y-84567789D01*
X149341097Y-84568923D01*
X149708546Y-84760205D01*
X149710882Y-84761553D01*
X149966703Y-84924529D01*
X150060250Y-84984125D01*
X150062485Y-84985689D01*
X150391126Y-85237865D01*
X150393215Y-85239618D01*
X150698610Y-85519460D01*
X150700536Y-85521386D01*
X150959763Y-85804284D01*
X150980381Y-85826784D01*
X150982134Y-85828873D01*
X151234310Y-86157514D01*
X151235874Y-86159749D01*
X151355084Y-86346871D01*
X151458442Y-86509110D01*
X151459799Y-86511462D01*
X151651068Y-86878885D01*
X151652214Y-86881344D01*
X151766451Y-87157135D01*
X151810738Y-87264053D01*
X151811671Y-87266616D01*
X151936231Y-87661673D01*
X151936937Y-87664307D01*
X151965888Y-87794895D01*
X152026596Y-88068731D01*
X152027067Y-88071401D01*
X152081133Y-88482076D01*
X152081371Y-88484793D01*
X152099500Y-88900000D01*
X152099500Y-92299717D01*
X152081194Y-92343911D01*
X152037000Y-92362217D01*
X151992806Y-92343911D01*
X151989547Y-92340392D01*
X151872149Y-92203428D01*
X151845575Y-92176639D01*
X151818467Y-92153023D01*
X151818466Y-92153022D01*
X151810837Y-92146629D01*
X151810833Y-92146627D01*
X151810829Y-92146624D01*
X151721121Y-92099697D01*
X151654082Y-92080012D01*
X151580970Y-92069500D01*
X151580968Y-92069500D01*
X148677889Y-92069500D01*
X148633695Y-92051194D01*
X148615389Y-92007000D01*
X148633695Y-91962806D01*
X148651642Y-91950278D01*
X148880918Y-91844204D01*
X149190092Y-91658180D01*
X149477342Y-91439819D01*
X149739298Y-91191681D01*
X149972890Y-90916675D01*
X150175380Y-90618025D01*
X150344393Y-90299233D01*
X150477947Y-89964036D01*
X150574478Y-89616365D01*
X150632852Y-89260294D01*
X150652387Y-88900000D01*
X150650877Y-88872156D01*
X150636352Y-88604252D01*
X150632852Y-88539706D01*
X150574478Y-88183635D01*
X150477947Y-87835964D01*
X150344393Y-87500767D01*
X150175380Y-87181975D01*
X150175377Y-87181970D01*
X150175370Y-87181959D01*
X149972896Y-86883334D01*
X149972893Y-86883329D01*
X149969118Y-86878885D01*
X149739298Y-86608319D01*
X149477342Y-86360181D01*
X149190092Y-86141820D01*
X148880918Y-85955796D01*
X148553444Y-85804290D01*
X148553436Y-85804287D01*
X148553429Y-85804284D01*
X148211519Y-85689082D01*
X148211508Y-85689079D01*
X147859118Y-85611511D01*
X147500415Y-85572500D01*
X147500412Y-85572500D01*
X147139588Y-85572500D01*
X147139584Y-85572500D01*
X146780881Y-85611511D01*
X146428491Y-85689079D01*
X146428480Y-85689082D01*
X146086570Y-85804284D01*
X146086559Y-85804288D01*
X146086556Y-85804290D01*
X145885200Y-85897447D01*
X145759090Y-85955792D01*
X145759087Y-85955793D01*
X145759082Y-85955796D01*
X145580306Y-86063361D01*
X145449912Y-86141817D01*
X145162657Y-86360181D01*
X144900705Y-86608316D01*
X144900694Y-86608327D01*
X144667106Y-86883329D01*
X144667103Y-86883334D01*
X144464629Y-87181959D01*
X144464622Y-87181970D01*
X144295614Y-87500751D01*
X144295610Y-87500759D01*
X144162054Y-87835960D01*
X144162053Y-87835961D01*
X144065521Y-88183635D01*
X144007147Y-88539708D01*
X144007147Y-88539710D01*
X143987613Y-88899994D01*
X143987613Y-88900000D01*
X144007147Y-89260289D01*
X144007147Y-89260291D01*
X144065521Y-89616364D01*
X144162053Y-89964038D01*
X144162054Y-89964039D01*
X144213214Y-90092442D01*
X144286051Y-90275250D01*
X144295610Y-90299240D01*
X144295614Y-90299248D01*
X144464622Y-90618029D01*
X144464629Y-90618040D01*
X144607614Y-90828926D01*
X144617264Y-90875778D01*
X144590958Y-90915730D01*
X144555884Y-90926500D01*
X135395838Y-90926500D01*
X135351644Y-90908194D01*
X135333338Y-90864000D01*
X135347525Y-90824350D01*
X135436694Y-90715698D01*
X135527462Y-90545883D01*
X135583357Y-90361624D01*
X135602230Y-90170000D01*
X135597157Y-90118497D01*
X135583357Y-89978377D01*
X135583357Y-89978376D01*
X135527462Y-89794117D01*
X135436694Y-89624302D01*
X135314541Y-89475459D01*
X135165698Y-89353306D01*
X135165692Y-89353302D01*
X135058695Y-89296112D01*
X134995883Y-89262538D01*
X134878111Y-89226811D01*
X134811622Y-89206642D01*
X134620000Y-89187770D01*
X134428377Y-89206642D01*
X134310604Y-89242369D01*
X134244117Y-89262538D01*
X134244115Y-89262538D01*
X134244115Y-89262539D01*
X134074307Y-89353302D01*
X134074301Y-89353306D01*
X133925459Y-89475459D01*
X133803306Y-89624301D01*
X133803302Y-89624307D01*
X133712539Y-89794115D01*
X133656642Y-89978377D01*
X133637770Y-90169999D01*
X133637770Y-90170000D01*
X133656642Y-90361622D01*
X133656643Y-90361624D01*
X133712538Y-90545883D01*
X133712539Y-90545884D01*
X133803302Y-90715692D01*
X133803306Y-90715698D01*
X133892475Y-90824350D01*
X133906361Y-90870126D01*
X133883812Y-90912313D01*
X133844162Y-90926500D01*
X132855838Y-90926500D01*
X132811644Y-90908194D01*
X132793338Y-90864000D01*
X132807525Y-90824350D01*
X132896694Y-90715698D01*
X132987462Y-90545883D01*
X133043357Y-90361624D01*
X133062230Y-90170000D01*
X133057157Y-90118497D01*
X133043357Y-89978377D01*
X133043357Y-89978376D01*
X132987462Y-89794117D01*
X132896694Y-89624302D01*
X132774541Y-89475459D01*
X132625698Y-89353306D01*
X132625692Y-89353302D01*
X132518695Y-89296112D01*
X132455883Y-89262538D01*
X132338111Y-89226811D01*
X132271622Y-89206642D01*
X132080000Y-89187770D01*
X131888377Y-89206642D01*
X131770604Y-89242369D01*
X131704117Y-89262538D01*
X131704115Y-89262538D01*
X131704115Y-89262539D01*
X131534307Y-89353302D01*
X131534301Y-89353306D01*
X131385459Y-89475459D01*
X131263306Y-89624301D01*
X131263302Y-89624307D01*
X131172539Y-89794115D01*
X131116642Y-89978377D01*
X131097770Y-90169999D01*
X131097770Y-90170000D01*
X131116642Y-90361622D01*
X131116643Y-90361624D01*
X131172538Y-90545883D01*
X131172539Y-90545884D01*
X131263302Y-90715692D01*
X131263306Y-90715698D01*
X131352475Y-90824350D01*
X131366361Y-90870126D01*
X131343812Y-90912313D01*
X131304162Y-90926500D01*
X130636093Y-90926500D01*
X130636033Y-90926500D01*
X130632709Y-90926530D01*
X130589723Y-90933301D01*
X130543219Y-90922094D01*
X130518261Y-90881285D01*
X130517500Y-90871562D01*
X130517500Y-90092442D01*
X130517500Y-89307442D01*
X130510102Y-89270252D01*
X130510101Y-89270250D01*
X130481922Y-89228077D01*
X130439748Y-89199898D01*
X130439747Y-89199898D01*
X130402558Y-89192500D01*
X128677442Y-89192500D01*
X128658847Y-89196199D01*
X128640251Y-89199898D01*
X128640250Y-89199898D01*
X128598077Y-89228077D01*
X128569898Y-89270250D01*
X128569898Y-89270251D01*
X128562500Y-89307442D01*
X128562500Y-90871590D01*
X128544194Y-90915784D01*
X128500000Y-90934090D01*
X128491106Y-90933454D01*
X128442738Y-90926500D01*
X128442735Y-90926500D01*
X125235838Y-90926500D01*
X125191644Y-90908194D01*
X125173338Y-90864000D01*
X125187525Y-90824350D01*
X125276694Y-90715698D01*
X125367462Y-90545883D01*
X125423357Y-90361624D01*
X125442230Y-90170000D01*
X125437157Y-90118497D01*
X125423357Y-89978377D01*
X125423357Y-89978376D01*
X125367462Y-89794117D01*
X125276694Y-89624302D01*
X125154541Y-89475459D01*
X125005698Y-89353306D01*
X125005692Y-89353302D01*
X124898695Y-89296112D01*
X124835883Y-89262538D01*
X124718111Y-89226811D01*
X124651622Y-89206642D01*
X124460000Y-89187770D01*
X124268377Y-89206642D01*
X124150604Y-89242369D01*
X124084117Y-89262538D01*
X124084115Y-89262538D01*
X124084115Y-89262539D01*
X123914307Y-89353302D01*
X123914301Y-89353306D01*
X123765459Y-89475459D01*
X123643306Y-89624301D01*
X123643302Y-89624307D01*
X123552539Y-89794115D01*
X123496642Y-89978377D01*
X123477770Y-90169999D01*
X123477770Y-90170000D01*
X123496642Y-90361622D01*
X123496643Y-90361624D01*
X123552538Y-90545883D01*
X123552539Y-90545884D01*
X123643302Y-90715692D01*
X123643306Y-90715698D01*
X123732475Y-90824350D01*
X123746361Y-90870126D01*
X123723812Y-90912313D01*
X123684162Y-90926500D01*
X122695838Y-90926500D01*
X122651644Y-90908194D01*
X122633338Y-90864000D01*
X122647525Y-90824350D01*
X122736694Y-90715698D01*
X122827462Y-90545883D01*
X122883357Y-90361624D01*
X122902230Y-90170000D01*
X122897157Y-90118497D01*
X122883357Y-89978377D01*
X122883357Y-89978376D01*
X122827462Y-89794117D01*
X122736694Y-89624302D01*
X122614541Y-89475459D01*
X122465698Y-89353306D01*
X122465692Y-89353302D01*
X122358695Y-89296112D01*
X122295883Y-89262538D01*
X122178111Y-89226811D01*
X122111622Y-89206642D01*
X121920000Y-89187770D01*
X121728377Y-89206642D01*
X121610604Y-89242369D01*
X121544117Y-89262538D01*
X121544115Y-89262538D01*
X121544115Y-89262539D01*
X121374307Y-89353302D01*
X121374301Y-89353306D01*
X121225459Y-89475459D01*
X121103306Y-89624301D01*
X121103302Y-89624307D01*
X121012539Y-89794115D01*
X120956642Y-89978377D01*
X120937770Y-90169999D01*
X120937770Y-90170000D01*
X120956642Y-90361622D01*
X120956643Y-90361624D01*
X121012538Y-90545883D01*
X121012539Y-90545884D01*
X121103302Y-90715692D01*
X121103306Y-90715698D01*
X121192475Y-90824350D01*
X121206361Y-90870126D01*
X121183812Y-90912313D01*
X121144162Y-90926500D01*
X120476093Y-90926500D01*
X120476033Y-90926500D01*
X120472709Y-90926530D01*
X120429723Y-90933301D01*
X120383219Y-90922094D01*
X120358261Y-90881285D01*
X120357500Y-90871562D01*
X120357500Y-90092442D01*
X120357500Y-89307442D01*
X120350102Y-89270252D01*
X120350101Y-89270250D01*
X120321922Y-89228077D01*
X120279748Y-89199898D01*
X120279747Y-89199898D01*
X120242558Y-89192500D01*
X118517442Y-89192500D01*
X118498847Y-89196199D01*
X118480251Y-89199898D01*
X118480250Y-89199898D01*
X118438077Y-89228077D01*
X118409898Y-89270250D01*
X118409898Y-89270251D01*
X118402500Y-89307442D01*
X118402500Y-90871590D01*
X118384194Y-90915784D01*
X118340000Y-90934090D01*
X118331106Y-90933454D01*
X118286452Y-90927034D01*
X118251152Y-90909364D01*
X116851704Y-89509916D01*
X116851705Y-89509916D01*
X116841358Y-89500622D01*
X116841357Y-89500621D01*
X116815302Y-89479625D01*
X116815303Y-89479625D01*
X116725589Y-89432697D01*
X116658552Y-89413012D01*
X116585440Y-89402500D01*
X116585438Y-89402500D01*
X113074412Y-89402500D01*
X113071209Y-89402671D01*
X113060543Y-89403243D01*
X113060538Y-89403243D01*
X113060531Y-89403244D01*
X113052335Y-89404125D01*
X113027261Y-89406820D01*
X112930648Y-89437072D01*
X112930638Y-89437076D01*
X112878166Y-89465728D01*
X112869316Y-89470561D01*
X112857208Y-89479625D01*
X112810181Y-89514829D01*
X112242916Y-90082096D01*
X112242916Y-90082095D01*
X112233622Y-90092442D01*
X112233621Y-90092443D01*
X112212625Y-90118497D01*
X112165697Y-90208210D01*
X112146012Y-90275247D01*
X112135500Y-90348360D01*
X112135500Y-97745586D01*
X112136243Y-97759457D01*
X112136243Y-97759456D01*
X112139820Y-97792738D01*
X112170074Y-97889356D01*
X112170076Y-97889361D01*
X112185168Y-97916999D01*
X112203561Y-97950684D01*
X112247825Y-98009813D01*
X112247829Y-98009818D01*
X113323096Y-99085084D01*
X113323095Y-99085084D01*
X113333442Y-99094378D01*
X113333443Y-99094379D01*
X113359497Y-99115374D01*
X113359496Y-99115374D01*
X113406425Y-99139921D01*
X113449211Y-99162303D01*
X113516250Y-99181988D01*
X113564805Y-99188969D01*
X113589360Y-99192500D01*
X113589362Y-99192500D01*
X141846498Y-99192500D01*
X141890692Y-99210806D01*
X141892094Y-99212254D01*
X143615164Y-101050194D01*
X143632067Y-101092661D01*
X143646238Y-104266997D01*
X143651341Y-105409997D01*
X143651346Y-105411159D01*
X143668023Y-109146888D01*
X143668497Y-109157403D01*
X143670663Y-109182651D01*
X143670663Y-109182654D01*
X143695791Y-109273845D01*
X143695798Y-109273861D01*
X143696457Y-109275218D01*
X143696484Y-109275682D01*
X143696806Y-109276535D01*
X143696541Y-109276634D01*
X143699298Y-109322969D01*
X143667541Y-109358742D01*
X143651721Y-109363958D01*
X143454126Y-109400895D01*
X143259278Y-109476379D01*
X143081614Y-109586384D01*
X142945294Y-109710657D01*
X142935848Y-109719269D01*
X142927196Y-109727156D01*
X142927189Y-109727163D01*
X142801277Y-109893899D01*
X142801274Y-109893905D01*
X142708134Y-110080954D01*
X142650950Y-110281931D01*
X142650948Y-110281942D01*
X142631670Y-110489995D01*
X142631670Y-110490004D01*
X142650948Y-110698057D01*
X142650950Y-110698068D01*
X142703971Y-110884413D01*
X142708134Y-110899045D01*
X142801274Y-111086095D01*
X142801275Y-111086096D01*
X142801277Y-111086100D01*
X142927189Y-111252836D01*
X142927194Y-111252841D01*
X142927198Y-111252846D01*
X143031938Y-111348329D01*
X143081614Y-111393615D01*
X143081615Y-111393616D01*
X143081619Y-111393619D01*
X143259277Y-111503620D01*
X143454123Y-111579104D01*
X143659522Y-111617500D01*
X143659525Y-111617500D01*
X143866875Y-111617500D01*
X143911069Y-111635806D01*
X143929375Y-111680000D01*
X143928075Y-111692680D01*
X143920502Y-111729230D01*
X143920501Y-111729239D01*
X143928725Y-111830148D01*
X143947876Y-111897338D01*
X143964471Y-111940517D01*
X143964474Y-111940523D01*
X143964475Y-111940524D01*
X144025954Y-112020974D01*
X144078394Y-112067146D01*
X144140211Y-112107569D01*
X144258449Y-112162704D01*
X144267866Y-112168141D01*
X144363780Y-112235300D01*
X144401531Y-112261733D01*
X144409877Y-112268736D01*
X144525258Y-112384116D01*
X144532261Y-112392462D01*
X144625847Y-112526117D01*
X144631294Y-112535551D01*
X144700255Y-112683437D01*
X144703981Y-112693674D01*
X144746210Y-112851271D01*
X144748102Y-112862001D01*
X144762323Y-113024552D01*
X144762323Y-113035446D01*
X144748102Y-113197997D01*
X144746210Y-113208726D01*
X144703981Y-113366324D01*
X144700255Y-113376562D01*
X144631296Y-113524445D01*
X144625849Y-113533879D01*
X144532261Y-113667537D01*
X144525258Y-113675883D01*
X144409883Y-113791258D01*
X144401537Y-113798261D01*
X144267879Y-113891849D01*
X144258445Y-113897296D01*
X144140218Y-113952426D01*
X144140209Y-113952431D01*
X144079946Y-113991498D01*
X144079937Y-113991504D01*
X144028569Y-114036015D01*
X144028570Y-114036015D01*
X144028567Y-114036018D01*
X144014695Y-114050281D01*
X143997740Y-114067713D01*
X143950099Y-114157060D01*
X143943450Y-114179061D01*
X143929886Y-114223937D01*
X143924099Y-114251868D01*
X143920502Y-114269229D01*
X143920501Y-114269239D01*
X143928975Y-114373209D01*
X143927517Y-114373327D01*
X143918367Y-114415594D01*
X143878151Y-114441496D01*
X143866993Y-114442500D01*
X143659517Y-114442500D01*
X143454126Y-114480895D01*
X143259278Y-114556379D01*
X143081614Y-114666384D01*
X142927196Y-114807156D01*
X142927189Y-114807163D01*
X142801277Y-114973899D01*
X142801274Y-114973905D01*
X142708134Y-115160954D01*
X142650950Y-115361931D01*
X142650948Y-115361942D01*
X142631670Y-115569995D01*
X142631670Y-115570004D01*
X142650948Y-115778057D01*
X142650950Y-115778068D01*
X142695220Y-115933657D01*
X142708134Y-115979045D01*
X142801274Y-116166095D01*
X142801275Y-116166096D01*
X142801277Y-116166100D01*
X142927189Y-116332836D01*
X142927194Y-116332841D01*
X142927198Y-116332846D01*
X143031938Y-116428329D01*
X143081614Y-116473615D01*
X143081615Y-116473616D01*
X143081619Y-116473619D01*
X143259277Y-116583620D01*
X143454123Y-116659104D01*
X143659522Y-116697500D01*
X143659525Y-116697500D01*
X143866875Y-116697500D01*
X143911069Y-116715806D01*
X143929375Y-116760000D01*
X143928075Y-116772680D01*
X143920502Y-116809230D01*
X143920501Y-116809239D01*
X143928975Y-116913209D01*
X143927517Y-116913327D01*
X143918367Y-116955594D01*
X143878151Y-116981496D01*
X143866993Y-116982500D01*
X143659517Y-116982500D01*
X143454126Y-117020895D01*
X143259278Y-117096379D01*
X143081614Y-117206384D01*
X142942929Y-117332812D01*
X142929737Y-117344840D01*
X142927196Y-117347156D01*
X142927189Y-117347163D01*
X142801277Y-117513899D01*
X142801274Y-117513905D01*
X142708134Y-117700954D01*
X142650950Y-117901931D01*
X142650948Y-117901942D01*
X142631670Y-118109995D01*
X142631670Y-118110004D01*
X142650948Y-118318057D01*
X142650950Y-118318068D01*
X142705087Y-118508337D01*
X142708134Y-118519045D01*
X142801274Y-118706095D01*
X142801275Y-118706096D01*
X142801277Y-118706100D01*
X142927189Y-118872836D01*
X142927194Y-118872841D01*
X142927198Y-118872846D01*
X143031938Y-118968329D01*
X143081614Y-119013615D01*
X143081615Y-119013616D01*
X143081619Y-119013619D01*
X143259277Y-119123620D01*
X143454123Y-119199104D01*
X143659522Y-119237500D01*
X143681187Y-119237500D01*
X143725381Y-119255806D01*
X143743687Y-119300000D01*
X143741233Y-119317341D01*
X143724203Y-119376308D01*
X143724202Y-119376310D01*
X143714018Y-119449463D01*
X143714016Y-119449479D01*
X143753541Y-128302770D01*
X143758305Y-129369928D01*
X143758942Y-129381119D01*
X143759079Y-129383521D01*
X143759079Y-129383520D01*
X143762656Y-129416093D01*
X143792844Y-129512125D01*
X143792849Y-129512136D01*
X143792860Y-129512156D01*
X143826332Y-129573455D01*
X143870596Y-129632584D01*
X143870600Y-129632589D01*
X144184096Y-129946084D01*
X144184095Y-129946084D01*
X144194442Y-129955378D01*
X144194443Y-129955379D01*
X144220497Y-129976374D01*
X144220496Y-129976374D01*
X144243307Y-129988306D01*
X144310211Y-130023303D01*
X144377250Y-130042988D01*
X144420309Y-130049179D01*
X144450360Y-130053500D01*
X144450362Y-130053500D01*
X151720586Y-130053500D01*
X151720588Y-130053500D01*
X151723790Y-130053328D01*
X151734457Y-130052757D01*
X151734456Y-130052757D01*
X151734461Y-130052756D01*
X151734469Y-130052756D01*
X151760655Y-130049940D01*
X151767738Y-130049179D01*
X151864351Y-130018927D01*
X151864349Y-130018927D01*
X151864361Y-130018924D01*
X151925684Y-129985439D01*
X151984814Y-129941175D01*
X151992805Y-129933183D01*
X152036997Y-129914876D01*
X152081192Y-129933180D01*
X152099500Y-129977373D01*
X152099500Y-139700000D01*
X152081371Y-140115206D01*
X152081133Y-140117923D01*
X152027067Y-140528598D01*
X152026596Y-140531272D01*
X151989628Y-140698019D01*
X151936937Y-140935692D01*
X151936231Y-140938326D01*
X151811671Y-141333383D01*
X151810738Y-141335946D01*
X151776734Y-141418040D01*
X151653036Y-141716675D01*
X151652221Y-141718642D01*
X151651068Y-141721114D01*
X151459799Y-142088537D01*
X151458436Y-142090899D01*
X151235874Y-142440250D01*
X151234310Y-142442485D01*
X150982134Y-142771126D01*
X150980381Y-142773215D01*
X150700539Y-143078610D01*
X150698610Y-143080539D01*
X150393215Y-143360381D01*
X150391126Y-143362134D01*
X150062485Y-143614310D01*
X150060250Y-143615874D01*
X149710899Y-143838436D01*
X149708537Y-143839799D01*
X149341114Y-144031068D01*
X149338647Y-144032218D01*
X149231724Y-144076507D01*
X148955946Y-144190738D01*
X148953383Y-144191671D01*
X148558326Y-144316231D01*
X148555692Y-144316937D01*
X148318019Y-144369628D01*
X148151272Y-144406596D01*
X148148598Y-144407067D01*
X147737923Y-144461133D01*
X147735206Y-144461371D01*
X147320000Y-144479500D01*
X106680000Y-144479500D01*
X106264793Y-144461371D01*
X106262076Y-144461133D01*
X105851401Y-144407067D01*
X105848731Y-144406596D01*
X105611042Y-144353902D01*
X105444307Y-144316937D01*
X105441673Y-144316231D01*
X105046616Y-144191671D01*
X105044053Y-144190738D01*
X104937135Y-144146451D01*
X104661344Y-144032214D01*
X104658892Y-144031071D01*
X104291460Y-143839798D01*
X104289110Y-143838442D01*
X104126871Y-143735084D01*
X103939749Y-143615874D01*
X103937514Y-143614310D01*
X103608873Y-143362134D01*
X103606784Y-143360381D01*
X103301389Y-143080539D01*
X103299460Y-143078610D01*
X103019614Y-142773210D01*
X103017865Y-142771126D01*
X102765689Y-142442485D01*
X102764125Y-142440250D01*
X102636436Y-142239819D01*
X102541553Y-142090882D01*
X102540205Y-142088546D01*
X102348923Y-141721097D01*
X102347789Y-141718666D01*
X102189258Y-141335939D01*
X102188328Y-141333383D01*
X102157801Y-141236564D01*
X102063768Y-140938326D01*
X102063062Y-140935692D01*
X101973399Y-140531250D01*
X101972935Y-140528617D01*
X101918865Y-140117915D01*
X101918628Y-140115206D01*
X101900500Y-139700000D01*
X103347613Y-139700000D01*
X103367147Y-140060289D01*
X103367147Y-140060291D01*
X103425521Y-140416364D01*
X103522053Y-140764038D01*
X103522054Y-140764039D01*
X103655610Y-141099240D01*
X103655614Y-141099248D01*
X103824622Y-141418029D01*
X103824629Y-141418040D01*
X104027103Y-141716665D01*
X104027106Y-141716670D01*
X104027109Y-141716673D01*
X104027110Y-141716675D01*
X104260702Y-141991681D01*
X104522658Y-142239819D01*
X104809908Y-142458180D01*
X105119082Y-142644204D01*
X105446556Y-142795710D01*
X105446567Y-142795713D01*
X105446570Y-142795715D01*
X105788480Y-142910917D01*
X105788492Y-142910921D01*
X106140880Y-142988488D01*
X106499588Y-143027500D01*
X106499592Y-143027500D01*
X106860408Y-143027500D01*
X106860412Y-143027500D01*
X107219120Y-142988488D01*
X107571508Y-142910921D01*
X107913444Y-142795710D01*
X108240918Y-142644204D01*
X108550092Y-142458180D01*
X108837342Y-142239819D01*
X109099298Y-141991681D01*
X109332890Y-141716675D01*
X109535380Y-141418025D01*
X109704393Y-141099233D01*
X109837947Y-140764036D01*
X109934478Y-140416365D01*
X109992852Y-140060294D01*
X110012387Y-139700000D01*
X143987613Y-139700000D01*
X144007147Y-140060289D01*
X144007147Y-140060291D01*
X144065521Y-140416364D01*
X144162053Y-140764038D01*
X144162054Y-140764039D01*
X144295610Y-141099240D01*
X144295614Y-141099248D01*
X144464622Y-141418029D01*
X144464629Y-141418040D01*
X144667103Y-141716665D01*
X144667106Y-141716670D01*
X144667109Y-141716673D01*
X144667110Y-141716675D01*
X144900702Y-141991681D01*
X145162658Y-142239819D01*
X145449908Y-142458180D01*
X145759082Y-142644204D01*
X146086556Y-142795710D01*
X146086567Y-142795713D01*
X146086570Y-142795715D01*
X146428480Y-142910917D01*
X146428492Y-142910921D01*
X146780880Y-142988488D01*
X147139588Y-143027500D01*
X147139592Y-143027500D01*
X147500408Y-143027500D01*
X147500412Y-143027500D01*
X147859120Y-142988488D01*
X148211508Y-142910921D01*
X148553444Y-142795710D01*
X148880918Y-142644204D01*
X149190092Y-142458180D01*
X149477342Y-142239819D01*
X149739298Y-141991681D01*
X149972890Y-141716675D01*
X150175380Y-141418025D01*
X150344393Y-141099233D01*
X150477947Y-140764036D01*
X150574478Y-140416365D01*
X150632852Y-140060294D01*
X150652387Y-139700000D01*
X150649806Y-139652405D01*
X150636127Y-139400102D01*
X150632852Y-139339706D01*
X150574478Y-138983635D01*
X150477947Y-138635964D01*
X150344393Y-138300767D01*
X150311315Y-138238376D01*
X150175377Y-137981970D01*
X150175370Y-137981959D01*
X149972896Y-137683334D01*
X149972893Y-137683329D01*
X149739305Y-137408327D01*
X149739303Y-137408325D01*
X149739298Y-137408319D01*
X149477342Y-137160181D01*
X149190092Y-136941820D01*
X148880918Y-136755796D01*
X148553444Y-136604290D01*
X148553436Y-136604287D01*
X148553429Y-136604284D01*
X148211519Y-136489082D01*
X148211508Y-136489079D01*
X147859118Y-136411511D01*
X147500415Y-136372500D01*
X147500412Y-136372500D01*
X147139588Y-136372500D01*
X147139584Y-136372500D01*
X146780881Y-136411511D01*
X146428491Y-136489079D01*
X146428480Y-136489082D01*
X146086570Y-136604284D01*
X146086559Y-136604288D01*
X146086556Y-136604290D01*
X145885200Y-136697447D01*
X145759090Y-136755792D01*
X145759087Y-136755793D01*
X145759082Y-136755796D01*
X145580306Y-136863361D01*
X145449912Y-136941817D01*
X145162657Y-137160181D01*
X144900705Y-137408316D01*
X144900694Y-137408327D01*
X144667106Y-137683329D01*
X144667103Y-137683334D01*
X144464629Y-137981959D01*
X144464622Y-137981970D01*
X144295614Y-138300751D01*
X144295610Y-138300759D01*
X144162054Y-138635960D01*
X144162053Y-138635961D01*
X144065521Y-138983635D01*
X144007147Y-139339708D01*
X144007147Y-139339710D01*
X143987613Y-139699994D01*
X143987613Y-139700000D01*
X110012387Y-139700000D01*
X110009806Y-139652405D01*
X109996127Y-139400102D01*
X109992852Y-139339706D01*
X109934478Y-138983635D01*
X109837947Y-138635964D01*
X109755884Y-138430000D01*
X118397770Y-138430000D01*
X118416642Y-138621622D01*
X118416643Y-138621624D01*
X118472538Y-138805883D01*
X118472539Y-138805884D01*
X118563302Y-138975692D01*
X118563306Y-138975698D01*
X118685459Y-139124541D01*
X118834302Y-139246694D01*
X118834304Y-139246695D01*
X118834307Y-139246697D01*
X118878491Y-139270313D01*
X119004117Y-139337462D01*
X119188376Y-139393357D01*
X119284188Y-139402793D01*
X119379999Y-139412230D01*
X119379999Y-139412229D01*
X119380000Y-139412230D01*
X119571624Y-139393357D01*
X119755883Y-139337462D01*
X119925698Y-139246694D01*
X120074541Y-139124541D01*
X120196694Y-138975698D01*
X120287462Y-138805883D01*
X120343357Y-138621624D01*
X120362230Y-138430000D01*
X120937770Y-138430000D01*
X120956642Y-138621622D01*
X120956643Y-138621624D01*
X121012538Y-138805883D01*
X121012539Y-138805884D01*
X121103302Y-138975692D01*
X121103306Y-138975698D01*
X121225459Y-139124541D01*
X121374302Y-139246694D01*
X121374304Y-139246695D01*
X121374307Y-139246697D01*
X121418491Y-139270313D01*
X121544117Y-139337462D01*
X121728376Y-139393357D01*
X121920000Y-139412230D01*
X122111624Y-139393357D01*
X122295883Y-139337462D01*
X122379894Y-139292557D01*
X123482500Y-139292557D01*
X123489898Y-139329748D01*
X123489898Y-139329749D01*
X123518077Y-139371922D01*
X123546256Y-139390750D01*
X123560252Y-139400102D01*
X123597442Y-139407500D01*
X123597443Y-139407500D01*
X125322557Y-139407500D01*
X125322558Y-139407500D01*
X125359748Y-139400102D01*
X125401922Y-139371922D01*
X125430102Y-139329748D01*
X125437500Y-139292558D01*
X125437500Y-138430000D01*
X128557770Y-138430000D01*
X128576642Y-138621622D01*
X128576643Y-138621624D01*
X128632538Y-138805883D01*
X128632539Y-138805884D01*
X128723302Y-138975692D01*
X128723306Y-138975698D01*
X128845459Y-139124541D01*
X128994302Y-139246694D01*
X128994304Y-139246695D01*
X128994307Y-139246697D01*
X129038491Y-139270313D01*
X129164117Y-139337462D01*
X129348376Y-139393357D01*
X129444188Y-139402793D01*
X129539999Y-139412230D01*
X129539999Y-139412229D01*
X129540000Y-139412230D01*
X129731624Y-139393357D01*
X129915883Y-139337462D01*
X130085698Y-139246694D01*
X130234541Y-139124541D01*
X130356694Y-138975698D01*
X130447462Y-138805883D01*
X130503357Y-138621624D01*
X130522230Y-138430000D01*
X131097770Y-138430000D01*
X131116642Y-138621622D01*
X131116643Y-138621624D01*
X131172538Y-138805883D01*
X131172539Y-138805884D01*
X131263302Y-138975692D01*
X131263306Y-138975698D01*
X131385459Y-139124541D01*
X131534302Y-139246694D01*
X131534304Y-139246695D01*
X131534307Y-139246697D01*
X131578491Y-139270313D01*
X131704117Y-139337462D01*
X131888376Y-139393357D01*
X132080000Y-139412230D01*
X132271624Y-139393357D01*
X132455883Y-139337462D01*
X132539894Y-139292557D01*
X133642500Y-139292557D01*
X133649898Y-139329748D01*
X133649898Y-139329749D01*
X133678077Y-139371922D01*
X133706256Y-139390750D01*
X133720252Y-139400102D01*
X133757442Y-139407500D01*
X133757443Y-139407500D01*
X135482557Y-139407500D01*
X135482558Y-139407500D01*
X135519748Y-139400102D01*
X135561922Y-139371922D01*
X135590102Y-139329748D01*
X135597500Y-139292558D01*
X135597500Y-137567442D01*
X135590102Y-137530252D01*
X135590101Y-137530250D01*
X135561922Y-137488077D01*
X135519748Y-137459898D01*
X135482558Y-137452500D01*
X133757442Y-137452500D01*
X133738847Y-137456199D01*
X133720251Y-137459898D01*
X133720250Y-137459898D01*
X133678077Y-137488077D01*
X133649898Y-137530250D01*
X133649898Y-137530251D01*
X133642500Y-137567442D01*
X133642500Y-139292557D01*
X132539894Y-139292557D01*
X132625698Y-139246694D01*
X132774541Y-139124541D01*
X132896694Y-138975698D01*
X132987462Y-138805883D01*
X133043357Y-138621624D01*
X133062230Y-138430000D01*
X133043357Y-138238376D01*
X132987462Y-138054117D01*
X132896694Y-137884302D01*
X132774541Y-137735459D01*
X132625698Y-137613306D01*
X132625692Y-137613302D01*
X132518695Y-137556112D01*
X132455883Y-137522538D01*
X132338111Y-137486811D01*
X132271622Y-137466642D01*
X132080000Y-137447770D01*
X131888377Y-137466642D01*
X131770604Y-137502369D01*
X131704117Y-137522538D01*
X131704115Y-137522538D01*
X131704115Y-137522539D01*
X131534307Y-137613302D01*
X131534301Y-137613306D01*
X131385459Y-137735459D01*
X131263306Y-137884301D01*
X131263302Y-137884307D01*
X131172539Y-138054115D01*
X131116642Y-138238377D01*
X131097770Y-138429999D01*
X131097770Y-138430000D01*
X130522230Y-138430000D01*
X130503357Y-138238376D01*
X130447462Y-138054117D01*
X130356694Y-137884302D01*
X130234541Y-137735459D01*
X130085698Y-137613306D01*
X130085692Y-137613302D01*
X129978695Y-137556112D01*
X129915883Y-137522538D01*
X129798111Y-137486811D01*
X129731622Y-137466642D01*
X129540000Y-137447770D01*
X129348377Y-137466642D01*
X129230604Y-137502369D01*
X129164117Y-137522538D01*
X129164115Y-137522538D01*
X129164115Y-137522539D01*
X128994307Y-137613302D01*
X128994301Y-137613306D01*
X128845459Y-137735459D01*
X128723306Y-137884301D01*
X128723302Y-137884307D01*
X128632539Y-138054115D01*
X128576642Y-138238377D01*
X128557770Y-138429999D01*
X128557770Y-138430000D01*
X125437500Y-138430000D01*
X125437500Y-137567442D01*
X125430102Y-137530252D01*
X125430101Y-137530250D01*
X125401922Y-137488077D01*
X125359748Y-137459898D01*
X125322558Y-137452500D01*
X123597442Y-137452500D01*
X123578847Y-137456199D01*
X123560251Y-137459898D01*
X123560250Y-137459898D01*
X123518077Y-137488077D01*
X123489898Y-137530250D01*
X123489898Y-137530251D01*
X123482500Y-137567442D01*
X123482500Y-139292557D01*
X122379894Y-139292557D01*
X122465698Y-139246694D01*
X122614541Y-139124541D01*
X122736694Y-138975698D01*
X122827462Y-138805883D01*
X122883357Y-138621624D01*
X122902230Y-138430000D01*
X122883357Y-138238376D01*
X122827462Y-138054117D01*
X122736694Y-137884302D01*
X122614541Y-137735459D01*
X122465698Y-137613306D01*
X122465692Y-137613302D01*
X122358695Y-137556112D01*
X122295883Y-137522538D01*
X122178111Y-137486811D01*
X122111622Y-137466642D01*
X121920000Y-137447770D01*
X121728377Y-137466642D01*
X121610604Y-137502369D01*
X121544117Y-137522538D01*
X121544115Y-137522538D01*
X121544115Y-137522539D01*
X121374307Y-137613302D01*
X121374301Y-137613306D01*
X121225459Y-137735459D01*
X121103306Y-137884301D01*
X121103302Y-137884307D01*
X121012539Y-138054115D01*
X120956642Y-138238377D01*
X120937770Y-138429999D01*
X120937770Y-138430000D01*
X120362230Y-138430000D01*
X120343357Y-138238376D01*
X120287462Y-138054117D01*
X120196694Y-137884302D01*
X120074541Y-137735459D01*
X119925698Y-137613306D01*
X119925692Y-137613302D01*
X119818695Y-137556112D01*
X119755883Y-137522538D01*
X119638111Y-137486811D01*
X119571622Y-137466642D01*
X119380000Y-137447770D01*
X119188377Y-137466642D01*
X119070604Y-137502369D01*
X119004117Y-137522538D01*
X119004115Y-137522538D01*
X119004115Y-137522539D01*
X118834307Y-137613302D01*
X118834301Y-137613306D01*
X118685459Y-137735459D01*
X118563306Y-137884301D01*
X118563302Y-137884307D01*
X118472539Y-138054115D01*
X118416642Y-138238377D01*
X118397770Y-138429999D01*
X118397770Y-138430000D01*
X109755884Y-138430000D01*
X109704393Y-138300767D01*
X109671315Y-138238376D01*
X109535377Y-137981970D01*
X109535370Y-137981959D01*
X109332896Y-137683334D01*
X109332893Y-137683329D01*
X109099305Y-137408327D01*
X109099303Y-137408325D01*
X109099298Y-137408319D01*
X108837342Y-137160181D01*
X108550092Y-136941820D01*
X108240918Y-136755796D01*
X107913444Y-136604290D01*
X107913436Y-136604287D01*
X107913429Y-136604284D01*
X107571519Y-136489082D01*
X107571508Y-136489079D01*
X107219118Y-136411511D01*
X106860415Y-136372500D01*
X106860412Y-136372500D01*
X106499588Y-136372500D01*
X106499584Y-136372500D01*
X106140881Y-136411511D01*
X105788491Y-136489079D01*
X105788480Y-136489082D01*
X105446570Y-136604284D01*
X105446559Y-136604288D01*
X105446556Y-136604290D01*
X105245200Y-136697447D01*
X105119090Y-136755792D01*
X105119087Y-136755793D01*
X105119082Y-136755796D01*
X104940306Y-136863361D01*
X104809912Y-136941817D01*
X104522657Y-137160181D01*
X104260705Y-137408316D01*
X104260694Y-137408327D01*
X104027106Y-137683329D01*
X104027103Y-137683334D01*
X103824629Y-137981959D01*
X103824622Y-137981970D01*
X103655614Y-138300751D01*
X103655610Y-138300759D01*
X103522054Y-138635960D01*
X103522053Y-138635961D01*
X103425521Y-138983635D01*
X103367147Y-139339708D01*
X103367147Y-139339710D01*
X103347613Y-139699994D01*
X103347613Y-139700000D01*
X101900500Y-139700000D01*
X101900500Y-133350004D01*
X106182670Y-133350004D01*
X106201948Y-133558057D01*
X106201950Y-133558068D01*
X106246220Y-133713657D01*
X106259134Y-133759045D01*
X106352274Y-133946095D01*
X106352275Y-133946096D01*
X106352277Y-133946100D01*
X106478189Y-134112836D01*
X106478194Y-134112841D01*
X106478198Y-134112846D01*
X106582938Y-134208329D01*
X106632614Y-134253615D01*
X106632615Y-134253616D01*
X106632619Y-134253619D01*
X106810277Y-134363620D01*
X107005123Y-134439104D01*
X107210522Y-134477500D01*
X107210525Y-134477500D01*
X107419475Y-134477500D01*
X107419478Y-134477500D01*
X107624877Y-134439104D01*
X107813580Y-134366000D01*
X147880867Y-134366000D01*
X147899302Y-134494224D01*
X147899303Y-134494226D01*
X147953118Y-134612063D01*
X148037951Y-134709967D01*
X148146931Y-134780004D01*
X148146933Y-134780004D01*
X148146934Y-134780005D01*
X148271225Y-134816499D01*
X148271227Y-134816500D01*
X148271228Y-134816500D01*
X148400773Y-134816500D01*
X148400773Y-134816499D01*
X148525069Y-134780004D01*
X148634049Y-134709967D01*
X148718882Y-134612063D01*
X148772697Y-134494226D01*
X148791133Y-134366000D01*
X148772697Y-134237774D01*
X148718882Y-134119937D01*
X148634049Y-134022033D01*
X148634048Y-134022032D01*
X148592081Y-133995062D01*
X148525069Y-133951996D01*
X148525067Y-133951995D01*
X148525065Y-133951994D01*
X148409179Y-133917968D01*
X148371932Y-133887953D01*
X148366819Y-133840392D01*
X148396834Y-133803145D01*
X148409179Y-133798032D01*
X148493075Y-133773398D01*
X148525069Y-133764004D01*
X148634049Y-133693967D01*
X148712002Y-133604003D01*
X149505131Y-133604003D01*
X149522498Y-133713657D01*
X149522500Y-133713662D01*
X149566746Y-133800500D01*
X149572905Y-133812587D01*
X149651413Y-133891095D01*
X149750339Y-133941500D01*
X149750342Y-133941501D01*
X149859997Y-133958869D01*
X149860000Y-133958869D01*
X149860003Y-133958869D01*
X149969657Y-133941501D01*
X149969658Y-133941500D01*
X149969661Y-133941500D01*
X150068587Y-133891095D01*
X150147095Y-133812587D01*
X150197500Y-133713661D01*
X150197501Y-133713657D01*
X150214869Y-133604003D01*
X150214869Y-133603996D01*
X150197501Y-133494342D01*
X150197499Y-133494337D01*
X150147095Y-133395413D01*
X150068586Y-133316904D01*
X149969662Y-133266500D01*
X149969657Y-133266498D01*
X149860003Y-133249131D01*
X149859997Y-133249131D01*
X149750342Y-133266498D01*
X149750337Y-133266500D01*
X149651413Y-133316904D01*
X149572904Y-133395413D01*
X149522500Y-133494337D01*
X149522498Y-133494342D01*
X149505131Y-133603996D01*
X149505131Y-133604003D01*
X148712002Y-133604003D01*
X148718882Y-133596063D01*
X148772697Y-133478226D01*
X148791133Y-133350000D01*
X148772697Y-133221774D01*
X148718882Y-133103937D01*
X148634049Y-133006033D01*
X148634048Y-133006032D01*
X148532785Y-132940955D01*
X148525069Y-132935996D01*
X148525067Y-132935995D01*
X148525065Y-132935994D01*
X148400774Y-132899500D01*
X148400772Y-132899500D01*
X148271228Y-132899500D01*
X148271226Y-132899500D01*
X148146934Y-132935994D01*
X148037951Y-133006032D01*
X147953118Y-133103936D01*
X147953118Y-133103937D01*
X147899302Y-133221775D01*
X147880867Y-133350000D01*
X147899302Y-133478224D01*
X147899303Y-133478226D01*
X147953118Y-133596063D01*
X148037951Y-133693967D01*
X148146931Y-133764004D01*
X148146933Y-133764004D01*
X148146934Y-133764005D01*
X148262820Y-133798032D01*
X148300067Y-133828047D01*
X148305180Y-133875608D01*
X148275165Y-133912855D01*
X148262820Y-133917968D01*
X148146934Y-133951994D01*
X148037951Y-134022032D01*
X147953118Y-134119936D01*
X147953118Y-134119937D01*
X147899302Y-134237775D01*
X147880867Y-134366000D01*
X107813580Y-134366000D01*
X107819723Y-134363620D01*
X107997381Y-134253619D01*
X108151802Y-134112846D01*
X108277726Y-133946095D01*
X108370866Y-133759045D01*
X108428050Y-133558065D01*
X108433955Y-133494339D01*
X108447330Y-133350004D01*
X108447330Y-133349995D01*
X108428051Y-133141942D01*
X108428049Y-133141931D01*
X108389382Y-133006032D01*
X108370866Y-132940955D01*
X108277726Y-132753905D01*
X108277723Y-132753901D01*
X108277722Y-132753899D01*
X108151810Y-132587163D01*
X108151805Y-132587158D01*
X108151802Y-132587154D01*
X108054927Y-132498841D01*
X107997385Y-132446384D01*
X107997382Y-132446382D01*
X107997381Y-132446381D01*
X107819723Y-132336380D01*
X107819721Y-132336379D01*
X107763089Y-132314440D01*
X107624877Y-132260896D01*
X107624874Y-132260895D01*
X107624873Y-132260895D01*
X107419482Y-132222500D01*
X107419478Y-132222500D01*
X107210522Y-132222500D01*
X107210517Y-132222500D01*
X107005126Y-132260895D01*
X106810278Y-132336379D01*
X106632614Y-132446384D01*
X106478196Y-132587156D01*
X106478189Y-132587163D01*
X106352277Y-132753899D01*
X106352274Y-132753905D01*
X106259134Y-132940954D01*
X106201950Y-133141931D01*
X106201948Y-133141942D01*
X106182670Y-133349995D01*
X106182670Y-133350004D01*
X101900500Y-133350004D01*
X101900500Y-130810004D01*
X106182670Y-130810004D01*
X106201948Y-131018057D01*
X106201950Y-131018068D01*
X106248276Y-131180883D01*
X106259134Y-131219045D01*
X106352274Y-131406095D01*
X106352275Y-131406096D01*
X106352277Y-131406100D01*
X106478189Y-131572836D01*
X106478194Y-131572841D01*
X106478198Y-131572846D01*
X106582938Y-131668329D01*
X106632614Y-131713615D01*
X106632615Y-131713616D01*
X106632619Y-131713619D01*
X106810277Y-131823620D01*
X107005123Y-131899104D01*
X107210522Y-131937500D01*
X107210525Y-131937500D01*
X107419475Y-131937500D01*
X107419478Y-131937500D01*
X107624877Y-131899104D01*
X107819723Y-131823620D01*
X107997381Y-131713619D01*
X108151802Y-131572846D01*
X108277726Y-131406095D01*
X108370866Y-131219045D01*
X108428050Y-131018065D01*
X108447330Y-130810000D01*
X108446867Y-130805000D01*
X114333770Y-130805000D01*
X114352642Y-130996622D01*
X114359147Y-131018065D01*
X114408538Y-131180883D01*
X114408539Y-131180884D01*
X114499302Y-131350692D01*
X114499306Y-131350698D01*
X114621459Y-131499541D01*
X114770302Y-131621694D01*
X114770304Y-131621695D01*
X114770307Y-131621697D01*
X114814491Y-131645313D01*
X114940117Y-131712462D01*
X115124376Y-131768357D01*
X115316000Y-131787230D01*
X115507624Y-131768357D01*
X115691883Y-131712462D01*
X115861698Y-131621694D01*
X116010541Y-131499541D01*
X116132694Y-131350698D01*
X116223462Y-131180883D01*
X116279357Y-130996624D01*
X116298230Y-130805000D01*
X116279357Y-130613376D01*
X116223462Y-130429117D01*
X116132694Y-130259302D01*
X116010541Y-130110459D01*
X115861698Y-129988306D01*
X115861692Y-129988302D01*
X115724320Y-129914876D01*
X115691883Y-129897538D01*
X115574111Y-129861811D01*
X115507622Y-129841642D01*
X115316000Y-129822770D01*
X115124377Y-129841642D01*
X115006604Y-129877369D01*
X114940117Y-129897538D01*
X114940115Y-129897538D01*
X114940115Y-129897539D01*
X114770307Y-129988302D01*
X114770301Y-129988306D01*
X114621459Y-130110459D01*
X114499306Y-130259301D01*
X114499302Y-130259307D01*
X114408539Y-130429115D01*
X114352642Y-130613377D01*
X114333770Y-130804999D01*
X114333770Y-130805000D01*
X108446867Y-130805000D01*
X108429110Y-130613377D01*
X108428051Y-130601942D01*
X108428049Y-130601931D01*
X108418796Y-130569414D01*
X108370866Y-130400955D01*
X108277726Y-130213905D01*
X108277723Y-130213901D01*
X108277722Y-130213899D01*
X108151810Y-130047163D01*
X108151805Y-130047158D01*
X108151802Y-130047154D01*
X108040933Y-129946084D01*
X107997385Y-129906384D01*
X107997382Y-129906382D01*
X107997381Y-129906381D01*
X107819723Y-129796380D01*
X107819721Y-129796379D01*
X107763089Y-129774440D01*
X107624877Y-129720896D01*
X107624874Y-129720895D01*
X107624873Y-129720895D01*
X107419482Y-129682500D01*
X107419478Y-129682500D01*
X107210522Y-129682500D01*
X107210517Y-129682500D01*
X107005126Y-129720895D01*
X106810278Y-129796379D01*
X106632614Y-129906384D01*
X106478196Y-130047156D01*
X106478189Y-130047163D01*
X106352277Y-130213899D01*
X106352274Y-130213905D01*
X106259134Y-130400954D01*
X106201950Y-130601931D01*
X106201948Y-130601942D01*
X106182670Y-130809995D01*
X106182670Y-130810004D01*
X101900500Y-130810004D01*
X101900500Y-129360532D01*
X101880118Y-129127557D01*
X114338500Y-129127557D01*
X114345898Y-129164748D01*
X114345898Y-129164749D01*
X114374077Y-129206922D01*
X114402256Y-129225750D01*
X114416252Y-129235102D01*
X114453442Y-129242500D01*
X114453443Y-129242500D01*
X116178557Y-129242500D01*
X116178558Y-129242500D01*
X116215748Y-129235102D01*
X116257922Y-129206922D01*
X116286102Y-129164748D01*
X116293500Y-129127558D01*
X116293500Y-128905003D01*
X118390131Y-128905003D01*
X118407498Y-129014657D01*
X118407500Y-129014662D01*
X118457904Y-129113586D01*
X118536413Y-129192095D01*
X118620819Y-129235102D01*
X118635339Y-129242500D01*
X118635342Y-129242501D01*
X118744997Y-129259869D01*
X118745000Y-129259869D01*
X118745003Y-129259869D01*
X118854657Y-129242501D01*
X118854658Y-129242500D01*
X118854661Y-129242500D01*
X118953587Y-129192095D01*
X119032095Y-129113587D01*
X119082500Y-129014661D01*
X119082501Y-129014657D01*
X119099869Y-128905003D01*
X119099869Y-128904996D01*
X119082501Y-128795342D01*
X119082499Y-128795337D01*
X119032095Y-128696413D01*
X118953586Y-128617904D01*
X118854662Y-128567500D01*
X118854657Y-128567498D01*
X118745003Y-128550131D01*
X118744997Y-128550131D01*
X118635342Y-128567498D01*
X118635337Y-128567500D01*
X118536413Y-128617904D01*
X118457904Y-128696413D01*
X118407500Y-128795337D01*
X118407498Y-128795342D01*
X118390131Y-128904996D01*
X118390131Y-128905003D01*
X116293500Y-128905003D01*
X116293500Y-127402442D01*
X116286102Y-127365252D01*
X116285039Y-127363661D01*
X116257922Y-127323077D01*
X116215748Y-127294898D01*
X116215747Y-127294898D01*
X116178558Y-127287500D01*
X114453442Y-127287500D01*
X114434847Y-127291199D01*
X114416251Y-127294898D01*
X114416250Y-127294898D01*
X114374077Y-127323077D01*
X114345898Y-127365250D01*
X114345898Y-127365251D01*
X114338500Y-127402442D01*
X114338500Y-129127557D01*
X101880118Y-129127557D01*
X101869217Y-129002961D01*
X101806890Y-128649484D01*
X101806889Y-128649484D01*
X101806888Y-128649477D01*
X101713988Y-128302771D01*
X101591225Y-127965481D01*
X101591224Y-127965480D01*
X101591222Y-127965473D01*
X101439535Y-127640181D01*
X101439532Y-127640174D01*
X101280805Y-127365252D01*
X101260067Y-127329332D01*
X101207322Y-127254003D01*
X139980131Y-127254003D01*
X139997498Y-127363657D01*
X139997500Y-127363662D01*
X140047904Y-127462586D01*
X140047905Y-127462587D01*
X140126413Y-127541095D01*
X140225339Y-127591500D01*
X140225342Y-127591501D01*
X140334997Y-127608869D01*
X140335000Y-127608869D01*
X140335003Y-127608869D01*
X140444657Y-127591501D01*
X140444658Y-127591500D01*
X140444661Y-127591500D01*
X140543587Y-127541095D01*
X140622095Y-127462587D01*
X140672500Y-127363661D01*
X140672501Y-127363657D01*
X140689869Y-127254003D01*
X140689869Y-127253997D01*
X140674508Y-127157016D01*
X140685674Y-127110502D01*
X140726460Y-127085508D01*
X140746016Y-127085508D01*
X140842998Y-127100869D01*
X140843000Y-127100869D01*
X140843002Y-127100869D01*
X140939983Y-127085508D01*
X140986497Y-127096674D01*
X141011491Y-127137460D01*
X141011492Y-127157015D01*
X140996132Y-127253997D01*
X140996131Y-127254002D01*
X140996131Y-127254003D01*
X141013498Y-127363657D01*
X141013500Y-127363662D01*
X141063904Y-127462586D01*
X141063905Y-127462587D01*
X141142413Y-127541095D01*
X141241339Y-127591500D01*
X141241342Y-127591501D01*
X141350997Y-127608869D01*
X141351000Y-127608869D01*
X141351003Y-127608869D01*
X141460657Y-127591501D01*
X141460658Y-127591500D01*
X141460661Y-127591500D01*
X141559587Y-127541095D01*
X141638095Y-127462587D01*
X141688500Y-127363661D01*
X141688501Y-127363657D01*
X141705869Y-127254003D01*
X141705869Y-127253996D01*
X141688501Y-127144342D01*
X141688499Y-127144337D01*
X141638095Y-127045413D01*
X141559586Y-126966904D01*
X141460662Y-126916500D01*
X141460657Y-126916498D01*
X141351003Y-126899131D01*
X141351001Y-126899131D01*
X141351000Y-126899131D01*
X141289335Y-126908898D01*
X141254015Y-126914492D01*
X141207501Y-126903324D01*
X141182507Y-126862538D01*
X141182508Y-126842983D01*
X141197869Y-126746002D01*
X141197869Y-126745997D01*
X141182508Y-126649016D01*
X141193674Y-126602502D01*
X141234460Y-126577508D01*
X141254016Y-126577508D01*
X141350998Y-126592869D01*
X141351000Y-126592869D01*
X141351003Y-126592869D01*
X141460657Y-126575501D01*
X141460658Y-126575500D01*
X141460661Y-126575500D01*
X141559587Y-126525095D01*
X141638095Y-126446587D01*
X141688500Y-126347661D01*
X141705869Y-126238000D01*
X141705869Y-126237997D01*
X141705869Y-126237996D01*
X141688501Y-126128342D01*
X141688499Y-126128337D01*
X141638095Y-126029413D01*
X141559586Y-125950904D01*
X141460662Y-125900500D01*
X141460657Y-125900498D01*
X141351003Y-125883131D01*
X141350997Y-125883131D01*
X141241342Y-125900498D01*
X141241337Y-125900500D01*
X141142413Y-125950904D01*
X141063904Y-126029413D01*
X141013500Y-126128337D01*
X141013498Y-126128342D01*
X140996131Y-126237996D01*
X140996131Y-126237997D01*
X140996131Y-126238000D01*
X141008524Y-126316249D01*
X141011492Y-126334984D01*
X141000324Y-126381498D01*
X140959538Y-126406492D01*
X140939984Y-126406492D01*
X140899443Y-126400070D01*
X140843000Y-126391131D01*
X140842999Y-126391131D01*
X140746015Y-126406492D01*
X140699501Y-126395324D01*
X140674507Y-126354538D01*
X140674508Y-126334983D01*
X140689869Y-126238002D01*
X140689869Y-126237996D01*
X140672501Y-126128342D01*
X140672499Y-126128337D01*
X140622095Y-126029413D01*
X140543586Y-125950904D01*
X140444662Y-125900500D01*
X140444657Y-125900498D01*
X140335003Y-125883131D01*
X140334997Y-125883131D01*
X140225342Y-125900498D01*
X140225337Y-125900500D01*
X140126413Y-125950904D01*
X140047904Y-126029413D01*
X139997500Y-126128337D01*
X139997498Y-126128342D01*
X139980131Y-126237996D01*
X139980131Y-126238003D01*
X139997498Y-126347657D01*
X139997500Y-126347662D01*
X140047904Y-126446586D01*
X140047905Y-126446587D01*
X140126413Y-126525095D01*
X140225339Y-126575500D01*
X140225342Y-126575501D01*
X140334997Y-126592869D01*
X140335000Y-126592869D01*
X140335002Y-126592869D01*
X140431983Y-126577508D01*
X140478497Y-126588674D01*
X140503491Y-126629460D01*
X140503492Y-126649015D01*
X140488508Y-126743620D01*
X140488131Y-126746000D01*
X140490403Y-126760343D01*
X140503492Y-126842984D01*
X140492324Y-126889498D01*
X140451538Y-126914492D01*
X140431984Y-126914492D01*
X140413249Y-126911524D01*
X140335000Y-126899131D01*
X140334998Y-126899131D01*
X140334997Y-126899131D01*
X140225342Y-126916498D01*
X140225337Y-126916500D01*
X140126413Y-126966904D01*
X140047904Y-127045413D01*
X139997500Y-127144337D01*
X139997498Y-127144342D01*
X139980131Y-127253996D01*
X139980131Y-127254003D01*
X101207322Y-127254003D01*
X101054189Y-127035305D01*
X100931842Y-126889498D01*
X100823466Y-126760341D01*
X100730850Y-126667726D01*
X100720800Y-126654577D01*
X100716983Y-126647907D01*
X100686758Y-126623395D01*
X100684365Y-126621239D01*
X100673912Y-126610787D01*
X100662910Y-126599784D01*
X100654607Y-126595553D01*
X100643619Y-126588411D01*
X99585112Y-125730004D01*
X106182670Y-125730004D01*
X106201948Y-125938057D01*
X106201950Y-125938068D01*
X106256087Y-126128337D01*
X106259134Y-126139045D01*
X106352274Y-126326095D01*
X106352275Y-126326096D01*
X106352277Y-126326100D01*
X106478189Y-126492836D01*
X106478194Y-126492841D01*
X106478198Y-126492846D01*
X106571068Y-126577508D01*
X106632614Y-126633615D01*
X106632615Y-126633616D01*
X106632619Y-126633619D01*
X106810277Y-126743620D01*
X107005123Y-126819104D01*
X107210522Y-126857500D01*
X107210525Y-126857500D01*
X107419475Y-126857500D01*
X107419478Y-126857500D01*
X107624877Y-126819104D01*
X107819723Y-126743620D01*
X107997381Y-126633619D01*
X108151802Y-126492846D01*
X108277726Y-126326095D01*
X108370866Y-126139045D01*
X108428050Y-125938065D01*
X108431531Y-125900498D01*
X108447330Y-125730004D01*
X108447330Y-125729995D01*
X108428051Y-125521942D01*
X108428049Y-125521931D01*
X108418796Y-125489414D01*
X108370866Y-125320955D01*
X108277726Y-125133905D01*
X108277723Y-125133901D01*
X108277722Y-125133899D01*
X108151810Y-124967163D01*
X108151805Y-124967158D01*
X108151802Y-124967154D01*
X108054927Y-124878841D01*
X107997385Y-124826384D01*
X107997382Y-124826382D01*
X107997381Y-124826381D01*
X107819723Y-124716380D01*
X107819721Y-124716379D01*
X107763089Y-124694440D01*
X107624877Y-124640896D01*
X107624874Y-124640895D01*
X107624873Y-124640895D01*
X107419482Y-124602500D01*
X107419478Y-124602500D01*
X107210522Y-124602500D01*
X107210517Y-124602500D01*
X107005126Y-124640895D01*
X106810278Y-124716379D01*
X106632614Y-124826384D01*
X106478196Y-124967156D01*
X106478189Y-124967163D01*
X106352277Y-125133899D01*
X106352274Y-125133905D01*
X106259134Y-125320954D01*
X106201950Y-125521931D01*
X106201948Y-125521942D01*
X106182670Y-125729995D01*
X106182670Y-125730004D01*
X99585112Y-125730004D01*
X97887801Y-124353553D01*
X97880961Y-124347094D01*
X97662094Y-124106787D01*
X97660232Y-124104541D01*
X97456240Y-123833637D01*
X97454596Y-123831228D01*
X97276738Y-123542498D01*
X97275326Y-123539946D01*
X97152297Y-123290869D01*
X97125137Y-123235882D01*
X97123981Y-123233237D01*
X97002781Y-122916507D01*
X97001867Y-122913739D01*
X97001246Y-122911514D01*
X96910707Y-122587085D01*
X96910061Y-122584271D01*
X96858857Y-122301003D01*
X111659131Y-122301003D01*
X111676498Y-122410657D01*
X111676500Y-122410662D01*
X111726904Y-122509586D01*
X111726905Y-122509587D01*
X111805413Y-122588095D01*
X111904339Y-122638500D01*
X111904342Y-122638501D01*
X112013997Y-122655869D01*
X112014000Y-122655869D01*
X112014003Y-122655869D01*
X112123657Y-122638501D01*
X112123658Y-122638500D01*
X112123661Y-122638500D01*
X112222587Y-122588095D01*
X112301095Y-122509587D01*
X112351500Y-122410661D01*
X112351797Y-122408786D01*
X112368869Y-122301003D01*
X112368869Y-122300996D01*
X112351501Y-122191342D01*
X112351499Y-122191337D01*
X112301095Y-122092413D01*
X112222586Y-122013904D01*
X112123662Y-121963500D01*
X112123657Y-121963498D01*
X112014003Y-121946131D01*
X112013997Y-121946131D01*
X111904342Y-121963498D01*
X111904337Y-121963500D01*
X111805413Y-122013904D01*
X111726904Y-122092413D01*
X111676500Y-122191337D01*
X111676498Y-122191342D01*
X111659131Y-122300996D01*
X111659131Y-122301003D01*
X96858857Y-122301003D01*
X96849735Y-122250538D01*
X96849354Y-122247665D01*
X96821266Y-121920004D01*
X114072529Y-121920004D01*
X114092389Y-122210362D01*
X114092390Y-122210365D01*
X114092390Y-122210369D01*
X114092391Y-122210371D01*
X114151607Y-122495334D01*
X114160695Y-122520904D01*
X114249071Y-122769576D01*
X114377580Y-123017586D01*
X114382975Y-123027998D01*
X114550818Y-123265777D01*
X114749475Y-123478486D01*
X114975246Y-123662165D01*
X114975249Y-123662166D01*
X114975248Y-123662166D01*
X115223917Y-123813385D01*
X115223921Y-123813387D01*
X115223925Y-123813389D01*
X115490879Y-123929344D01*
X115771136Y-124007868D01*
X116059475Y-124047500D01*
X116059476Y-124047500D01*
X116350524Y-124047500D01*
X116350525Y-124047500D01*
X116638864Y-124007868D01*
X116919121Y-123929344D01*
X117186075Y-123813389D01*
X117434754Y-123662165D01*
X117660525Y-123478486D01*
X117859182Y-123265777D01*
X118027025Y-123027998D01*
X118140499Y-122809003D01*
X119660131Y-122809003D01*
X119677498Y-122918657D01*
X119677500Y-122918662D01*
X119727904Y-123017586D01*
X119806413Y-123096095D01*
X119901584Y-123144587D01*
X119905339Y-123146500D01*
X119905342Y-123146501D01*
X120014997Y-123163869D01*
X120015000Y-123163869D01*
X120015003Y-123163869D01*
X120124657Y-123146501D01*
X120124658Y-123146500D01*
X120124661Y-123146500D01*
X120223587Y-123096095D01*
X120302095Y-123017587D01*
X120352500Y-122918661D01*
X120353038Y-122915267D01*
X120369869Y-122809003D01*
X120369869Y-122808996D01*
X120352501Y-122699342D01*
X120352499Y-122699337D01*
X120302095Y-122600413D01*
X120223585Y-122521903D01*
X120221618Y-122520901D01*
X120220658Y-122519777D01*
X120219608Y-122519014D01*
X120219791Y-122518761D01*
X120190556Y-122484523D01*
X120187500Y-122465218D01*
X120187500Y-122436017D01*
X120187500Y-122398337D01*
X120205802Y-122354148D01*
X120629878Y-121930072D01*
X120638562Y-121922836D01*
X120655983Y-121910812D01*
X120672891Y-121878595D01*
X120673790Y-121876999D01*
X120692618Y-121845856D01*
X120692618Y-121845850D01*
X120694213Y-121840733D01*
X120695498Y-121835520D01*
X120695500Y-121835518D01*
X120695500Y-121799161D01*
X120695557Y-121797274D01*
X120696426Y-121782906D01*
X120697753Y-121760975D01*
X120697751Y-121760971D01*
X120696524Y-121754269D01*
X120695500Y-121743003D01*
X120695500Y-117064339D01*
X120713805Y-117020146D01*
X120751807Y-116982144D01*
X120796000Y-116963839D01*
X120840194Y-116982145D01*
X120858500Y-117026339D01*
X120858500Y-122465217D01*
X120840194Y-122509411D01*
X120824382Y-122520901D01*
X120822414Y-122521903D01*
X120822413Y-122521905D01*
X120743904Y-122600413D01*
X120693500Y-122699337D01*
X120693498Y-122699342D01*
X120676131Y-122808996D01*
X120676131Y-122809003D01*
X120693498Y-122918657D01*
X120693500Y-122918662D01*
X120743904Y-123017586D01*
X120822413Y-123096095D01*
X120917584Y-123144587D01*
X120921339Y-123146500D01*
X120921342Y-123146501D01*
X121030997Y-123163869D01*
X121031000Y-123163869D01*
X121031003Y-123163869D01*
X121140657Y-123146501D01*
X121140658Y-123146500D01*
X121140661Y-123146500D01*
X121239587Y-123096095D01*
X121318095Y-123017587D01*
X121368500Y-122918661D01*
X121369038Y-122915267D01*
X121385869Y-122809003D01*
X121385869Y-122808996D01*
X121368501Y-122699342D01*
X121368499Y-122699337D01*
X121318095Y-122600413D01*
X121239585Y-122521903D01*
X121237618Y-122520901D01*
X121236658Y-122519777D01*
X121235608Y-122519014D01*
X121235791Y-122518761D01*
X121206556Y-122484523D01*
X121203500Y-122465217D01*
X121203500Y-117064339D01*
X121221805Y-117020146D01*
X121266387Y-116975564D01*
X121310580Y-116957259D01*
X121354774Y-116975565D01*
X121373080Y-117019759D01*
X121370249Y-117038356D01*
X121367786Y-117046255D01*
X121366500Y-117051479D01*
X121366500Y-117087830D01*
X121366443Y-117089717D01*
X121364247Y-117126023D01*
X121365476Y-117132726D01*
X121366500Y-117143995D01*
X121366499Y-121771643D01*
X121365476Y-121782906D01*
X121361660Y-121803729D01*
X121372478Y-121838442D01*
X121372985Y-121840261D01*
X121381687Y-121875564D01*
X121384183Y-121880321D01*
X121386957Y-121884909D01*
X121386958Y-121884910D01*
X121386959Y-121884911D01*
X121412678Y-121910630D01*
X121413951Y-121911983D01*
X121426654Y-121926321D01*
X121438076Y-121939214D01*
X121443687Y-121943087D01*
X121452378Y-121950330D01*
X121656834Y-122154786D01*
X121856194Y-122354145D01*
X121874500Y-122398339D01*
X121874500Y-122465217D01*
X121856194Y-122509411D01*
X121840382Y-122520901D01*
X121838414Y-122521903D01*
X121838413Y-122521905D01*
X121759904Y-122600413D01*
X121709500Y-122699337D01*
X121709498Y-122699342D01*
X121692131Y-122808996D01*
X121692131Y-122809003D01*
X121709498Y-122918657D01*
X121709500Y-122918662D01*
X121759904Y-123017586D01*
X121838413Y-123096095D01*
X121933584Y-123144587D01*
X121937339Y-123146500D01*
X121937342Y-123146501D01*
X122046997Y-123163869D01*
X122047000Y-123163869D01*
X122047003Y-123163869D01*
X122156657Y-123146501D01*
X122156658Y-123146500D01*
X122156661Y-123146500D01*
X122255587Y-123096095D01*
X122334095Y-123017587D01*
X122372312Y-122942580D01*
X122408686Y-122911514D01*
X122456374Y-122915267D01*
X122483688Y-122942581D01*
X122521904Y-123017586D01*
X122600413Y-123096095D01*
X122695584Y-123144587D01*
X122699339Y-123146500D01*
X122699342Y-123146501D01*
X122808997Y-123163869D01*
X122809000Y-123163869D01*
X122809003Y-123163869D01*
X122918657Y-123146501D01*
X122918658Y-123146500D01*
X122918661Y-123146500D01*
X123017587Y-123096095D01*
X123096095Y-123017587D01*
X123146500Y-122918661D01*
X123147038Y-122915267D01*
X123163869Y-122809003D01*
X123163869Y-122808996D01*
X123146501Y-122699342D01*
X123146499Y-122699337D01*
X123096095Y-122600413D01*
X123017586Y-122521904D01*
X122918662Y-122471500D01*
X122918657Y-122471498D01*
X122809003Y-122454131D01*
X122808997Y-122454131D01*
X122699342Y-122471498D01*
X122699337Y-122471500D01*
X122600413Y-122521904D01*
X122521904Y-122600413D01*
X122483688Y-122675418D01*
X122447314Y-122706485D01*
X122399626Y-122702732D01*
X122372312Y-122675418D01*
X122334095Y-122600413D01*
X122255585Y-122521903D01*
X122253618Y-122520901D01*
X122252658Y-122519777D01*
X122251608Y-122519014D01*
X122251791Y-122518761D01*
X122222556Y-122484523D01*
X122219500Y-122465217D01*
X122219500Y-122322351D01*
X122220524Y-122311085D01*
X122224338Y-122290272D01*
X122213520Y-122255558D01*
X122213017Y-122253752D01*
X122204313Y-122218436D01*
X122204310Y-122218433D01*
X122201821Y-122213692D01*
X122199040Y-122209091D01*
X122199040Y-122209089D01*
X122173326Y-122183375D01*
X122172048Y-122182017D01*
X122170315Y-122180061D01*
X122147924Y-122154786D01*
X122147923Y-122154785D01*
X122142303Y-122150905D01*
X122133618Y-122143666D01*
X121729806Y-121739854D01*
X121711500Y-121695660D01*
X121711500Y-118097580D01*
X121729806Y-118053386D01*
X121774000Y-118035080D01*
X121818194Y-118053386D01*
X121835731Y-118087803D01*
X121836500Y-118092662D01*
X121886904Y-118191586D01*
X121886905Y-118191587D01*
X121965413Y-118270095D01*
X122064339Y-118320500D01*
X122064342Y-118320501D01*
X122173997Y-118337869D01*
X122174000Y-118337869D01*
X122174003Y-118337869D01*
X122283657Y-118320501D01*
X122283658Y-118320500D01*
X122283661Y-118320500D01*
X122382587Y-118270095D01*
X122461095Y-118191587D01*
X122511500Y-118092661D01*
X122511501Y-118092657D01*
X122528869Y-117983003D01*
X122528869Y-117982996D01*
X122511501Y-117873342D01*
X122511499Y-117873337D01*
X122461095Y-117774413D01*
X122382586Y-117695904D01*
X122283662Y-117645500D01*
X122283657Y-117645498D01*
X122174003Y-117628131D01*
X122173997Y-117628131D01*
X122064342Y-117645498D01*
X122064337Y-117645500D01*
X121965413Y-117695904D01*
X121886904Y-117774413D01*
X121836500Y-117873337D01*
X121836499Y-117873342D01*
X121835730Y-117878197D01*
X121810736Y-117918983D01*
X121764222Y-117930149D01*
X121723436Y-117905155D01*
X121711500Y-117868419D01*
X121711500Y-117191339D01*
X121729805Y-117147146D01*
X122798947Y-116078003D01*
X125883131Y-116078003D01*
X125900498Y-116187657D01*
X125900500Y-116187662D01*
X125950904Y-116286586D01*
X125950905Y-116286587D01*
X126029413Y-116365095D01*
X126128339Y-116415500D01*
X126128342Y-116415501D01*
X126237997Y-116432869D01*
X126238000Y-116432869D01*
X126238003Y-116432869D01*
X126347657Y-116415501D01*
X126347658Y-116415500D01*
X126347661Y-116415500D01*
X126446587Y-116365095D01*
X126525095Y-116286587D01*
X126575500Y-116187661D01*
X126577826Y-116172975D01*
X126592869Y-116078003D01*
X126592869Y-116077996D01*
X126575501Y-115968342D01*
X126575499Y-115968337D01*
X126525095Y-115869413D01*
X126446586Y-115790904D01*
X126347662Y-115740500D01*
X126347657Y-115740498D01*
X126238003Y-115723131D01*
X126237997Y-115723131D01*
X126128342Y-115740498D01*
X126128337Y-115740500D01*
X126029413Y-115790904D01*
X125950904Y-115869413D01*
X125900500Y-115968337D01*
X125900498Y-115968342D01*
X125883131Y-116077996D01*
X125883131Y-116078003D01*
X122798947Y-116078003D01*
X123550879Y-115326071D01*
X123559562Y-115318836D01*
X123576983Y-115306812D01*
X123593885Y-115274604D01*
X123594805Y-115272975D01*
X123613619Y-115241855D01*
X123613619Y-115241853D01*
X123615215Y-115236733D01*
X123616500Y-115231519D01*
X123616500Y-115195168D01*
X123616557Y-115193281D01*
X123617334Y-115180432D01*
X123618753Y-115156975D01*
X123618752Y-115156972D01*
X123617524Y-115150270D01*
X123616499Y-115139000D01*
X123616499Y-114046003D01*
X123978131Y-114046003D01*
X123995498Y-114155657D01*
X123995500Y-114155662D01*
X124030288Y-114223937D01*
X124045905Y-114254587D01*
X124124413Y-114333095D01*
X124223339Y-114383500D01*
X124223342Y-114383501D01*
X124332997Y-114400869D01*
X124333000Y-114400869D01*
X124333003Y-114400869D01*
X124442657Y-114383501D01*
X124442658Y-114383500D01*
X124442661Y-114383500D01*
X124541587Y-114333095D01*
X124620095Y-114254587D01*
X124670500Y-114155661D01*
X124670501Y-114155657D01*
X124687869Y-114046003D01*
X124687869Y-114045996D01*
X124670501Y-113936342D01*
X124670499Y-113936337D01*
X124620095Y-113837413D01*
X124541586Y-113758904D01*
X124442662Y-113708500D01*
X124442657Y-113708498D01*
X124333003Y-113691131D01*
X124332997Y-113691131D01*
X124223342Y-113708498D01*
X124223337Y-113708500D01*
X124124413Y-113758904D01*
X124045904Y-113837413D01*
X123995500Y-113936337D01*
X123995498Y-113936342D01*
X123978131Y-114045996D01*
X123978131Y-114046003D01*
X123616499Y-114046003D01*
X123616499Y-112364213D01*
X123616499Y-109495345D01*
X123617521Y-109484103D01*
X123621339Y-109463273D01*
X123610517Y-109428547D01*
X123610014Y-109426739D01*
X123609851Y-109426081D01*
X123601313Y-109391436D01*
X123601310Y-109391433D01*
X123598812Y-109386672D01*
X123596041Y-109382088D01*
X123570336Y-109356384D01*
X123569041Y-109355009D01*
X123544923Y-109327785D01*
X123539308Y-109323909D01*
X123530620Y-109316668D01*
X123336909Y-109122957D01*
X123318603Y-109078763D01*
X123336909Y-109034569D01*
X123381103Y-109016263D01*
X123409475Y-109023074D01*
X123461339Y-109049500D01*
X123461340Y-109049500D01*
X123461342Y-109049501D01*
X123570997Y-109066869D01*
X123571000Y-109066869D01*
X123571002Y-109066869D01*
X123635297Y-109056685D01*
X123681811Y-109067851D01*
X123689269Y-109074221D01*
X124142193Y-109527145D01*
X124160499Y-109571339D01*
X124160499Y-112627642D01*
X124159476Y-112638905D01*
X124155661Y-112659729D01*
X124166478Y-112694442D01*
X124166985Y-112696261D01*
X124175687Y-112731564D01*
X124178183Y-112736321D01*
X124180957Y-112740909D01*
X124180958Y-112740910D01*
X124180959Y-112740911D01*
X124206678Y-112766630D01*
X124207951Y-112767983D01*
X124219826Y-112781387D01*
X124232076Y-112795214D01*
X124237687Y-112799087D01*
X124246377Y-112806329D01*
X128841194Y-117401146D01*
X128859500Y-117445339D01*
X128859500Y-121949659D01*
X128841194Y-121993853D01*
X128417124Y-122417922D01*
X128408436Y-122425163D01*
X128391017Y-122437187D01*
X128391016Y-122437188D01*
X128374120Y-122469380D01*
X128373193Y-122471023D01*
X128354378Y-122502147D01*
X128352788Y-122507250D01*
X128351500Y-122512479D01*
X128351500Y-122548830D01*
X128351442Y-122550717D01*
X128349328Y-122585695D01*
X128348789Y-122594601D01*
X128345680Y-122594413D01*
X128338284Y-122628826D01*
X128319101Y-122645614D01*
X128319392Y-122646014D01*
X128315413Y-122648905D01*
X128236904Y-122727413D01*
X128186500Y-122826337D01*
X128186498Y-122826342D01*
X128169131Y-122935996D01*
X128169131Y-122936003D01*
X128186498Y-123045657D01*
X128186500Y-123045662D01*
X128236904Y-123144586D01*
X128315413Y-123223095D01*
X128410584Y-123271587D01*
X128414339Y-123273500D01*
X128414342Y-123273501D01*
X128523997Y-123290869D01*
X128524000Y-123290869D01*
X128524003Y-123290869D01*
X128633657Y-123273501D01*
X128633658Y-123273500D01*
X128633661Y-123273500D01*
X128732587Y-123223095D01*
X128811095Y-123144587D01*
X128861500Y-123045661D01*
X128874991Y-122960485D01*
X128878869Y-122936003D01*
X128878869Y-122935996D01*
X128861501Y-122826342D01*
X128861499Y-122826337D01*
X128811095Y-122727413D01*
X128747510Y-122663828D01*
X128729204Y-122619634D01*
X128747508Y-122575443D01*
X129138879Y-122184071D01*
X129147562Y-122176836D01*
X129164983Y-122164812D01*
X129181891Y-122132595D01*
X129182790Y-122130999D01*
X129201618Y-122099856D01*
X129201618Y-122099850D01*
X129203213Y-122094733D01*
X129204498Y-122089520D01*
X129204500Y-122089518D01*
X129204500Y-122053161D01*
X129204557Y-122051274D01*
X129205426Y-122036905D01*
X129206753Y-122014975D01*
X129206751Y-122014971D01*
X129205524Y-122008269D01*
X129204500Y-121997003D01*
X129204500Y-119792500D01*
X129204500Y-117407337D01*
X129222805Y-117363146D01*
X129266999Y-117344840D01*
X129311193Y-117363145D01*
X129349194Y-117401146D01*
X129367500Y-117445339D01*
X129367500Y-122592217D01*
X129349194Y-122636411D01*
X129333382Y-122647901D01*
X129331414Y-122648903D01*
X129331413Y-122648905D01*
X129252904Y-122727413D01*
X129202500Y-122826337D01*
X129202498Y-122826342D01*
X129185131Y-122935996D01*
X129185131Y-122936003D01*
X129202498Y-123045657D01*
X129202500Y-123045662D01*
X129252904Y-123144586D01*
X129331413Y-123223095D01*
X129426584Y-123271587D01*
X129430339Y-123273500D01*
X129430342Y-123273501D01*
X129539997Y-123290869D01*
X129540000Y-123290869D01*
X129540003Y-123290869D01*
X129649657Y-123273501D01*
X129649658Y-123273500D01*
X129649661Y-123273500D01*
X129748587Y-123223095D01*
X129827095Y-123144587D01*
X129877500Y-123045661D01*
X129890991Y-122960485D01*
X129894869Y-122936003D01*
X129894869Y-122935996D01*
X129877501Y-122826342D01*
X129877499Y-122826337D01*
X129827095Y-122727413D01*
X129748586Y-122648904D01*
X129746621Y-122647903D01*
X129745661Y-122646779D01*
X129744608Y-122646014D01*
X129744791Y-122645760D01*
X129715557Y-122611526D01*
X129712500Y-122592223D01*
X129712500Y-117407340D01*
X129730806Y-117363146D01*
X129775000Y-117344840D01*
X129819194Y-117363146D01*
X129857193Y-117401145D01*
X129875499Y-117445339D01*
X129875499Y-122025642D01*
X129874476Y-122036905D01*
X129871844Y-122051274D01*
X129870661Y-122057729D01*
X129881478Y-122092442D01*
X129881985Y-122094261D01*
X129890687Y-122129564D01*
X129893183Y-122134321D01*
X129895957Y-122138909D01*
X129895958Y-122138910D01*
X129895959Y-122138911D01*
X129921678Y-122164630D01*
X129922951Y-122165983D01*
X129938981Y-122184077D01*
X129947076Y-122193214D01*
X129952687Y-122197087D01*
X129961378Y-122204330D01*
X130332489Y-122575441D01*
X130350795Y-122619635D01*
X130332489Y-122663829D01*
X130268904Y-122727413D01*
X130218500Y-122826337D01*
X130218498Y-122826342D01*
X130201131Y-122935996D01*
X130201131Y-122936003D01*
X130218498Y-123045657D01*
X130218500Y-123045662D01*
X130268904Y-123144586D01*
X130347413Y-123223095D01*
X130442584Y-123271587D01*
X130446339Y-123273500D01*
X130446342Y-123273501D01*
X130555997Y-123290869D01*
X130556000Y-123290869D01*
X130556003Y-123290869D01*
X130665657Y-123273501D01*
X130665658Y-123273500D01*
X130665661Y-123273500D01*
X130764587Y-123223095D01*
X130843095Y-123144587D01*
X130884664Y-123063003D01*
X131852131Y-123063003D01*
X131869498Y-123172657D01*
X131869500Y-123172662D01*
X131919904Y-123271586D01*
X131919905Y-123271587D01*
X131998413Y-123350095D01*
X132097339Y-123400500D01*
X132097342Y-123400501D01*
X132206997Y-123417869D01*
X132207000Y-123417869D01*
X132207003Y-123417869D01*
X132316657Y-123400501D01*
X132316658Y-123400500D01*
X132316661Y-123400500D01*
X132415587Y-123350095D01*
X132494095Y-123271587D01*
X132532312Y-123196580D01*
X132568684Y-123165514D01*
X132616372Y-123169267D01*
X132643687Y-123196580D01*
X132681905Y-123271587D01*
X132760413Y-123350095D01*
X132859339Y-123400500D01*
X132859342Y-123400501D01*
X132968997Y-123417869D01*
X132969000Y-123417869D01*
X132969003Y-123417869D01*
X133078657Y-123400501D01*
X133078658Y-123400500D01*
X133078661Y-123400500D01*
X133177587Y-123350095D01*
X133256095Y-123271587D01*
X133306500Y-123172661D01*
X133310621Y-123146643D01*
X133323869Y-123063003D01*
X133323869Y-123062996D01*
X133306501Y-122953342D01*
X133306499Y-122953337D01*
X133256095Y-122854413D01*
X133177586Y-122775904D01*
X133078662Y-122725500D01*
X133078657Y-122725498D01*
X132969003Y-122708131D01*
X132968997Y-122708131D01*
X132859342Y-122725498D01*
X132859337Y-122725500D01*
X132760413Y-122775904D01*
X132681905Y-122854412D01*
X132643687Y-122929419D01*
X132607312Y-122960485D01*
X132559624Y-122956732D01*
X132532312Y-122929419D01*
X132494095Y-122854413D01*
X132415587Y-122775905D01*
X132415586Y-122775904D01*
X132316662Y-122725500D01*
X132316657Y-122725498D01*
X132207003Y-122708131D01*
X132206997Y-122708131D01*
X132097342Y-122725498D01*
X132097337Y-122725500D01*
X131998413Y-122775904D01*
X131919904Y-122854413D01*
X131869500Y-122953337D01*
X131869498Y-122953342D01*
X131852131Y-123062996D01*
X131852131Y-123063003D01*
X130884664Y-123063003D01*
X130893500Y-123045661D01*
X130906991Y-122960485D01*
X130910869Y-122936003D01*
X130910869Y-122935996D01*
X130893501Y-122826342D01*
X130893499Y-122826337D01*
X130843095Y-122727413D01*
X130764585Y-122648903D01*
X130762618Y-122647901D01*
X130761658Y-122646777D01*
X130760608Y-122646014D01*
X130760791Y-122645761D01*
X130731556Y-122611523D01*
X130728500Y-122592217D01*
X130728500Y-122576351D01*
X130729524Y-122565085D01*
X130733338Y-122544272D01*
X130722520Y-122509558D01*
X130722017Y-122507752D01*
X130713313Y-122472436D01*
X130713310Y-122472433D01*
X130710821Y-122467692D01*
X130708040Y-122463091D01*
X130708040Y-122463089D01*
X130682326Y-122437375D01*
X130681048Y-122436017D01*
X130671432Y-122425163D01*
X130656924Y-122408786D01*
X130656923Y-122408785D01*
X130651303Y-122404905D01*
X130642618Y-122397666D01*
X130238805Y-121993853D01*
X130220499Y-121949659D01*
X130220499Y-121920004D01*
X135662529Y-121920004D01*
X135682389Y-122210362D01*
X135682390Y-122210365D01*
X135682390Y-122210369D01*
X135682391Y-122210371D01*
X135741607Y-122495334D01*
X135750695Y-122520904D01*
X135839071Y-122769576D01*
X135967580Y-123017586D01*
X135972975Y-123027998D01*
X136140818Y-123265777D01*
X136339475Y-123478486D01*
X136565246Y-123662165D01*
X136565249Y-123662166D01*
X136565248Y-123662166D01*
X136813917Y-123813385D01*
X136813921Y-123813387D01*
X136813925Y-123813389D01*
X137080879Y-123929344D01*
X137361136Y-124007868D01*
X137649475Y-124047500D01*
X137649476Y-124047500D01*
X137940524Y-124047500D01*
X137940525Y-124047500D01*
X138228864Y-124007868D01*
X138509121Y-123929344D01*
X138776075Y-123813389D01*
X139024754Y-123662165D01*
X139250525Y-123478486D01*
X139449182Y-123265777D01*
X139617025Y-123027998D01*
X139750927Y-122769579D01*
X139848393Y-122495334D01*
X139907609Y-122210371D01*
X139908023Y-122204330D01*
X139927471Y-121920004D01*
X139927471Y-121919995D01*
X139907610Y-121629637D01*
X139907609Y-121629634D01*
X139907609Y-121629629D01*
X139848393Y-121344666D01*
X139750927Y-121070421D01*
X139617025Y-120812002D01*
X139449182Y-120574223D01*
X139250525Y-120361514D01*
X139024754Y-120177835D01*
X139024751Y-120177833D01*
X138776082Y-120026614D01*
X138744584Y-120012932D01*
X138509121Y-119910656D01*
X138509119Y-119910655D01*
X138509118Y-119910655D01*
X138509116Y-119910654D01*
X138228870Y-119832133D01*
X138228860Y-119832131D01*
X137940528Y-119792500D01*
X137940525Y-119792500D01*
X137649475Y-119792500D01*
X137649471Y-119792500D01*
X137361139Y-119832131D01*
X137361129Y-119832133D01*
X137080883Y-119910654D01*
X137080881Y-119910655D01*
X136813917Y-120026614D01*
X136565248Y-120177833D01*
X136339476Y-120361512D01*
X136140819Y-120574222D01*
X135972971Y-120812008D01*
X135839071Y-121070423D01*
X135741610Y-121344657D01*
X135741607Y-121344666D01*
X135682390Y-121629634D01*
X135682389Y-121629637D01*
X135662529Y-121919995D01*
X135662529Y-121920004D01*
X130220499Y-121920004D01*
X130220499Y-119792500D01*
X130220499Y-117602003D01*
X130582131Y-117602003D01*
X130599498Y-117711657D01*
X130599500Y-117711662D01*
X130649904Y-117810586D01*
X130728413Y-117889095D01*
X130808986Y-117930149D01*
X130827339Y-117939500D01*
X130827342Y-117939501D01*
X130936997Y-117956869D01*
X130937000Y-117956869D01*
X130937003Y-117956869D01*
X131046657Y-117939501D01*
X131046658Y-117939500D01*
X131046661Y-117939500D01*
X131145587Y-117889095D01*
X131224095Y-117810587D01*
X131262312Y-117735580D01*
X131298684Y-117704514D01*
X131346372Y-117708267D01*
X131373687Y-117735580D01*
X131411905Y-117810587D01*
X131490413Y-117889095D01*
X131570986Y-117930149D01*
X131589339Y-117939500D01*
X131589342Y-117939501D01*
X131698997Y-117956869D01*
X131699000Y-117956869D01*
X131699003Y-117956869D01*
X131808657Y-117939501D01*
X131808658Y-117939500D01*
X131808661Y-117939500D01*
X131907587Y-117889095D01*
X131986095Y-117810587D01*
X132036500Y-117711661D01*
X132038996Y-117695904D01*
X132053869Y-117602003D01*
X132053869Y-117601996D01*
X132036501Y-117492342D01*
X132036499Y-117492337D01*
X131986095Y-117393413D01*
X131907585Y-117314903D01*
X131905618Y-117313901D01*
X131904658Y-117312777D01*
X131903608Y-117312014D01*
X131903791Y-117311761D01*
X131874556Y-117277523D01*
X131871500Y-117258217D01*
X131871500Y-116078003D01*
X134138131Y-116078003D01*
X134155498Y-116187657D01*
X134155500Y-116187662D01*
X134205904Y-116286586D01*
X134205905Y-116286587D01*
X134284413Y-116365095D01*
X134383339Y-116415500D01*
X134383342Y-116415501D01*
X134492997Y-116432869D01*
X134493000Y-116432869D01*
X134493003Y-116432869D01*
X134602657Y-116415501D01*
X134602658Y-116415500D01*
X134602661Y-116415500D01*
X134701587Y-116365095D01*
X134780095Y-116286587D01*
X134830500Y-116187661D01*
X134832826Y-116172975D01*
X134847869Y-116078003D01*
X134847869Y-116077996D01*
X134830501Y-115968342D01*
X134830499Y-115968337D01*
X134780095Y-115869413D01*
X134701586Y-115790904D01*
X134602662Y-115740500D01*
X134602657Y-115740498D01*
X134493003Y-115723131D01*
X134492997Y-115723131D01*
X134383342Y-115740498D01*
X134383337Y-115740500D01*
X134284413Y-115790904D01*
X134205904Y-115869413D01*
X134155500Y-115968337D01*
X134155498Y-115968342D01*
X134138131Y-116077996D01*
X134138131Y-116078003D01*
X131871500Y-116078003D01*
X131871500Y-114905338D01*
X131889805Y-114861145D01*
X132069947Y-114681003D01*
X132487131Y-114681003D01*
X132504498Y-114790657D01*
X132504500Y-114790662D01*
X132554904Y-114889586D01*
X132633413Y-114968095D01*
X132728584Y-115016587D01*
X132732339Y-115018500D01*
X132732342Y-115018501D01*
X132841997Y-115035869D01*
X132842000Y-115035869D01*
X132842003Y-115035869D01*
X132951657Y-115018501D01*
X132951658Y-115018500D01*
X132951661Y-115018500D01*
X133050587Y-114968095D01*
X133129095Y-114889587D01*
X133170664Y-114808003D01*
X134138131Y-114808003D01*
X134155498Y-114917657D01*
X134155500Y-114917662D01*
X134205904Y-115016586D01*
X134205905Y-115016587D01*
X134284413Y-115095095D01*
X134383339Y-115145500D01*
X134383342Y-115145501D01*
X134492997Y-115162869D01*
X134493000Y-115162869D01*
X134493003Y-115162869D01*
X134602657Y-115145501D01*
X134602658Y-115145500D01*
X134602661Y-115145500D01*
X134701587Y-115095095D01*
X134780095Y-115016587D01*
X134830500Y-114917661D01*
X134831447Y-114911683D01*
X134847869Y-114808003D01*
X134847869Y-114807996D01*
X134830501Y-114698342D01*
X134830499Y-114698337D01*
X134780095Y-114599413D01*
X134701586Y-114520904D01*
X134602662Y-114470500D01*
X134602657Y-114470498D01*
X134493003Y-114453131D01*
X134492997Y-114453131D01*
X134383342Y-114470498D01*
X134383337Y-114470500D01*
X134284413Y-114520904D01*
X134205904Y-114599413D01*
X134155500Y-114698337D01*
X134155498Y-114698342D01*
X134138131Y-114807996D01*
X134138131Y-114808003D01*
X133170664Y-114808003D01*
X133179500Y-114790661D01*
X133185125Y-114755147D01*
X133196869Y-114681003D01*
X133196869Y-114680996D01*
X133179501Y-114571342D01*
X133179499Y-114571337D01*
X133129095Y-114472413D01*
X133050586Y-114393904D01*
X132951662Y-114343500D01*
X132951657Y-114343498D01*
X132842003Y-114326131D01*
X132841997Y-114326131D01*
X132732342Y-114343498D01*
X132732337Y-114343500D01*
X132633413Y-114393904D01*
X132554904Y-114472413D01*
X132504500Y-114571337D01*
X132504498Y-114571342D01*
X132487131Y-114680996D01*
X132487131Y-114681003D01*
X132069947Y-114681003D01*
X132567878Y-114183072D01*
X132576562Y-114175836D01*
X132593983Y-114163812D01*
X132610885Y-114131604D01*
X132611805Y-114129975D01*
X132630619Y-114098855D01*
X132630619Y-114098853D01*
X132632213Y-114093738D01*
X132633500Y-114088519D01*
X132633500Y-114052168D01*
X132633557Y-114050281D01*
X132633816Y-114045996D01*
X132635753Y-114013975D01*
X132635750Y-114013969D01*
X132634523Y-114007265D01*
X132633500Y-113996001D01*
X132633500Y-112579070D01*
X132651806Y-112534876D01*
X132696000Y-112516570D01*
X132740194Y-112534876D01*
X132760413Y-112555095D01*
X132855584Y-112603587D01*
X132859339Y-112605500D01*
X132859342Y-112605501D01*
X132968997Y-112622869D01*
X132969000Y-112622869D01*
X132969003Y-112622869D01*
X133078657Y-112605501D01*
X133078658Y-112605500D01*
X133078661Y-112605500D01*
X133177587Y-112555095D01*
X133256095Y-112476587D01*
X133306500Y-112377661D01*
X133321065Y-112285704D01*
X133323869Y-112268003D01*
X133323869Y-112267996D01*
X133306501Y-112158342D01*
X133306499Y-112158337D01*
X133256095Y-112059413D01*
X133177586Y-111980904D01*
X133078662Y-111930500D01*
X133078657Y-111930498D01*
X132969003Y-111913131D01*
X132968997Y-111913131D01*
X132859342Y-111930498D01*
X132859337Y-111930500D01*
X132760413Y-111980904D01*
X132740194Y-112001124D01*
X132696000Y-112019430D01*
X132651806Y-112001124D01*
X132633500Y-111956930D01*
X132633500Y-106680004D01*
X135662529Y-106680004D01*
X135682389Y-106970362D01*
X135682390Y-106970365D01*
X135682390Y-106970369D01*
X135682391Y-106970371D01*
X135710661Y-107106413D01*
X135741607Y-107255333D01*
X135741610Y-107255342D01*
X135839071Y-107529576D01*
X135902766Y-107652501D01*
X135972975Y-107787998D01*
X136140818Y-108025777D01*
X136248707Y-108141297D01*
X136339476Y-108238487D01*
X136378576Y-108270297D01*
X136565246Y-108422165D01*
X136593292Y-108439220D01*
X136813917Y-108573385D01*
X136813921Y-108573387D01*
X136813925Y-108573389D01*
X137080879Y-108689344D01*
X137361136Y-108767868D01*
X137649475Y-108807500D01*
X137649476Y-108807500D01*
X137940524Y-108807500D01*
X137940525Y-108807500D01*
X138228864Y-108767868D01*
X138509121Y-108689344D01*
X138776075Y-108573389D01*
X138788580Y-108565785D01*
X138845122Y-108531401D01*
X139024754Y-108422165D01*
X139250525Y-108238486D01*
X139449182Y-108025777D01*
X139617025Y-107787998D01*
X139750927Y-107529579D01*
X139848393Y-107255334D01*
X139907609Y-106970371D01*
X139908310Y-106960131D01*
X139927471Y-106680004D01*
X139927471Y-106679995D01*
X139907610Y-106389637D01*
X139907609Y-106389634D01*
X139907609Y-106389629D01*
X139848393Y-106104666D01*
X139770947Y-105886751D01*
X139750928Y-105830423D01*
X139664696Y-105664003D01*
X139617025Y-105572002D01*
X139449182Y-105334223D01*
X139250525Y-105121514D01*
X139024754Y-104937835D01*
X139012294Y-104930258D01*
X138776082Y-104786614D01*
X138658116Y-104735374D01*
X138509121Y-104670656D01*
X138509119Y-104670655D01*
X138509118Y-104670655D01*
X138509116Y-104670654D01*
X138228870Y-104592133D01*
X138228860Y-104592131D01*
X137940528Y-104552500D01*
X137940525Y-104552500D01*
X137649475Y-104552500D01*
X137649471Y-104552500D01*
X137361139Y-104592131D01*
X137361129Y-104592133D01*
X137080883Y-104670654D01*
X137080881Y-104670655D01*
X136813917Y-104786614D01*
X136565248Y-104937833D01*
X136339476Y-105121512D01*
X136164252Y-105309131D01*
X136140818Y-105334223D01*
X135985443Y-105554339D01*
X135972971Y-105572008D01*
X135839071Y-105830423D01*
X135741610Y-106104657D01*
X135741607Y-106104666D01*
X135682390Y-106389634D01*
X135682389Y-106389637D01*
X135662529Y-106679995D01*
X135662529Y-106680004D01*
X132633500Y-106680004D01*
X132633500Y-101697339D01*
X132651806Y-101653145D01*
X132895145Y-101409806D01*
X132939339Y-101391500D01*
X137578218Y-101391500D01*
X137622412Y-101409806D01*
X137633907Y-101425629D01*
X137634905Y-101427587D01*
X137713413Y-101506095D01*
X137812339Y-101556500D01*
X137812342Y-101556501D01*
X137921997Y-101573869D01*
X137922000Y-101573869D01*
X137922003Y-101573869D01*
X138031657Y-101556501D01*
X138031658Y-101556500D01*
X138031661Y-101556500D01*
X138130587Y-101506095D01*
X138209095Y-101427587D01*
X138259500Y-101328661D01*
X138274554Y-101233619D01*
X138276869Y-101219003D01*
X138276869Y-101218996D01*
X138259501Y-101109342D01*
X138259499Y-101109337D01*
X138209095Y-101010413D01*
X138130586Y-100931904D01*
X138031662Y-100881500D01*
X138031657Y-100881498D01*
X137922003Y-100864131D01*
X137922001Y-100864131D01*
X137922000Y-100864131D01*
X137860335Y-100873898D01*
X137825015Y-100879492D01*
X137778501Y-100868324D01*
X137753507Y-100827538D01*
X137753508Y-100807983D01*
X137768869Y-100711002D01*
X137768869Y-100710996D01*
X137751501Y-100601342D01*
X137751499Y-100601337D01*
X137701095Y-100502413D01*
X137622586Y-100423904D01*
X137523662Y-100373500D01*
X137523657Y-100373498D01*
X137414003Y-100356131D01*
X137414001Y-100356131D01*
X137414000Y-100356131D01*
X137352335Y-100365898D01*
X137317015Y-100371492D01*
X137270501Y-100360324D01*
X137245507Y-100319538D01*
X137245508Y-100299983D01*
X137260869Y-100203002D01*
X137260869Y-100202996D01*
X137243501Y-100093342D01*
X137243499Y-100093337D01*
X137193095Y-99994413D01*
X137114586Y-99915904D01*
X137015662Y-99865500D01*
X137015657Y-99865498D01*
X136906003Y-99848131D01*
X136905997Y-99848131D01*
X136796342Y-99865498D01*
X136796337Y-99865500D01*
X136697413Y-99915904D01*
X136618904Y-99994413D01*
X136568500Y-100093337D01*
X136568498Y-100093342D01*
X136551131Y-100202996D01*
X136551131Y-100203003D01*
X136568498Y-100312657D01*
X136568500Y-100312662D01*
X136618904Y-100411586D01*
X136639124Y-100431806D01*
X136657430Y-100476000D01*
X136639124Y-100520194D01*
X136594930Y-100538500D01*
X132736357Y-100538500D01*
X132725091Y-100537476D01*
X132704273Y-100533660D01*
X132704271Y-100533661D01*
X132669567Y-100544475D01*
X132667750Y-100544982D01*
X132632437Y-100553686D01*
X132627676Y-100556184D01*
X132623091Y-100558957D01*
X132597382Y-100584664D01*
X132596008Y-100585957D01*
X132568783Y-100610078D01*
X132564908Y-100615692D01*
X132557669Y-100624377D01*
X131846124Y-101335922D01*
X131837436Y-101343163D01*
X131820017Y-101355187D01*
X131820016Y-101355188D01*
X131803120Y-101387380D01*
X131802193Y-101389023D01*
X131783378Y-101420147D01*
X131781788Y-101425250D01*
X131780500Y-101430479D01*
X131780500Y-101466830D01*
X131780443Y-101468717D01*
X131778247Y-101505023D01*
X131779476Y-101511726D01*
X131780500Y-101522995D01*
X131780500Y-110686930D01*
X131762194Y-110731124D01*
X131718000Y-110749430D01*
X131673806Y-110731124D01*
X131653586Y-110710904D01*
X131554662Y-110660500D01*
X131554657Y-110660498D01*
X131445003Y-110643131D01*
X131444997Y-110643131D01*
X131335342Y-110660498D01*
X131335337Y-110660500D01*
X131236413Y-110710904D01*
X131157904Y-110789413D01*
X131107500Y-110888337D01*
X131107498Y-110888342D01*
X131090131Y-110997996D01*
X131090131Y-110998003D01*
X131107498Y-111107657D01*
X131107500Y-111107662D01*
X131157904Y-111206586D01*
X131157905Y-111206587D01*
X131236413Y-111285095D01*
X131335339Y-111335500D01*
X131335342Y-111335501D01*
X131444997Y-111352869D01*
X131445000Y-111352869D01*
X131445003Y-111352869D01*
X131554657Y-111335501D01*
X131554658Y-111335500D01*
X131554661Y-111335500D01*
X131653587Y-111285095D01*
X131673805Y-111264876D01*
X131717998Y-111246570D01*
X131762192Y-111264875D01*
X131780499Y-111309069D01*
X131780499Y-113694659D01*
X131762193Y-113738853D01*
X130830124Y-114670922D01*
X130821436Y-114678163D01*
X130804017Y-114690187D01*
X130804016Y-114690188D01*
X130787120Y-114722380D01*
X130786193Y-114724023D01*
X130767378Y-114755147D01*
X130765788Y-114760250D01*
X130764500Y-114765479D01*
X130764500Y-114801830D01*
X130764443Y-114803717D01*
X130762247Y-114840023D01*
X130763476Y-114846726D01*
X130764500Y-114857995D01*
X130764500Y-117258217D01*
X130746194Y-117302411D01*
X130730382Y-117313901D01*
X130728414Y-117314903D01*
X130728413Y-117314905D01*
X130649904Y-117393413D01*
X130599500Y-117492337D01*
X130599498Y-117492342D01*
X130582131Y-117601996D01*
X130582131Y-117602003D01*
X130220499Y-117602003D01*
X130220499Y-117369345D01*
X130221521Y-117358103D01*
X130225339Y-117337273D01*
X130214517Y-117302547D01*
X130214014Y-117300739D01*
X130208292Y-117277523D01*
X130205313Y-117265436D01*
X130205310Y-117265433D01*
X130202812Y-117260672D01*
X130200041Y-117256088D01*
X130174336Y-117230384D01*
X130173041Y-117229009D01*
X130148923Y-117201785D01*
X130143308Y-117197909D01*
X130134620Y-117190668D01*
X125539805Y-112595853D01*
X125521499Y-112551659D01*
X125521499Y-110660498D01*
X125521499Y-108733345D01*
X125522521Y-108722103D01*
X125526339Y-108701273D01*
X125515517Y-108666547D01*
X125515014Y-108664739D01*
X125506313Y-108629438D01*
X125506313Y-108629436D01*
X125506310Y-108629433D01*
X125503812Y-108624672D01*
X125501041Y-108620088D01*
X125475336Y-108594384D01*
X125474041Y-108593009D01*
X125466942Y-108584996D01*
X125449924Y-108565786D01*
X125449923Y-108565785D01*
X125444308Y-108561909D01*
X125435620Y-108554668D01*
X125076221Y-108195269D01*
X125057915Y-108151075D01*
X125058685Y-108141297D01*
X125068869Y-108077002D01*
X125068869Y-108076996D01*
X125051501Y-107967342D01*
X125051499Y-107967337D01*
X125001095Y-107868413D01*
X124922586Y-107789904D01*
X124823662Y-107739500D01*
X124823657Y-107739498D01*
X124714003Y-107722131D01*
X124713997Y-107722131D01*
X124604342Y-107739498D01*
X124604337Y-107739500D01*
X124505413Y-107789904D01*
X124426904Y-107868413D01*
X124376500Y-107967337D01*
X124376498Y-107967342D01*
X124359131Y-108076996D01*
X124359131Y-108077003D01*
X124376498Y-108186657D01*
X124376500Y-108186662D01*
X124419114Y-108270297D01*
X124422867Y-108317985D01*
X124391800Y-108354359D01*
X124353649Y-108360401D01*
X124333003Y-108357131D01*
X124332997Y-108357131D01*
X124223342Y-108374498D01*
X124223337Y-108374500D01*
X124124413Y-108424904D01*
X124045904Y-108503413D01*
X124007688Y-108578418D01*
X123971314Y-108609485D01*
X123923626Y-108605732D01*
X123896312Y-108578418D01*
X123858095Y-108503413D01*
X123779586Y-108424904D01*
X123680662Y-108374500D01*
X123680657Y-108374498D01*
X123571003Y-108357131D01*
X123570997Y-108357131D01*
X123461342Y-108374498D01*
X123461337Y-108374500D01*
X123362413Y-108424904D01*
X123283904Y-108503413D01*
X123233500Y-108602337D01*
X123233498Y-108602342D01*
X123216131Y-108711996D01*
X123216131Y-108712003D01*
X123233498Y-108821657D01*
X123233500Y-108821662D01*
X123259924Y-108873522D01*
X123263677Y-108921210D01*
X123232610Y-108957584D01*
X123184922Y-108961337D01*
X123160042Y-108946090D01*
X122917221Y-108703269D01*
X122898915Y-108659075D01*
X122899685Y-108649297D01*
X122909869Y-108585002D01*
X122909869Y-108584996D01*
X122892501Y-108475342D01*
X122892499Y-108475337D01*
X122842095Y-108376413D01*
X122763586Y-108297904D01*
X122664662Y-108247500D01*
X122664657Y-108247498D01*
X122555003Y-108230131D01*
X122554997Y-108230131D01*
X122445342Y-108247498D01*
X122445337Y-108247500D01*
X122346413Y-108297904D01*
X122267904Y-108376413D01*
X122217500Y-108475337D01*
X122217498Y-108475342D01*
X122200131Y-108584996D01*
X122200131Y-108584997D01*
X122200131Y-108585000D01*
X122210315Y-108649297D01*
X122215492Y-108681984D01*
X122204324Y-108728498D01*
X122163538Y-108753492D01*
X122143984Y-108753492D01*
X122125249Y-108750524D01*
X122047000Y-108738131D01*
X122046998Y-108738131D01*
X122046997Y-108738131D01*
X121937342Y-108755498D01*
X121937337Y-108755500D01*
X121838413Y-108805904D01*
X121759904Y-108884413D01*
X121709500Y-108983337D01*
X121709498Y-108983342D01*
X121692131Y-109092996D01*
X121692131Y-109092997D01*
X121692131Y-109093000D01*
X121699943Y-109142321D01*
X121707492Y-109189984D01*
X121696324Y-109236498D01*
X121655538Y-109261492D01*
X121635984Y-109261492D01*
X121617249Y-109258524D01*
X121539000Y-109246131D01*
X121538998Y-109246131D01*
X121538997Y-109246131D01*
X121429342Y-109263498D01*
X121429337Y-109263500D01*
X121330413Y-109313904D01*
X121251904Y-109392413D01*
X121201500Y-109491337D01*
X121201498Y-109491342D01*
X121184131Y-109600996D01*
X121184131Y-109601003D01*
X121201498Y-109710657D01*
X121201500Y-109710662D01*
X121209908Y-109727163D01*
X121251905Y-109809587D01*
X121330413Y-109888095D01*
X121429339Y-109938500D01*
X121429342Y-109938501D01*
X121538997Y-109955869D01*
X121539000Y-109955869D01*
X121539002Y-109955869D01*
X121603297Y-109945685D01*
X121649811Y-109956851D01*
X121657269Y-109963221D01*
X122237194Y-110543146D01*
X122255500Y-110587340D01*
X122255500Y-114964659D01*
X122237194Y-115008853D01*
X120416124Y-116829922D01*
X120407436Y-116837163D01*
X120390017Y-116849187D01*
X120390016Y-116849188D01*
X120373120Y-116881380D01*
X120372193Y-116883023D01*
X120353378Y-116914147D01*
X120351788Y-116919250D01*
X120350500Y-116924479D01*
X120350500Y-116960830D01*
X120350443Y-116962717D01*
X120348246Y-116999025D01*
X120349475Y-117005727D01*
X120350499Y-117016992D01*
X120350499Y-121695660D01*
X120332193Y-121739854D01*
X119908124Y-122163922D01*
X119899436Y-122171163D01*
X119882017Y-122183187D01*
X119882016Y-122183188D01*
X119865120Y-122215380D01*
X119864193Y-122217023D01*
X119845378Y-122248147D01*
X119843788Y-122253250D01*
X119842500Y-122258479D01*
X119842500Y-122294830D01*
X119842443Y-122296717D01*
X119840246Y-122333025D01*
X119841475Y-122339727D01*
X119842499Y-122350992D01*
X119842499Y-122465218D01*
X119824193Y-122509412D01*
X119808377Y-122520904D01*
X119806413Y-122521904D01*
X119806413Y-122521905D01*
X119727904Y-122600413D01*
X119677500Y-122699337D01*
X119677498Y-122699342D01*
X119660131Y-122808996D01*
X119660131Y-122809003D01*
X118140499Y-122809003D01*
X118160927Y-122769579D01*
X118258393Y-122495334D01*
X118317609Y-122210371D01*
X118318023Y-122204330D01*
X118337471Y-121920004D01*
X118337471Y-121919995D01*
X118317610Y-121629637D01*
X118317609Y-121629634D01*
X118317609Y-121629629D01*
X118258393Y-121344666D01*
X118160927Y-121070421D01*
X118027025Y-120812002D01*
X117859182Y-120574223D01*
X117660525Y-120361514D01*
X117434754Y-120177835D01*
X117434751Y-120177833D01*
X117186082Y-120026614D01*
X117154584Y-120012932D01*
X116919121Y-119910656D01*
X116919119Y-119910655D01*
X116919118Y-119910655D01*
X116919116Y-119910654D01*
X116638870Y-119832133D01*
X116638860Y-119832131D01*
X116350528Y-119792500D01*
X116350525Y-119792500D01*
X116059475Y-119792500D01*
X116059471Y-119792500D01*
X115771139Y-119832131D01*
X115771129Y-119832133D01*
X115490883Y-119910654D01*
X115490881Y-119910655D01*
X115223917Y-120026614D01*
X114975248Y-120177833D01*
X114749476Y-120361512D01*
X114550819Y-120574222D01*
X114382971Y-120812008D01*
X114249071Y-121070423D01*
X114151610Y-121344657D01*
X114151607Y-121344666D01*
X114092390Y-121629634D01*
X114092389Y-121629637D01*
X114072529Y-121919995D01*
X114072529Y-121920004D01*
X96821266Y-121920004D01*
X96820580Y-121912004D01*
X96820466Y-121909440D01*
X96809356Y-118618003D01*
X99213131Y-118618003D01*
X99230498Y-118727657D01*
X99230500Y-118727662D01*
X99280904Y-118826586D01*
X99280905Y-118826587D01*
X99359413Y-118905095D01*
X99458339Y-118955500D01*
X99458342Y-118955501D01*
X99567997Y-118972869D01*
X99568000Y-118972869D01*
X99568003Y-118972869D01*
X99677657Y-118955501D01*
X99677658Y-118955500D01*
X99677661Y-118955500D01*
X99776587Y-118905095D01*
X99855095Y-118826587D01*
X99905500Y-118727661D01*
X99922869Y-118618003D01*
X106833131Y-118618003D01*
X106850498Y-118727657D01*
X106850500Y-118727662D01*
X106900904Y-118826586D01*
X106900905Y-118826587D01*
X106979413Y-118905095D01*
X107078339Y-118955500D01*
X107078342Y-118955501D01*
X107187997Y-118972869D01*
X107188000Y-118972869D01*
X107188003Y-118972869D01*
X107297657Y-118955501D01*
X107297658Y-118955500D01*
X107297661Y-118955500D01*
X107396587Y-118905095D01*
X107475095Y-118826587D01*
X107525500Y-118727661D01*
X107542869Y-118618000D01*
X107542869Y-118617996D01*
X107525501Y-118508342D01*
X107525499Y-118508337D01*
X107475095Y-118409413D01*
X107396586Y-118330904D01*
X107297662Y-118280500D01*
X107297657Y-118280498D01*
X107188003Y-118263131D01*
X107187997Y-118263131D01*
X107078342Y-118280498D01*
X107078337Y-118280500D01*
X106979413Y-118330904D01*
X106900904Y-118409413D01*
X106850500Y-118508337D01*
X106850498Y-118508342D01*
X106833131Y-118617996D01*
X106833131Y-118618003D01*
X99922869Y-118618003D01*
X99922869Y-118618000D01*
X99922869Y-118617996D01*
X99905501Y-118508342D01*
X99905499Y-118508337D01*
X99855095Y-118409413D01*
X99776586Y-118330904D01*
X99677662Y-118280500D01*
X99677657Y-118280498D01*
X99568003Y-118263131D01*
X99567997Y-118263131D01*
X99458342Y-118280498D01*
X99458337Y-118280500D01*
X99359413Y-118330904D01*
X99280904Y-118409413D01*
X99230500Y-118508337D01*
X99230498Y-118508342D01*
X99213131Y-118617996D01*
X99213131Y-118618003D01*
X96809356Y-118618003D01*
X96802069Y-116459003D01*
X107976131Y-116459003D01*
X107993498Y-116568657D01*
X107993500Y-116568662D01*
X108043904Y-116667586D01*
X108122413Y-116746095D01*
X108217584Y-116794587D01*
X108221339Y-116796500D01*
X108221342Y-116796501D01*
X108330997Y-116813869D01*
X108331000Y-116813869D01*
X108331003Y-116813869D01*
X108440657Y-116796501D01*
X108440658Y-116796500D01*
X108440661Y-116796500D01*
X108539587Y-116746095D01*
X108618095Y-116667587D01*
X108668500Y-116568661D01*
X108680920Y-116490248D01*
X108685869Y-116459003D01*
X108685869Y-116458996D01*
X108668501Y-116349342D01*
X108668499Y-116349337D01*
X108618095Y-116250413D01*
X108539586Y-116171904D01*
X108440662Y-116121500D01*
X108440657Y-116121498D01*
X108331003Y-116104131D01*
X108330997Y-116104131D01*
X108221342Y-116121498D01*
X108221337Y-116121500D01*
X108122413Y-116171904D01*
X108043904Y-116250413D01*
X107993500Y-116349337D01*
X107993498Y-116349342D01*
X107976131Y-116458996D01*
X107976131Y-116459003D01*
X96802069Y-116459003D01*
X96798994Y-115548077D01*
X96798994Y-112572803D01*
X103073931Y-112572803D01*
X103091298Y-112682457D01*
X103091300Y-112682462D01*
X103134878Y-112767989D01*
X103141705Y-112781387D01*
X103220213Y-112859895D01*
X103222172Y-112860893D01*
X103222174Y-112860894D01*
X103223133Y-112862017D01*
X103224194Y-112862788D01*
X103224009Y-112863042D01*
X103253240Y-112897269D01*
X103256299Y-112916582D01*
X103256299Y-114583443D01*
X103255276Y-114594706D01*
X103251460Y-114615529D01*
X103262278Y-114650242D01*
X103262785Y-114652061D01*
X103271487Y-114687364D01*
X103273983Y-114692121D01*
X103276757Y-114696709D01*
X103276758Y-114696710D01*
X103276759Y-114696711D01*
X103302478Y-114722430D01*
X103303757Y-114723789D01*
X103327876Y-114751014D01*
X103333487Y-114754887D01*
X103342178Y-114762130D01*
X103748920Y-115168871D01*
X103756162Y-115177561D01*
X103768188Y-115194983D01*
X103800395Y-115211886D01*
X103802019Y-115212801D01*
X103833144Y-115231618D01*
X103833147Y-115231618D01*
X103838278Y-115233217D01*
X103843482Y-115234500D01*
X103879838Y-115234500D01*
X103881725Y-115234557D01*
X103918025Y-115236753D01*
X103918028Y-115236751D01*
X103924731Y-115235524D01*
X103935997Y-115234500D01*
X104199082Y-115234500D01*
X114329660Y-115234500D01*
X114373854Y-115252806D01*
X115080777Y-115959729D01*
X115099083Y-116003923D01*
X115098314Y-116013699D01*
X115088131Y-116078001D01*
X115088131Y-116078003D01*
X115105498Y-116187657D01*
X115105500Y-116187662D01*
X115155904Y-116286586D01*
X115155905Y-116286587D01*
X115234413Y-116365095D01*
X115333339Y-116415500D01*
X115333342Y-116415501D01*
X115442997Y-116432869D01*
X115443000Y-116432869D01*
X115443003Y-116432869D01*
X115552657Y-116415501D01*
X115552658Y-116415500D01*
X115552661Y-116415500D01*
X115651587Y-116365095D01*
X115730095Y-116286587D01*
X115780500Y-116187661D01*
X115782826Y-116172975D01*
X115797869Y-116078003D01*
X115797869Y-116077996D01*
X115780501Y-115968342D01*
X115780499Y-115968337D01*
X115730095Y-115869413D01*
X115651586Y-115790904D01*
X115552662Y-115740500D01*
X115552657Y-115740498D01*
X115443003Y-115723131D01*
X115443001Y-115723131D01*
X115443000Y-115723131D01*
X115432970Y-115724719D01*
X115378699Y-115733314D01*
X115332185Y-115722146D01*
X115324729Y-115715777D01*
X115178955Y-115570003D01*
X116993131Y-115570003D01*
X117010498Y-115679657D01*
X117010500Y-115679662D01*
X117060904Y-115778586D01*
X117060905Y-115778587D01*
X117139413Y-115857095D01*
X117238339Y-115907500D01*
X117238342Y-115907501D01*
X117347997Y-115924869D01*
X117348000Y-115924869D01*
X117348003Y-115924869D01*
X117457657Y-115907501D01*
X117457658Y-115907500D01*
X117457661Y-115907500D01*
X117556587Y-115857095D01*
X117589679Y-115824003D01*
X118263131Y-115824003D01*
X118280498Y-115933657D01*
X118280500Y-115933662D01*
X118303624Y-115979045D01*
X118330905Y-116032587D01*
X118409413Y-116111095D01*
X118508339Y-116161500D01*
X118508342Y-116161501D01*
X118617997Y-116178869D01*
X118618000Y-116178869D01*
X118618003Y-116178869D01*
X118727657Y-116161501D01*
X118727658Y-116161500D01*
X118727661Y-116161500D01*
X118826587Y-116111095D01*
X118905095Y-116032587D01*
X118955500Y-115933661D01*
X118956893Y-115924869D01*
X118972869Y-115824003D01*
X118972869Y-115823996D01*
X118955501Y-115714342D01*
X118955499Y-115714337D01*
X118905095Y-115615413D01*
X118826586Y-115536904D01*
X118727662Y-115486500D01*
X118727657Y-115486498D01*
X118618003Y-115469131D01*
X118617997Y-115469131D01*
X118508342Y-115486498D01*
X118508337Y-115486500D01*
X118409413Y-115536904D01*
X118330904Y-115615413D01*
X118280500Y-115714337D01*
X118280498Y-115714342D01*
X118263131Y-115823996D01*
X118263131Y-115824003D01*
X117589679Y-115824003D01*
X117635095Y-115778587D01*
X117685500Y-115679661D01*
X117685501Y-115679657D01*
X117702869Y-115570003D01*
X117702869Y-115569996D01*
X117685501Y-115460342D01*
X117685499Y-115460337D01*
X117635095Y-115361413D01*
X117556586Y-115282904D01*
X117457662Y-115232500D01*
X117457657Y-115232498D01*
X117348003Y-115215131D01*
X117347997Y-115215131D01*
X117238342Y-115232498D01*
X117238337Y-115232500D01*
X117139413Y-115282904D01*
X117060904Y-115361413D01*
X117010500Y-115460337D01*
X117010498Y-115460342D01*
X116993131Y-115569996D01*
X116993131Y-115570003D01*
X115178955Y-115570003D01*
X114564076Y-114955124D01*
X114556833Y-114946433D01*
X114544812Y-114929017D01*
X114544811Y-114929016D01*
X114512620Y-114912120D01*
X114510977Y-114911193D01*
X114479857Y-114892381D01*
X114474734Y-114890785D01*
X114469519Y-114889500D01*
X114469518Y-114889500D01*
X114433168Y-114889500D01*
X114431282Y-114889443D01*
X114394975Y-114887247D01*
X114394974Y-114887247D01*
X114388270Y-114888476D01*
X114377003Y-114889500D01*
X103983339Y-114889500D01*
X103939145Y-114871194D01*
X103748955Y-114681003D01*
X116739131Y-114681003D01*
X116756498Y-114790657D01*
X116756500Y-114790662D01*
X116806904Y-114889586D01*
X116885413Y-114968095D01*
X116980584Y-115016587D01*
X116984339Y-115018500D01*
X116984342Y-115018501D01*
X117093997Y-115035869D01*
X117094000Y-115035869D01*
X117094003Y-115035869D01*
X117203657Y-115018501D01*
X117203658Y-115018500D01*
X117203661Y-115018500D01*
X117302587Y-114968095D01*
X117381095Y-114889587D01*
X117431500Y-114790661D01*
X117437125Y-114755147D01*
X117448869Y-114681003D01*
X117448869Y-114680996D01*
X117431501Y-114571342D01*
X117431499Y-114571337D01*
X117381095Y-114472413D01*
X117302586Y-114393904D01*
X117203662Y-114343500D01*
X117203657Y-114343498D01*
X117094003Y-114326131D01*
X117093997Y-114326131D01*
X116984342Y-114343498D01*
X116984337Y-114343500D01*
X116885413Y-114393904D01*
X116806904Y-114472413D01*
X116756500Y-114571337D01*
X116756498Y-114571342D01*
X116739131Y-114680996D01*
X116739131Y-114681003D01*
X103748955Y-114681003D01*
X103619606Y-114551654D01*
X103601300Y-114507460D01*
X103601300Y-113665003D01*
X114453131Y-113665003D01*
X114470498Y-113774657D01*
X114470500Y-113774662D01*
X114506266Y-113844857D01*
X114520905Y-113873587D01*
X114599413Y-113952095D01*
X114698339Y-114002500D01*
X114698342Y-114002501D01*
X114807997Y-114019869D01*
X114808000Y-114019869D01*
X114808003Y-114019869D01*
X114917657Y-114002501D01*
X114917658Y-114002500D01*
X114917661Y-114002500D01*
X115016587Y-113952095D01*
X115095095Y-113873587D01*
X115145500Y-113774661D01*
X115147826Y-113759975D01*
X115162869Y-113665003D01*
X115162869Y-113664996D01*
X115145501Y-113555342D01*
X115145499Y-113555337D01*
X115136667Y-113538003D01*
X115723131Y-113538003D01*
X115740498Y-113647657D01*
X115740500Y-113647662D01*
X115790904Y-113746586D01*
X115869413Y-113825095D01*
X115964584Y-113873587D01*
X115968339Y-113875500D01*
X115968342Y-113875501D01*
X116077997Y-113892869D01*
X116078000Y-113892869D01*
X116078003Y-113892869D01*
X116187657Y-113875501D01*
X116187658Y-113875500D01*
X116187661Y-113875500D01*
X116286587Y-113825095D01*
X116365095Y-113746587D01*
X116415500Y-113647661D01*
X116416893Y-113638869D01*
X116432869Y-113538003D01*
X116432869Y-113537996D01*
X116415501Y-113428342D01*
X116415499Y-113428337D01*
X116365095Y-113329413D01*
X116286586Y-113250904D01*
X116187662Y-113200500D01*
X116187657Y-113200498D01*
X116078003Y-113183131D01*
X116077997Y-113183131D01*
X115968342Y-113200498D01*
X115968337Y-113200500D01*
X115869413Y-113250904D01*
X115790904Y-113329413D01*
X115740500Y-113428337D01*
X115740498Y-113428342D01*
X115723131Y-113537996D01*
X115723131Y-113538003D01*
X115136667Y-113538003D01*
X115095095Y-113456413D01*
X115016586Y-113377904D01*
X114917662Y-113327500D01*
X114917657Y-113327498D01*
X114808003Y-113310131D01*
X114807997Y-113310131D01*
X114698342Y-113327498D01*
X114698337Y-113327500D01*
X114599413Y-113377904D01*
X114520904Y-113456413D01*
X114470500Y-113555337D01*
X114470498Y-113555342D01*
X114453131Y-113664996D01*
X114453131Y-113665003D01*
X103601300Y-113665003D01*
X103601300Y-112916582D01*
X103606925Y-112903003D01*
X104928131Y-112903003D01*
X104945498Y-113012657D01*
X104945500Y-113012662D01*
X104995904Y-113111586D01*
X104995905Y-113111587D01*
X105074413Y-113190095D01*
X105173339Y-113240500D01*
X105173342Y-113240501D01*
X105282997Y-113257869D01*
X105283000Y-113257869D01*
X105283003Y-113257869D01*
X105392657Y-113240501D01*
X105392658Y-113240500D01*
X105392661Y-113240500D01*
X105476298Y-113197884D01*
X105523984Y-113194132D01*
X105560359Y-113225198D01*
X105566402Y-113263350D01*
X105563131Y-113284002D01*
X105563131Y-113284003D01*
X105580498Y-113393657D01*
X105580500Y-113393662D01*
X105630904Y-113492586D01*
X105630905Y-113492587D01*
X105709413Y-113571095D01*
X105808339Y-113621500D01*
X105808342Y-113621501D01*
X105917997Y-113638869D01*
X105918000Y-113638869D01*
X105918003Y-113638869D01*
X106027657Y-113621501D01*
X106027658Y-113621500D01*
X106027661Y-113621500D01*
X106126587Y-113571095D01*
X106205095Y-113492587D01*
X106255500Y-113393661D01*
X106257996Y-113377904D01*
X106272869Y-113284003D01*
X106272869Y-113283996D01*
X106255501Y-113174342D01*
X106255499Y-113174337D01*
X106205095Y-113075413D01*
X106126586Y-112996904D01*
X106027662Y-112946500D01*
X106027657Y-112946498D01*
X105918003Y-112929131D01*
X105917997Y-112929131D01*
X105808342Y-112946498D01*
X105808337Y-112946500D01*
X105724702Y-112989114D01*
X105677014Y-112992867D01*
X105640640Y-112961800D01*
X105634598Y-112923648D01*
X105637869Y-112903000D01*
X105637869Y-112902999D01*
X105637869Y-112902996D01*
X105620501Y-112793342D01*
X105620499Y-112793337D01*
X105570095Y-112694413D01*
X105491586Y-112615904D01*
X105392662Y-112565500D01*
X105392657Y-112565498D01*
X105283003Y-112548131D01*
X105282997Y-112548131D01*
X105173342Y-112565498D01*
X105173337Y-112565500D01*
X105074413Y-112615904D01*
X104995904Y-112694413D01*
X104945500Y-112793337D01*
X104945498Y-112793342D01*
X104928131Y-112902996D01*
X104928131Y-112903003D01*
X103606925Y-112903003D01*
X103619606Y-112872388D01*
X103635429Y-112860893D01*
X103636242Y-112860478D01*
X103637387Y-112859895D01*
X103715895Y-112781387D01*
X103766300Y-112682461D01*
X103766358Y-112682095D01*
X103783669Y-112572803D01*
X103783669Y-112572796D01*
X103766301Y-112463142D01*
X103766299Y-112463137D01*
X103731583Y-112395003D01*
X117374131Y-112395003D01*
X117391498Y-112504657D01*
X117391500Y-112504662D01*
X117441904Y-112603586D01*
X117520413Y-112682095D01*
X117544645Y-112694442D01*
X117619339Y-112732500D01*
X117619342Y-112732501D01*
X117728997Y-112749869D01*
X117729000Y-112749869D01*
X117729003Y-112749869D01*
X117838657Y-112732501D01*
X117838658Y-112732500D01*
X117838661Y-112732500D01*
X117937587Y-112682095D01*
X118016095Y-112603587D01*
X118066500Y-112504661D01*
X118070947Y-112476586D01*
X118083869Y-112395003D01*
X118083869Y-112394996D01*
X118066501Y-112285342D01*
X118066499Y-112285337D01*
X118057667Y-112268003D01*
X118390131Y-112268003D01*
X118407498Y-112377657D01*
X118407500Y-112377662D01*
X118457904Y-112476586D01*
X118536413Y-112555095D01*
X118631584Y-112603587D01*
X118635339Y-112605500D01*
X118635342Y-112605501D01*
X118744997Y-112622869D01*
X118745000Y-112622869D01*
X118745003Y-112622869D01*
X118854657Y-112605501D01*
X118854658Y-112605500D01*
X118854661Y-112605500D01*
X118953587Y-112555095D01*
X119032095Y-112476587D01*
X119082500Y-112377661D01*
X119097065Y-112285704D01*
X119099869Y-112268003D01*
X119099869Y-112267996D01*
X119082501Y-112158342D01*
X119082499Y-112158337D01*
X119032095Y-112059413D01*
X118953586Y-111980904D01*
X118854662Y-111930500D01*
X118854657Y-111930498D01*
X118745003Y-111913131D01*
X118744997Y-111913131D01*
X118635342Y-111930498D01*
X118635337Y-111930500D01*
X118536413Y-111980904D01*
X118457904Y-112059413D01*
X118407500Y-112158337D01*
X118407498Y-112158342D01*
X118390131Y-112267996D01*
X118390131Y-112268003D01*
X118057667Y-112268003D01*
X118016095Y-112186413D01*
X117937586Y-112107904D01*
X117838662Y-112057500D01*
X117838657Y-112057498D01*
X117729003Y-112040131D01*
X117728997Y-112040131D01*
X117619342Y-112057498D01*
X117619337Y-112057500D01*
X117520413Y-112107904D01*
X117441904Y-112186413D01*
X117391500Y-112285337D01*
X117391498Y-112285342D01*
X117374131Y-112394996D01*
X117374131Y-112395003D01*
X103731583Y-112395003D01*
X103715895Y-112364213D01*
X103637386Y-112285704D01*
X103538462Y-112235300D01*
X103538457Y-112235298D01*
X103428803Y-112217931D01*
X103428797Y-112217931D01*
X103319142Y-112235298D01*
X103319137Y-112235300D01*
X103220213Y-112285704D01*
X103141704Y-112364213D01*
X103091300Y-112463137D01*
X103091298Y-112463142D01*
X103073931Y-112572796D01*
X103073931Y-112572803D01*
X96798994Y-112572803D01*
X96798994Y-109208872D01*
X96799108Y-109206201D01*
X96819698Y-108966003D01*
X99721131Y-108966003D01*
X99738498Y-109075657D01*
X99738500Y-109075662D01*
X99788904Y-109174586D01*
X99867413Y-109253095D01*
X99962584Y-109301587D01*
X99966339Y-109303500D01*
X99966342Y-109303501D01*
X100075997Y-109320869D01*
X100076000Y-109320869D01*
X100076003Y-109320869D01*
X100185657Y-109303501D01*
X100185658Y-109303500D01*
X100185661Y-109303500D01*
X100284587Y-109253095D01*
X100363095Y-109174587D01*
X100413500Y-109075661D01*
X100413797Y-109073786D01*
X100430869Y-108966003D01*
X100430869Y-108965996D01*
X100413501Y-108856342D01*
X100413499Y-108856337D01*
X100363095Y-108757413D01*
X100284586Y-108678904D01*
X100185662Y-108628500D01*
X100185657Y-108628498D01*
X100076003Y-108611131D01*
X100075997Y-108611131D01*
X99966342Y-108628498D01*
X99966337Y-108628500D01*
X99867413Y-108678904D01*
X99788904Y-108757413D01*
X99738500Y-108856337D01*
X99738498Y-108856342D01*
X99721131Y-108965996D01*
X99721131Y-108966003D01*
X96819698Y-108966003D01*
X96827857Y-108870829D01*
X96828238Y-108867959D01*
X96888566Y-108534216D01*
X96889207Y-108531420D01*
X96980374Y-108204743D01*
X96981285Y-108201988D01*
X97102487Y-107885252D01*
X97103636Y-107882623D01*
X97253829Y-107578553D01*
X97255241Y-107576001D01*
X97416016Y-107315003D01*
X107087131Y-107315003D01*
X107104498Y-107424657D01*
X107104500Y-107424662D01*
X107154904Y-107523586D01*
X107154905Y-107523587D01*
X107233413Y-107602095D01*
X107332339Y-107652500D01*
X107332342Y-107652501D01*
X107441997Y-107669869D01*
X107442000Y-107669869D01*
X107442003Y-107669869D01*
X107551657Y-107652501D01*
X107551658Y-107652500D01*
X107551661Y-107652500D01*
X107650587Y-107602095D01*
X107729095Y-107523587D01*
X107779500Y-107424661D01*
X107796869Y-107315000D01*
X107796869Y-107314996D01*
X107779501Y-107205342D01*
X107779499Y-107205337D01*
X107729095Y-107106413D01*
X107650586Y-107027904D01*
X107551662Y-106977500D01*
X107551657Y-106977498D01*
X107442003Y-106960131D01*
X107441997Y-106960131D01*
X107332342Y-106977498D01*
X107332337Y-106977500D01*
X107233413Y-107027904D01*
X107154904Y-107106413D01*
X107104500Y-107205337D01*
X107104498Y-107205342D01*
X107087131Y-107314996D01*
X107087131Y-107315003D01*
X97416016Y-107315003D01*
X97416018Y-107315000D01*
X97433102Y-107287266D01*
X97434743Y-107284862D01*
X97456978Y-107255334D01*
X97638739Y-107013952D01*
X97640590Y-107011720D01*
X97671757Y-106977500D01*
X97859514Y-106771347D01*
X97866341Y-106764902D01*
X97971029Y-106680004D01*
X114072529Y-106680004D01*
X114092389Y-106970362D01*
X114092390Y-106970365D01*
X114092390Y-106970369D01*
X114092391Y-106970371D01*
X114120661Y-107106413D01*
X114151607Y-107255333D01*
X114151610Y-107255342D01*
X114249071Y-107529576D01*
X114312766Y-107652501D01*
X114382975Y-107787998D01*
X114550818Y-108025777D01*
X114658707Y-108141297D01*
X114749476Y-108238487D01*
X114788576Y-108270297D01*
X114975246Y-108422165D01*
X115003292Y-108439220D01*
X115223917Y-108573385D01*
X115223921Y-108573387D01*
X115223925Y-108573389D01*
X115490879Y-108689344D01*
X115771136Y-108767868D01*
X116059475Y-108807500D01*
X116059476Y-108807500D01*
X116350524Y-108807500D01*
X116350525Y-108807500D01*
X116638864Y-108767868D01*
X116919121Y-108689344D01*
X117186075Y-108573389D01*
X117198580Y-108565785D01*
X117255122Y-108531401D01*
X117434754Y-108422165D01*
X117660525Y-108238486D01*
X117859182Y-108025777D01*
X118027025Y-107787998D01*
X118160927Y-107529579D01*
X118258393Y-107255334D01*
X118317609Y-106970371D01*
X118318310Y-106960131D01*
X118337471Y-106680004D01*
X118337471Y-106679995D01*
X118317610Y-106389637D01*
X118317609Y-106389634D01*
X118317609Y-106389629D01*
X118258393Y-106104666D01*
X118253220Y-106090110D01*
X118255669Y-106042339D01*
X118291181Y-106010290D01*
X118338953Y-106012739D01*
X118356305Y-106024987D01*
X118409413Y-106078095D01*
X118508339Y-106128500D01*
X118508342Y-106128501D01*
X118617997Y-106145869D01*
X118618000Y-106145869D01*
X118618002Y-106145869D01*
X118682297Y-106135685D01*
X118728811Y-106146851D01*
X118736269Y-106153221D01*
X119570193Y-106987145D01*
X119588499Y-107031339D01*
X119588500Y-116107659D01*
X119570194Y-116151853D01*
X119498269Y-116223777D01*
X119454075Y-116242083D01*
X119444299Y-116241314D01*
X119392651Y-116233134D01*
X119380000Y-116231131D01*
X119379999Y-116231131D01*
X119379997Y-116231131D01*
X119270342Y-116248498D01*
X119270337Y-116248500D01*
X119171413Y-116298904D01*
X119092904Y-116377413D01*
X119042500Y-116476337D01*
X119042498Y-116476342D01*
X119025131Y-116585996D01*
X119025131Y-116586003D01*
X119042498Y-116695657D01*
X119042500Y-116695662D01*
X119092904Y-116794586D01*
X119092905Y-116794587D01*
X119171413Y-116873095D01*
X119270339Y-116923500D01*
X119270342Y-116923501D01*
X119379997Y-116940869D01*
X119380000Y-116940869D01*
X119380003Y-116940869D01*
X119489657Y-116923501D01*
X119489658Y-116923500D01*
X119489661Y-116923500D01*
X119588587Y-116873095D01*
X119667095Y-116794587D01*
X119717500Y-116695661D01*
X119717501Y-116695657D01*
X119734869Y-116586003D01*
X119734869Y-116585998D01*
X119731949Y-116567567D01*
X119724684Y-116521699D01*
X119735850Y-116475187D01*
X119742209Y-116467741D01*
X119867876Y-116342073D01*
X119876559Y-116334838D01*
X119893983Y-116322812D01*
X119910895Y-116290586D01*
X119911806Y-116288971D01*
X119930618Y-116257856D01*
X119930618Y-116257853D01*
X119932209Y-116252749D01*
X119933498Y-116247520D01*
X119933500Y-116247518D01*
X119933500Y-116211161D01*
X119933557Y-116209274D01*
X119934864Y-116187662D01*
X119935753Y-116172975D01*
X119935751Y-116172971D01*
X119934524Y-116166269D01*
X119933500Y-116155003D01*
X119933500Y-106955355D01*
X119934524Y-106944089D01*
X119938339Y-106923272D01*
X119927518Y-106888548D01*
X119927011Y-106886728D01*
X119918313Y-106851438D01*
X119918313Y-106851436D01*
X119918310Y-106851433D01*
X119915812Y-106846672D01*
X119913041Y-106842088D01*
X119887336Y-106816384D01*
X119886041Y-106815009D01*
X119861923Y-106787785D01*
X119856308Y-106783909D01*
X119847620Y-106776668D01*
X119242955Y-106172003D01*
X119914131Y-106172003D01*
X119931498Y-106281657D01*
X119931500Y-106281662D01*
X119981904Y-106380586D01*
X119981905Y-106380587D01*
X120060413Y-106459095D01*
X120159339Y-106509500D01*
X120159342Y-106509501D01*
X120268997Y-106526869D01*
X120269000Y-106526869D01*
X120269003Y-106526869D01*
X120378657Y-106509501D01*
X120378658Y-106509500D01*
X120378661Y-106509500D01*
X120477587Y-106459095D01*
X120556095Y-106380587D01*
X120606500Y-106281661D01*
X120623869Y-106172000D01*
X120623869Y-106171996D01*
X120606501Y-106062342D01*
X120606499Y-106062337D01*
X120556095Y-105963413D01*
X120477586Y-105884904D01*
X120378662Y-105834500D01*
X120378657Y-105834498D01*
X120269003Y-105817131D01*
X120268997Y-105817131D01*
X120159342Y-105834498D01*
X120159337Y-105834500D01*
X120060413Y-105884904D01*
X119981904Y-105963413D01*
X119931500Y-106062337D01*
X119931498Y-106062342D01*
X119914131Y-106171996D01*
X119914131Y-106172003D01*
X119242955Y-106172003D01*
X118980221Y-105909269D01*
X118961915Y-105865075D01*
X118962685Y-105855297D01*
X118972869Y-105791002D01*
X118972869Y-105790996D01*
X118955501Y-105681342D01*
X118955499Y-105681337D01*
X118946667Y-105664003D01*
X119152131Y-105664003D01*
X119169498Y-105773657D01*
X119169500Y-105773662D01*
X119219904Y-105872586D01*
X119298413Y-105951095D01*
X119393584Y-105999587D01*
X119397339Y-106001500D01*
X119397342Y-106001501D01*
X119506997Y-106018869D01*
X119507000Y-106018869D01*
X119507003Y-106018869D01*
X119616657Y-106001501D01*
X119616658Y-106001500D01*
X119616661Y-106001500D01*
X119715587Y-105951095D01*
X119794095Y-105872587D01*
X119844500Y-105773661D01*
X119844501Y-105773657D01*
X119861869Y-105664003D01*
X119861869Y-105663996D01*
X119844501Y-105554342D01*
X119844499Y-105554337D01*
X119794095Y-105455413D01*
X119715586Y-105376904D01*
X119616662Y-105326500D01*
X119616657Y-105326498D01*
X119507003Y-105309131D01*
X119506997Y-105309131D01*
X119397342Y-105326498D01*
X119397337Y-105326500D01*
X119298413Y-105376904D01*
X119219904Y-105455413D01*
X119169500Y-105554337D01*
X119169498Y-105554342D01*
X119152131Y-105663996D01*
X119152131Y-105664003D01*
X118946667Y-105664003D01*
X118905095Y-105582413D01*
X118826586Y-105503904D01*
X118727662Y-105453500D01*
X118727657Y-105453498D01*
X118618003Y-105436131D01*
X118617997Y-105436131D01*
X118508342Y-105453498D01*
X118508337Y-105453500D01*
X118409413Y-105503904D01*
X118330904Y-105582413D01*
X118280500Y-105681337D01*
X118280499Y-105681341D01*
X118264166Y-105784458D01*
X118239172Y-105825244D01*
X118192658Y-105836410D01*
X118151872Y-105811416D01*
X118146943Y-105803434D01*
X118140501Y-105791002D01*
X118027025Y-105572002D01*
X117859182Y-105334223D01*
X117660525Y-105121514D01*
X117434754Y-104937835D01*
X117422294Y-104930258D01*
X117186082Y-104786614D01*
X117068116Y-104735374D01*
X116919121Y-104670656D01*
X116919119Y-104670655D01*
X116919118Y-104670655D01*
X116919116Y-104670654D01*
X116638870Y-104592133D01*
X116638860Y-104592131D01*
X116350528Y-104552500D01*
X116350525Y-104552500D01*
X116059475Y-104552500D01*
X116059471Y-104552500D01*
X115771139Y-104592131D01*
X115771129Y-104592133D01*
X115490883Y-104670654D01*
X115490881Y-104670655D01*
X115223917Y-104786614D01*
X114975248Y-104937833D01*
X114749476Y-105121512D01*
X114574252Y-105309131D01*
X114550818Y-105334223D01*
X114395443Y-105554339D01*
X114382971Y-105572008D01*
X114249071Y-105830423D01*
X114151610Y-106104657D01*
X114151607Y-106104666D01*
X114092390Y-106389634D01*
X114092389Y-106389637D01*
X114072529Y-106679995D01*
X114072529Y-106680004D01*
X97971029Y-106680004D01*
X100622119Y-104530076D01*
X100633102Y-104522939D01*
X100641402Y-104518711D01*
X100662856Y-104497256D01*
X100665248Y-104495101D01*
X100673474Y-104488431D01*
X100682810Y-104477449D01*
X100684499Y-104475615D01*
X100801961Y-104358155D01*
X101032682Y-104083193D01*
X101032685Y-104083190D01*
X101238563Y-103789163D01*
X101334739Y-103622578D01*
X101418027Y-103478321D01*
X101510951Y-103279045D01*
X101569717Y-103153022D01*
X101672727Y-102870004D01*
X106182670Y-102870004D01*
X106201948Y-103078057D01*
X106201950Y-103078068D01*
X106223277Y-103153022D01*
X106259134Y-103279045D01*
X106352274Y-103466095D01*
X106352275Y-103466096D01*
X106352277Y-103466100D01*
X106478189Y-103632836D01*
X106478194Y-103632841D01*
X106478198Y-103632846D01*
X106582938Y-103728329D01*
X106632614Y-103773615D01*
X106632615Y-103773616D01*
X106632619Y-103773619D01*
X106810277Y-103883620D01*
X107005123Y-103959104D01*
X107210522Y-103997500D01*
X107210525Y-103997500D01*
X107419475Y-103997500D01*
X107419478Y-103997500D01*
X107624877Y-103959104D01*
X107819723Y-103883620D01*
X107997381Y-103773619D01*
X108151802Y-103632846D01*
X108277726Y-103466095D01*
X108370866Y-103279045D01*
X108428050Y-103078065D01*
X108447330Y-102870000D01*
X108428050Y-102661935D01*
X108370866Y-102460955D01*
X108277726Y-102273905D01*
X108277723Y-102273901D01*
X108277722Y-102273899D01*
X108151810Y-102107163D01*
X108151805Y-102107158D01*
X108151802Y-102107154D01*
X108054927Y-102018841D01*
X107997385Y-101966384D01*
X107997382Y-101966382D01*
X107997381Y-101966381D01*
X107819723Y-101856380D01*
X107819721Y-101856379D01*
X107763089Y-101834440D01*
X107624877Y-101780896D01*
X107624874Y-101780895D01*
X107624873Y-101780895D01*
X107419482Y-101742500D01*
X107419478Y-101742500D01*
X107210522Y-101742500D01*
X107210517Y-101742500D01*
X107005126Y-101780895D01*
X106810278Y-101856379D01*
X106632614Y-101966384D01*
X106478196Y-102107156D01*
X106478189Y-102107163D01*
X106352277Y-102273899D01*
X106352274Y-102273905D01*
X106259134Y-102460954D01*
X106201950Y-102661931D01*
X106201948Y-102661942D01*
X106182670Y-102869995D01*
X106182670Y-102870004D01*
X101672727Y-102870004D01*
X101692484Y-102815723D01*
X101785383Y-102469017D01*
X101785384Y-102469010D01*
X101785385Y-102469010D01*
X101847711Y-102115533D01*
X101878994Y-101757962D01*
X101878994Y-101578494D01*
X101880418Y-100739045D01*
X101881112Y-100330004D01*
X106182670Y-100330004D01*
X106201948Y-100538057D01*
X106201950Y-100538068D01*
X106226508Y-100624377D01*
X106259134Y-100739045D01*
X106352274Y-100926095D01*
X106352275Y-100926096D01*
X106352277Y-100926100D01*
X106478189Y-101092836D01*
X106478194Y-101092841D01*
X106478198Y-101092846D01*
X106582938Y-101188329D01*
X106632614Y-101233615D01*
X106632615Y-101233616D01*
X106632619Y-101233619D01*
X106810277Y-101343620D01*
X107005123Y-101419104D01*
X107210522Y-101457500D01*
X107210525Y-101457500D01*
X107419475Y-101457500D01*
X107419478Y-101457500D01*
X107624877Y-101419104D01*
X107819723Y-101343620D01*
X107997381Y-101233619D01*
X108151802Y-101092846D01*
X108172584Y-101065327D01*
X108267372Y-100939806D01*
X108277726Y-100926095D01*
X108370866Y-100739045D01*
X108428050Y-100538065D01*
X108433801Y-100476000D01*
X108447330Y-100330004D01*
X108447330Y-100329995D01*
X108428051Y-100121942D01*
X108428049Y-100121931D01*
X108418796Y-100089414D01*
X108370866Y-99920955D01*
X108277726Y-99733905D01*
X108277723Y-99733901D01*
X108277722Y-99733899D01*
X108151810Y-99567163D01*
X108151805Y-99567158D01*
X108151802Y-99567154D01*
X108054927Y-99478841D01*
X107997385Y-99426384D01*
X107997382Y-99426382D01*
X107997381Y-99426381D01*
X107819723Y-99316380D01*
X107819721Y-99316379D01*
X107763089Y-99294440D01*
X107624877Y-99240896D01*
X107624874Y-99240895D01*
X107624873Y-99240895D01*
X107419482Y-99202500D01*
X107419478Y-99202500D01*
X107210522Y-99202500D01*
X107210517Y-99202500D01*
X107005126Y-99240895D01*
X106810278Y-99316379D01*
X106632614Y-99426384D01*
X106478196Y-99567156D01*
X106478189Y-99567163D01*
X106352277Y-99733899D01*
X106352274Y-99733905D01*
X106259134Y-99920954D01*
X106201950Y-100121931D01*
X106201948Y-100121942D01*
X106182670Y-100329995D01*
X106182670Y-100330004D01*
X101881112Y-100330004D01*
X101889729Y-95250004D01*
X106182670Y-95250004D01*
X106201948Y-95458057D01*
X106201950Y-95458068D01*
X106259134Y-95659045D01*
X106352274Y-95846095D01*
X106352275Y-95846096D01*
X106352277Y-95846100D01*
X106478189Y-96012836D01*
X106478194Y-96012841D01*
X106478198Y-96012846D01*
X106582938Y-96108329D01*
X106632614Y-96153615D01*
X106632615Y-96153616D01*
X106632619Y-96153619D01*
X106810277Y-96263620D01*
X107005123Y-96339104D01*
X107210522Y-96377500D01*
X107210525Y-96377500D01*
X107419475Y-96377500D01*
X107419478Y-96377500D01*
X107624877Y-96339104D01*
X107819723Y-96263620D01*
X107997381Y-96153619D01*
X108151802Y-96012846D01*
X108277726Y-95846095D01*
X108370866Y-95659045D01*
X108428050Y-95458065D01*
X108447330Y-95250000D01*
X108428050Y-95041935D01*
X108370866Y-94840955D01*
X108277726Y-94653905D01*
X108277723Y-94653901D01*
X108277722Y-94653899D01*
X108151810Y-94487163D01*
X108151805Y-94487158D01*
X108151802Y-94487154D01*
X108054927Y-94398841D01*
X107997385Y-94346384D01*
X107997382Y-94346382D01*
X107997381Y-94346381D01*
X107819723Y-94236380D01*
X107819721Y-94236379D01*
X107763089Y-94214440D01*
X107624877Y-94160896D01*
X107624874Y-94160895D01*
X107624873Y-94160895D01*
X107419482Y-94122500D01*
X107419478Y-94122500D01*
X107210522Y-94122500D01*
X107210517Y-94122500D01*
X107005126Y-94160895D01*
X106810278Y-94236379D01*
X106632614Y-94346384D01*
X106478196Y-94487156D01*
X106478189Y-94487163D01*
X106352277Y-94653899D01*
X106352274Y-94653905D01*
X106259134Y-94840954D01*
X106201950Y-95041931D01*
X106201948Y-95041942D01*
X106182670Y-95249995D01*
X106182670Y-95250004D01*
X101889729Y-95250004D01*
X101900410Y-88953009D01*
X101900500Y-88951894D01*
X101900500Y-88900000D01*
X103347613Y-88900000D01*
X103367147Y-89260289D01*
X103367147Y-89260291D01*
X103425521Y-89616364D01*
X103522053Y-89964038D01*
X103522054Y-89964039D01*
X103573214Y-90092442D01*
X103646051Y-90275250D01*
X103655610Y-90299240D01*
X103655614Y-90299248D01*
X103824622Y-90618029D01*
X103824629Y-90618040D01*
X104027103Y-90916665D01*
X104027106Y-90916670D01*
X104027109Y-90916673D01*
X104027110Y-90916675D01*
X104260702Y-91191681D01*
X104522658Y-91439819D01*
X104809908Y-91658180D01*
X105119082Y-91844204D01*
X105446556Y-91995710D01*
X105446567Y-91995713D01*
X105446570Y-91995715D01*
X105665558Y-92069500D01*
X105788492Y-92110921D01*
X106140880Y-92188488D01*
X106499588Y-92227500D01*
X106499592Y-92227500D01*
X106860408Y-92227500D01*
X106860412Y-92227500D01*
X107219120Y-92188488D01*
X107571508Y-92110921D01*
X107913444Y-91995710D01*
X108240918Y-91844204D01*
X108550092Y-91658180D01*
X108837342Y-91439819D01*
X109099298Y-91191681D01*
X109332890Y-90916675D01*
X109535380Y-90618025D01*
X109704393Y-90299233D01*
X109837947Y-89964036D01*
X109934478Y-89616365D01*
X109992852Y-89260294D01*
X109998615Y-89154003D01*
X137035891Y-89154003D01*
X137054257Y-89305266D01*
X137054258Y-89305270D01*
X137054258Y-89305271D01*
X137054259Y-89305274D01*
X137095118Y-89413012D01*
X137108296Y-89447759D01*
X137194857Y-89573163D01*
X137194860Y-89573166D01*
X137308921Y-89674216D01*
X137443851Y-89745032D01*
X137591808Y-89781500D01*
X137591810Y-89781500D01*
X137744190Y-89781500D01*
X137744192Y-89781500D01*
X137892149Y-89745032D01*
X138027079Y-89674216D01*
X138141140Y-89573166D01*
X138227705Y-89447756D01*
X138244561Y-89403308D01*
X138277347Y-89368478D01*
X138325160Y-89367032D01*
X138359992Y-89399819D01*
X138361437Y-89403308D01*
X138378294Y-89447755D01*
X138464857Y-89573163D01*
X138464860Y-89573166D01*
X138578921Y-89674216D01*
X138713851Y-89745032D01*
X138861808Y-89781500D01*
X138861810Y-89781500D01*
X139014190Y-89781500D01*
X139014192Y-89781500D01*
X139162149Y-89745032D01*
X139297079Y-89674216D01*
X139305723Y-89666558D01*
X140850500Y-89666558D01*
X140857898Y-89703748D01*
X140857898Y-89703749D01*
X140886077Y-89745922D01*
X140914257Y-89764750D01*
X140928252Y-89774102D01*
X140965442Y-89781500D01*
X140965443Y-89781500D01*
X141990557Y-89781500D01*
X141990558Y-89781500D01*
X142027748Y-89774102D01*
X142069922Y-89745922D01*
X142098102Y-89703748D01*
X142105500Y-89666558D01*
X142105500Y-88641442D01*
X142098102Y-88604252D01*
X142070517Y-88562968D01*
X142069922Y-88562077D01*
X142027748Y-88533898D01*
X142027747Y-88533898D01*
X141990558Y-88526500D01*
X140965442Y-88526500D01*
X140946847Y-88530199D01*
X140928251Y-88533898D01*
X140928250Y-88533898D01*
X140886077Y-88562077D01*
X140857898Y-88604250D01*
X140857898Y-88604251D01*
X140857897Y-88604252D01*
X140857898Y-88604252D01*
X140850500Y-88641442D01*
X140850500Y-89666558D01*
X139305723Y-89666558D01*
X139411140Y-89573166D01*
X139497705Y-89447756D01*
X139551741Y-89305274D01*
X139551742Y-89305266D01*
X139570109Y-89154003D01*
X139570109Y-89153996D01*
X139551742Y-89002733D01*
X139551741Y-89002729D01*
X139551741Y-89002726D01*
X139497705Y-88860244D01*
X139497703Y-88860241D01*
X139497703Y-88860240D01*
X139411142Y-88734836D01*
X139411138Y-88734832D01*
X139297078Y-88633783D01*
X139162149Y-88562968D01*
X139014194Y-88526500D01*
X139014192Y-88526500D01*
X138861808Y-88526500D01*
X138861805Y-88526500D01*
X138713850Y-88562968D01*
X138578921Y-88633783D01*
X138464861Y-88734832D01*
X138464857Y-88734836D01*
X138378295Y-88860243D01*
X138361437Y-88904692D01*
X138328649Y-88939522D01*
X138280835Y-88940966D01*
X138246005Y-88908178D01*
X138244572Y-88904720D01*
X138227705Y-88860244D01*
X138227704Y-88860241D01*
X138141142Y-88734836D01*
X138141138Y-88734832D01*
X138027078Y-88633783D01*
X137892149Y-88562968D01*
X137744194Y-88526500D01*
X137744192Y-88526500D01*
X137591808Y-88526500D01*
X137591805Y-88526500D01*
X137443850Y-88562968D01*
X137308921Y-88633783D01*
X137194861Y-88734832D01*
X137194857Y-88734836D01*
X137108296Y-88860240D01*
X137054258Y-89002729D01*
X137054257Y-89002733D01*
X137035891Y-89153996D01*
X137035891Y-89154003D01*
X109998615Y-89154003D01*
X110009808Y-88947558D01*
X112526500Y-88947558D01*
X112527363Y-88951894D01*
X112533898Y-88984748D01*
X112533898Y-88984749D01*
X112562077Y-89026922D01*
X112590257Y-89045750D01*
X112604252Y-89055102D01*
X112641442Y-89062500D01*
X112641443Y-89062500D01*
X116466557Y-89062500D01*
X116466558Y-89062500D01*
X116503748Y-89055102D01*
X116545922Y-89026922D01*
X116574102Y-88984748D01*
X116581500Y-88947558D01*
X116581500Y-85122442D01*
X116574102Y-85085252D01*
X116574101Y-85085250D01*
X116545922Y-85043077D01*
X116503748Y-85014898D01*
X116503747Y-85014898D01*
X116466558Y-85007500D01*
X112641442Y-85007500D01*
X112622847Y-85011199D01*
X112604251Y-85014898D01*
X112604250Y-85014898D01*
X112562077Y-85043077D01*
X112533898Y-85085250D01*
X112533898Y-85085251D01*
X112533897Y-85085252D01*
X112533898Y-85085252D01*
X112526500Y-85122442D01*
X112526500Y-88947558D01*
X110009808Y-88947558D01*
X110012387Y-88900000D01*
X110010877Y-88872156D01*
X109996352Y-88604252D01*
X109992852Y-88539706D01*
X109934478Y-88183635D01*
X109837947Y-87835964D01*
X109704393Y-87500767D01*
X109535380Y-87181975D01*
X109535377Y-87181970D01*
X109535370Y-87181959D01*
X109332896Y-86883334D01*
X109332893Y-86883329D01*
X109329118Y-86878885D01*
X109099298Y-86608319D01*
X108837342Y-86360181D01*
X108550092Y-86141820D01*
X108240918Y-85955796D01*
X107913444Y-85804290D01*
X107913436Y-85804287D01*
X107913429Y-85804284D01*
X107571519Y-85689082D01*
X107571508Y-85689079D01*
X107219118Y-85611511D01*
X106860415Y-85572500D01*
X106860412Y-85572500D01*
X106499588Y-85572500D01*
X106499584Y-85572500D01*
X106140881Y-85611511D01*
X105788491Y-85689079D01*
X105788480Y-85689082D01*
X105446570Y-85804284D01*
X105446559Y-85804288D01*
X105446556Y-85804290D01*
X105245200Y-85897447D01*
X105119090Y-85955792D01*
X105119087Y-85955793D01*
X105119082Y-85955796D01*
X104940306Y-86063361D01*
X104809912Y-86141817D01*
X104522657Y-86360181D01*
X104260705Y-86608316D01*
X104260694Y-86608327D01*
X104027106Y-86883329D01*
X104027103Y-86883334D01*
X103824629Y-87181959D01*
X103824622Y-87181970D01*
X103655614Y-87500751D01*
X103655610Y-87500759D01*
X103522054Y-87835960D01*
X103522053Y-87835961D01*
X103425521Y-88183635D01*
X103367147Y-88539708D01*
X103367147Y-88539710D01*
X103347613Y-88899994D01*
X103347613Y-88900000D01*
X101900500Y-88900000D01*
X101900500Y-88899984D01*
X101918628Y-88484793D01*
X101918866Y-88482076D01*
X101972935Y-88071378D01*
X101973398Y-88068753D01*
X102063064Y-87664296D01*
X102063768Y-87661673D01*
X102188333Y-87266599D01*
X102189255Y-87264067D01*
X102347792Y-86881324D01*
X102348918Y-86878911D01*
X102540210Y-86511443D01*
X102541547Y-86509127D01*
X102764128Y-86159744D01*
X102765689Y-86157514D01*
X102776483Y-86143448D01*
X103017869Y-85828868D01*
X103019604Y-85826800D01*
X103299474Y-85521374D01*
X103301374Y-85519474D01*
X103606800Y-85239604D01*
X103608873Y-85237865D01*
X103759295Y-85122442D01*
X103937520Y-84985684D01*
X103939749Y-84984125D01*
X104289127Y-84761547D01*
X104291443Y-84760210D01*
X104658911Y-84568918D01*
X104661324Y-84567792D01*
X105044067Y-84409255D01*
X105046599Y-84408333D01*
X105441677Y-84283766D01*
X105444296Y-84283064D01*
X105848753Y-84193398D01*
X105851378Y-84192935D01*
X106262086Y-84138865D01*
X106264793Y-84138628D01*
X106680000Y-84120500D01*
X106727595Y-84120500D01*
X126943827Y-84120500D01*
X147272405Y-84120500D01*
X147320000Y-84120500D01*
X147735206Y-84138628D01*
G37*
G04 #@! TD.AperFunction*
G04 #@! TA.AperFunction,Conductor*
G36*
X116652477Y-89681685D02*
G01*
X116673119Y-89698319D01*
X118160800Y-91186000D01*
X118282735Y-91186000D01*
X118349774Y-91205685D01*
X118351592Y-91206876D01*
X118396505Y-91236886D01*
X118430699Y-91259734D01*
X118430703Y-91259735D01*
X118455666Y-91264700D01*
X118504933Y-91274500D01*
X120255066Y-91274499D01*
X120329301Y-91259734D01*
X120408375Y-91206897D01*
X120475051Y-91186020D01*
X120477265Y-91186000D01*
X121461906Y-91186000D01*
X121506700Y-91194373D01*
X121616444Y-91236888D01*
X121817653Y-91274500D01*
X121817656Y-91274500D01*
X122022344Y-91274500D01*
X122022347Y-91274500D01*
X122223556Y-91236888D01*
X122333299Y-91194373D01*
X122378094Y-91186000D01*
X124001906Y-91186000D01*
X124046700Y-91194373D01*
X124156444Y-91236888D01*
X124357653Y-91274500D01*
X124357656Y-91274500D01*
X124562344Y-91274500D01*
X124562347Y-91274500D01*
X124763556Y-91236888D01*
X124873299Y-91194373D01*
X124918094Y-91186000D01*
X128442735Y-91186000D01*
X128509774Y-91205685D01*
X128511592Y-91206876D01*
X128556505Y-91236886D01*
X128590699Y-91259734D01*
X128590703Y-91259735D01*
X128615666Y-91264700D01*
X128664933Y-91274500D01*
X130415066Y-91274499D01*
X130489301Y-91259734D01*
X130568375Y-91206897D01*
X130635051Y-91186020D01*
X130637265Y-91186000D01*
X131621906Y-91186000D01*
X131666700Y-91194373D01*
X131776444Y-91236888D01*
X131977653Y-91274500D01*
X131977656Y-91274500D01*
X132182344Y-91274500D01*
X132182347Y-91274500D01*
X132383556Y-91236888D01*
X132493299Y-91194373D01*
X132538094Y-91186000D01*
X134161906Y-91186000D01*
X134206700Y-91194373D01*
X134316444Y-91236888D01*
X134517653Y-91274500D01*
X134517656Y-91274500D01*
X134722344Y-91274500D01*
X134722347Y-91274500D01*
X134923556Y-91236888D01*
X135033299Y-91194373D01*
X135078094Y-91186000D01*
X144671877Y-91186000D01*
X144738916Y-91205685D01*
X144766383Y-91229722D01*
X144808365Y-91279147D01*
X145080319Y-91536756D01*
X145080326Y-91536761D01*
X145080328Y-91536763D01*
X145287279Y-91694083D01*
X145293599Y-91699599D01*
X145923000Y-92329000D01*
X146894871Y-92329000D01*
X146901579Y-92329364D01*
X146956744Y-92335363D01*
X147132702Y-92354500D01*
X147132708Y-92354500D01*
X147507292Y-92354500D01*
X147507298Y-92354500D01*
X147688533Y-92334789D01*
X147738421Y-92329364D01*
X147745129Y-92329000D01*
X151580968Y-92329000D01*
X151648007Y-92348685D01*
X151675116Y-92372302D01*
X152069649Y-92832590D01*
X152098331Y-92896298D01*
X152099500Y-92913286D01*
X152099500Y-129408137D01*
X152079815Y-129475176D01*
X152063181Y-129495818D01*
X151801319Y-129757681D01*
X151739996Y-129791166D01*
X151713638Y-129794000D01*
X144450362Y-129794000D01*
X144383323Y-129774315D01*
X144362681Y-129757681D01*
X144054090Y-129449090D01*
X144020605Y-129387767D01*
X144017772Y-129361963D01*
X144016866Y-129159000D01*
X143973514Y-119448314D01*
X143992899Y-119381190D01*
X144045499Y-119335200D01*
X144065406Y-119327992D01*
X144194703Y-119293347D01*
X144393646Y-119200579D01*
X144573457Y-119074674D01*
X144728674Y-118919457D01*
X144854579Y-118739646D01*
X144947347Y-118540703D01*
X145004161Y-118328674D01*
X145023292Y-118110000D01*
X145018611Y-118056500D01*
X145012181Y-117983000D01*
X145004161Y-117891326D01*
X144947347Y-117679297D01*
X144854579Y-117480354D01*
X144854577Y-117480351D01*
X144854576Y-117480349D01*
X144728677Y-117300547D01*
X144728672Y-117300541D01*
X144573458Y-117145327D01*
X144573452Y-117145322D01*
X144393650Y-117019423D01*
X144393642Y-117019419D01*
X144249879Y-116952382D01*
X144197439Y-116906210D01*
X144178287Y-116839017D01*
X144198502Y-116772136D01*
X144249879Y-116727618D01*
X144257951Y-116723854D01*
X144393646Y-116660579D01*
X144573457Y-116534674D01*
X144728674Y-116379457D01*
X144854579Y-116199646D01*
X144947347Y-116000703D01*
X145004161Y-115788674D01*
X145023292Y-115570000D01*
X145004161Y-115351326D01*
X144947347Y-115139297D01*
X144854579Y-114940354D01*
X144854577Y-114940351D01*
X144854576Y-114940349D01*
X144728677Y-114760547D01*
X144728672Y-114760541D01*
X144573458Y-114605327D01*
X144573452Y-114605322D01*
X144393650Y-114479423D01*
X144393642Y-114479419D01*
X144249879Y-114412382D01*
X144197439Y-114366210D01*
X144178287Y-114299017D01*
X144198502Y-114232136D01*
X144249879Y-114187618D01*
X144393646Y-114120579D01*
X144573457Y-113994674D01*
X144728674Y-113839457D01*
X144854579Y-113659646D01*
X144947347Y-113460703D01*
X145004161Y-113248674D01*
X145023292Y-113030000D01*
X145004161Y-112811326D01*
X144947347Y-112599297D01*
X144854579Y-112400354D01*
X144854577Y-112400351D01*
X144854576Y-112400349D01*
X144728677Y-112220547D01*
X144728672Y-112220541D01*
X144573458Y-112065327D01*
X144573452Y-112065322D01*
X144393650Y-111939423D01*
X144393642Y-111939419D01*
X144249879Y-111872382D01*
X144197439Y-111826210D01*
X144178287Y-111759017D01*
X144198502Y-111692136D01*
X144249879Y-111647618D01*
X144393646Y-111580579D01*
X144573457Y-111454674D01*
X144728674Y-111299457D01*
X144854579Y-111119646D01*
X144947347Y-110920703D01*
X145004161Y-110708674D01*
X145023292Y-110490000D01*
X145004161Y-110271326D01*
X144947347Y-110059297D01*
X144854579Y-109860354D01*
X144854577Y-109860351D01*
X144854576Y-109860349D01*
X144728677Y-109680547D01*
X144728672Y-109680541D01*
X144573458Y-109525327D01*
X144573452Y-109525322D01*
X144393650Y-109399423D01*
X144393642Y-109399419D01*
X144194704Y-109306653D01*
X144194705Y-109306653D01*
X144019401Y-109259679D01*
X143959741Y-109223314D01*
X143929213Y-109160467D01*
X143927497Y-109140466D01*
X143910843Y-105410001D01*
X146760715Y-105410001D01*
X146779771Y-105554752D01*
X146779773Y-105554757D01*
X146835642Y-105689638D01*
X146835645Y-105689644D01*
X146924525Y-105805473D01*
X146924526Y-105805474D01*
X147040355Y-105894354D01*
X147040361Y-105894357D01*
X147080044Y-105910794D01*
X147175246Y-105950228D01*
X147247622Y-105959756D01*
X147319999Y-105969285D01*
X147320000Y-105969285D01*
X147320001Y-105969285D01*
X147368251Y-105962932D01*
X147464754Y-105950228D01*
X147599643Y-105894355D01*
X147715474Y-105805474D01*
X147804355Y-105689643D01*
X147860228Y-105554754D01*
X147879285Y-105410000D01*
X147860228Y-105265246D01*
X147804355Y-105130358D01*
X147715474Y-105014526D01*
X147715471Y-105014524D01*
X147715470Y-105014522D01*
X147614278Y-104936874D01*
X147573076Y-104880446D01*
X147568921Y-104810700D01*
X147603134Y-104749780D01*
X147614265Y-104740134D01*
X147715474Y-104662474D01*
X147804355Y-104546643D01*
X147860228Y-104411754D01*
X147879285Y-104267000D01*
X147860228Y-104122246D01*
X147804355Y-103987358D01*
X147715474Y-103871526D01*
X147599643Y-103782645D01*
X147599640Y-103782644D01*
X147599638Y-103782642D01*
X147464757Y-103726773D01*
X147464752Y-103726771D01*
X147320001Y-103707715D01*
X147319999Y-103707715D01*
X147175247Y-103726771D01*
X147175245Y-103726772D01*
X147040361Y-103782643D01*
X147040358Y-103782644D01*
X147040358Y-103782645D01*
X146924529Y-103871524D01*
X146924526Y-103871526D01*
X146835643Y-103987361D01*
X146779772Y-104122245D01*
X146779771Y-104122247D01*
X146760715Y-104266998D01*
X146760715Y-104267001D01*
X146779771Y-104411752D01*
X146779773Y-104411757D01*
X146835642Y-104546638D01*
X146835645Y-104546644D01*
X146870944Y-104592645D01*
X146924526Y-104662474D01*
X147025723Y-104740126D01*
X147066924Y-104796552D01*
X147071079Y-104866299D01*
X147036866Y-104927219D01*
X147025726Y-104936872D01*
X146924531Y-105014522D01*
X146924526Y-105014526D01*
X146835643Y-105130361D01*
X146779772Y-105265245D01*
X146779771Y-105265247D01*
X146760715Y-105409998D01*
X146760715Y-105410001D01*
X143910843Y-105410001D01*
X143891000Y-100965000D01*
X141986000Y-98933000D01*
X141985999Y-98933000D01*
X113589362Y-98933000D01*
X113522323Y-98913315D01*
X113501681Y-98896681D01*
X112522000Y-97917000D01*
X138605826Y-97917000D01*
X138624425Y-98046362D01*
X138624426Y-98046367D01*
X138669794Y-98145707D01*
X138678718Y-98165248D01*
X138764305Y-98264021D01*
X138874252Y-98334679D01*
X138874254Y-98334679D01*
X138874255Y-98334680D01*
X138999652Y-98371500D01*
X138999653Y-98371500D01*
X139130347Y-98371500D01*
X139255748Y-98334679D01*
X139365695Y-98264021D01*
X139451282Y-98165248D01*
X139460207Y-98145704D01*
X139505960Y-98092903D01*
X139572999Y-98073218D01*
X139640039Y-98092902D01*
X139685793Y-98145704D01*
X139694718Y-98165248D01*
X139780305Y-98264021D01*
X139890252Y-98334679D01*
X139890254Y-98334679D01*
X139890255Y-98334680D01*
X140015652Y-98371500D01*
X140015653Y-98371500D01*
X140146347Y-98371500D01*
X140271748Y-98334679D01*
X140381695Y-98264021D01*
X140467282Y-98165248D01*
X140521574Y-98046364D01*
X140540174Y-97917000D01*
X140521574Y-97787636D01*
X140521573Y-97787635D01*
X140521573Y-97787632D01*
X140467282Y-97668753D01*
X140467282Y-97668752D01*
X140381695Y-97569979D01*
X140271748Y-97499321D01*
X140271746Y-97499320D01*
X140271744Y-97499319D01*
X140146347Y-97462499D01*
X140137570Y-97461238D01*
X140137790Y-97459703D01*
X140080274Y-97442815D01*
X140034519Y-97390011D01*
X140024575Y-97356147D01*
X140013574Y-97279637D01*
X140013573Y-97279632D01*
X139959282Y-97160753D01*
X139959282Y-97160752D01*
X139873695Y-97061979D01*
X139763748Y-96991321D01*
X139763746Y-96991320D01*
X139763744Y-96991319D01*
X139638348Y-96954500D01*
X139638347Y-96954500D01*
X139507653Y-96954500D01*
X139507652Y-96954500D01*
X139382255Y-96991319D01*
X139272306Y-97061978D01*
X139186719Y-97160750D01*
X139186717Y-97160753D01*
X139132426Y-97279632D01*
X139132425Y-97279637D01*
X139121425Y-97356147D01*
X139092400Y-97419703D01*
X139033621Y-97457477D01*
X139008410Y-97461101D01*
X139008430Y-97461238D01*
X138999652Y-97462499D01*
X138874255Y-97499319D01*
X138764306Y-97569978D01*
X138678719Y-97668750D01*
X138678717Y-97668753D01*
X138624426Y-97787632D01*
X138624425Y-97787637D01*
X138605826Y-97917000D01*
X112522000Y-97917000D01*
X112431319Y-97826319D01*
X112397834Y-97764996D01*
X112395000Y-97738638D01*
X112395000Y-94107000D01*
X141145826Y-94107000D01*
X141164425Y-94236362D01*
X141164426Y-94236367D01*
X141218716Y-94355244D01*
X141218718Y-94355248D01*
X141304305Y-94454021D01*
X141414252Y-94524679D01*
X141414254Y-94524679D01*
X141414255Y-94524680D01*
X141539652Y-94561500D01*
X141539653Y-94561500D01*
X141670347Y-94561500D01*
X141795748Y-94524679D01*
X141905695Y-94454021D01*
X141991282Y-94355248D01*
X142020201Y-94291921D01*
X142038907Y-94250964D01*
X142084662Y-94198160D01*
X142151701Y-94178475D01*
X142169349Y-94179737D01*
X142174651Y-94180499D01*
X142174653Y-94180500D01*
X142174655Y-94180500D01*
X142305349Y-94180500D01*
X142310648Y-94179738D01*
X142379807Y-94189680D01*
X142432612Y-94235433D01*
X142441092Y-94250963D01*
X142488716Y-94355244D01*
X142488718Y-94355248D01*
X142574305Y-94454021D01*
X142684252Y-94524679D01*
X142684254Y-94524679D01*
X142684255Y-94524680D01*
X142809652Y-94561500D01*
X142809653Y-94561500D01*
X142940347Y-94561500D01*
X143065748Y-94524679D01*
X143175695Y-94454021D01*
X143261282Y-94355248D01*
X143299919Y-94270643D01*
X143315573Y-94236367D01*
X143315574Y-94236362D01*
X143315708Y-94235433D01*
X143334174Y-94107000D01*
X143315574Y-93977636D01*
X143315573Y-93977635D01*
X143315573Y-93977632D01*
X143261282Y-93858753D01*
X143261282Y-93858752D01*
X143175695Y-93759979D01*
X143065748Y-93689321D01*
X143065746Y-93689320D01*
X143065744Y-93689319D01*
X142940348Y-93652500D01*
X142940347Y-93652500D01*
X142809653Y-93652500D01*
X142809649Y-93652500D01*
X142804340Y-93653263D01*
X142735182Y-93643315D01*
X142682381Y-93597556D01*
X142673907Y-93582036D01*
X142626282Y-93477753D01*
X142626282Y-93477752D01*
X142540695Y-93378979D01*
X142430748Y-93308321D01*
X142430746Y-93308320D01*
X142430744Y-93308319D01*
X142305348Y-93271500D01*
X142305347Y-93271500D01*
X142174653Y-93271500D01*
X142174652Y-93271500D01*
X142049255Y-93308319D01*
X141939306Y-93378978D01*
X141853719Y-93477750D01*
X141853718Y-93477752D01*
X141853718Y-93477753D01*
X141806092Y-93582037D01*
X141760336Y-93634840D01*
X141693297Y-93654524D01*
X141675658Y-93653263D01*
X141670349Y-93652500D01*
X141670347Y-93652500D01*
X141539653Y-93652500D01*
X141539652Y-93652500D01*
X141414255Y-93689319D01*
X141304306Y-93759978D01*
X141218719Y-93858750D01*
X141218717Y-93858753D01*
X141164426Y-93977632D01*
X141164425Y-93977637D01*
X141145826Y-94107000D01*
X112395000Y-94107000D01*
X112395000Y-92456000D01*
X135557826Y-92456000D01*
X135576425Y-92585362D01*
X135576426Y-92585367D01*
X135630717Y-92704246D01*
X135630718Y-92704248D01*
X135716305Y-92803021D01*
X135826252Y-92873679D01*
X135826254Y-92873679D01*
X135826255Y-92873680D01*
X135951652Y-92910500D01*
X135951653Y-92910500D01*
X136082347Y-92910500D01*
X136207748Y-92873679D01*
X136317695Y-92803021D01*
X136403282Y-92704248D01*
X136457574Y-92585364D01*
X136476174Y-92456000D01*
X136457574Y-92326636D01*
X136457573Y-92326635D01*
X136457573Y-92326632D01*
X136403282Y-92207753D01*
X136403282Y-92207752D01*
X136317695Y-92108979D01*
X136207748Y-92038321D01*
X136207746Y-92038320D01*
X136207744Y-92038319D01*
X136082348Y-92001500D01*
X136082347Y-92001500D01*
X135951653Y-92001500D01*
X135951652Y-92001500D01*
X135826255Y-92038319D01*
X135716306Y-92108978D01*
X135630719Y-92207750D01*
X135630717Y-92207753D01*
X135576426Y-92326632D01*
X135576425Y-92326637D01*
X135557826Y-92456000D01*
X112395000Y-92456000D01*
X112395000Y-90348362D01*
X112414685Y-90281323D01*
X112431319Y-90260681D01*
X112993681Y-89698319D01*
X113055004Y-89664834D01*
X113081362Y-89662000D01*
X116585438Y-89662000D01*
X116652477Y-89681685D01*
G37*
G04 #@! TD.AperFunction*
M02*
